<svg width="435" height="300" viewBox="0 0 435 300" fill="none" xmlns="http://www.w3.org/2000/svg">
<g clip-path="url(#clip0_2640_1497)">
<path d="M430.058 113.553H429.94L362.665 142.294L270.618 181.618C270.258 181.77 269.872 181.849 269.482 181.851C269.092 181.853 268.705 181.778 268.344 181.63L173.378 142.212L104.45 113.6L104.345 113.553H104.227C103.14 113.555 102.097 113.987 101.328 114.757C100.559 115.526 100.126 116.57 100.125 117.658V295.896C100.126 296.984 100.559 298.027 101.328 298.797C102.097 299.566 103.14 299.999 104.227 300H430.058C431.145 299.999 432.188 299.566 432.957 298.797C433.726 298.027 434.159 296.984 434.16 295.896V117.658C434.159 116.57 433.726 115.526 432.957 114.757C432.188 113.987 431.145 113.555 430.058 113.553Z" fill="white"/>
<path d="M431.233 114.726C431.113 114.726 430.996 114.689 430.898 114.621L268.828 1.69566C268.334 1.3536 267.748 1.1708 267.148 1.17183C266.548 1.17285 265.963 1.35765 265.471 1.70138L104.567 114.62C104.504 114.664 104.433 114.695 104.358 114.712C104.283 114.729 104.205 114.731 104.129 114.717C104.054 114.704 103.981 114.676 103.916 114.635C103.851 114.593 103.795 114.54 103.751 114.476C103.707 114.413 103.675 114.342 103.659 114.267C103.642 114.192 103.64 114.114 103.653 114.038C103.667 113.963 103.695 113.89 103.736 113.825C103.777 113.76 103.831 113.704 103.894 113.66L264.798 0.741186C265.486 0.260031 266.306 0.00138699 267.146 5.56266e-06C267.986 -0.00137586 268.807 0.254569 269.497 0.733456L431.568 113.658C431.671 113.73 431.747 113.832 431.788 113.95C431.828 114.068 431.83 114.196 431.792 114.315C431.755 114.435 431.68 114.539 431.58 114.612C431.479 114.686 431.358 114.726 431.233 114.726L431.233 114.726Z" fill="#3F3D56"/>
<path d="M113.762 118.729L267.307 4.87756L422.018 126.83L275.218 213.897L195.519 195.721L113.762 118.729Z" fill="#E6E6E6"/>
<path d="M202.244 267.675H126.388C125.923 267.675 125.461 267.584 125.031 267.406C124.6 267.228 124.209 266.967 123.879 266.638C123.55 266.309 123.288 265.918 123.11 265.487C122.932 265.057 122.84 264.595 122.84 264.129C122.84 263.663 122.932 263.202 123.11 262.771C123.288 262.341 123.55 261.95 123.879 261.62C124.209 261.291 124.6 261.03 125.031 260.852C125.461 260.674 125.923 260.583 126.388 260.583H202.244C202.709 260.583 203.171 260.674 203.601 260.852C204.032 261.03 204.423 261.291 204.753 261.62C205.082 261.95 205.344 262.341 205.522 262.771C205.7 263.202 205.792 263.663 205.792 264.129C205.792 264.595 205.7 265.057 205.522 265.487C205.344 265.918 205.082 266.309 204.753 266.638C204.423 266.967 204.032 267.228 203.601 267.406C203.171 267.584 202.709 267.675 202.244 267.675Z" fill="#3056D3"/>
<path d="M153.604 252.431H126.388C125.923 252.431 125.461 252.34 125.031 252.162C124.6 251.984 124.209 251.723 123.879 251.394C123.55 251.064 123.288 250.673 123.11 250.243C122.932 249.812 122.84 249.351 122.84 248.885C122.84 248.419 122.932 247.958 123.11 247.527C123.288 247.097 123.55 246.706 123.879 246.376C124.209 246.047 124.6 245.786 125.031 245.608C125.461 245.43 125.923 245.339 126.388 245.339H153.604C154.069 245.339 154.531 245.43 154.961 245.608C155.392 245.786 155.783 246.047 156.112 246.376C156.442 246.706 156.703 247.097 156.882 247.527C157.06 247.958 157.152 248.419 157.152 248.885C157.152 249.351 157.06 249.812 156.882 250.243C156.703 250.673 156.442 251.064 156.112 251.394C155.783 251.723 155.392 251.984 154.961 252.162C154.531 252.34 154.069 252.431 153.604 252.431Z" fill="#3056D3"/>
<path d="M269.464 182.143C268.887 182.143 268.316 182.031 267.782 181.813L173.086 142.502V19.4506C173.087 18.3625 173.52 17.3193 174.289 16.5499C175.058 15.7805 176.101 15.3477 177.188 15.3464H358.856C359.944 15.3477 360.987 15.7805 361.756 16.5499C362.525 17.3193 362.957 18.3625 362.958 19.4506V142.588L362.781 142.664L271.196 181.794C270.648 182.025 270.059 182.143 269.464 182.143Z" fill="white"/>
<path d="M269.464 182.436C268.849 182.436 268.24 182.317 267.671 182.085L172.793 142.698V19.4505C172.794 18.2847 173.258 17.167 174.082 16.3426C174.906 15.5183 176.023 15.0545 177.188 15.0532H358.856C360.022 15.0545 361.139 15.5183 361.963 16.3426C362.787 17.167 363.25 18.2847 363.252 19.4505V142.781L271.311 182.063C270.727 182.31 270.098 182.436 269.464 182.436ZM173.965 141.914L268.118 181C268.996 181.357 269.98 181.351 270.853 180.984L362.08 142.007V19.4505C362.079 18.5956 361.739 17.776 361.135 17.1715C360.53 16.5669 359.711 16.2269 358.856 16.2258H177.188C176.334 16.2269 175.514 16.5669 174.91 17.1715C174.306 17.776 173.966 18.5956 173.965 19.4505V141.914Z" fill="#3F3D56"/>
<path d="M430.058 113.553H429.94L362.665 142.294L270.618 181.618C270.258 181.77 269.872 181.848 269.482 181.851C269.092 181.853 268.705 181.778 268.344 181.63L173.378 142.212L104.45 113.6L104.345 113.553H104.227C103.14 113.555 102.097 113.987 101.328 114.757C100.559 115.526 100.126 116.57 100.125 117.658V295.896C100.126 296.984 100.559 298.027 101.328 298.797C102.097 299.566 103.14 299.999 104.227 300H430.058C431.145 299.999 432.188 299.566 432.957 298.797C433.726 298.027 434.159 296.984 434.16 295.896V117.658C434.159 116.57 433.726 115.526 432.957 114.757C432.188 113.987 431.145 113.555 430.058 113.553ZM432.988 295.896C432.988 296.673 432.679 297.419 432.129 297.968C431.58 298.518 430.835 298.827 430.058 298.827H104.227C103.45 298.827 102.705 298.518 102.156 297.968C101.606 297.419 101.297 296.673 101.297 295.896V117.658C101.298 116.9 101.592 116.171 102.117 115.625C102.643 115.079 103.359 114.756 104.116 114.726L173.378 143.479L267.893 182.715C268.916 183.131 270.062 183.125 271.081 182.697L362.665 143.567L430.175 114.726C430.931 114.759 431.645 115.082 432.169 115.628C432.693 116.174 432.986 116.901 432.988 117.658V295.896Z" fill="#3F3D56"/>
<path d="M254.721 61.3434H190.259C189.015 61.3434 187.823 60.8492 186.943 59.9696C186.064 59.0899 185.57 57.8969 185.57 56.6529C185.57 55.4089 186.064 54.2158 186.943 53.3362C187.823 52.4566 189.015 51.9624 190.259 51.9624H254.721C255.965 51.9624 257.157 52.4566 258.036 53.3362C258.916 54.2158 259.41 55.4089 259.41 56.6529C259.41 57.8969 258.916 59.0899 258.036 59.9696C257.157 60.8492 255.965 61.3434 254.721 61.3434Z" fill="#3056D3"/>
<path d="M221.318 41.4088H190.259C189.015 41.4088 187.823 40.9147 186.943 40.035C186.064 39.1554 185.57 37.9623 185.57 36.7183C185.57 35.4743 186.064 34.2813 186.943 33.4017C187.823 32.522 189.015 32.0278 190.259 32.0278H221.318C222.561 32.0278 223.754 32.522 224.633 33.4017C225.512 34.2813 226.006 35.4743 226.006 36.7183C226.006 37.9623 225.512 39.1554 224.633 40.035C223.754 40.9147 222.561 41.4088 221.318 41.4088Z" fill="#3056D3"/>
<path d="M316.238 108.248H217.786C216.542 108.248 215.35 107.754 214.471 106.874C213.592 105.995 213.098 104.802 213.098 103.558C213.098 102.314 213.592 101.121 214.471 100.241C215.35 99.3614 216.542 98.8672 217.786 98.8672H316.238C317.482 98.8672 318.674 99.3614 319.553 100.241C320.433 101.121 320.927 102.314 320.927 103.558C320.927 104.802 320.433 105.995 319.553 106.874C318.674 107.754 317.482 108.248 316.238 108.248Z" fill="#CCCCCC"/>
<path d="M316.238 129.942H217.786C216.542 129.942 215.35 129.448 214.471 128.568C213.592 127.688 213.098 126.495 213.098 125.251C213.098 124.007 213.592 122.814 214.471 121.935C215.35 121.055 216.542 120.561 217.786 120.561H316.238C317.482 120.561 318.674 121.055 319.553 121.935C320.433 122.814 320.927 124.007 320.927 125.251C320.927 126.495 320.433 127.688 319.553 128.568C318.674 129.448 317.482 129.942 316.238 129.942Z" fill="#CCCCCC"/>
<path d="M23.9963 135.425C23.3872 135.424 22.7972 135.212 22.3261 134.826C21.8551 134.44 21.5319 133.902 21.4113 133.305L19.2789 122.67C18.1481 117.029 19.3034 111.169 22.4907 106.38C25.678 101.591 30.6363 98.2651 36.2747 97.1336C41.9131 96.0022 47.7699 97.1581 52.5565 100.347C57.3432 103.536 60.6676 108.496 61.7985 114.138L63.9302 124.773C64.067 125.459 63.9263 126.171 63.5388 126.753C63.1514 127.335 62.549 127.74 61.8637 127.878L24.516 135.373C24.3449 135.407 24.1708 135.425 23.9963 135.425Z" fill="#212B36"/>
<path d="M90.2991 293.776L83.5997 293.775L80.4141 267.921L90.3015 267.922L90.2991 293.776Z" fill="#C1848D"/>
<path d="M78.8148 291.86H91.7354V299.999H70.6797C70.6797 297.84 71.5368 295.77 73.0624 294.244C74.588 292.717 76.6572 291.86 78.8148 291.86Z" fill="#212B36"/>
<path d="M20.4933 293.708L14.3242 291.094L21.4667 266.044L30.5712 269.902L20.4933 293.708Z" fill="#C1848D"/>
<path d="M10.6629 287.464L22.5604 292.505L19.3876 300L-0.000855363 291.784C0.415795 290.8 1.02212 289.907 1.78352 289.158C2.54491 288.408 3.44646 287.816 4.43668 287.414C5.4269 287.013 6.48641 286.811 7.5547 286.82C8.623 286.828 9.67917 287.047 10.6629 287.464Z" fill="#212B36"/>
<path d="M41.1512 132.76C49.1005 132.76 55.5446 126.312 55.5446 118.359C55.5446 110.406 49.1005 103.959 41.1512 103.959C33.202 103.959 26.7578 110.406 26.7578 118.359C26.7578 126.312 33.202 132.76 41.1512 132.76Z" fill="#C1848D"/>
<path d="M41.8323 183.869L41.6847 183.389C37.7626 170.634 33.7086 157.451 29.6489 144.912L29.5391 144.574L29.7886 144.32C36.0901 137.907 47.8952 135.348 57.249 138.371C66.6629 141.412 73.1502 149.94 72.3393 158.209C71.9079 163.176 73.2418 168.137 76.1063 172.218L76.4818 172.763L75.8947 173.07C65.3786 178.484 54.0351 182.109 42.3292 183.797L41.8323 183.869Z" fill="#3F3D56"/>
<path d="M24.4756 289.063C23.9624 289.062 23.4584 288.926 23.0144 288.668L15.2394 284.176C14.6016 283.812 14.1247 283.22 13.9041 282.519C13.6835 281.819 13.7355 281.06 14.0496 280.396L31.3261 239.383L44.5297 179.565L68.5924 170.811L68.8111 170.912C94.609 182.768 92.6149 267.749 91.953 284.665C91.9233 285.376 91.6359 286.053 91.1444 286.568C90.6529 287.083 89.9908 287.402 89.2817 287.465L82.046 288.411C81.3103 288.476 80.577 288.263 79.9904 287.814C79.4038 287.365 79.0063 286.713 78.876 285.986L64.1041 219.935C64.0892 219.81 64.0342 219.693 63.9474 219.601C63.8606 219.509 63.7465 219.448 63.6221 219.426C63.5028 219.403 63.3794 219.419 63.2696 219.471C63.1598 219.523 63.0693 219.608 63.0113 219.715L27.0379 287.56C26.8484 287.9 26.5926 288.199 26.2857 288.44C25.9788 288.68 25.6269 288.856 25.2508 288.958C24.9982 289.027 24.7375 289.062 24.4756 289.063Z" fill="#212B36"/>
<path d="M33.1171 228.786C33.5715 228.123 33.875 227.369 34.0064 226.576C34.1378 225.783 34.0939 224.971 33.8776 224.197C33.6614 223.423 33.2781 222.706 32.7548 222.096C32.2316 221.486 31.581 220.998 30.849 220.667L31.2425 208.11L23.6734 206.01L23.3667 223.751C22.8922 225.018 22.8989 226.415 23.3854 227.678C23.8719 228.94 24.8044 229.981 26.0063 230.601C27.2081 231.222 28.5958 231.38 29.9064 231.046C31.217 230.711 32.3594 229.907 33.1171 228.786H33.1171Z" fill="#C1848D"/>
<path d="M23.477 215.513L23.0327 215.511C22.3005 215.506 21.5971 215.225 21.0624 214.725C20.5278 214.224 20.2012 213.54 20.1477 212.81C19.4217 203.457 17.1923 171.6 18.9878 154.329C19.2256 152.717 19.7845 151.169 20.6311 149.778C21.4778 148.386 22.5951 147.178 23.9168 146.226C25.2385 145.275 26.7377 144.598 28.3256 144.236C29.9135 143.875 31.5578 143.836 33.161 144.122L33.6231 144.224L33.6197 144.698C33.4551 167.422 33.4657 190.014 33.476 211.862C33.4776 212.529 33.2517 213.176 32.8356 213.698C32.4195 214.219 31.8381 214.583 31.1874 214.728C28.6509 215.254 26.0672 215.516 23.477 215.513Z" fill="#3056D3"/>
<path d="M40.7079 242.767C38.7703 242.758 36.9023 242.043 35.4542 240.755C34.006 239.467 33.0772 237.695 32.8417 235.771L33.4791 183.325L23.0601 156.959C22.6217 153.495 23.3664 149.985 25.1732 146.998C26.9801 144.011 29.7431 141.723 33.0136 140.505L35.7989 139.46C36.3252 139.262 36.8853 139.171 37.4471 139.19C38.0089 139.21 38.5612 139.34 39.0724 139.574C39.5837 139.808 40.0438 140.14 40.4263 140.552C40.8088 140.965 41.1062 141.448 41.3015 141.975L52.045 170.996L52.0477 171.039C52.7927 182.589 56.1549 240.076 49.4512 241.791C46.6107 242.457 43.7014 242.784 40.784 242.766L40.7079 242.767Z" fill="#3056D3"/>
<path d="M102.602 208.986C101.858 208.684 101.188 208.222 100.642 207.633C100.095 207.044 99.6838 206.343 99.4374 205.578C99.1909 204.813 99.1152 204.003 99.2154 203.206C99.3156 202.408 99.5893 201.642 100.017 200.962L92.7656 190.705L97.9208 184.776L107.958 199.405C109.053 200.2 109.818 201.369 110.108 202.691C110.398 204.012 110.194 205.394 109.534 206.575C108.874 207.757 107.803 208.654 106.526 209.098C105.248 209.543 103.852 209.503 102.602 208.986H102.602Z" fill="#C1848D"/>
<path d="M95.3619 195.805C94.9831 195.793 94.6126 195.691 94.2815 195.507C93.9505 195.322 93.6686 195.061 93.4595 194.745L93.4214 194.687C81.4224 176.517 69.0151 157.729 56.4401 138.999L56.3047 138.797L56.4777 138.627C57.5807 137.597 58.8805 136.8 60.2989 136.286C61.7172 135.771 63.225 135.549 64.7315 135.632C66.2824 135.66 67.8099 136.016 69.2142 136.675C70.6185 137.334 71.8681 138.282 72.8814 139.457C83.8702 152.834 99.5535 180.598 104.098 188.789C104.385 189.297 104.47 189.895 104.336 190.464C104.202 191.032 103.859 191.529 103.375 191.856C101.144 193.376 98.7532 194.648 96.2461 195.65C95.9648 195.761 95.664 195.813 95.3619 195.805Z" fill="#3056D3"/>
<path d="M91.3337 231.078C84.1466 231.082 58.432 181.545 53.3502 171.614L53.3062 171.494L47.6846 141.107C47.5823 140.554 47.5901 139.986 47.7077 139.436C47.8252 138.886 48.0502 138.365 48.3696 137.902C48.6891 137.439 49.0967 137.044 49.5692 136.74C50.0416 136.435 50.5695 136.227 51.1226 136.127L54.0505 135.597C57.483 134.968 61.0273 135.517 64.1081 137.157C67.1889 138.797 69.6253 141.43 71.0216 144.63L78.3673 175.521L102.929 217.273C103.736 219.062 103.855 221.086 103.262 222.957C102.67 224.828 101.409 226.414 99.7199 227.412C97.2233 228.923 94.5568 230.132 91.7759 231.016C91.6322 231.057 91.4833 231.078 91.3337 231.078H91.3337Z" fill="#3056D3"/>
<path d="M52.3325 118.484H23.3242V114.966C23.3286 111.08 24.8735 107.354 27.6201 104.606C30.3667 101.858 34.0906 100.313 37.9749 100.308H40.319C44.2032 100.313 47.9272 101.858 50.6738 104.606C53.4203 107.354 54.9653 111.08 54.9696 114.966V115.846C54.9689 116.545 54.6908 117.216 54.1964 117.71C53.702 118.205 53.0317 118.483 52.3325 118.484Z" fill="#212B36"/>
</g>
<defs>
<clipPath id="clip0_2640_1497">
<rect width="434.161" height="300" fill="white"/>
</clipPath>
</defs>
</svg>
