<svg width="357" height="414" viewBox="0 0 357 414" fill="none" xmlns="http://www.w3.org/2000/svg">
<path fill-rule="evenodd" clip-rule="evenodd" d="M64.4375 276.48C77.0227 269.844 89.6074 263.208 102.192 256.572C114.126 283.14 144.085 300.187 172.881 293.901C179.9 292.369 186.858 288.905 190.227 282.219C192.762 277.191 192.858 271.287 191.71 265.869C190.743 261.304 188.943 256.486 185.998 252.812C182.297 248.195 176.609 244.65 172.005 241.028C164.872 235.414 157.674 229.882 150.457 224.377C149.511 223.656 146.876 222.359 146.346 221.25C145.902 220.321 146.346 218.065 146.346 217.047V212.259C156.817 216.074 168.496 218.173 179.625 217.601C198.153 216.648 213.029 203.252 226.243 191.354C228.599 189.233 230.915 187.066 233.176 184.843C233.609 184.417 234.705 182.842 235.31 182.724C236.118 182.564 238.244 183.901 238.987 184.2C241.559 185.232 244.131 186.265 246.703 187.298C252.965 189.811 259.26 191.865 264.914 195.557C288.908 211.227 314.434 230.386 325.341 257.837C331.54 273.44 335.237 290.101 337.494 306.716C337.801 308.982 338.59 311.803 338.197 314.067C337.476 318.217 335.117 322.614 333.693 326.564C331.884 331.583 330.075 336.602 328.266 341.622C328.066 342.175 327.819 343.574 327.356 343.922C326.39 344.647 323.165 344.4 322.005 344.527C315.344 345.258 308.665 346 301.972 346.367C295.956 346.697 290.345 345.16 284.608 343.448C281.414 342.495 278.244 341.464 275.091 340.388C274.382 340.146 270.913 339.494 270.509 338.782C270.331 338.469 270.928 337.002 271.01 336.659C271.533 334.472 272.015 332.276 272.471 330.075C275.69 314.535 278.06 298.247 276.702 282.357C275.286 265.802 266.084 252.723 254.491 241.399C250.225 237.233 245.688 233.337 240.938 229.737C240.106 229.106 238.586 227.461 237.534 227.251C236.688 227.081 236.053 227.786 235.21 228.337C232.768 229.93 230.326 231.523 227.884 233.115C227.228 233.543 224.668 234.672 224.431 235.426C224.231 236.061 225.275 238.162 225.449 238.773C226.19 241.36 226.851 243.97 227.448 246.594C231.364 263.781 233.193 282.594 228.382 299.784C223.84 316.018 213.347 330.627 199.271 339.87C184.709 349.433 167.774 351.799 150.872 348.507C120.812 342.649 89.9934 325.037 73.6218 298.494C69.4302 291.698 66.2634 284.267 64.4375 276.48Z" fill="#3056D3"/>
<path fill-rule="evenodd" clip-rule="evenodd" d="M334.816 313.107C333.649 322.349 329.512 331.131 324.391 338.817C323.716 337.481 324.532 336.377 322.663 336.123C321.408 335.952 319.748 336.838 318.51 337.049C313.918 337.829 309.097 337.229 304.51 336.738C305.698 335.45 307.27 334.407 306.678 332.312C306.23 330.73 304.288 330.115 303.53 328.653C304.564 328.205 307.406 330.464 308.401 330.846C307.908 329.605 306.229 327.383 306.59 326.021C306.854 325.018 308.155 325.211 307.072 323.926C306.578 324.367 304.995 326.497 304.132 325.968C304.967 325.216 304.357 324.805 304.724 324.048C305.008 323.464 305.26 323.18 305.654 322.67C306.672 321.351 307.34 319.665 306.045 318.117C305.612 317.599 304.87 317.709 304.464 317.124C304.072 316.56 304.154 315.898 304.048 315.264C303.928 314.553 303.986 313.752 303.79 313.056C303.383 311.617 303.226 311.639 303.922 310.156C303.208 310.768 302.494 311.379 301.78 311.991C301.425 310.49 301.162 308.898 300.429 307.524C300.181 307.059 298.856 305.833 298.914 305.349C298.743 306.759 297.611 305.096 297.149 304.98C295.694 304.614 293.124 306.048 292.015 306.933C288.95 309.378 287.122 314.037 285.187 317.373C283.061 321.038 280.926 325.106 280.367 329.319C280.227 330.367 280.194 332.572 279.007 333.101C278.368 333.386 275.706 332.622 275.047 332.241C273.437 331.309 274.001 329.914 274.625 328.437C275.434 326.526 276.161 324.888 276.534 322.815C276.979 320.335 277.3 317.827 277.686 315.336C278.496 310.115 279.309 304.868 279.725 299.598C279.859 297.912 279.646 296.233 279.71 294.586C279.766 293.148 280.87 291.488 280.258 289.773C280.048 289.186 279.611 289.049 279.64 288.551C279.659 288.242 280.447 288.532 280.553 288.126C280.757 287.335 280.001 286.525 279.808 285.792C279.501 284.633 279.736 283.563 279.913 282.402C280.631 277.684 279.302 272.718 278.034 268.18C276.664 263.277 274.803 258.559 272.894 253.847C271.213 249.699 270.506 245.197 268.527 241.169C266.817 237.69 264.949 234.237 261.867 231.984C260.455 230.952 259.435 229.392 258.091 228.252C257.29 227.573 256.431 226.844 255.468 226.407C254.537 225.986 253.424 226.231 252.576 225.833C251.397 225.28 250.09 223.891 248.83 223.348C247.742 222.879 246.494 222.559 245.477 221.576C244.097 220.244 243.84 219.356 241.902 219.1C240.781 218.953 239.669 219.018 238.874 217.905C235.727 213.499 244.215 207.138 240.285 202.542C238.721 204.118 238.053 206.359 237.297 208.386C236.308 211.041 234.915 213.277 233.349 215.629C230.608 219.747 226.52 223.923 225.342 228.835C223.423 226.154 222.342 224.556 219.445 227.207C218.9 226.006 219.618 223.719 218.535 222.948C216.63 221.59 212.996 224.969 211.957 226.196C207.889 230.997 205.616 236.842 203.383 242.682C202.397 245.261 201.337 248.527 202.594 251.196C203.706 253.557 206.352 254.852 208.606 255.865C211.797 257.298 214.438 257.223 217.829 257.582C219.385 257.746 220.788 258.424 222.271 257.634C223.556 256.95 224.472 255.584 225.588 254.677C225.85 255.53 226.531 256.279 227.397 255.524C228.665 260.845 229.928 266.052 229.622 271.566C229.341 276.625 228.899 281.705 227.995 286.694C227.063 291.839 225.973 297.068 223.944 301.906C221.936 306.694 218.858 310.911 216.054 315.245C215.201 313.506 214.184 314.365 212.95 315.181C212.46 314.14 213.089 313.346 212.408 312.424C211.97 312.166 211.578 311.848 211.232 311.468C211.113 310.728 210.945 309.998 210.731 309.28C209.636 309.726 209.171 310.255 208.671 311.302C207.022 308.402 205.854 308.77 202.785 308.957C198.673 309.206 197.359 312.76 195.999 316.098C195.675 316.893 195.076 317.894 195.005 318.775C194.954 319.397 195.507 320.439 195.432 320.76C195.277 321.421 194.679 320.87 194.517 321.196C193.924 322.394 193.772 324.091 193.456 325.39C192.613 328.863 192.357 334.477 188.932 336.453C186.066 338.107 181.952 338.498 178.737 339.121C173.68 340.101 168.326 340.278 163.187 340.306C158.594 340.331 153.103 340.883 148.743 339.154C148.104 338.901 145.081 337.481 145.785 336.758C146.091 336.444 147.747 336.963 148.086 337.144C147.856 337.022 147.685 335.614 147.569 335.295C147.138 334.108 146.806 334.067 145.987 333.169C144.169 331.177 146.623 332.096 146.458 330.668C146.426 330.392 144.481 331.104 144.535 331.086C144.598 330.651 144.999 329.751 144.793 329.315C144.943 329.634 143.671 326.955 143.822 327.565C143.528 326.381 144.354 325.214 144.184 324.069C143.941 322.446 142.753 322.77 141.823 321.81C141.504 321.48 141.377 320.812 141.063 320.434C140.927 320.27 140.429 320.241 140.378 320.152C140.038 319.562 140.06 319.464 140.417 318.222C139.727 318.524 137.912 319.772 137.209 319.092C136.364 318.272 138.138 317.311 136.67 316.747C136.079 316.52 135.74 317.155 135.212 317.176C134.858 317.189 134.789 316.316 134.347 316.546C133.557 316.956 133.353 318.677 133.004 319.423C131.033 314.398 124.676 322.657 123.503 324.596C122.415 326.391 122.354 329.937 119.67 329.662C118.261 329.517 116.643 327.978 115.519 327.225C113.871 326.119 112.109 325.2 110.405 324.181C102.843 319.656 95.7135 314.667 89.0178 308.934C86.5543 306.824 83.2574 304.206 82.9295 300.938C82.7981 299.629 82.6392 298.434 82.2758 297.109C81.5446 294.444 80.578 294.913 78.4441 293.461C79.2987 291.775 80.5193 291.688 80.445 289.648C80.3842 287.991 79.7488 286.337 79.1915 284.808C78.4797 282.858 78.1356 280.665 76.0496 280.124C73.828 279.547 73.4731 280.626 72.0026 282.184C72.1544 281.345 72.8334 279.216 71.8911 278.675C70.5789 277.921 69.8709 280.703 68.8408 281.004C67.954 279.026 64.9526 275.947 67.0531 273.982C68.1128 272.991 70.1719 272.611 71.4857 272.01C73.4387 271.118 75.3346 270.096 77.231 269.091C85.6605 264.626 93.8466 259.752 102.208 255.165C103.682 258.575 104.998 262.064 106.697 265.374C108.114 268.134 110.647 270.748 110.545 274.016C110.44 277.417 108.898 280.763 108.53 284.165C108.286 286.418 108.623 287.306 111.105 286.523C111.32 288.075 113.824 290.324 115.16 291.114C117.31 292.385 119.451 290.057 120.951 288.614C122.011 289.62 122.235 291.107 123.109 292.229C123.549 291.757 123.483 290.418 123.763 290.2C124.031 289.99 124.969 290.451 125.162 290.445C125.455 290.437 125.207 289.606 125.444 289.596C126.201 291.459 127.949 288.342 129.629 289.62C129.427 288.641 129.703 288.305 130.543 287.838C130.978 289.863 132.76 288.91 134.298 289.134C137.03 289.53 139.698 291.06 142.383 291.754C147.917 293.183 153.141 293.974 158.839 293.882C161.119 293.845 162.078 294.191 163.422 295.97C163.934 296.646 164.181 297.494 165.069 297.813C166.369 298.282 166.443 297.409 167.497 297.162C168.57 296.91 168.006 296.641 169.017 297.171C169.637 297.498 170.005 298.533 170.512 299.017C171.949 300.388 173.475 300.908 174.676 299.029C174.904 299.716 175.163 299.927 175.703 300.381C175.626 299.297 175.464 297.128 177.255 297.641C178.593 298.023 177.971 299.946 179.871 299.613C180.936 299.426 181.821 297.888 182.459 297.114C183.332 296.053 183.37 297.509 183.541 295.697C183.643 294.622 182.94 293.286 182.514 292.349C184.109 292.677 184.394 294.364 185.98 294.513C187.756 294.679 188.664 292.322 190.386 292.775C190.219 292.378 189.576 291.056 189.859 290.665C190.294 290.063 190.917 291.491 191.596 291.356C192.335 291.209 193.156 289.201 193.001 288.525C192.692 287.177 191.124 287.517 190.527 286.448C189.982 285.471 190.464 283.681 190.438 282.623C190.403 281.181 190.068 279.719 190.318 278.279C190.582 276.764 191.346 275.511 192.39 274.393C193.115 273.616 195.134 272.413 193.365 271.52C196.5 270.363 194.649 267.129 194.893 264.44C195.045 262.769 195.719 261.552 195.346 259.754C194.901 257.604 193.753 255.604 192.565 253.786C191.382 251.975 190.164 250.294 188.405 249.013C187.928 248.691 187.45 248.37 186.972 248.048C186.643 247.587 186.229 247.453 185.73 247.647C184.921 247.032 184.773 246.532 184.176 245.653C182.673 243.44 180.01 242.348 177.8 241.034C175.678 239.772 173.832 238.036 171.608 236.952C171.619 236.957 169.272 235.946 169.469 236.209C168.66 235.129 169.484 233.792 169.442 232.627C169.399 231.431 168.681 230.905 168.346 229.873C167.947 228.647 168.664 227.123 167.942 226.026C167.66 225.599 167.108 225.479 166.765 225.102C166.181 224.461 165.921 223.597 165.302 222.966C164.695 223.682 164.088 224.398 163.481 225.114C162.764 223.373 162.622 222.92 161.152 224.574C158.909 227.099 157.638 226.01 155.81 223.663C155.206 222.888 154.503 222.735 154.051 222.166C153.331 221.26 154.105 219.673 153.077 218.882C152.478 218.421 151.641 218.887 151.137 218.094C150.516 217.119 151.529 215.67 150.957 214.577C159.547 217.293 168.312 219.458 177.389 218.798C186.207 218.157 195.212 215.997 203.304 212.42C217.345 206.213 231.039 196.003 236.558 181.195C237.94 182.816 237.652 185.772 239.178 187.26C241.445 189.471 241.241 185.051 241.241 183.644C243.058 184.13 245.652 184.9 245.8 187.112C245.949 189.347 243.937 191.676 243.229 193.709C242.518 195.752 242.163 198.115 242.336 200.274C242.422 201.352 242.622 202.469 243.162 203.423C243.822 204.588 244.555 204.53 245.44 205.062C245.295 204.975 246.548 205.821 246.51 205.812C249.148 206.445 251.265 208.424 254.099 207.707C255.925 207.246 257.689 205.912 258.362 208.58C259.631 207.727 259.788 207.069 259.753 205.812C259.738 205.268 258.964 204.803 259.739 204.631C259.997 204.574 260.958 205.74 261.335 205.848C262.375 206.145 262.775 205.728 263.277 204.947C263.566 204.496 263.585 201.452 263.932 201.388C264.667 201.252 266.201 204.385 266.61 204.947C266.61 195.962 275.993 206.375 278.912 208.359C281.288 209.974 283.869 211.405 285.861 213.512C288.398 216.197 287.664 217.756 285.951 220.658C284.055 223.87 282.684 227.612 280.959 230.961C280.093 232.641 279.056 234.659 279.08 236.612C279.089 237.271 279.469 237.951 279.433 238.591C279.381 239.516 278.933 239.908 278.56 240.718C277.488 243.05 278.449 245.835 280.715 246.989C282.167 247.73 283.661 248.197 285.064 249.053C286.546 249.956 288.012 250.931 289.817 250.993C290.984 251.033 291.629 250.721 292.755 251.07C293.519 251.307 294.157 251.994 295.042 251.907C296.812 251.733 298.111 249.782 299.929 249.38C301.275 249.083 303.022 249.256 303.88 247.937C304.944 246.301 302.918 244.671 304.534 243.164C304.98 243.995 305.275 244.942 305.381 245.878C305.859 244.621 306.051 243.611 306.755 242.484C307.49 241.307 307.908 240.541 307.895 239.055C307.872 236.389 306.581 233.905 305.935 231.368C308.196 231.493 310.058 235.383 311.044 237.015C312.863 240.025 314.744 242.995 316.553 246.011C318.823 249.796 321.708 253.958 323.168 258.139C324.485 261.911 321.297 264.338 319.542 267.405C317.465 271.034 316.836 274.508 315.702 278.4C314.795 281.513 314.691 284.97 317.236 287.332C318.372 288.386 319.816 288.999 321.23 289.571C322.917 290.256 323.362 291.508 325.173 291.868C326.616 292.155 328.216 292.297 329.694 292.251C332.223 292.172 331.304 291.339 332.706 289.744C332.268 291.242 333.75 292.663 334.161 294.036C334.737 295.958 334.869 298.081 335.106 300.067C335.627 304.424 335.364 308.768 334.816 313.107ZM300.955 353.005C298.682 352.491 295.296 352.8 293.253 351.671C291.836 350.889 292.478 350.135 293.065 348.657C294.657 344.65 299.092 344.205 303.017 345.296C302.33 347.866 301.643 350.436 300.955 353.005ZM305.046 383.095C312.254 386.995 320.116 391.175 325.915 397.033C327.278 398.409 330.962 401.468 330.471 403.721C329.957 406.073 325.327 405.617 323.616 405.554C315.331 405.252 307.572 403.177 300.15 399.541C293.052 396.064 286.211 392.506 281.047 386.368C278.954 383.882 275.124 380.046 275.558 376.497C275.99 372.973 279.612 370.303 281.533 367.539C283.417 364.828 285.754 358.899 289.27 358.001C290.803 357.61 292.344 358.474 293.773 358.908C295.138 359.322 297.204 359.32 298.372 360.233C300.486 361.886 299.64 365.699 297.419 366.766C295.941 367.475 294.221 367.781 292.67 368.296C290.927 368.874 282.128 371.522 285.405 374.521C287.686 376.608 291.747 374.059 294.191 373.478C295.446 373.18 297.463 372.794 298.209 374.224C298.935 375.617 297.618 377.065 296.473 377.712C294.772 378.675 292.595 378.525 291.119 379.94C289.914 381.094 289.602 382.466 291.255 383.162C295.65 385.015 300.46 380.613 305.046 383.095ZM214.621 316.383C214.367 315.398 215.016 314.84 216.04 315.271C215.815 315.913 215.342 316.284 214.621 316.383ZM143.155 337.683C142.227 337.558 142.602 336.39 142.983 335.81C143.598 336.289 143.655 336.913 143.155 337.683ZM78.624 297.159C77.4453 295.847 79.2254 293.575 80.9953 294.638C80.4186 295.503 79.2577 296.152 78.624 297.159ZM74.3497 242.217C72.4425 238.825 72.3079 231.458 67.3509 231.01C65.5288 230.845 62.2862 233.126 60.722 232.048C59.3037 231.072 60.54 226.151 58.475 226.225C55.5652 226.329 57.0594 232.024 55.7461 233.435C54.9944 234.242 53.2983 234.566 52.2494 234.426C50.655 234.214 50.5177 233.494 50.4773 232C50.4466 230.895 51.2489 226.469 48.7602 227.204C46.9478 227.739 47.3855 231.626 47.2062 233.005C46.5401 238.139 39.0632 237.898 35.1454 238.334C32.7681 238.597 21.6258 240.371 24.1017 235.464C25.1484 233.389 27.7158 231.663 29.4631 230.218C32.4369 227.758 35.8346 225.819 39.3798 224.313C45.9732 221.512 53.4022 220.021 60.5518 220.998C68.6012 222.098 75.2296 226.065 80.6033 232.048C81.7136 233.285 84.8491 236.144 83.6483 237.906C82.9812 238.886 80.6706 239.129 79.6363 239.493C77.7635 240.154 75.9382 241.009 74.3497 242.217ZM86.1984 244.695C88.9338 243.661 89.5546 247.068 90.6078 248.91C91.5097 250.487 93.509 252.881 92.4596 254.733C91.506 256.418 88.5892 257.422 86.9474 258.132C84.7984 259.063 82.552 259.755 80.4073 260.693C79.2836 258.02 78.3101 255.28 77.1244 252.635C76.4556 251.143 75.0842 249.091 76.2607 247.6C78.2088 245.133 83.4825 245.722 86.1984 244.695ZM162.063 143.823C162.275 140.76 164.283 141.764 165.058 143.871C165.9 146.159 165.996 148.879 166.063 151.293C166.114 153.133 165.735 156.01 163.976 153.328C162.286 150.752 161.857 146.809 162.063 143.823ZM172.875 156.169C172.571 159.877 170.454 157.313 169.679 155.336C168.549 152.451 167.685 148.722 168.098 145.614C168.575 142.028 170.327 144.279 171.109 146.473C172.214 149.576 172.262 152.957 172.875 156.169ZM177.47 153.145C175.087 153.79 171.37 139.748 174.59 139.269C177.266 138.871 179.82 152.509 177.47 153.145ZM187.014 154.608C186.992 157.724 184.42 155.268 183.52 154.01C181.871 151.706 180.572 148.268 180.478 145.439C180.391 142.783 181.555 140.626 183.417 143.486C185.486 146.663 186.345 150.942 187.014 154.608ZM166.19 118.637C168.511 112.129 171.408 106.146 175.279 100.418C175.974 99.39 176.671 98.2188 177.616 97.401C178.382 96.7384 179.486 96.5725 180.206 95.9265C181.657 94.6282 180.548 93.3256 179.136 92.6451C176.765 91.5014 172.545 91.6674 174.201 87.8666C176.489 82.6157 182.419 85.5426 184.753 89.1116C185.698 86.8829 187.358 87.4265 189.382 87.274C192.408 87.0456 195.253 85.597 198.309 85.6482C201.142 85.6956 203.751 87.0726 206.591 87.1227C209.753 87.1792 212.394 87.3101 215.471 88.1953C213.868 91.4384 211.879 94.6454 208.829 96.712C209.377 95.6986 211.279 92.9781 209.573 92.2266C208.42 91.7185 205.957 93.8465 204.976 94.3378C204.937 93.4107 204.597 92.4749 204.042 91.7325C201.046 93.826 202.055 97.4193 204.611 99.3878C202.376 100.552 200.039 101.575 197.53 101.953C195.054 102.327 192.565 101.744 190.103 102.162C185.781 102.896 182.553 106.765 181.865 111.011C181.491 113.315 182.75 119.112 184.625 114.618C184.999 113.72 185.192 112.662 185.785 111.873C186.764 110.572 187.515 111.03 188.95 111.342C190.14 111.6 192.224 111.86 192.675 113.176C193.08 114.357 192.024 115.943 191.426 116.842C189.377 119.926 186.313 122.592 182.611 123.291C180.516 123.687 164.538 123.271 166.19 118.637ZM171.176 76.402C169.832 75.5018 170.841 73.1567 171.001 71.9575C171.239 72.3966 171.477 72.8351 171.715 73.2741C171.548 70.4636 171.932 68.1929 172.532 65.4648C172.76 64.4288 172.677 63.548 172.724 62.5104C172.751 61.9167 172.64 61.4954 172.886 61.1382C173.201 60.6798 173.577 62.0137 173.56 61.8962C174.993 60.1696 173.83 59.8038 174.249 58.0664C174.254 58.0443 175.567 56.6415 175.713 56.377C176.405 55.1147 176.544 54.6283 177.74 53.8956C178.953 53.1527 178.544 53.8875 179.203 52.2988C179.837 50.7688 179.796 49.7124 180.164 48.1102C180.73 48.5234 181.302 48.5353 181.88 48.1469C181.344 47.9987 181.058 47.648 181.022 47.0931C182.5 46.9423 183.809 45.5098 185.153 46.0038C184.814 45.4236 184.581 42.0996 185.685 42.1061C185.722 42.6271 185.722 43.1475 185.686 43.6679C186.619 42.2618 188.082 40.1818 189.232 39.1194C190.1 38.3172 189.855 38.5516 190.917 38.4385C191.83 38.3415 191.843 38.6847 192.626 37.8653C192.318 37.0205 192.549 36.4845 193.32 36.2588C193.558 36.1553 193.796 36.0519 194.033 35.9479C195.127 35.2842 195.531 34.5332 196.392 33.654C197.061 32.9693 198.478 32.6773 198.981 31.9937C199.523 31.2588 199.122 29.6206 199.843 29.0625C200.632 28.4505 200.684 29.2478 201.453 29.1751C201.563 29.1648 202.676 28.5717 202.903 28.4957C204.546 27.9408 206.067 27.7178 207.456 26.4534C207.923 26.0289 208.252 25.216 208.702 24.8879C209.447 24.3443 210.339 24.451 211.099 23.9726C211.341 23.8206 211.706 23.1435 211.992 22.894C212.832 22.1581 213.985 21.7929 215.026 21.4691C217.183 20.7989 219.213 20.1336 221.299 19.2318C225.778 17.294 230.718 15.6519 235.47 14.533C236.018 14.4042 237.424 14.4791 237.831 14.2146C238.132 14.0185 238.393 13.3521 238.467 13.3095C239.356 12.7929 240.787 12.2132 242.006 11.8663C245.584 10.847 245.709 12.7934 243.428 14.8552C241.404 16.6852 238.96 17.9625 236.881 19.7118C233.492 22.5643 231.29 26.7718 229.054 30.5132C232.057 31.9683 236.361 30.4944 239.41 29.8625C240.96 29.5419 242.605 29.508 244.132 29.5085L244.623 29.2284C245.014 28.9644 245.267 29.0722 245.384 29.5522C245.441 30.1679 245.741 30.2665 246.286 29.8474C246.575 29.6486 246.876 29.4719 247.19 29.3173C247.749 28.9989 248.607 27.978 249.324 28.1041C250.381 28.2899 249.747 28.8066 250.429 29.0684C251.998 29.6691 252.76 28.2393 254.223 28.0103C254.726 27.9317 255.44 28.3206 255.993 28.2608C256.448 28.0944 256.871 27.8681 257.26 27.5826C257.65 27.5734 257.924 27.7609 258.081 28.1434C259.274 28.1515 261.476 27.867 261.581 26.3591C262.421 27.9468 262.905 27.4064 264.218 26.6684C264.218 28.5695 268.331 26.949 269.458 26.9453C272.358 26.9361 274.863 25.7913 277.614 27.2669C272.751 29.4401 267.244 30.4039 262.535 32.8707C260.406 33.9864 257.665 37.1412 259.245 39.7034C260.183 41.2242 261.925 41.138 263.465 40.9559C265.421 40.7248 267.047 41.458 269.048 41.3767C273.108 41.2124 278.098 44.2955 281.602 41.0012C283.133 43.0844 284.941 43.0764 287.239 43.204C288.305 43.2633 294.959 44.4199 294.685 45.708C294.532 46.4326 291.351 47.571 290.872 47.7838C289.068 48.5827 287.201 49.2098 285.289 49.693C281.841 50.5663 278.448 50.5124 274.97 51.0517C272.44 51.4439 269.31 52.8844 270.002 56.0888C270.611 58.9101 273.958 58.2744 276.128 58.0772C278.499 57.8617 280.782 57.5897 283.168 57.6947C285.083 57.7793 289.043 57.6597 290.249 59.5431C284.935 63.367 278.27 64.3588 271.935 65.1534C264.609 66.0714 257.341 67.2313 250.173 69.0263C250.713 67.9456 253.09 64.0118 252.152 62.8379C251.003 61.3995 247.556 67.2005 246.67 67.9806C239.129 74.6242 228.804 79.1317 219.563 82.8161C222.606 79.0552 227.191 76.4877 230.908 73.4385C233.467 71.3401 238.121 67.9127 236.428 64.0167C226.917 69.9443 218.916 80.6224 206.917 81.3217C211.204 78.2013 216.143 75.8018 219.669 71.7296C220.494 70.7777 223.214 67.1402 221.527 65.8327C220.199 64.8037 217.851 68.4288 216.925 69.2143C210.412 74.7368 201.466 79.4124 193.354 82.001C190.439 82.9308 186.433 84.512 183.756 82.4815C180.164 79.7572 177.365 79.6694 173.313 81.8431C172.91 80.0707 172.857 77.5296 171.176 76.402ZM256.883 201.739V203.988C255.665 203.868 256.211 202.584 255.478 201.993C255.947 201.909 256.415 201.824 256.883 201.739ZM255.35 199.134C255.721 200.445 255.721 200.445 254.166 200.297C254.707 199.765 254.996 199.481 255.35 199.134ZM261.226 200.97C262.115 200.482 261.357 203.407 259.945 201.894C260.372 201.585 260.799 201.278 261.226 200.97ZM264.37 196.745C264.204 197.711 264.039 198.676 263.873 199.641C263.354 199.212 262.835 198.783 262.316 198.354C263.001 197.818 263.685 197.282 264.37 196.745ZM331.896 286.429C333.012 285.756 333.238 288.332 333.357 288.821C332.624 288.417 330.142 287.489 331.896 286.429ZM110.679 90.6147C108.746 93.2798 106.817 95.9669 105.227 98.855C104.344 100.46 103.699 102.805 102.095 103.878C100.666 104.833 98.3131 104.979 96.7101 105.379C93.4939 106.18 90.3041 107.092 87.1763 108.19C76.5014 111.94 66.3661 118.32 58.8627 126.857C55.248 130.97 52.2295 135.707 50.5312 140.939C48.5841 146.936 49.241 153.224 48.5271 159.397C48.3558 160.88 48.0441 166.168 46.2919 166.837C44.1354 167.66 43.5248 162.449 43.2647 161.084C42.9384 159.372 42.0333 147.657 38.6523 148.74C36.5906 149.401 36.5777 156.233 36.4517 157.862C36.1647 161.562 35.7425 165.234 35.0382 168.882C34.4885 171.724 33.7589 174.543 33.0766 177.357C32.4773 179.83 31.8269 182.798 29.9547 184.661C28.5789 177.127 28.3549 168.663 30.9336 161.36C31.639 159.362 36.0715 149.112 32.1516 148.12C29.8109 147.527 27.9543 153.111 27.3205 154.586C25.1974 159.525 23.5121 164.647 21.6792 169.697C20.4757 173.012 19.2561 178.992 16.3065 181.297C15.2317 172.972 17.5056 164.673 20.2722 156.899C20.7665 155.511 26.9113 141.673 21.5898 143.172C18.6848 143.991 16.6521 150.184 15.4578 152.576C12.5319 158.437 8.93608 164.53 4.04153 168.961C3.81107 164.322 6.78065 159.411 7.88448 154.955C9.15362 149.833 10.8288 145.069 13.5415 140.516C18.5642 132.086 25.1231 124.112 31.6007 116.763C38.2883 109.176 45.9123 102.42 54.2217 96.6538C62.5635 90.8652 71.3349 87.1927 81.2059 84.937C92.2582 82.412 104.251 80.9198 115.318 84.1737C113.772 86.321 112.232 88.4733 110.679 90.6147ZM293.486 101.634C293.308 101.669 293.13 101.705 292.952 101.74C292.806 100.876 292.66 100.011 292.514 99.1465C293.618 99.7935 292.681 100.9 293.486 101.634ZM247.222 94.1638C260.291 88.4113 274.065 84.164 288.003 81.1067C297.476 79.0283 308.217 78.0052 317.449 81.6492C328.107 85.8556 332.525 97.1365 332.993 107.92C333.539 120.49 329.263 132.41 323.1 143.185C321.62 145.773 313.711 161.41 310.387 159.669C311.509 156.605 319.37 139.329 314.163 137.799C311.168 136.92 308.846 145.422 307.815 147.335C307.116 148.632 302.34 157.713 300.747 156.935C302.251 152.094 304.087 147.1 303.943 141.951C303.834 138.061 301.802 136.231 299.656 140.259C294.971 149.055 290.043 158.077 283.225 165.431C282.582 159.978 285.504 153.957 287.281 148.925C288.676 144.975 290.542 141.04 290.987 136.829C291.228 134.549 291.158 130.043 287.751 130.834C284.784 131.522 282.391 134.915 280.044 136.67C281.819 133.325 283.529 129.936 285.564 126.739C287.309 123.999 289.399 121.499 291.13 118.751C291.901 117.528 292.33 116.339 292.819 115.047C293.301 113.772 294.026 113.064 294.847 111.904C295.458 111.041 295.791 110.309 295.977 109.359C296.046 109.005 295.801 108.476 295.838 108.074C295.905 107.37 296.644 107.182 296.398 106.373C297.696 108.172 297.337 104.636 297.313 103.98C297.227 101.674 298.159 99.1772 297.006 97.0325C294.577 92.5115 287.452 93.3886 283.241 93.714C277.207 94.18 269.656 95.5516 264.488 98.8146C263.167 99.6486 262.337 99.1724 260.904 99.8129C259.593 100.399 258.259 101.007 256.914 101.578C253.418 103.06 250.081 104.899 246.633 106.487C246.816 103.907 247.402 101.39 246.994 98.8125C246.821 97.7076 245.721 94.8243 247.222 94.1638ZM339.138 294.318C337.994 286.677 336.699 279.12 334.659 271.662C333.684 268.099 332.915 264.464 331.892 260.918C331.08 258.099 328.597 256.67 327.37 254.045C324.484 247.87 321.838 241.754 318.36 235.844C314.725 229.669 310.385 224.228 305.226 219.263C294.76 209.192 282.671 201.497 270.969 193.022C264.961 188.671 258.733 184.881 252.028 181.692C249.327 180.407 246.73 179.381 243.871 178.545C240.908 177.678 239.429 176.666 238.332 173.694C236.081 167.59 231.858 165.592 226.09 163.272C223.482 162.223 221.108 160.77 218.538 159.654C215.864 158.494 213.036 157.605 210.549 156.055C199.235 149.006 214.34 134.332 220.348 129.049C222.689 126.991 225.338 124.878 228.319 123.856C231.408 122.797 235.619 122.173 238.89 121.883C241.109 121.686 244.252 122.72 246.096 120.958C247.583 119.539 247.008 117.266 246.826 115.471C246.314 110.434 250.455 110.041 254.624 109.151C261.139 107.76 267.229 104.835 273.752 103.373C277.916 102.44 289.475 99.6459 289.543 106.663C289.594 111.983 285.61 117.334 283.106 121.682C281.147 125.081 279.058 128.368 276.987 131.695C275.438 134.183 274.035 136.913 274.059 139.92C274.078 142.296 275.033 144.642 277.824 144.291C280.961 143.896 283.311 140.794 285.916 139.292C286.023 142.542 283.561 146.176 282.616 149.236C281.502 152.844 280.522 156.595 279.892 160.321C279.491 162.698 278.386 171.854 283.204 170.68C286.452 169.888 289.25 165.706 291.142 163.237C293.135 160.635 294.922 157.897 296.727 155.165C297.853 158.509 290.845 164.977 294.402 167.99C298.197 171.207 304.77 159.82 306.619 157.717C306.94 160.272 303.33 165.93 307.414 167.102C310.304 167.931 314.244 163.997 316.064 162.145C319.391 158.761 319.797 153.984 321.872 149.888C324.248 145.199 327.294 140.925 329.495 136.128C336.432 121.011 339.958 98.6142 329.021 84.3541C321.637 74.726 308.828 73.0597 297.502 73.9502C284.613 74.9636 272.006 78.8823 259.948 83.3742C251.851 86.3905 243.886 89.7678 235.966 93.2184C230.123 95.7649 224.306 98.3772 218.508 101.028C215.703 102.31 212.97 103.697 210.241 105.132C207.99 106.316 205.314 107.693 202.692 107.018C204.578 104.156 208.33 103.207 211.041 101.374C214.249 99.2047 216.025 95.4988 217.2 91.913C218.464 88.0509 219.585 87.1286 223.47 86.1201C227.353 85.1121 230.988 83.4868 234.458 81.4768C242.595 76.7629 251.587 74.0682 260.835 72.6067C269.018 71.3137 277.67 70.7314 285.31 67.2727C290.998 64.6982 298.156 59.0006 291.231 53.2766C296.132 49.7162 304.822 43.7697 297.213 37.9461C291.316 33.4321 282.408 33.7817 275.375 33.7817C276.387 31.7415 279.625 31.0401 281.446 29.9309C283.691 28.5625 286.464 27.0816 287.244 24.3842C288.52 19.9736 283.699 18.6877 280.338 18.2454C267.558 16.5645 253.197 17.8278 241.091 22.2702C241.723 20.0458 244.87 18.407 246.633 17.2137C248.981 15.6239 251.303 13.8849 253.017 11.5883C253.921 10.3767 254.595 9.06708 254.775 7.55325C254.968 5.92145 254.794 6.61102 254.302 6.17842C252.488 4.58056 249.934 3.57476 247.47 3.46755C240.369 3.15778 234.058 6.49519 227.32 8.13346C224.341 8.85751 221.561 9.15489 218.708 10.4398C215.269 11.9891 211.725 13.3429 208.322 14.9629C206.741 15.716 205.253 16.6157 203.657 17.3311C202.209 17.9798 201.874 18.7938 200.706 19.7802C199.635 20.6853 198.446 20.2376 197.231 20.9148C195.551 21.8505 193.951 23.4829 192.39 24.6471C186.312 29.1804 180.572 34.3856 175.753 40.254C167.434 50.3842 159.169 66.0789 164.846 79.3558C166.171 82.4557 169.3 83.4529 170.077 86.8355C170.758 89.8001 170.866 92.7432 171.741 95.6696C172.628 98.6347 169.073 101.416 167.555 103.83C165.18 107.606 164.146 111.879 162.809 116.084C162.392 114.953 162.25 113.045 161.085 112.379C159.672 111.572 159.653 113.255 158.638 112.497C157.444 111.605 156.476 108.124 155.782 106.737C154.857 104.888 153.905 103.05 152.84 101.276C148.491 94.034 141.791 88.4382 134.519 84.2604C119.669 75.7297 101.788 74.816 85.2437 77.9153C68.6286 81.0275 54.2002 89.2905 41.3511 100.06C34.2348 106.024 27.9581 112.632 22.3097 120.002C16.7614 127.242 11.0296 134.293 6.94865 142.5C4.65699 147.108 2.58178 151.885 1.29972 156.882C0.304655 160.761 -0.662409 165.47 0.603498 169.403C1.68687 172.769 4.81798 174.577 7.97817 172.39C10.7507 170.47 11.988 167.001 13.8813 164.344C14.2614 168.747 8.89893 184.955 16.7124 185.718C22.482 186.282 24.5976 173.013 25.8199 169.171C26.6389 174.342 25.0924 179.928 27.0368 184.922C27.9796 187.345 30.925 191.732 33.4185 188.251C34.5348 186.692 34.6171 184.469 35.0167 182.656C35.5191 180.37 36.149 178.114 36.6471 175.826C37.9023 170.061 38.6017 164.208 39.5715 158.392C41.2024 162.17 40.895 169.05 44.9382 171.39C49.0386 173.763 50.8822 166.978 51.3502 164.231C52.1363 159.614 51.7605 154.883 52.4378 150.249C53.1249 145.552 54.7979 141.319 57.3297 137.314C66.3381 123.07 83.2315 112.309 100.23 111.599C99.3136 115.121 94.0809 124.197 100.913 124.346C102.454 124.38 103.866 124.104 105.427 124.272C107.348 124.477 109.633 125.461 111.552 125.322C112.716 125.238 112.672 124.752 113.865 125.448C115.116 126.177 115.281 127.257 116.649 125.556C117.679 127.469 120.082 127.979 121.901 128.813C121.922 128.319 121.944 127.825 121.965 127.331C123.092 128.933 124.314 129.221 126.041 130.005C127.147 130.507 127.927 130.352 128.923 130.611C130.129 130.925 130.732 131.591 131.818 132.207C132.997 132.876 135.062 132.794 135.967 133.842C137.567 135.696 135.093 138.827 134.202 140.412C131.695 144.867 130.042 150.029 128.955 155.002C128.678 156.27 128.413 157.166 128.617 158.424C128.795 159.519 129.122 158.728 128.921 159.807C128.849 160.188 128.139 160.991 128.012 161.265C126.938 163.595 127.097 166.683 127.041 169.196C126.905 175.201 127.668 180.881 129.305 186.656C130.024 189.189 130.658 191.83 131.564 194.301C132.406 196.596 133.681 197.999 133.232 200.481C132.27 205.804 137.844 207.248 140.887 210.583C142.264 212.094 142.511 214.023 142.821 215.969C143.267 218.775 144.192 221.352 145.335 223.953C147.336 228.509 150.079 234.457 153.841 237.821C155.534 239.334 157.087 241.008 159.012 242.138C159.911 242.665 161.036 243.957 162.039 244.206C162.988 244.441 162.649 243.432 163.68 244.266C164.469 244.904 164.427 245.855 165.523 246.579C166.575 247.274 167.708 247.854 168.815 248.454C171.064 249.673 173.494 250.826 175.542 252.366C177.525 253.858 179.5 255.429 181.492 256.935C183.325 258.321 184.613 260.045 185.206 262.291C187.809 272.157 178.682 280.494 170.897 284.62C160.821 289.959 149.401 288.832 139.038 284.946C128.294 280.918 117.686 273.527 111.286 263.888C109.695 261.492 108.082 258.926 106.876 256.312C106.082 254.592 105.855 252.477 104.787 250.898C102.394 247.358 97.2518 252.434 94.7625 253.763C91.0973 238.293 84.0597 220.826 67.6977 215.289C52.188 210.041 32.7546 216.276 22.6775 229.05C20.3023 232.061 16.9031 236.939 18.5028 240.971C19.8947 244.477 24.4759 245.27 27.7793 245.621C32.4886 246.124 37.4451 245.52 41.9902 244.243C43.1576 243.915 45.1574 242.981 46.3958 243.342C48.3197 243.903 48.2471 246.7 49.2184 248.157C50.2011 249.631 51.6269 249.476 51.9592 247.584C52.2758 245.778 50.613 244.08 52.02 242.476C52.8029 241.583 55.4457 240.845 56.5457 241.541C57.4659 242.122 57.5483 243.949 58.2795 244.789C60.2955 247.106 60.5147 243.351 60.9277 241.767C61.548 239.385 64.2585 237.533 66.8894 238.599C68.536 239.266 68.9474 241.793 69.3739 243.32C70.2451 246.439 70.8449 249.451 72.0247 252.49C72.925 254.809 76.7405 261.268 74.9108 263.53C73.7806 264.927 70.9273 265.71 69.2872 266.249C67.0014 267 64.2591 267.45 62.1613 268.632C61.1748 269.188 58.9989 270.704 58.6942 271.853C58.1783 273.8 60.5481 273.887 61.6508 272.9C65.1002 283.128 69.1736 293.188 75.5096 302.004C81.8671 310.851 90.1216 318.186 98.8214 324.662C115.836 337.327 135.849 345.765 157.046 347.774C167.887 348.802 179.096 347.898 189.358 344.14C190.515 343.716 191.689 343.224 192.913 343.024C194.022 342.844 195.16 343.227 196.233 343.049C197.625 342.819 197.251 342.281 198.136 341.537C198.952 340.851 200.228 340.614 201.132 340.021C205.638 337.067 209.726 332.914 213.248 328.868C219.867 321.27 226.425 311.797 229.543 302.139C232.676 292.436 232.824 282.127 233.767 272.066C234.35 265.844 232.475 260.063 231.452 253.981C230.405 247.753 229.181 241.628 227.74 235.488C227.17 233.06 227.166 231.303 229.072 229.535C230.557 228.159 232.412 227.076 234.387 228.014C236.454 228.996 238.328 231.14 240.216 232.472C242.162 233.845 243.074 235.677 245.012 233.39C245.012 235.375 245.97 235.972 247.642 236.624C249.886 237.5 251.981 238.437 254.011 239.769C258.401 242.65 261.718 247.01 264.195 251.588C266.837 256.47 269.877 261.465 271.712 266.715C273.712 272.438 273.963 278.888 274.164 284.899C274.376 291.181 274.438 297.509 274.079 303.787C273.741 309.724 273.408 316.393 271.657 322.098C269.725 328.389 263.471 335.519 271.931 339.715C277.864 342.659 285.055 341.949 290.893 344.978C290.139 346.183 289.634 347.546 288.814 348.71C287.78 350.178 286.861 350.165 285.266 350.753C282.342 351.831 283.757 353.586 283.457 355.897C283.19 357.948 280.444 360.286 279.134 361.793C277.161 364.062 275.122 366.31 273.531 368.874C270.081 374.432 270.082 380.488 273.243 386.168C276.021 391.161 279.989 396.838 284.869 399.938C290.196 403.321 296.475 406.242 302.322 408.591C307.579 410.702 313.141 412.054 318.764 412.735C322.979 413.245 328.779 413.739 332.153 410.568C335.245 407.661 335.978 403.039 334.529 399.176C331.13 390.12 320.75 384.671 313.201 379.542C315.594 378.707 318.745 378.426 320.603 376.523C322.926 374.146 320.781 372.105 318.113 372.132C315.799 372.157 313.44 372.909 311.24 373.577C309.286 374.17 305.695 375.83 303.714 374.634C301.096 373.054 303.96 371.46 305.373 370.746C308.026 369.406 307.879 367.701 305.311 366.304C301.164 364.049 307.108 363.951 307.728 361.917C308.512 359.347 305.246 356.873 305.474 354.068C305.691 351.39 306.519 346.687 308.61 344.772C310.055 343.45 312.526 343.567 314.337 343.274C317.269 342.8 320.138 341.928 322.964 341.029C323.824 346.077 327.844 341.539 329.43 339.524C332.417 335.728 333.653 331.134 335.229 326.649C337.004 321.598 338.513 316.639 339.453 311.357C340.477 305.6 339.997 300.061 339.138 294.318Z" fill="#212B36"/>
<path fill-rule="evenodd" clip-rule="evenodd" d="M140.836 354.82C140.014 355.746 136.08 354.465 135 354.331C131.794 353.931 128.789 354.033 125.617 353.233C123.187 352.62 119.626 351.268 117.259 351.629C117.06 351.66 117.292 352.32 116.953 352.316C116.513 352.31 116.278 351.987 115.838 351.818C114.795 351.417 113.972 350.514 112.875 351.302C112.357 348.855 111.462 350.999 110.232 350.981C108.934 350.962 109.409 349.418 108.049 349.219C106.969 349.061 106.518 349.731 105.324 349.27C103.669 348.632 102.495 347.704 100.679 347.261C98.6244 346.76 97.2664 346.041 95.3756 345.203C93.7224 344.471 91.8902 344.239 90.2139 343.55C85.8766 341.766 81.6291 339.559 77.5091 337.327C69.6719 333.081 61.9341 329.086 54.8902 323.549C52.312 321.523 50.4937 319.277 48.4507 316.754C47.0637 315.04 44.677 311.752 42.0843 312.297C42.6909 310.619 41.0732 309.161 40.0084 308.125C38.3639 306.526 36.9608 304.837 35.6002 302.978C34.3197 301.23 33.4205 299.464 32.6262 297.466C32.0238 295.951 31.635 294.437 29.9829 295.953C26.6922 298.972 30.9171 304.93 32.7423 307.584C35.7615 311.972 38.7661 316.432 42.3596 320.375C49.0605 327.728 56.6971 334.422 65.2905 339.454C69.731 342.054 74.4093 344.354 79.2268 346.166C83.5302 347.784 87.7804 348.634 92.1967 349.792C94.8281 350.482 97.3315 351.394 100.017 351.875C101.061 352.062 102.088 352.315 103.149 352.368C103.424 352.383 103.878 352.021 104.053 352.037C104.476 352.076 104.798 352.462 105.416 352.597C106.152 352.759 106.882 352.689 107.455 352.935C107.689 353.035 108.265 353.76 108.875 353.985C109.868 354.352 110.637 354.522 111.655 354.213C112.518 353.951 113.218 353.051 114.186 353.142C114.051 353.72 113.915 354.298 113.78 354.876C114.765 354.498 115.224 354.841 116.127 354.666C115.953 354.7 118.019 354.225 117.811 354.169C117.954 354.207 118.487 355.182 119 355.425C121.117 356.428 123.701 355.681 125.938 355.85C128.235 356.023 130.488 356.36 132.803 356.527C134.506 356.649 142.51 357.68 142.685 354.766C142.064 354.622 141.448 354.64 140.836 354.82Z" fill="#212B36"/>
<path fill-rule="evenodd" clip-rule="evenodd" d="M356.579 87.0081C357.241 81.3575 355.36 76.6402 353.896 71.3301C352.696 66.9787 351.21 62.6445 348.171 59.1542C345.411 55.9846 341.235 51.9328 336.762 51.7178C333.285 51.5507 330.909 54.2699 333.942 56.787C336.969 59.2976 339.719 60.9207 342.113 64.1954C344.871 67.9681 346.95 72.2268 348.493 76.624C351.303 84.6344 352.898 94.0808 350.241 102.31C349.977 103.126 348.937 105.459 349.978 106.114C351.17 106.864 352.091 105.07 352.418 104.301C352.723 103.584 354.088 96.8054 355.301 97.7102C355.225 96.7774 354.822 96.3409 354.88 95.4189C354.913 94.8859 355.373 94.1288 355.415 93.4385C355.553 91.1763 356.319 89.2272 356.579 87.0081Z" fill="#212B36"/>
<path fill-rule="evenodd" clip-rule="evenodd" d="M147.426 57.4561C151.076 57.5349 151.203 49.3552 152.339 47.1362C152.873 46.0945 153.428 44.8411 154.019 43.8696C154.478 43.1158 155.04 43.0021 155.377 42.4033C156.498 40.4148 155.718 38.8343 155.215 36.9118C156.541 36.6989 156.991 36.7043 157.467 35.3806C157.608 34.9898 157.271 34.2805 157.55 33.9861C157.934 33.5814 158.583 33.8006 158.974 33.4607C159.076 33.3717 159.037 32.5188 159.161 32.1987C159.44 31.4755 159.663 31.1983 160.2 30.6455C160.923 29.9009 162.89 29.4961 162.238 28.1933C162.724 28.1729 163.187 28.0598 163.628 27.8539C163.77 27.2036 162.445 27.4508 162.552 27.0771C162.781 26.2842 164.027 25.2409 164.815 25.0789C164.143 24.7289 163.47 24.3782 162.797 24.0276C164.488 23.6722 164.44 22.6696 166.161 23.8078C165.972 22.2193 168.141 20.7615 169.081 19.7386C170.849 17.8161 172.827 16.1852 174.781 14.4546C176.481 12.9502 178.052 11.3461 179.638 9.72754C180.449 8.89923 181.274 8.08324 182.206 7.39057C183.158 6.68289 183.902 6.82174 184.778 6.33816C186.176 5.56614 187.022 4.00012 188.428 3.21308C189.061 2.85817 189.332 3.25973 189.793 2.81528C190.223 2.39978 190.613 1.02998 190.362 0.499754C189.308 -1.7316 181.687 4.18722 180.491 4.95656C165.96 14.3055 154.261 27.1918 147.896 43.3608C147.031 45.5579 142.101 57.3392 147.426 57.4561Z" fill="#212B36"/>
<path fill-rule="evenodd" clip-rule="evenodd" d="M143.266 356.228C144.257 356.012 145.253 355.795 146.718 355.477C144.099 354.043 143.884 354.115 143.266 356.228Z" fill="#212B36"/>
<path fill-rule="evenodd" clip-rule="evenodd" d="M194.601 97.6648C196.55 97.4808 200.802 95.4718 200.158 92.7329C199.565 90.2051 197.269 92.9291 195.697 92.6439C194.019 92.3401 193.239 88.7585 191.828 92.4113C191.071 94.3728 192.188 97.893 194.601 97.6648Z" fill="#212B36"/>
</svg>
