<svg width="492" height="320" viewBox="0 0 492 320" fill="none" xmlns="http://www.w3.org/2000/svg">
<g clip-path="url(#clip0_3088_1321)">
<path d="M151.031 299.572C154.36 292.382 157.686 285.085 159.131 277.294C160.576 269.503 159.969 261.048 155.832 254.291C151.694 247.533 143.547 242.951 135.773 244.479C129.387 245.733 124.26 250.763 121.258 256.537C118.255 262.311 117.051 268.823 115.883 275.225C115.506 267.952 115.106 260.561 112.69 253.691C110.274 246.82 105.517 240.417 98.7364 237.758C91.9561 235.099 83.1358 237.19 79.5622 243.536C74.5276 252.477 81.2033 265.018 75.4142 273.49C74.4212 264.992 65.5352 258.278 57.0898 259.645C48.6445 261.011 42.329 270.185 44.0664 278.562C45.1001 283.547 48.501 287.787 52.5669 290.85C56.6329 293.913 61.3618 297.463 66.0397 299.471L151.031 299.572Z" fill="#F2F2F2"/>
<path d="M48.5025 265.648C55.211 267.993 61.9811 270.365 68.1056 274.031C73.5947 277.317 78.4826 281.741 81.5696 287.406C83.261 290.446 84.2652 293.819 84.5115 297.288C84.556 298.014 85.6912 298.019 85.6464 297.288C85.2495 290.827 82.1008 284.914 77.7409 280.238C72.9606 275.111 66.766 271.61 60.3703 268.893C56.5782 267.282 52.6919 265.913 48.8042 264.554C48.1134 264.313 47.8163 265.409 48.5025 265.648H48.5025Z" fill="white"/>
<path d="M87.197 238.884C91.3185 245.751 94.6191 253.079 97.0306 260.716C99.447 268.35 100.969 276.239 101.566 284.225C101.897 288.695 101.933 293.182 101.674 297.657C101.632 298.387 102.767 298.384 102.809 297.657C103.267 289.589 102.779 281.495 101.354 273.54C99.9322 265.587 97.5948 257.824 94.3887 250.408C92.5891 246.242 90.5139 242.201 88.1769 238.312C88.0983 238.187 87.9744 238.098 87.8314 238.063C87.6883 238.028 87.5373 238.05 87.4102 238.125C87.2831 238.199 87.1898 238.32 87.15 238.461C87.1103 238.603 87.1271 238.755 87.197 238.884Z" fill="white"/>
<path d="M142.744 245.403C136.914 258.503 132.811 272.304 130.539 286.461C129.901 290.438 129.407 294.434 129.057 298.449C128.994 299.177 130.129 299.173 130.192 298.449C131.428 284.324 134.481 270.417 139.275 257.073C140.622 253.321 142.105 249.622 143.724 245.976C144.017 245.315 143.04 244.736 142.744 245.403Z" fill="white"/>
<path d="M344.025 315.031L343.934 307.984L310.717 308.414L310.808 315.46L344.025 315.031Z" fill="#E7E7E7"/>
<path d="M355.826 316.604L351.083 316.59L348.15 311.358L351.32 306.144L355.727 306.157C354.623 304.753 353.108 303.729 351.393 303.23C349.678 302.731 347.85 302.78 346.165 303.372C344.48 303.964 343.023 305.069 341.997 306.531C340.971 307.993 340.429 309.74 340.446 311.526C340.463 313.312 341.038 315.048 342.091 316.49C343.144 317.933 344.623 319.01 346.319 319.57C348.015 320.13 349.843 320.145 351.548 319.613C353.253 319.081 354.749 318.029 355.826 316.604V316.604Z" fill="#E7E7E7"/>
<path d="M298.914 316.604L303.658 316.59L306.59 311.358L303.421 306.144L299.013 306.157C300.117 304.753 301.632 303.729 303.347 303.23C305.062 302.731 306.89 302.78 308.575 303.372C310.26 303.964 311.718 305.069 312.744 306.531C313.769 307.993 314.312 309.74 314.295 311.526C314.278 313.312 313.702 315.048 312.649 316.49C311.596 317.933 310.118 319.01 308.422 319.57C306.726 320.13 304.897 320.145 303.192 319.613C301.487 319.081 299.991 318.029 298.914 316.604V316.604Z" fill="#E7E7E7"/>
<path d="M491.287 300.184H0.713043C0.523933 300.184 0.342567 300.109 0.208845 299.975C0.0751235 299.841 0 299.66 0 299.471C0 299.282 0.0751235 299.1 0.208845 298.967C0.342567 298.833 0.523933 298.758 0.713043 298.758H491.287C491.476 298.758 491.657 298.833 491.791 298.967C491.925 299.1 492 299.282 492 299.471C492 299.66 491.925 299.841 491.791 299.975C491.657 300.109 491.476 300.184 491.287 300.184Z" fill="#E7E7E7"/>
<path d="M385.39 164.7C398.385 164.7 408.92 154.164 408.92 141.168C408.92 128.172 398.385 117.637 385.39 117.637C372.394 117.637 361.859 128.172 361.859 141.168C361.859 154.164 372.394 164.7 385.39 164.7Z" fill="#212B36"/>
<path d="M394.926 273.27L396.738 281.822L430.586 278.901L427.912 266.279L394.926 273.27Z" fill="#FFB8B8"/>
<path d="M392.293 299.998L386.597 273.12L396.982 270.919L400.477 287.413C401.06 290.167 400.526 293.04 398.991 295.4C397.457 297.761 395.047 299.414 392.293 299.998L392.293 299.998Z" fill="#212B36"/>
<path d="M373.721 272.814L369.911 280.682L337.75 269.732L343.373 258.119L373.721 272.814Z" fill="#FFB8B8"/>
<path d="M364.942 285.213L372.289 270.038L381.843 274.664L369.87 299.394C368.616 298.786 367.493 297.937 366.566 296.896C365.64 295.855 364.927 294.641 364.47 293.324C364.012 292.007 363.818 290.613 363.899 289.222C363.98 287.83 364.335 286.468 364.942 285.213Z" fill="#212B36"/>
<path d="M310.36 257.274C311.461 257.479 312.594 257.44 313.678 257.16C314.762 256.88 315.772 256.365 316.636 255.653C317.5 254.94 318.197 254.047 318.679 253.036C319.16 252.025 319.414 250.92 319.422 249.801L372.454 200.904L359.284 190.703L311.27 242.004C309.388 242.115 307.611 242.912 306.278 244.245C304.944 245.577 304.145 247.353 304.033 249.235C303.921 251.117 304.503 252.975 305.669 254.457C306.836 255.938 308.505 256.941 310.36 257.274H310.36Z" fill="#FFB8B8"/>
<path d="M382.439 165.762C392.111 165.762 399.952 157.921 399.952 148.248C399.952 138.576 392.111 130.734 382.439 130.734C372.767 130.734 364.926 138.576 364.926 148.248C364.926 157.921 372.767 165.762 382.439 165.762Z" fill="#FFB8B8"/>
<path d="M398.154 251.198C385.87 251.198 371.074 248.61 361.947 238.022L361.741 237.784L361.953 237.55C362.022 237.473 368.737 229.8 362.032 216.114L352.814 218.95L343.637 206.836L348.72 191.584L369.525 174.824C372.506 172.435 376.136 170.997 379.943 170.696C386.834 170.029 393.547 168.117 399.755 165.053C402.596 163.673 405.724 162.989 408.882 163.057L409.291 163.069C410.251 163.096 411.196 163.318 412.068 163.721C412.94 164.124 413.721 164.7 414.364 165.414C415.006 166.128 415.497 166.965 415.807 167.874C416.117 168.784 416.239 169.746 416.165 170.704C414.754 188.98 412.263 233.13 419.582 248.331L419.771 248.724L419.348 248.831C412.392 250.396 405.284 251.19 398.154 251.198Z" fill="#3056D3"/>
<path d="M364.354 237.79C364.354 237.79 318.006 233.511 313.014 247.06C308.023 260.608 313.728 267.026 322.284 269.878C330.841 272.73 351.519 276.296 351.519 276.296L360.788 264.886L385.032 266.313C385.032 266.313 412.045 281.981 419.514 298.739C421.117 302.366 423.672 305.49 426.909 307.78C430.145 310.07 433.942 311.44 437.895 311.744C443.883 312.161 449.206 309.899 449.206 300.54C449.206 279.148 419.258 248.486 419.258 248.486L364.354 237.79Z" fill="#212B36"/>
<path d="M329.059 258.824C329.059 258.824 341.18 255.259 360.432 264.529L329.059 258.824Z" fill="#212B36"/>
<path d="M364.965 137.079C371.804 141.255 379.515 143.795 387.496 144.504L385.121 141.658C386.851 142.297 388.67 142.659 390.513 142.729C391.435 142.755 392.351 142.565 393.187 142.174C394.023 141.783 394.755 141.201 395.326 140.476C395.791 139.723 396.068 138.868 396.132 137.984C396.196 137.101 396.046 136.215 395.693 135.402C394.969 133.781 393.843 132.373 392.421 131.31C389.9 129.316 386.925 127.977 383.761 127.411C380.597 126.846 377.343 127.072 374.288 128.069C372.192 128.696 370.315 129.9 368.872 131.544C368.162 132.372 367.67 133.363 367.438 134.428C367.206 135.494 367.242 136.6 367.544 137.648" fill="#212B36"/>
<path d="M385.266 123.08C388.377 115.854 393.035 109.399 398.911 104.168C402.684 100.814 407.091 97.9332 412.064 97.0635C417.037 96.1939 422.641 97.6838 425.691 101.707C428.185 104.996 428.651 109.403 428.377 113.521C428.102 117.64 427.181 121.719 427.269 125.847C427.359 130.058 428.5 134.18 430.587 137.838C432.673 141.497 435.641 144.576 439.22 146.797C442.799 149.018 446.876 150.309 451.08 150.555C455.285 150.8 459.485 149.992 463.297 148.202C459.004 150.576 455.658 154.333 451.671 157.193C447.685 160.052 442.428 162.013 437.901 160.124C433.111 158.124 430.913 152.694 429.197 147.795L421.545 125.946C420.244 122.232 418.879 118.408 416.224 115.503C413.57 112.598 409.262 110.827 405.608 112.288C402.838 113.395 401.035 116.037 399.454 118.566C397.873 121.095 396.205 123.785 393.533 125.111C390.862 126.437 386.903 125.621 386.03 122.769" fill="#212B36"/>
<path d="M384.777 229.035L379.859 234.082L403.651 257.267L408.569 252.22L384.777 229.035Z" fill="#E7E7E7"/>
<path d="M403.945 252.635C402.973 253.633 402.318 254.897 402.064 256.267C401.809 257.638 401.967 259.053 402.517 260.333C403.067 261.614 403.984 262.703 405.153 263.462C406.322 264.221 407.689 264.617 409.083 264.599C410.477 264.581 411.834 264.15 412.982 263.361C414.131 262.572 415.02 261.459 415.536 260.165C416.053 258.871 416.174 257.452 415.885 256.089C415.595 254.725 414.908 253.478 413.91 252.506C412.571 251.201 410.769 250.482 408.901 250.506C407.032 250.531 405.249 251.296 403.945 252.635ZM411.155 259.66C410.738 260.088 410.204 260.383 409.619 260.507C409.035 260.631 408.427 260.579 407.872 260.358C407.318 260.136 406.841 259.755 406.503 259.263C406.165 258.771 405.98 258.189 405.972 257.592C405.964 256.995 406.134 256.408 406.459 255.907C406.785 255.407 407.251 255.013 407.8 254.778C408.349 254.542 408.955 254.474 409.543 254.583C410.13 254.692 410.672 254.973 411.1 255.39C411.673 255.949 412.001 256.713 412.012 257.514C412.022 258.315 411.714 259.087 411.155 259.66Z" fill="#E6E6E6"/>
<path d="M377.542 219.578L380.886 222.942L379.26 228.715L373.332 230.161L370.225 227.035C370.012 228.808 370.36 230.604 371.22 232.17C372.079 233.735 373.407 234.993 375.017 235.766C376.627 236.539 378.439 236.788 380.198 236.48C381.957 236.171 383.576 235.32 384.827 234.045C386.078 232.77 386.898 231.135 387.173 229.371C387.449 227.606 387.165 225.799 386.361 224.204C385.558 222.609 384.276 221.305 382.694 220.475C381.112 219.646 379.311 219.332 377.542 219.578Z" fill="#E7E7E7"/>
<path d="M391.271 251.258C390.969 251.258 390.667 251.241 390.367 251.208C388.607 251.004 386.967 250.211 385.714 248.958C384.461 247.705 383.669 246.065 383.465 244.305C383.339 243.207 383.448 242.094 383.782 241.041C384.117 239.987 384.67 239.017 385.406 238.192C386.142 237.367 387.044 236.707 388.052 236.255C389.061 235.803 390.154 235.57 391.259 235.57C391.609 235.571 391.958 235.598 392.304 235.648L416.247 210.159L413.748 201.827L426.301 196.199L429.819 204.799C430.998 207.712 431.206 210.928 430.413 213.969C429.619 217.009 427.866 219.713 425.415 221.679L399.06 242.644C399.087 242.9 399.102 243.156 399.102 243.413C399.102 244.516 398.869 245.607 398.419 246.614C397.968 247.621 397.311 248.522 396.49 249.258C395.06 250.551 393.199 251.264 391.271 251.258Z" fill="#FFB8B8"/>
<path d="M409.988 166.481C410.818 166.112 411.715 165.915 412.623 165.901C413.531 165.887 414.433 166.057 415.274 166.401C416.115 166.744 416.878 167.254 417.517 167.9C418.156 168.545 418.658 169.314 418.993 170.158L431.38 201.422L412.127 214.258L409.988 166.481Z" fill="#3056D3"/>
<path d="M319.789 173.782V18.014C319.782 13.2384 317.882 8.66045 314.505 5.28363C311.129 1.90682 306.551 0.00675697 301.776 0H57.0092C52.2339 0.00675885 47.6561 1.90682 44.2795 5.28363C40.9028 8.66044 39.0029 13.2384 38.9961 18.014V173.782C39.0029 178.557 40.9028 183.135 44.2795 186.512C47.6561 189.889 52.2339 191.789 57.0092 191.796H301.776C306.551 191.789 311.129 189.889 314.505 186.512C317.882 183.135 319.782 178.557 319.789 173.782ZM57.0092 189.677C52.7955 189.671 48.7557 187.995 45.7762 185.015C42.7966 182.036 41.1204 177.996 41.1153 173.782V18.014C41.1204 13.8 42.7966 9.76011 45.7762 6.78039C48.7557 3.80067 52.7955 2.12441 57.0092 2.11928H301.776C305.989 2.1244 310.029 3.80067 313.009 6.78039C315.988 9.76011 317.664 13.8 317.67 18.014V173.782C317.664 177.996 315.988 182.036 313.009 185.015C310.029 187.995 305.989 189.671 301.776 189.677H57.0092Z" fill="#E0E0E0"/>
<path d="M317.673 28.0255H41.1182C40.8372 28.0255 40.5677 27.9139 40.3689 27.7151C40.1702 27.5164 40.0586 27.2469 40.0586 26.9659C40.0586 26.6848 40.1702 26.4153 40.3689 26.2166C40.5677 26.0179 40.8372 25.9062 41.1182 25.9062H317.673C317.954 25.9062 318.223 26.0179 318.422 26.2166C318.62 26.4153 318.732 26.6848 318.732 26.9659C318.732 27.2469 318.62 27.5164 318.422 27.7151C318.223 27.9139 317.954 28.0255 317.673 28.0255Z" fill="#E0E0E0"/>
<path d="M59.13 20.1336C62.056 20.1336 64.428 17.7615 64.428 14.8353C64.428 11.9092 62.056 9.53711 59.13 9.53711C56.204 9.53711 53.832 11.9092 53.832 14.8353C53.832 17.7615 56.204 20.1336 59.13 20.1336Z" fill="#FF5652"/>
<path d="M77.1417 20.1336C80.0677 20.1336 82.4397 17.7615 82.4397 14.8353C82.4397 11.9092 80.0677 9.53711 77.1417 9.53711C74.2157 9.53711 71.8438 11.9092 71.8438 14.8353C71.8438 17.7615 74.2157 20.1336 77.1417 20.1336Z" fill="#FFB43E"/>
<path d="M95.1574 20.1336C98.0833 20.1336 100.455 17.7615 100.455 14.8353C100.455 11.9092 98.0833 9.53711 95.1574 9.53711C92.2314 9.53711 89.8594 11.9092 89.8594 14.8353C89.8594 17.7615 92.2314 20.1336 95.1574 20.1336Z" fill="#00C145"/>
<path d="M134.749 142.067C134.655 142.067 134.562 142.048 134.476 142.013C134.389 141.977 134.311 141.924 134.245 141.858C134.178 141.792 134.126 141.713 134.09 141.627C134.054 141.54 134.036 141.447 134.036 141.354C134.036 133.919 130.777 129.772 125.518 125.49C125.445 125.431 125.385 125.358 125.34 125.276C125.295 125.193 125.267 125.103 125.258 125.009C125.248 124.916 125.257 124.822 125.284 124.732C125.31 124.642 125.355 124.558 125.414 124.485C125.473 124.413 125.546 124.352 125.629 124.308C125.711 124.263 125.802 124.236 125.895 124.226C125.989 124.217 126.083 124.226 126.173 124.253C126.262 124.28 126.346 124.325 126.419 124.384C132.002 128.93 135.462 133.355 135.462 141.354C135.462 141.447 135.443 141.54 135.408 141.627C135.372 141.713 135.319 141.792 135.253 141.858C135.187 141.924 135.108 141.977 135.022 142.013C134.935 142.048 134.842 142.067 134.749 142.067Z" fill="#212B36"/>
<path d="M73.6701 142.067C73.5764 142.067 73.4837 142.048 73.3972 142.013C73.3107 141.977 73.232 141.924 73.1658 141.858C73.0996 141.792 73.0471 141.713 73.0113 141.627C72.9754 141.54 72.957 141.447 72.957 141.354C72.957 133.355 76.4171 128.93 82.0003 124.384C82.0729 124.325 82.1564 124.28 82.2462 124.253C82.3361 124.226 82.4303 124.217 82.5236 124.226C82.617 124.236 82.7075 124.263 82.7901 124.308C82.8727 124.352 82.9457 124.413 83.0049 124.485C83.0641 124.558 83.1084 124.642 83.1352 124.732C83.162 124.822 83.1708 124.916 83.1612 125.009C83.1515 125.103 83.1235 125.193 83.0788 125.276C83.0341 125.358 82.9735 125.431 82.9006 125.49C77.6423 129.772 74.3831 133.919 74.3831 141.354C74.3831 141.447 74.3647 141.54 74.3289 141.627C74.2931 141.713 74.2405 141.792 74.1743 141.858C74.1081 141.924 74.0295 141.977 73.943 142.013C73.8564 142.048 73.7637 142.067 73.6701 142.067Z" fill="#212B36"/>
<path d="M128.643 93.2006C128.496 93.2006 128.352 93.1551 128.232 93.0702C128.111 92.9853 128.02 92.8653 127.971 92.7266C127.922 92.5878 127.916 92.4372 127.956 92.2954C127.996 92.1536 128.078 92.0276 128.192 91.9346C133.598 87.5339 134.037 81.2823 134.037 74.1623C134.037 73.9732 134.113 73.7918 134.246 73.6581C134.38 73.5244 134.561 73.4492 134.751 73.4492C134.94 73.4492 135.121 73.5244 135.255 73.6581C135.388 73.7918 135.464 73.9732 135.464 74.1623C135.464 81.6531 134.984 88.2438 129.093 93.0404C128.966 93.1442 128.807 93.2008 128.643 93.2006Z" fill="#212B36"/>
<path d="M79.7779 92.819C79.614 92.8192 79.455 92.7626 79.3281 92.6588C73.4365 87.8619 72.957 81.4442 72.957 74.1623C72.957 73.9732 73.0322 73.7918 73.1659 73.6581C73.2996 73.5244 73.481 73.4492 73.6701 73.4492C73.8592 73.4492 74.0406 73.5244 74.1743 73.6581C74.308 73.7918 74.3831 73.9732 74.3831 74.1623C74.3831 81.3192 74.8134 87.1443 80.2285 91.553C80.3426 91.6459 80.4252 91.772 80.4649 91.9138C80.5046 92.0556 80.4993 92.2062 80.45 92.345C80.4006 92.4837 80.3095 92.6037 80.1892 92.6886C80.0688 92.7735 79.9252 92.819 79.7779 92.8189V92.819Z" fill="#212B36"/>
<path d="M143.913 108.496H128.643C128.454 108.496 128.272 108.421 128.139 108.288C128.005 108.154 127.93 107.973 127.93 107.783C127.93 107.594 128.005 107.413 128.139 107.279C128.272 107.145 128.454 107.07 128.643 107.07H143.913C144.102 107.07 144.283 107.145 144.417 107.279C144.551 107.413 144.626 107.594 144.626 107.783C144.626 107.973 144.551 108.154 144.417 108.288C144.283 108.421 144.102 108.496 143.913 108.496Z" fill="#212B36"/>
<path d="M79.7762 108.496H64.506C64.3169 108.496 64.1355 108.421 64.0018 108.288C63.8681 108.154 63.793 107.973 63.793 107.783C63.793 107.594 63.8681 107.413 64.0018 107.279C64.1355 107.145 64.3169 107.07 64.506 107.07H79.7762C79.9653 107.07 80.1467 107.145 80.2804 107.279C80.4142 107.413 80.4893 107.594 80.4893 107.783C80.4893 107.973 80.4142 108.154 80.2804 108.288C80.1467 108.421 79.9653 108.496 79.7762 108.496Z" fill="#212B36"/>
<path d="M104.209 139.014C104.115 139.014 104.023 138.995 103.936 138.96C103.85 138.924 103.771 138.871 103.705 138.805C103.639 138.739 103.586 138.66 103.55 138.574C103.514 138.487 103.496 138.394 103.496 138.301V89.4338C103.496 89.2447 103.571 89.0633 103.705 88.9295C103.839 88.7958 104.02 88.7207 104.209 88.7207C104.398 88.7207 104.58 88.7958 104.713 88.9295C104.847 89.0633 104.922 89.2447 104.922 89.4338V138.301C104.922 138.394 104.904 138.487 104.868 138.574C104.832 138.66 104.78 138.739 104.713 138.805C104.647 138.871 104.569 138.924 104.482 138.96C104.396 138.995 104.303 139.014 104.209 139.014Z" fill="#212B36"/>
<path d="M104.208 139.014C97.5411 139.006 91.1497 136.354 86.4357 131.64C81.7217 126.926 79.0701 120.534 79.0625 113.867V95.5285C79.0625 83.7853 88.6976 76.4902 104.208 76.4902C120.423 76.4902 129.353 83.2516 129.353 95.5285V113.867C129.346 120.534 126.694 126.926 121.98 131.64C117.266 136.354 110.874 139.006 104.208 139.014ZM104.208 77.9164C92.7412 77.9164 80.4886 82.543 80.4886 95.5285V113.867C80.4869 116.983 81.0991 120.069 82.2904 122.948C83.4816 125.828 85.2285 128.444 87.4312 130.648C89.6339 132.852 92.2493 134.601 95.1279 135.793C98.0065 136.986 101.092 137.6 104.208 137.6C107.324 137.6 110.409 136.986 113.288 135.793C116.166 134.601 118.782 132.852 120.985 130.648C123.187 128.444 124.934 125.828 126.125 122.948C127.317 120.069 127.929 116.983 127.927 113.867V95.5285C127.927 80.2046 113.066 77.9164 104.208 77.9164Z" fill="#212B36"/>
<path d="M89.5938 80.8925C89.4511 80.8925 89.3117 80.8497 89.1936 80.7697C89.0755 80.6896 88.9841 80.5759 88.9313 80.4434C88.5194 79.4125 88.2813 78.3206 88.2266 77.2119C88.239 72.9843 89.9212 68.9329 92.9068 65.94C95.8925 62.947 99.9397 61.255 104.167 61.2324H104.249C108.471 61.2526 112.514 62.9386 115.499 65.9239C118.485 68.9093 120.171 72.9525 120.192 77.1746C120.155 78.2061 119.935 79.2228 119.543 80.1774C119.47 80.3509 119.332 80.4887 119.158 80.5605C118.984 80.6324 118.788 80.6325 118.614 80.5609C118.44 80.4893 118.302 80.3518 118.228 80.1783C118.155 80.0048 118.154 79.8095 118.224 79.6349C118.55 78.8443 118.733 78.0025 118.767 77.1482C118.741 73.3077 117.203 69.6322 114.484 66.9195C111.766 64.2067 108.087 62.6756 104.247 62.6586H104.169C100.324 62.6777 96.6425 64.2136 93.9241 66.9325C91.2057 69.6513 89.6703 73.3333 89.6516 77.1781C89.7022 78.1172 89.9062 79.0417 90.2557 79.9148C90.2987 80.023 90.3146 80.1401 90.302 80.2558C90.2894 80.3715 90.2487 80.4824 90.1834 80.5788C90.1182 80.6752 90.0304 80.7542 89.9276 80.8089C89.8248 80.8636 89.7102 80.8923 89.5938 80.8925H89.5938Z" fill="#212B36"/>
<path d="M176.63 77.0143H168.073C166.75 77.0143 165.48 76.4884 164.544 75.5523C163.608 74.6162 163.082 73.3466 163.082 72.0228C163.082 70.699 163.608 69.4293 164.544 68.4932C165.48 67.5571 166.75 67.0312 168.073 67.0312H176.63C177.954 67.0313 179.223 67.5571 180.159 68.4932C181.095 69.4293 181.621 70.699 181.621 72.0228C181.621 73.3466 181.095 74.6162 180.159 75.5523C179.223 76.4884 177.954 77.0143 176.63 77.0143Z" fill="#E7E7E7"/>
<path d="M235.099 98.0495H226.542C225.218 98.0495 223.949 97.5236 223.013 96.5875C222.077 95.6514 221.551 94.3818 221.551 93.058C221.551 91.7341 222.077 90.4645 223.013 89.5284C223.949 88.5923 225.218 88.0664 226.542 88.0664H235.099C236.422 88.0664 237.692 88.5923 238.628 89.5284C239.564 90.4645 240.09 91.7341 240.09 93.058C240.09 94.3818 239.564 95.6514 238.628 96.5875C237.692 97.5236 236.422 98.0495 235.099 98.0495Z" fill="#E7E7E7"/>
<path d="M262.192 98.0495H253.636C252.312 98.0495 251.042 97.5236 250.106 96.5875C249.17 95.6514 248.645 94.3818 248.645 93.058C248.645 91.7341 249.17 90.4645 250.106 89.5284C251.042 88.5923 252.312 88.0664 253.636 88.0664H262.192C263.516 88.0664 264.786 88.5923 265.722 89.5284C266.658 90.4645 267.184 91.7341 267.184 93.058C267.184 94.3818 266.658 95.6514 265.722 96.5875C264.786 97.5236 263.516 98.0495 262.192 98.0495Z" fill="#E7E7E7"/>
<path d="M289.29 98.0495H280.733C279.41 98.0495 278.14 97.5236 277.204 96.5875C276.268 95.6514 275.742 94.3818 275.742 93.058C275.742 91.7341 276.268 90.4645 277.204 89.5284C278.14 88.5923 279.41 88.0664 280.733 88.0664H289.29C290.614 88.0664 291.883 88.5923 292.819 89.5284C293.755 90.4645 294.281 91.7341 294.281 93.058C294.281 94.3818 293.755 95.6514 292.819 96.5875C291.883 97.5236 290.614 98.0495 289.29 98.0495Z" fill="#E7E7E7"/>
<path d="M235.812 77.3718H195.882C194.558 77.3718 193.289 76.8459 192.353 75.9098C191.416 74.9737 190.891 73.7041 190.891 72.3802C190.891 71.0564 191.416 69.7868 192.353 68.8507C193.289 67.9146 194.558 67.3887 195.882 67.3887H235.812C237.136 67.3887 238.406 67.9146 239.342 68.8507C240.278 69.7868 240.804 71.0564 240.804 72.3802C240.804 73.7041 240.278 74.9737 239.342 75.9098C238.406 76.8459 237.136 77.3718 235.812 77.3718Z" fill="#E7E7E7"/>
<path d="M208.004 97.3366H168.073C166.75 97.3366 165.48 96.8107 164.544 95.8746C163.608 94.9385 163.082 93.6689 163.082 92.3451C163.082 91.0212 163.608 89.7516 164.544 88.8155C165.48 87.8794 166.75 87.3535 168.073 87.3535H208.004C209.328 87.3535 210.597 87.8794 211.533 88.8155C212.469 89.7516 212.995 91.0212 212.995 92.3451C212.995 93.6689 212.469 94.9385 211.533 95.8746C210.597 96.8107 209.328 97.3366 208.004 97.3366Z" fill="#E7E7E7"/>
<path d="M286.437 77.3718H255.776C254.453 77.3718 253.183 76.8459 252.247 75.9098C251.311 74.9737 250.785 73.7041 250.785 72.3802C250.785 71.0564 251.311 69.7868 252.247 68.8507C253.183 67.9146 254.453 67.3887 255.776 67.3887H286.437C287.761 67.3887 289.031 67.9146 289.967 68.8507C290.903 69.7868 291.429 71.0564 291.429 72.3802C291.429 73.7041 290.903 74.9737 289.967 75.9098C289.031 76.8459 287.761 77.3718 286.437 77.3718Z" fill="#E7E7E7"/>
<path d="M176.63 119.087H168.073C166.75 119.087 165.48 118.561 164.544 117.625C163.608 116.689 163.082 115.419 163.082 114.095C163.082 112.771 163.608 111.502 164.544 110.566C165.48 109.629 166.75 109.104 168.073 109.104H176.63C177.954 109.104 179.223 109.629 180.159 110.566C181.095 111.502 181.621 112.771 181.621 114.095C181.621 115.419 181.095 116.689 180.159 117.625C179.223 118.561 177.954 119.087 176.63 119.087Z" fill="#E7E7E7"/>
<path d="M235.812 119.442H195.882C194.558 119.442 193.289 118.916 192.353 117.98C191.416 117.044 190.891 115.774 190.891 114.451C190.891 113.127 191.416 111.857 192.353 110.921C193.289 109.985 194.558 109.459 195.882 109.459H235.812C237.136 109.459 238.406 109.985 239.342 110.921C240.278 111.857 240.804 113.127 240.804 114.451C240.804 115.774 240.278 117.044 239.342 117.98C238.406 118.916 237.136 119.442 235.812 119.442Z" fill="#E7E7E7"/>
<path d="M286.437 119.442H255.776C254.453 119.442 253.183 118.916 252.247 117.98C251.311 117.044 250.785 115.774 250.785 114.451C250.785 113.127 251.311 111.857 252.247 110.921C253.183 109.985 254.453 109.459 255.776 109.459H286.437C287.761 109.459 289.031 109.985 289.967 110.921C290.903 111.857 291.429 113.127 291.429 114.451C291.429 115.774 290.903 117.044 289.967 117.98C289.031 118.916 287.761 119.442 286.437 119.442Z" fill="#E7E7E7"/>
<path d="M272.891 136.201C272.892 134.877 273.418 133.608 274.354 132.673C275.29 131.737 276.559 131.21 277.882 131.209H286.438C287.762 131.209 289.032 131.735 289.968 132.671C290.904 133.607 291.43 134.877 291.43 136.201C291.43 137.524 290.904 138.794 289.968 139.73C289.032 140.666 287.762 141.192 286.438 141.192H277.882C276.559 141.191 275.29 140.664 274.354 139.728C273.418 138.793 272.892 137.524 272.891 136.201Z" fill="#E7E7E7"/>
<path d="M213.707 136.556C213.709 135.233 214.235 133.964 215.171 133.028C216.106 132.092 217.375 131.566 218.698 131.564H258.629C259.953 131.564 261.222 132.09 262.158 133.026C263.094 133.963 263.62 135.232 263.62 136.556C263.62 137.88 263.094 139.149 262.158 140.086C261.222 141.022 259.953 141.548 258.629 141.548H218.698C217.375 141.546 216.106 141.02 215.171 140.084C214.235 139.148 213.709 137.879 213.707 136.556Z" fill="#E7E7E7"/>
<path d="M163.082 136.556C163.084 135.233 163.61 133.964 164.546 133.028C165.481 132.092 166.75 131.566 168.073 131.564H198.734C200.058 131.564 201.328 132.09 202.264 133.026C203.2 133.963 203.726 135.232 203.726 136.556C203.726 137.88 203.2 139.149 202.264 140.086C201.328 141.022 200.058 141.548 198.734 141.548H168.073C166.75 141.546 165.481 141.02 164.546 140.084C163.61 139.148 163.084 137.879 163.082 136.556Z" fill="#E7E7E7"/>
</g>
<defs>
<clipPath id="clip0_3088_1321">
<rect width="492" height="320" fill="white"/>
</clipPath>
</defs>
</svg>
