<svg width="342" height="227" viewBox="0 0 342 227" fill="none" xmlns="http://www.w3.org/2000/svg">
<g clip-path="url(#clip0_3088_1277)">
<path d="M173.255 63.8008C170.206 58.7594 166.592 53.3767 160.933 51.7305C154.38 49.8242 147.648 53.6112 141.937 57.3482C124.86 68.5244 108.415 80.6363 92.6758 93.6283L92.693 93.824C104.946 92.9793 117.2 92.1347 129.453 91.29C138.306 90.6798 147.463 89.9853 155.287 85.7991C158.255 84.2106 161.149 82.0886 164.513 81.9408C168.693 81.7571 172.337 84.6749 175.201 87.7233C192.143 105.756 197.045 133.332 216.051 149.175C204.067 119.63 189.756 91.083 173.255 63.8008Z" fill="#F2F2F2"/>
<path d="M277.391 216.75C275.518 214.385 274.752 213.831 272.904 211.445C257.858 191.992 243.715 171.882 230.476 151.115C221.484 137.011 212.937 122.637 204.837 107.991C200.98 101.028 197.229 94.0108 193.584 86.9388C190.756 81.4553 187.991 75.9391 185.288 70.39C184.516 68.8051 183.765 67.2128 183.018 65.617C181.257 61.8642 179.529 58.0932 177.674 54.3914C175.56 50.1722 172.986 45.749 169.104 42.9143C167.338 41.5714 165.225 40.7588 163.013 40.5716C159.853 40.3675 156.937 41.6719 154.196 43.0965C134.141 53.5497 115.365 66.6554 98.3831 81.5683C81.3573 96.5146 66.139 113.4 53.0385 131.881C52.6377 132.453 51.6899 131.907 52.0945 131.331C53.6874 129.08 55.3119 126.852 56.968 124.649C77.5599 97.274 102.809 73.7329 131.56 55.1018C136.397 51.9684 141.325 48.982 146.345 46.1425C148.874 44.7106 151.415 43.2969 153.999 41.9707C156.533 40.6699 159.223 39.5004 162.117 39.4566C171.966 39.3036 177.065 50.4527 180.568 57.9547C181.669 60.3157 182.783 62.6694 183.91 65.0158C188.171 73.9242 192.597 82.7512 197.186 91.4968C200.018 96.8965 202.912 102.265 205.868 107.601C215.068 124.219 224.847 140.501 235.204 156.446C248.924 177.567 262.534 196.226 278.164 215.977C278.594 216.524 277.825 217.303 277.391 216.75Z" fill="#E4E4E4"/>
<path d="M97.4072 76.063C96.8349 75.4254 96.2663 74.7878 95.6903 74.1502C91.1486 69.1294 86.2753 64.167 80.0385 61.2886C77.0648 59.8728 73.8185 59.1207 70.5249 59.0843C67.1205 59.0952 63.7926 59.9879 60.647 61.2376C59.1597 61.8315 57.7053 62.5055 56.2729 63.2233C54.6362 64.0467 53.0287 64.9249 51.4286 65.8102C48.425 67.4717 45.4604 69.206 42.5347 71.0131C36.7135 74.6093 31.0746 78.4799 25.618 82.625C22.7893 84.7746 20.0191 86.9948 17.3072 89.2853C14.7848 91.4131 12.3135 93.598 9.89319 95.84C9.37562 96.3173 8.60282 95.5448 9.12039 95.0676C9.75828 94.4737 10.4035 93.8834 11.0486 93.3005C12.8712 91.6536 14.7229 90.0383 16.6038 88.4546C20.0337 85.5616 23.5523 82.7804 27.1598 80.111C32.7696 75.9574 38.5725 72.0855 44.5685 68.4955C47.5648 66.7029 50.6024 64.9856 53.6811 63.3436C54.6107 62.848 55.5512 62.3635 56.5025 61.9044C58.6611 60.816 60.904 59.9034 63.2093 59.1754C66.475 58.1194 69.9301 57.7801 73.3389 58.1807C76.6303 58.6593 79.8013 59.7558 82.6849 61.4125C88.8085 64.8338 93.5579 70.1241 98.1799 75.287C98.6466 75.8116 97.8774 76.5877 97.4072 76.063Z" fill="#E4E4E4"/>
<path d="M222.877 128.091L237.551 122.726L244.837 120.063C247.21 119.195 249.577 118.208 252.03 117.586C254.161 116.978 256.424 117.007 258.54 117.669C260.426 118.367 262.153 119.437 263.618 120.816C265.114 122.193 266.506 123.679 267.783 125.262C269.369 127.167 270.932 129.093 272.502 131.012C278.98 138.932 285.417 146.886 291.811 154.875C298.205 162.863 304.556 170.886 310.864 178.943C317.188 187.019 323.469 195.129 329.706 203.272C330.47 204.27 331.233 205.268 331.996 206.267C332.417 206.819 333.367 206.275 332.94 205.715C326.657 197.49 320.33 189.298 313.96 181.139C307.574 172.962 301.143 164.818 294.669 156.71C288.195 148.602 281.677 140.529 275.115 132.491C273.48 130.488 271.843 128.488 270.203 126.49C268.819 124.804 267.451 123.101 265.934 121.532C263.148 118.652 259.668 116.108 255.503 116.039C253.053 115.998 250.683 116.775 248.408 117.598C245.954 118.485 243.507 119.389 241.057 120.284L226.281 125.687L222.587 127.037C221.931 127.277 222.214 128.333 222.877 128.091L222.877 128.091Z" fill="#E4E4E4"/>
<path d="M78.1088 67.6061C70.6519 63.7753 61.1024 64.5256 54.25 69.3116C67.3204 71.5656 80.2477 74.5815 92.9659 78.3439C87.6845 75.2502 83.5532 70.4031 78.1088 67.6061Z" fill="#F2F2F2"/>
<path d="M54.1777 69.2969L52.7422 70.4632C53.2278 70.055 53.7326 69.6723 54.2511 69.3101C54.2266 69.3058 54.2022 69.3011 54.1777 69.2969Z" fill="#F2F2F2"/>
<path d="M263.067 128.144C261.622 126.386 260.06 124.546 257.9 123.832L255.883 123.912C271.238 151.033 291.976 174.731 316.824 193.552C298.905 171.749 280.986 149.946 263.067 128.144Z" fill="#F2F2F2"/>
<path d="M137.633 113.646C138.567 117.036 140.67 119.987 143.57 121.976C144.692 122.74 146.018 123.472 146.402 124.772C146.604 125.601 146.479 126.476 146.054 127.217C145.63 127.947 145.114 128.621 144.519 129.22L144.465 129.424C141.682 127.775 139.035 125.69 137.498 122.846C135.961 120.001 135.746 116.272 137.633 113.646" fill="#F2F2F2"/>
<path d="M230.278 194.326C231.211 197.716 233.314 200.667 236.215 202.656C237.336 203.419 238.663 204.151 239.046 205.452C239.248 206.281 239.124 207.156 238.699 207.896C238.275 208.627 237.759 209.3 237.164 209.9L237.109 210.103C234.327 208.455 231.679 206.37 230.142 203.525C228.605 200.68 228.391 196.952 230.278 194.326" fill="#F2F2F2"/>
<path d="M45.3873 188.764C46.3208 192.154 48.4237 195.104 51.3241 197.094C52.4455 197.857 53.7722 198.589 54.1558 199.889C54.3576 200.719 54.2332 201.594 53.8084 202.334C53.3844 203.064 52.8684 203.738 52.2731 204.337L52.2188 204.541C49.4361 202.893 46.7888 200.807 45.2517 197.963C43.7146 195.118 43.5 191.389 45.3873 188.764" fill="#F2F2F2"/>
<path d="M258.149 40.5394C269.349 40.5394 278.428 31.4643 278.428 20.2697C278.428 9.07505 269.349 0 258.149 0C246.95 0 237.871 9.07505 237.871 20.2697C237.871 31.4643 246.95 40.5394 258.149 40.5394Z" fill="#3056D3"/>
<path d="M294.743 4.71728C284.915 3.38944 273.695 8.69916 271.148 18.2795C270.506 16.5761 269.339 15.1208 267.815 14.1238C266.292 13.1269 264.491 12.6398 262.672 12.7331C260.853 12.8264 259.112 13.4952 257.698 14.6428C256.285 15.7904 255.273 17.3575 254.809 19.1176L255.934 19.9231C276.994 24.4755 298.795 24.377 319.814 19.6344C312.978 12.453 304.571 6.0451 294.743 4.71728Z" fill="#F0F0F0"/>
<path d="M252.598 31.7446C242.771 30.4168 231.551 35.7265 229.003 45.3069C228.361 43.6035 227.194 42.1482 225.671 41.1512C224.147 40.1542 222.346 39.6672 220.527 39.7605C218.709 39.8537 216.967 40.5225 215.554 41.6701C214.14 42.8178 213.128 44.3848 212.664 46.145L213.789 46.9504C234.85 51.5029 256.651 51.4044 277.669 46.6618C270.833 39.4803 262.426 33.0724 252.598 31.7446Z" fill="#F0F0F0"/>
<path d="M338.375 36.8547C338.335 36.8548 338.294 36.8485 338.255 36.8361C233.124 3.60245 140.465 7.94833 81.2459 17.4463C73.1868 18.7384 65.1062 20.2307 57.2285 21.8822C55.2173 22.3033 53.1308 22.7547 51.027 23.2247C48.5146 23.784 46.0355 24.36 43.6584 24.936C42.6317 25.179 41.6251 25.4239 40.6386 25.6707C39.1442 26.0395 37.6279 26.4237 36.0025 26.846C34.1863 27.3141 32.3409 27.8051 30.5165 28.3054C30.5098 28.3077 30.503 28.3097 30.4961 28.3112L30.4963 28.3116C28.4356 28.874 26.3858 29.4527 24.4036 30.0306C23.3307 30.3403 22.2948 30.6458 21.3025 30.9474C21.1916 30.978 21.0934 31.0075 20.9938 31.0378L20.7806 31.1026C20.6571 31.1403 20.5352 31.1771 20.4133 31.2121L20.4055 31.2144L20.4057 31.2148L20.083 31.315C19.6982 31.4314 19.3228 31.5451 18.9535 31.6585C9.19409 34.6657 3.82903 36.8051 3.77602 36.826C3.72756 36.8454 3.67574 36.8551 3.62353 36.8545C3.57132 36.8539 3.51973 36.843 3.47172 36.8225C3.42371 36.802 3.38022 36.7722 3.34372 36.7349C3.30722 36.6976 3.27844 36.6534 3.25901 36.605C3.23958 36.5565 3.2299 36.5047 3.23049 36.4525C3.23109 36.4003 3.24197 36.3488 3.2625 36.3008C3.28304 36.2528 3.31283 36.2093 3.35017 36.1729C3.38751 36.1364 3.43168 36.1076 3.48014 36.0882C3.53354 36.0672 8.92482 33.917 18.7197 30.8985C19.0904 30.7848 19.4668 30.6711 19.8528 30.5542L20.1525 30.4611C20.1628 30.4572 20.1731 30.4541 20.1836 30.451C20.305 30.4164 20.4261 30.3796 20.5492 30.3423L20.7627 30.2775C20.8691 30.2453 20.974 30.2134 21.0813 30.1839C22.0668 29.8843 23.1063 29.5781 24.1819 29.2672C26.1649 28.6889 28.2166 28.1102 30.2789 27.547C30.2853 27.5447 30.2919 27.5431 30.2983 27.5412V27.5408C32.1291 27.0389 33.9813 26.546 35.8033 26.0764C37.4313 25.6537 38.9505 25.2687 40.4474 24.8992C41.4381 24.6527 42.4466 24.4073 43.4729 24.1629C45.8528 23.5861 48.3369 23.0094 50.8538 22.4489C52.9609 21.9785 55.0509 21.5259 57.0654 21.1044C64.9553 19.4502 73.0486 17.9555 81.1199 16.6615C140.424 7.14997 233.215 2.79707 338.495 36.0784C338.585 36.107 338.663 36.167 338.713 36.2476C338.763 36.3282 338.783 36.424 338.768 36.5178C338.754 36.6116 338.706 36.6972 338.634 36.7589C338.562 36.8207 338.47 36.8547 338.375 36.8547Z" fill="#CCCCCC"/>
<path d="M104.57 166.864C104.432 166.462 104.2 166.098 103.894 165.803C103.781 165.698 103.658 165.603 103.528 165.521C102.49 164.829 100.94 164.674 99.9536 165.521C99.8543 165.607 99.7625 165.701 99.6792 165.803C99.385 166.164 99.0828 166.518 98.7727 166.864C98.2637 167.444 97.7429 168.005 97.1981 168.549C97.0431 168.7 96.888 168.855 96.729 169.006C96.6375 169.098 96.5461 169.185 96.4546 169.272C96.1047 169.606 95.7468 169.928 95.385 170.246C95.1942 170.417 95.0033 170.584 94.8085 170.747C94.5182 170.989 94.228 171.232 93.9337 171.466C93.9059 171.486 93.8781 171.506 93.8502 171.53C93.8423 171.534 93.8383 171.542 93.8304 171.546C93.8264 171.546 93.8224 171.546 93.8184 171.554C93.8077 171.558 93.7981 171.565 93.7906 171.574C93.7031 171.633 93.6435 171.673 93.5997 171.709C93.6156 171.701 93.6315 171.689 93.6475 171.681C93.5759 171.737 93.5003 171.792 93.4288 171.848C92.7329 172.361 92.0212 172.853 91.2936 173.314C89.4933 174.466 87.6024 175.47 85.6395 176.315C85.5083 176.367 85.3731 176.422 85.2379 176.474C80.0986 178.579 74.5236 179.4 68.9954 178.867C68.4308 178.823 67.8661 178.763 67.3016 178.688C66.6495 178.593 66.0014 178.477 65.3572 178.346C62.905 177.857 60.5056 177.133 58.1922 176.184C55.2984 174.859 52.5462 173.246 49.9775 171.367C49.5799 171.085 49.1783 170.803 48.7767 170.528C49.234 169.408 49.6833 168.287 50.1207 167.158C50.3394 166.614 50.5501 166.069 50.7569 165.521C52.3831 161.296 53.9099 157.031 55.3731 152.751C56.8523 148.415 58.2479 144.053 59.56 139.667C59.6952 139.222 59.8264 138.777 59.9537 138.331C60.6415 136.014 61.3016 133.692 61.9338 131.364C61.9934 131.138 62.057 130.915 62.1127 130.688C62.2956 130.021 62.4745 129.353 62.6495 128.685C63.0471 127.179 62.1485 125.379 60.566 125.017C59.804 124.822 58.996 124.93 58.3122 125.318C57.6283 125.707 57.122 126.345 56.9 127.1C56.729 127.743 56.558 128.383 56.3831 129.027C55.5441 132.139 54.6614 135.241 53.735 138.331C53.5998 138.777 53.4646 139.222 53.3294 139.667C51.2857 146.399 49.0418 153.065 46.5978 159.662C46.3036 160.461 46.0054 161.257 45.7032 162.051C45.5561 162.44 45.4089 162.83 45.2579 163.219C44.9676 163.986 44.6694 164.754 44.3712 165.521C44.2002 165.97 44.0252 166.419 43.8503 166.864C43.735 167.146 43.6237 167.428 43.5123 167.707C42.3787 167.3 41.2041 167.017 40.0094 166.864L39.8185 166.84C38.8922 166.729 37.9555 166.737 37.0312 166.864C35.648 167.025 34.317 167.488 33.1325 168.22C31.948 168.953 30.9388 169.936 30.1764 171.101C28.2797 174.086 28.3036 178.354 30.9636 180.89C33.7032 183.501 37.8503 183.481 41.075 181.848C42.7838 180.924 44.2247 179.574 45.2579 177.929C45.6537 177.333 46.0173 176.716 46.3473 176.081C46.4308 176.136 46.5143 176.192 46.5978 176.252C46.9159 176.474 47.234 176.701 47.5481 176.923C49.3783 178.249 51.3071 179.433 53.3175 180.465C57.6403 182.613 62.2936 184.019 67.0829 184.626C67.1902 184.638 67.2936 184.654 67.401 184.666C67.9298 184.733 68.4626 184.785 68.9954 184.828C76.6384 185.404 84.2907 183.841 91.0948 180.313C91.6713 180.015 92.2425 179.703 92.8085 179.376C93.6872 178.867 94.5461 178.326 95.385 177.754C95.8423 177.444 96.2876 177.13 96.729 176.8C98.6576 175.38 100.455 173.791 102.101 172.051C102.725 171.395 103.323 170.718 103.894 170.02C104.434 169.449 104.745 168.699 104.769 167.913C104.766 167.554 104.698 167.199 104.57 166.864ZM38.729 176.331C38.8125 176.271 38.896 176.208 38.9756 176.144C38.9517 176.204 38.8364 176.271 38.7291 176.331H38.729ZM40.0054 175.047C39.9139 175.151 39.8304 175.254 39.739 175.357C39.4608 175.669 39.1619 175.961 38.8443 176.232C38.8006 176.271 38.7529 176.311 38.7052 176.347C38.7047 176.347 38.7041 176.347 38.7036 176.347C38.7032 176.347 38.7027 176.348 38.7023 176.348C38.702 176.348 38.7017 176.349 38.7015 176.349C38.7013 176.35 38.7012 176.35 38.7012 176.351C38.6438 176.377 38.588 176.406 38.5342 176.438C38.3632 176.542 38.1883 176.637 38.0094 176.725C37.659 176.853 37.2986 176.953 36.9318 177.023C36.65 177.043 36.3671 177.046 36.0849 177.031H36.077C35.8822 176.987 35.6898 176.934 35.5004 176.872C35.405 176.824 35.3135 176.768 35.2221 176.713C35.1863 176.681 35.1545 176.649 35.1346 176.629C35.0958 176.594 35.0599 176.555 35.0273 176.514C35.0273 176.513 35.0272 176.513 35.027 176.512C35.0268 176.512 35.0265 176.511 35.0261 176.511C35.0258 176.511 35.0253 176.51 35.0248 176.51C35.0243 176.51 35.0238 176.51 35.0233 176.51C34.9795 176.43 34.9318 176.351 34.8881 176.271C34.8858 176.269 34.8844 176.267 34.8841 176.264C34.8523 176.164 34.8245 176.061 34.8006 175.957C34.792 175.776 34.7933 175.594 34.8046 175.413C34.858 175.159 34.9297 174.909 35.0193 174.666C35.0998 174.493 35.1915 174.326 35.2937 174.165C35.3016 174.149 35.3414 174.086 35.3851 174.014C35.3891 174.01 35.3891 174.01 35.3891 174.006C35.4487 173.938 35.5084 173.867 35.572 173.803C35.6794 173.684 35.7947 173.581 35.91 173.473C36.1342 173.327 36.3665 173.193 36.6058 173.072C36.9854 172.937 37.3749 172.832 37.7708 172.758C38.3546 172.712 38.9414 172.717 39.5243 172.774C40.0764 172.87 40.6211 173.004 41.1545 173.175C40.8312 173.803 40.4631 174.406 40.0531 174.98C40.0372 175.004 40.0213 175.027 40.0054 175.047ZM35.5839 173.74C35.5489 173.796 35.5075 173.848 35.4607 173.895C35.4922 173.836 35.5339 173.784 35.5839 173.74Z" fill="#212B36"/>
<path d="M92.614 126.272C92.5782 127.52 92.5424 128.768 92.5066 130.016C92.4311 132.786 92.3529 135.558 92.272 138.33C92.1885 141.45 92.1011 144.569 92.0096 147.686C91.9659 149.296 91.9208 150.906 91.8744 152.515C91.7512 156.851 91.6292 161.186 91.5086 165.52C91.4967 165.969 91.4808 166.414 91.4689 166.863C91.4092 169.013 91.3496 171.163 91.2899 173.313C91.2223 175.646 91.1561 177.979 91.0911 180.312C91.0434 182.061 90.9944 183.811 90.944 185.563C90.5862 198.253 90.2283 210.944 89.8705 223.634C89.8553 224.42 89.5363 225.169 88.9803 225.725C88.4243 226.281 87.6745 226.6 86.8884 226.615C86.0994 226.608 85.3446 226.292 84.7867 225.735C84.2288 225.177 83.9126 224.423 83.9062 223.634C84.1051 216.496 84.3065 209.358 84.5106 202.22C84.6895 195.765 84.8711 189.311 85.0553 182.856C85.115 180.73 85.1746 178.602 85.2343 176.473C85.3257 173.27 85.4159 170.066 85.5047 166.863C85.5166 166.414 85.5325 165.969 85.5444 165.52C85.5524 165.126 85.5643 164.737 85.5762 164.343C85.7512 158.123 85.9261 151.902 86.1011 145.679C86.1726 143.231 86.2416 140.781 86.3078 138.33C86.3873 135.536 86.4669 132.744 86.5464 129.952C86.5822 128.724 86.614 127.5 86.6498 126.272C86.6649 125.486 86.9839 124.737 87.5399 124.181C88.096 123.625 88.8457 123.306 89.6319 123.291C90.4208 123.297 91.1756 123.613 91.7335 124.171C92.2914 124.729 92.6076 125.483 92.614 126.272Z" fill="#212B36"/>
<path d="M256.205 127.1C253.077 138.935 249.34 150.602 245.007 162.051C243.812 165.21 242.589 168.362 241.281 171.476L241.582 170.763C240.998 172.247 240.253 173.661 239.359 174.981C239.298 175.066 239.237 175.151 239.174 175.234C239.483 174.839 239.541 174.761 239.35 175C239.249 175.119 239.149 175.239 239.044 175.356C238.766 175.667 238.467 175.96 238.15 176.231C238.07 176.3 237.989 176.367 237.907 176.432L238.28 176.142C238.237 176.244 237.933 176.38 237.838 176.437C237.532 176.622 237.212 176.784 236.882 176.922L237.594 176.621C237.053 176.839 236.489 176.994 235.912 177.083L236.705 176.976C236.138 177.054 235.564 177.06 234.996 176.994L235.789 177.101C235.324 177.037 234.869 176.914 234.435 176.736L235.147 177.037C234.916 176.936 234.692 176.817 234.48 176.681C234.372 176.61 234.04 176.359 234.474 176.69C234.924 177.035 234.532 176.72 234.439 176.629C234.362 176.552 234.292 176.47 234.216 176.392C233.866 176.033 234.612 177.011 234.374 176.59C234.247 176.379 234.13 176.162 234.025 175.94L234.326 176.652C234.189 176.313 234.092 175.959 234.036 175.598L234.143 176.39C234.086 175.941 234.085 175.487 234.141 175.037L234.035 175.83C234.108 175.328 234.241 174.837 234.43 174.367L234.13 175.079C234.262 174.763 234.419 174.457 234.598 174.165C234.681 174.015 234.778 173.872 234.888 173.74C234.907 173.746 234.383 174.341 234.661 174.041C234.734 173.962 234.802 173.879 234.876 173.801C234.993 173.677 235.12 173.562 235.244 173.444C235.659 173.049 234.662 173.828 235.142 173.516C235.489 173.287 235.855 173.088 236.235 172.92L235.523 173.22C236.159 172.959 236.827 172.78 237.509 172.688L236.716 172.794C237.57 172.696 238.433 172.706 239.285 172.825L238.492 172.718C239.57 172.881 240.624 173.178 241.63 173.6L240.918 173.3C243.061 174.219 244.959 175.585 246.853 176.924C248.683 178.248 250.611 179.432 252.621 180.464C256.944 182.612 261.598 184.019 266.387 184.626C273.256 185.467 280.227 184.571 286.659 182.019C293.091 179.466 298.779 175.341 303.201 170.019C303.74 169.447 304.051 168.697 304.074 167.912C304.068 167.122 303.755 166.366 303.201 165.804C302.106 164.8 300.04 164.517 298.983 165.804C297.982 167.026 296.905 168.184 295.76 169.272C295.225 169.78 294.676 170.271 294.113 170.747C293.791 171.019 293.465 171.285 293.134 171.546C292.978 171.67 292.491 171.999 293.239 171.468C293.067 171.589 292.903 171.722 292.734 171.847C290.23 173.692 287.516 175.235 284.649 176.444L285.362 176.143C282.286 177.433 279.055 178.318 275.751 178.775L276.544 178.669C273.145 179.116 269.701 179.11 266.304 178.654L267.097 178.76C263.7 178.294 260.377 177.389 257.213 176.069L257.925 176.37C254.872 175.019 251.974 173.341 249.283 171.365C247.882 170.329 246.405 169.399 244.864 168.586C243.069 167.669 241.125 167.079 239.123 166.841C235.37 166.4 231.546 167.861 229.483 171.102C227.584 174.085 227.608 178.353 230.267 180.889C233.006 183.502 237.154 183.479 240.381 181.845C243.489 180.272 245.356 177.002 246.669 173.92C249.624 166.982 252.24 159.884 254.677 152.751C257.088 145.693 259.275 138.563 261.237 131.363C261.48 130.471 261.72 129.578 261.956 128.684C262.354 127.179 261.454 125.378 259.873 125.018C259.111 124.822 258.302 124.929 257.618 125.317C256.933 125.706 256.427 126.345 256.204 127.1L256.205 127.1Z" fill="#212B36"/>
<path d="M285.96 126.272L284.886 164.344L283.819 202.219L283.215 223.634C283.222 224.423 283.538 225.177 284.096 225.735C284.654 226.292 285.408 226.608 286.197 226.615C286.983 226.6 287.733 226.281 288.289 225.725C288.845 225.17 289.164 224.42 289.179 223.634L290.252 185.562L291.32 147.688L291.924 126.272C291.917 125.483 291.601 124.729 291.043 124.172C290.485 123.614 289.731 123.298 288.942 123.291C288.156 123.306 287.406 123.625 286.85 124.181C286.294 124.737 285.975 125.486 285.96 126.272Z" fill="#212B36"/>
<path opacity="0.2" d="M182.739 213.004H183.665V170.858H205.267V169.935H183.665V152.152H200.348C200.103 151.841 199.851 151.534 199.593 151.231H183.665V139.485C183.359 139.355 183.05 139.229 182.739 139.11V151.231H164.588V136.182C164.277 136.196 163.97 136.217 163.662 136.243V151.231H149.18V140.003C148.869 140.14 148.563 140.285 148.259 140.437V151.231H136.086V152.152H148.259V169.935H136.086V170.858H148.259V213.004H149.18V170.858C151.082 170.858 152.965 171.232 154.723 171.96C156.48 172.687 158.076 173.753 159.421 175.097C160.766 176.441 161.832 178.037 162.56 179.794C163.288 181.55 163.662 183.433 163.662 185.333V213.004H164.588V170.858H182.739V213.004ZM149.18 169.935V152.152H163.662V169.935H149.18ZM164.588 169.935V152.152H164.951C167.287 152.152 169.6 152.612 171.759 153.506C173.917 154.4 175.878 155.71 177.53 157.361C179.182 159.012 180.492 160.973 181.386 163.13C182.28 165.288 182.74 167.6 182.739 169.935H164.588Z" fill="black"/>
<path d="M177.086 200.369C175.921 205.567 173.128 210.258 169.114 213.762C168.82 214.017 168.526 214.263 168.22 214.506C167.476 214.573 166.738 214.642 166.005 214.712C165.396 214.768 164.796 214.828 164.2 214.883L164.092 214.895L164.017 214.243L163.715 211.604C162.542 209.691 161.816 207.539 161.589 205.307C161.361 203.075 161.64 200.821 162.402 198.711C163.452 195.881 165.353 193.381 167.222 190.901C169.802 187.475 172.311 184.089 172.402 179.912C173.672 181.536 174.728 183.317 175.544 185.21C174.774 185.572 174.082 186.081 173.508 186.708C173.345 186.887 173.182 187.138 173.293 187.352C173.388 187.535 173.627 187.579 173.834 187.603C174.331 187.654 174.832 187.706 175.329 187.758C175.726 187.801 176.124 187.841 176.522 187.885C177.003 189.463 177.329 191.084 177.496 192.726C177.764 195.279 177.626 197.859 177.086 200.369Z" fill="#212B36"/>
<path d="M190.286 189.952C187.94 191.657 186.568 194.109 185.502 196.812C184.41 197.161 183.428 197.788 182.652 198.632C182.489 198.811 182.325 199.061 182.437 199.276C182.532 199.459 182.771 199.502 182.978 199.526C183.475 199.578 183.976 199.63 184.473 199.681C183.407 202.877 182.429 206.183 180.544 208.882C179.291 210.664 177.657 212.145 175.761 213.218C175.244 213.513 174.71 213.777 174.162 214.009C172.143 214.164 170.161 214.33 168.218 214.506C167.475 214.574 166.736 214.642 166.003 214.713C165.395 214.768 164.795 214.828 164.198 214.884C164.194 214.665 164.194 214.446 164.198 214.228C164.324 208.405 166.467 202.806 170.262 198.386C170.441 198.179 170.624 197.976 170.811 197.774C172.733 195.721 174.994 194.014 177.494 192.726C181.435 190.678 185.851 189.72 190.286 189.952Z" fill="#3056D3"/>
<path d="M166.693 212.672L166.235 214.024L166.005 214.711C165.397 214.767 164.796 214.826 164.2 214.882L164.092 214.894C163.432 214.962 162.776 215.029 162.12 215.097C161.949 214.898 161.778 214.695 161.611 214.489C157.461 209.465 155.469 203.004 156.07 196.516C156.671 190.029 159.817 184.043 164.82 179.867C164.295 182.614 164.907 185.245 165.913 187.856C165.806 187.9 165.703 187.943 165.603 187.991C164.834 188.353 164.142 188.862 163.568 189.489C163.404 189.668 163.241 189.919 163.353 190.133C163.448 190.316 163.687 190.36 163.894 190.384C164.391 190.435 164.892 190.487 165.389 190.539C165.786 190.582 166.184 190.622 166.581 190.666C166.768 190.686 166.955 190.706 167.142 190.725C167.17 190.785 167.194 190.841 167.222 190.9C168.355 193.356 169.575 195.825 170.263 198.384C170.436 199.026 170.571 199.678 170.669 200.336C170.975 202.558 170.777 204.822 170.088 206.957C169.4 209.093 168.239 211.046 166.693 212.672Z" fill="#3056D3"/>
<path d="M206.714 155.027C203.291 148.353 197.988 142.738 191.75 138.612C185.493 134.491 178.314 131.981 170.851 131.307C169.873 131.218 168.892 131.166 167.909 131.15C166.747 131.133 149.274 136.171 143.421 140.285C137.571 144.348 132.759 149.729 129.372 155.994C125.992 162.294 124.329 169.371 124.551 176.516C124.841 183.704 126.845 190.718 130.397 196.975C133.9 203.211 138.875 208.497 144.888 212.374C150.986 216.264 157.112 226.577 164.313 226.941C171.568 227.308 179.841 217.579 186.458 214.625C193.075 211.647 198.795 206.987 203.049 201.11C207.182 195.351 209.856 188.675 210.841 181.656C211.865 174.469 211.388 167.057 208.932 160.188C208.302 158.423 207.561 156.699 206.714 155.027C206.006 153.634 203.932 153.121 202.634 153.958C201.965 154.37 201.48 155.023 201.281 155.783C201.082 156.543 201.183 157.35 201.564 158.036C201.979 158.855 202.366 159.686 202.723 160.531L202.422 159.819C203.774 163.069 204.693 166.481 205.156 169.969L205.05 169.177C205.542 172.962 205.534 176.794 205.024 180.577L205.13 179.784C204.615 183.566 203.605 187.264 202.126 190.783L202.427 190.071C201.666 191.867 200.78 193.606 199.774 195.277C199.264 196.121 198.724 196.945 198.152 197.75C197.901 198.103 197.642 198.45 197.381 198.796C197.04 199.247 197.845 198.206 197.493 198.649C197.433 198.724 197.373 198.8 197.313 198.875C197.133 199.101 196.95 199.324 196.764 199.546C195.524 201.024 194.171 202.404 192.718 203.673C192.355 203.989 191.987 204.297 191.613 204.599C191.427 204.749 191.243 204.906 191.048 205.046C191.056 205.041 191.676 204.569 191.309 204.843C191.193 204.929 191.079 205.016 190.963 205.102C190.192 205.673 189.4 206.215 188.588 206.728C186.717 207.906 184.755 208.931 182.721 209.794L183.433 209.493C179.923 210.971 176.234 211.98 172.46 212.495L173.253 212.388C169.481 212.898 165.659 212.905 161.885 212.408L162.678 212.515C159.249 212.055 155.894 211.148 152.7 209.818L153.412 210.119C151.562 209.338 149.778 208.409 148.078 207.34C147.236 206.811 146.417 206.248 145.619 205.652C145.505 205.567 145.393 205.481 145.279 205.396C144.915 205.121 145.541 205.598 145.546 205.602C145.334 205.45 145.13 205.287 144.935 205.115C144.55 204.801 144.171 204.48 143.798 204.152C142.304 202.838 140.91 201.415 139.625 199.896C139.304 199.516 138.989 199.13 138.682 198.739C138.548 198.57 138.305 198.226 138.842 198.949C138.772 198.854 138.698 198.761 138.627 198.666C138.456 198.439 138.286 198.21 138.12 197.98C137.536 197.172 136.981 196.344 136.455 195.497C135.266 193.579 134.228 191.572 133.351 189.492L133.652 190.204C132.217 186.792 131.235 183.206 130.733 179.538L130.839 180.331C130.386 176.95 130.38 173.524 130.82 170.142L130.714 170.934C131.165 167.659 132.047 164.457 133.336 161.412L133.035 162.124C133.846 160.218 134.802 158.376 135.896 156.617C136.444 155.736 137.024 154.877 137.637 154.039C137.776 153.849 137.917 153.66 138.059 153.472C138.188 153.302 138.542 152.878 137.938 153.626C137.997 153.553 138.054 153.478 138.112 153.404C138.449 152.978 138.793 152.558 139.146 152.146C140.481 150.583 141.927 149.12 143.473 147.766C143.864 147.423 144.261 147.088 144.664 146.76C144.847 146.611 145.032 146.464 145.217 146.318C145.291 146.26 145.367 146.203 145.441 146.144C144.646 146.776 145.22 146.316 145.4 146.181C146.231 145.558 147.084 144.967 147.959 144.408C149.904 143.164 151.951 142.086 154.077 141.185L153.364 141.486C156.45 140.191 170.12 137.134 172.607 137.468L171.814 137.361C175.468 137.871 179.04 138.857 182.438 140.295L181.726 139.995C183.448 140.726 185.121 141.566 186.736 142.51C187.542 142.983 188.333 143.481 189.108 144.006C189.475 144.254 189.838 144.507 190.197 144.767C190.377 144.896 190.555 145.027 190.732 145.16C190.831 145.233 190.929 145.308 191.027 145.381C191.44 145.691 190.458 144.933 190.891 145.276C192.341 146.414 193.718 147.642 195.013 148.953C195.65 149.601 196.265 150.269 196.857 150.958C197.161 151.312 197.459 151.671 197.75 152.034C197.895 152.215 198.389 152.869 197.784 152.068C197.932 152.264 198.081 152.458 198.227 152.656C199.484 154.356 200.599 156.155 201.564 158.036C202.277 159.427 204.342 159.945 205.644 159.106C206.313 158.694 206.798 158.041 206.997 157.281C207.196 156.521 207.095 155.714 206.714 155.027Z" fill="#212B36"/>
<path d="M171.968 203.674C171.66 203.688 171.356 203.607 171.095 203.442C170.835 203.277 170.632 203.037 170.513 202.752C170.394 202.468 170.365 202.154 170.431 201.853C170.496 201.552 170.653 201.279 170.879 201.07C170.917 200.919 170.944 200.811 170.982 200.66C170.968 200.628 170.955 200.595 170.941 200.562C169.557 197.264 160.728 206.458 160.347 209.557C160.179 210.927 160.249 212.316 160.556 213.662C157.696 207.426 156.211 200.648 156.202 193.788C156.201 192.067 156.297 190.347 156.488 188.636C156.647 187.234 156.866 185.841 157.147 184.459C158.68 176.958 161.971 169.927 166.75 163.944C169.483 164.097 171.878 163.68 172.11 158.386C172.151 157.444 172.85 156.628 173.004 155.701C172.743 155.735 172.478 155.756 172.217 155.773C172.135 155.778 172.05 155.782 171.969 155.786L171.938 155.787C171.651 155.8 171.367 155.73 171.119 155.585C170.871 155.44 170.671 155.227 170.542 154.971C170.412 154.714 170.36 154.426 170.391 154.141C170.422 153.856 170.534 153.585 170.715 153.363C170.828 153.224 170.94 153.086 171.053 152.947C171.224 152.733 171.4 152.524 171.571 152.31C171.591 152.29 171.609 152.268 171.626 152.246C171.823 152.002 172.02 151.763 172.217 151.519C171.858 150.962 171.374 150.495 170.805 150.155C168.833 149.001 166.113 149.8 164.688 151.583C163.26 153.366 162.99 155.867 163.486 158.095C163.974 159.99 164.781 161.789 165.873 163.414C165.766 163.551 165.655 163.683 165.548 163.82C163.593 166.333 161.889 169.031 160.461 171.876C160.865 168.72 155.924 157.326 154.013 154.912C151.717 152.013 147.01 153.279 146.606 156.954C146.602 156.989 146.598 157.025 146.594 157.06C146.878 157.22 147.156 157.39 147.428 157.57C147.77 157.798 148.034 158.124 148.187 158.505C148.34 158.886 148.375 159.304 148.286 159.705C148.197 160.106 147.989 160.471 147.689 160.751C147.39 161.032 147.012 161.216 146.606 161.278L146.565 161.285C142.765 166.707 154.945 180.821 157.994 177.652C156.559 181.717 155.659 185.951 155.316 190.248C155.122 192.783 155.134 195.33 155.351 197.863L155.338 197.773C154.66 192.256 143.039 184.052 139.645 184.736C137.69 185.129 135.765 185.04 136.062 187.011C136.066 187.043 136.071 187.074 136.076 187.105C136.603 187.32 137.116 187.567 137.612 187.845C137.896 188.005 138.173 188.175 138.445 188.355C138.787 188.583 139.051 188.909 139.204 189.29C139.358 189.671 139.392 190.089 139.303 190.49C139.214 190.891 139.006 191.256 138.707 191.536C138.407 191.817 138.029 192.001 137.623 192.063L137.582 192.07C137.552 192.074 137.526 192.078 137.496 192.082C135.767 198.031 148.593 207.63 156.39 204.576H156.394C157.167 207.932 158.287 211.199 159.735 214.324H171.669C171.712 214.192 171.75 214.055 171.789 213.923C170.684 213.992 169.575 213.926 168.487 213.726C169.372 212.64 170.258 211.545 171.143 210.459C171.163 210.439 171.181 210.418 171.199 210.395C171.648 209.839 172.101 209.288 172.55 208.732L172.551 208.731C172.574 207.027 172.379 205.328 171.969 203.674L171.968 203.674ZM158.302 176.801L158.308 176.793L158.302 176.81V176.801ZM155.658 200.621L155.556 200.39C155.56 200.223 155.56 200.057 155.556 199.886C155.556 199.838 155.547 199.791 155.547 199.744C155.586 200.039 155.62 200.334 155.663 200.629L155.658 200.621Z" fill="#212B36"/>
<path d="M37.8738 178.851C40.2893 178.851 42.2475 176.894 42.2475 174.479C42.2475 172.065 40.2893 170.107 37.8738 170.107C35.4582 170.107 33.5 172.065 33.5 174.479C33.5 176.894 35.4582 178.851 37.8738 178.851Z" fill="#212B36"/>
<path d="M90.3581 226.545C92.7737 226.545 94.7319 224.587 94.7319 222.173C94.7319 219.758 92.7737 217.801 90.3581 217.801C87.9426 217.801 85.9844 219.758 85.9844 222.173C85.9844 224.587 87.9426 226.545 90.3581 226.545Z" fill="#212B36"/>
<path d="M289.561 226.545C291.977 226.545 293.935 224.587 293.935 222.173C293.935 219.758 291.977 217.801 289.561 217.801C287.146 217.801 285.188 219.758 285.188 222.173C285.188 224.587 287.146 226.545 289.561 226.545Z" fill="#212B36"/>
<path d="M300.296 170.902C302.711 170.902 304.669 168.945 304.669 166.53C304.669 164.116 302.711 162.158 300.296 162.158C297.88 162.158 295.922 164.116 295.922 166.53C295.922 168.945 297.88 170.902 300.296 170.902Z" fill="#212B36"/>
<path d="M287.573 130.363C289.989 130.363 291.947 128.406 291.947 125.991C291.947 123.577 289.989 121.619 287.573 121.619C285.157 121.619 283.199 123.577 283.199 125.991C283.199 128.406 285.157 130.363 287.573 130.363Z" fill="#212B36"/>
<path d="M105.07 166.53C105.068 167.647 104.636 168.72 103.864 169.527C103.091 170.334 102.039 170.814 100.923 170.866C99.8066 170.919 98.713 170.541 97.8682 169.81C97.0233 169.08 96.4918 168.052 96.3837 166.941C96.2756 165.829 96.5991 164.719 97.2874 163.839C97.9756 162.959 98.9758 162.378 100.081 162.215C101.186 162.052 102.312 162.319 103.225 162.963C104.138 163.606 104.769 164.576 104.987 165.671C105.043 165.954 105.071 166.242 105.07 166.53Z" fill="#212B36"/>
<path d="M192.546 143.08C194.961 143.08 196.919 141.122 196.919 138.708C196.919 136.293 194.961 134.336 192.546 134.336C190.13 134.336 188.172 136.293 188.172 138.708C188.172 141.122 190.13 143.08 192.546 143.08Z" fill="#212B36"/>
<path d="M149.203 138.708C149.2 139.824 148.768 140.897 147.996 141.704C147.224 142.512 146.171 142.991 145.055 143.044C143.939 143.097 142.846 142.719 142.001 141.988C141.156 141.257 140.625 140.23 140.517 139.118C140.408 138.007 140.732 136.896 141.42 136.017C142.108 135.137 143.109 134.555 144.214 134.392C145.319 134.229 146.445 134.497 147.358 135.141C148.271 135.784 148.902 136.754 149.12 137.849C149.176 138.132 149.204 138.419 149.203 138.708Z" fill="#212B36"/>
<path d="M92.7421 125.991C92.7395 127.108 92.3074 128.181 91.5354 128.988C90.7634 129.795 89.7104 130.275 88.5944 130.327C87.4784 130.38 86.3849 130.002 85.54 129.271C84.6952 128.541 84.1637 127.513 84.0556 126.402C83.9475 125.29 84.271 124.18 84.9592 123.3C85.6474 122.42 86.6477 121.839 87.7529 121.676C88.8582 121.512 89.9838 121.78 90.897 122.424C91.8101 123.067 92.4408 124.037 92.6586 125.132C92.7147 125.415 92.7427 125.703 92.7421 125.991Z" fill="#212B36"/>
<path d="M238.268 180.441C240.684 180.441 242.642 178.484 242.642 176.069C242.642 173.655 240.684 171.697 238.268 171.697C235.853 171.697 233.895 173.655 233.895 176.069C233.895 178.484 235.853 180.441 238.268 180.441Z" fill="#212B36"/>
<path d="M169.483 140.695C172.996 140.695 175.845 137.848 175.845 134.336C175.845 130.824 172.996 127.977 169.483 127.977C165.969 127.977 163.121 130.824 163.121 134.336C163.121 137.848 165.969 140.695 169.483 140.695Z" fill="#212B36"/>
<path d="M341.527 226.878L0.473428 227C0.411256 227 0.349692 226.988 0.292252 226.964C0.234813 226.94 0.182626 226.906 0.138664 226.862C0.0947015 226.818 0.0598247 226.766 0.0360325 226.708C0.0122404 226.651 0 226.589 0 226.527C0 226.465 0.0122404 226.403 0.0360325 226.346C0.0598247 226.289 0.0947015 226.236 0.138664 226.192C0.182626 226.148 0.234813 226.114 0.292252 226.09C0.349692 226.066 0.411256 226.054 0.473428 226.054L341.527 225.932C341.652 225.932 341.772 225.982 341.86 226.071C341.949 226.159 341.999 226.28 341.999 226.405C341.999 226.53 341.949 226.65 341.86 226.739C341.772 226.828 341.652 226.878 341.527 226.878Z" fill="#CACACA"/>
</g>
<defs>
<clipPath id="clip0_3088_1277">
<rect width="342" height="227" fill="white"/>
</clipPath>
</defs>
</svg>
