<svg width="350" height="350" viewBox="0 0 350 350" fill="none" xmlns="http://www.w3.org/2000/svg">
<path d="M33.5825 294.844L30.5069 282.723C25.0538 280.414 19.4747 278.414 13.7961 276.732L13.4079 282.365L11.8335 276.159C4.79107 274.148 0 273.263 0 273.263C0 273.263 6.46998 297.853 20.0448 316.653L35.8606 319.429L23.5737 321.2C25.2813 323.253 27.1164 325.196 29.0681 327.019C48.8132 345.334 70.8061 353.736 78.1898 345.787C85.5736 337.838 75.5526 316.548 55.8074 298.235C49.6862 292.558 41.9968 288.001 34.2994 284.415L33.5825 294.844Z" fill="#F2F2F2"/>
<path d="M62.8313 281.679L66.4685 269.714C62.9953 264.921 59.2543 260.327 55.2633 255.954L52.017 260.576L53.8792 254.45C48.8903 249.092 45.247 245.86 45.247 245.86C45.247 245.86 38.0667 270.253 39.9608 293.358L52.0639 303.903L40.628 299.072C41.0281 301.712 41.594 304.324 42.3223 306.893C49.7516 332.77 64.2317 351.323 74.6643 348.332C85.0969 345.341 87.5321 321.939 80.1029 296.063C77.7999 288.041 73.5738 280.169 68.8399 273.123L62.8313 281.679Z" fill="#F2F2F2"/>
<path d="M243.679 82.9153H241.76V30.3972C241.76 26.4054 240.973 22.4527 239.445 18.7647C237.916 15.0768 235.675 11.7258 232.851 8.90314C230.026 6.0805 226.672 3.84145 222.982 2.31385C219.291 0.786245 215.335 0 211.341 0H99.988C91.9202 0 84.1829 3.20256 78.4781 8.90314C72.7733 14.6037 69.5684 22.3354 69.5684 30.3972V318.52C69.5684 322.512 70.3552 326.465 71.8839 330.153C73.4126 333.841 75.6533 337.192 78.4781 340.015C81.3028 342.837 84.6562 345.076 88.3469 346.604C92.0376 348.131 95.9933 348.918 99.988 348.918H211.341C219.408 348.918 227.146 345.715 232.85 340.014C238.555 334.314 241.76 326.582 241.76 318.52V120.299H243.678L243.679 82.9153Z" fill="#E6E6E6"/>
<path d="M212.569 7.90527H198.035C198.703 9.54293 198.958 11.3197 198.778 13.0791C198.597 14.8386 197.986 16.5266 196.999 17.9944C196.012 19.4623 194.678 20.665 193.116 21.4966C191.554 22.3282 189.811 22.7631 188.041 22.763H124.249C122.479 22.763 120.736 22.3279 119.174 21.4963C117.612 20.6647 116.279 19.4619 115.291 17.9941C114.304 16.5262 113.693 14.8382 113.513 13.0789C113.332 11.3196 113.587 9.54286 114.256 7.90527H100.68C94.6551 7.90527 88.8769 10.2969 84.6166 14.554C80.3563 18.8112 77.9629 24.5851 77.9629 30.6056V318.31C77.9629 324.331 80.3563 330.105 84.6166 334.362C88.8769 338.619 94.6551 341.011 100.68 341.011H212.569C218.594 341.011 224.372 338.619 228.632 334.362C232.893 330.105 235.286 324.331 235.286 318.31V30.6051C235.286 24.5847 232.892 18.8109 228.632 14.5539C224.372 10.2968 218.594 7.90527 212.569 7.90527Z" fill="white"/>
<path d="M142.366 122.512C142.366 120.501 142.896 118.526 143.902 116.784C144.909 115.043 146.357 113.597 148.1 112.592C146.358 111.587 144.381 111.057 142.369 111.057C140.356 111.057 138.379 111.586 136.637 112.591C134.894 113.596 133.446 115.042 132.44 116.784C131.434 118.525 130.904 120.501 130.904 122.512C130.904 124.522 131.434 126.498 132.44 128.239C133.446 129.981 134.894 131.427 136.637 132.432C138.379 133.437 140.356 133.966 142.369 133.966C144.381 133.966 146.358 133.436 148.1 132.431C146.357 131.426 144.909 129.981 143.903 128.24C142.896 126.499 142.366 124.523 142.366 122.512Z" fill="#CCCCCC"/>
<path d="M156.777 122.512C156.776 120.501 157.306 118.526 158.313 116.784C159.319 115.043 160.767 113.597 162.511 112.592C160.768 111.587 158.791 111.057 156.779 111.057C154.767 111.057 152.79 111.586 151.047 112.591C149.304 113.596 147.857 115.042 146.85 116.784C145.844 118.525 145.314 120.501 145.314 122.512C145.314 124.522 145.844 126.498 146.85 128.239C147.857 129.981 149.304 131.427 151.047 132.432C152.79 133.437 154.767 133.966 156.779 133.966C158.791 133.966 160.768 133.436 162.511 132.431C160.767 131.426 159.32 129.981 158.313 128.24C157.306 126.499 156.777 124.523 156.777 122.512Z" fill="#CCCCCC"/>
<path d="M170.862 133.966C177.192 133.966 182.325 128.838 182.325 122.512C182.325 116.186 177.192 111.057 170.862 111.057C164.531 111.057 159.398 116.186 159.398 122.512C159.398 128.838 164.531 133.966 170.862 133.966Z" fill="#3056D3"/>
<path d="M190.019 158.289H123.21C122.574 158.288 121.964 158.036 121.514 157.586C121.064 157.137 120.811 156.527 120.811 155.892V89.1317C120.811 88.4961 121.064 87.8868 121.514 87.4373C121.964 86.9879 122.574 86.7351 123.21 86.7344H190.019C190.655 86.7351 191.265 86.9879 191.715 87.4373C192.165 87.8868 192.418 88.4961 192.418 89.1317V155.892C192.418 156.527 192.165 157.137 191.715 157.586C191.265 158.036 190.655 158.288 190.019 158.289ZM123.21 87.6938C122.828 87.6942 122.462 87.8459 122.192 88.1155C121.922 88.3852 121.771 88.7508 121.77 89.1321V155.892C121.771 156.274 121.922 156.639 122.192 156.909C122.462 157.179 122.828 157.33 123.21 157.331H190.019C190.401 157.33 190.767 157.179 191.037 156.909C191.306 156.639 191.458 156.274 191.459 155.892V89.1321C191.458 88.7508 191.306 88.3852 191.037 88.1155C190.767 87.8459 190.401 87.6942 190.019 87.6938H123.21Z" fill="#CCCCCC"/>
<path d="M204.936 209.464H102.471V210.423H204.936V209.464Z" fill="#CCCCCC"/>
<path d="M105.707 203.477C107.494 203.477 108.943 202.029 108.943 200.243C108.943 198.457 107.494 197.01 105.707 197.01C103.919 197.01 102.471 198.457 102.471 200.243C102.471 202.029 103.919 203.477 105.707 203.477Z" fill="#3056D3"/>
<path d="M204.936 241.797H102.471V242.756H204.936V241.797Z" fill="#CCCCCC"/>
<path d="M105.707 235.811C107.494 235.811 108.943 234.363 108.943 232.577C108.943 230.791 107.494 229.344 105.707 229.344C103.919 229.344 102.471 230.791 102.471 232.577C102.471 234.363 103.919 235.811 105.707 235.811Z" fill="#3056D3"/>
<path d="M203.06 278.617H170.678C170.119 278.617 169.583 278.394 169.187 277.999C168.791 277.604 168.569 277.068 168.568 276.509V265.168C168.569 264.609 168.791 264.073 169.187 263.678C169.583 263.283 170.119 263.06 170.678 263.06H203.06C203.62 263.06 204.156 263.283 204.551 263.678C204.947 264.073 205.169 264.609 205.17 265.168V276.509C205.169 277.068 204.947 277.604 204.551 277.999C204.156 278.394 203.62 278.617 203.06 278.617Z" fill="#3056D3"/>
<path d="M116.261 203.477C118.048 203.477 119.497 202.029 119.497 200.243C119.497 198.457 118.048 197.01 116.261 197.01C114.474 197.01 113.025 198.457 113.025 200.243C113.025 202.029 114.474 203.477 116.261 203.477Z" fill="#3056D3"/>
<path d="M126.818 203.477C128.605 203.477 130.054 202.029 130.054 200.243C130.054 198.457 128.605 197.01 126.818 197.01C125.031 197.01 123.582 198.457 123.582 200.243C123.582 202.029 125.031 203.477 126.818 203.477Z" fill="#3056D3"/>
<path d="M116.261 235.811C118.048 235.811 119.497 234.363 119.497 232.577C119.497 230.791 118.048 229.344 116.261 229.344C114.474 229.344 113.025 230.791 113.025 232.577C113.025 234.363 114.474 235.811 116.261 235.811Z" fill="#3056D3"/>
<path d="M126.818 235.811C128.605 235.811 130.054 234.363 130.054 232.577C130.054 230.791 128.605 229.344 126.818 229.344C125.031 229.344 123.582 230.791 123.582 232.577C123.582 234.363 125.031 235.811 126.818 235.811Z" fill="#3056D3"/>
<path d="M264.742 229.309C264.972 229.414 265.193 229.537 265.404 229.678L286.432 220.709L287.183 215.174L295.585 215.123L295.089 227.818L267.334 235.153C267.275 235.345 267.205 235.535 267.124 235.719C266.722 236.574 266.077 237.292 265.269 237.783C264.46 238.273 263.525 238.514 262.58 238.475C261.636 238.436 260.723 238.119 259.958 237.563C259.193 237.008 258.61 236.239 258.28 235.353C257.951 234.467 257.892 233.504 258.108 232.584C258.325 231.664 258.809 230.829 259.5 230.183C260.19 229.538 261.056 229.11 261.989 228.955C262.922 228.799 263.879 228.922 264.742 229.309Z" fill="#FFB8B8"/>
<path d="M298.64 344.352H292.892L290.158 322.198L298.641 322.198L298.64 344.352Z" fill="#FFB8B8"/>
<path d="M288.788 342.711H299.873V349.685H281.809C281.809 347.835 282.544 346.062 283.853 344.754C285.162 343.446 286.937 342.711 288.788 342.711Z" fill="#2F2E41"/>
<path d="M320.995 342.729L315.274 343.292L310.379 321.513L318.822 320.682L320.995 342.729Z" fill="#FFB8B8"/>
<path d="M311.028 342.061L322.059 340.975L322.744 347.916L304.766 349.685C304.676 348.774 304.767 347.854 305.033 346.977C305.299 346.101 305.735 345.285 306.317 344.577C306.898 343.869 307.614 343.283 308.422 342.851C309.23 342.419 310.116 342.151 311.028 342.061Z" fill="#2F2E41"/>
<path d="M300.242 191.677C306.601 191.677 311.757 186.525 311.757 180.17C311.757 173.815 306.601 168.663 300.242 168.663C293.882 168.663 288.727 173.815 288.727 180.17C288.727 186.525 293.882 191.677 300.242 191.677Z" fill="#FFB8B8"/>
<path d="M291.609 339.872C291.115 339.873 290.637 339.7 290.258 339.383C289.879 339.066 289.625 338.626 289.539 338.139C286.564 321.636 276.84 267.676 276.607 266.181C276.602 266.147 276.599 266.112 276.6 266.077V262.054C276.599 261.907 276.645 261.764 276.731 261.645L278.015 259.847C278.076 259.761 278.156 259.689 278.249 259.639C278.342 259.588 278.446 259.559 278.551 259.554C285.876 259.211 309.862 258.206 311.021 259.652C312.185 261.106 311.774 265.512 311.68 266.38L311.684 266.471L322.461 335.337C322.545 335.886 322.409 336.446 322.084 336.896C321.758 337.347 321.267 337.65 320.719 337.742L313.988 338.85C313.487 338.931 312.973 338.829 312.541 338.563C312.108 338.297 311.786 337.885 311.632 337.401C309.55 330.754 302.57 308.393 300.151 299.741C300.135 299.686 300.101 299.639 300.053 299.607C300.006 299.576 299.948 299.563 299.892 299.571C299.836 299.579 299.784 299.608 299.747 299.651C299.71 299.694 299.69 299.749 299.691 299.806C299.812 308.054 300.104 329.098 300.205 336.366L300.216 337.148C300.22 337.678 300.025 338.191 299.67 338.584C299.315 338.978 298.825 339.224 298.297 339.274L291.806 339.863C291.74 339.869 291.674 339.872 291.609 339.872Z" fill="#2F2E41"/>
<path d="M292.933 196.201C290.924 197.395 289.721 199.588 289.031 201.821C287.754 205.953 286.985 210.226 286.741 214.545L286.012 227.475L276.984 261.755C284.809 268.37 289.322 266.867 299.855 261.455C310.387 256.044 311.591 263.26 311.591 263.26L313.697 234.092L316.706 202.219C316.031 201.407 315.266 200.672 314.427 200.03C311.645 197.868 308.409 196.366 304.962 195.636C301.516 194.906 297.948 194.967 294.528 195.815L292.933 196.201Z" fill="#3056D3"/>
<path d="M290.001 236.232C290.244 236.324 290.479 236.434 290.704 236.562L311.497 226.163L311.842 220.529L320.419 219.938L320.878 232.781L293.092 241.963C292.865 242.935 292.347 243.816 291.608 244.487C290.868 245.158 289.941 245.588 288.951 245.72C287.96 245.852 286.953 245.68 286.063 245.226C285.173 244.772 284.442 244.058 283.968 243.179C283.494 242.301 283.299 241.298 283.409 240.306C283.519 239.313 283.928 238.378 284.583 237.624C285.238 236.869 286.107 236.332 287.075 236.084C288.043 235.835 289.063 235.887 290.001 236.232Z" fill="#FFB8B8"/>
<path d="M316.556 202.365C321.672 204.17 322.573 223.716 322.573 223.716C316.554 220.409 309.332 225.821 309.332 225.821C309.332 225.821 307.827 220.709 306.022 214.094C305.477 212.233 305.412 210.265 305.832 208.372C306.253 206.479 307.147 204.724 308.429 203.269C308.429 203.269 311.44 200.56 316.556 202.365Z" fill="#3056D3"/>
<path d="M310.566 183.213C309.132 182.066 307.174 184.151 307.174 184.151L306.026 173.828C306.026 173.828 298.853 174.687 294.261 173.542C289.67 172.396 288.953 177.7 288.953 177.7C288.716 175.557 288.668 173.399 288.81 171.248C289.096 168.667 292.827 166.087 299.427 164.366C306.026 162.646 309.47 170.101 309.47 170.101C314.061 172.395 312.001 184.36 310.566 183.213Z" fill="#2F2E41"/>
</svg>
