<svg width="544" height="379" viewBox="0 0 544 379" fill="none" xmlns="http://www.w3.org/2000/svg">
<path d="M108.388 379C168.25 379 216.777 375.309 216.777 370.757C216.777 366.204 168.25 362.514 108.388 362.514C48.5271 362.514 0 366.204 0 370.757C0 375.309 48.5271 379 108.388 379Z" fill="#E6E6E6"/>
<path d="M82.8496 84.0936C101.712 76.0598 125.206 81.1499 148.151 84.6827C148.364 80.4045 150.952 75.1977 148.241 72.213C144.948 68.5868 145.251 64.7768 147.233 60.9448C152.301 51.1457 145.04 40.719 137.708 32.0494C136.056 30.0997 133.967 28.5677 131.613 27.5781C129.258 26.5884 126.703 26.1688 124.156 26.3535L110.575 27.3249C107.27 27.5612 104.116 28.8026 101.535 30.883C98.9541 32.9633 97.0692 35.7833 96.1325 38.9657C92.8896 43.382 91.1539 47.7862 92.2467 52.1674C87.3894 55.4913 86.5733 59.5037 88.756 64.0268C90.6068 66.8748 90.5871 69.647 88.6718 72.3425C86.1564 75.7791 84.2298 79.6109 82.971 83.681L82.8496 84.0936Z" fill="#2F2E41"/>
<path d="M531.108 327.639H146.66C143.241 327.639 139.963 326.279 137.545 323.859C135.128 321.438 133.77 318.155 133.77 314.731C273.132 298.513 409.875 298.513 543.999 314.731C543.999 318.155 542.641 321.438 540.223 323.859C537.806 326.279 534.527 327.639 531.108 327.639Z" fill="#2F2E41"/>
<path d="M543.999 315.49L133.77 314.731L181.314 234.625L181.541 234.245V57.6993C181.541 55.5564 181.962 53.4344 182.781 51.4546C183.6 49.4748 184.8 47.6759 186.314 46.1607C187.827 44.6455 189.623 43.4435 191.6 42.6236C193.578 41.8036 195.697 41.3817 197.837 41.3818H477.657C479.797 41.3817 481.916 41.8036 483.893 42.6236C485.87 43.4435 487.667 44.6455 489.18 46.1607C490.693 47.6759 491.894 49.4748 492.712 51.4546C493.531 53.4344 493.953 55.5564 493.953 57.6993V235.46L543.999 315.49Z" fill="#3F3D56"/>
<path d="M197.466 52.7715C196.059 52.7731 194.71 53.3336 193.715 54.33C192.72 55.3264 192.16 56.6774 192.158 58.0866V219.059C192.16 220.468 192.72 221.819 193.715 222.815C194.71 223.812 196.059 224.372 197.466 224.374H480.305C481.712 224.372 483.061 223.812 484.056 222.815C485.051 221.819 485.611 220.468 485.613 219.059V58.0866C485.611 56.6774 485.051 55.3265 484.056 54.3301C483.061 53.3336 481.712 52.7731 480.305 52.7715H197.466Z" fill="white"/>
<path d="M198.651 245.635C198.217 245.636 197.791 245.761 197.425 245.996C197.059 246.231 196.767 246.565 196.585 246.961L181.935 278.851C181.775 279.198 181.706 279.58 181.732 279.961C181.758 280.342 181.88 280.711 182.086 281.032C182.292 281.354 182.575 281.619 182.91 281.802C183.244 281.985 183.62 282.081 184.001 282.081H492.08C492.467 282.081 492.849 281.982 493.187 281.793C493.526 281.604 493.811 281.331 494.015 281.001C494.218 280.671 494.334 280.294 494.352 279.906C494.369 279.518 494.287 279.132 494.114 278.785L478.19 246.894C478.002 246.515 477.712 246.196 477.352 245.973C476.993 245.751 476.578 245.634 476.156 245.635H198.651Z" fill="#2F2E41"/>
<path d="M337.748 50.114C339.633 50.114 341.16 48.5842 341.16 46.6971C341.16 44.8101 339.633 43.2803 337.748 43.2803C335.864 43.2803 334.336 44.8101 334.336 46.6971C334.336 48.5842 335.864 50.114 337.748 50.114Z" fill="white"/>
<path d="M307.467 288.156C306.967 288.156 306.481 288.322 306.084 288.626C305.687 288.931 305.401 289.358 305.271 289.841L301.596 303.509C301.505 303.846 301.493 304.2 301.561 304.543C301.629 304.886 301.774 305.209 301.987 305.487C302.199 305.764 302.472 305.989 302.785 306.144C303.099 306.299 303.443 306.379 303.792 306.379H373.678C374.041 306.379 374.398 306.292 374.721 306.126C375.043 305.959 375.321 305.718 375.531 305.422C375.741 305.126 375.878 304.785 375.929 304.425C375.981 304.066 375.946 303.699 375.827 303.356L371.103 289.688C370.948 289.241 370.658 288.853 370.272 288.578C369.887 288.304 369.426 288.156 368.953 288.156H307.467Z" fill="#2F2E41"/>
<path d="M493.953 231.587V234.624H181.314L181.55 234.245V231.587H493.953Z" fill="#2F2E41"/>
<path d="M485.234 106.302C514.549 106.302 538.313 82.5059 538.313 53.1512C538.313 23.7966 514.549 0 485.234 0C455.919 0 432.154 23.7966 432.154 53.1512C432.154 82.5059 455.919 106.302 485.234 106.302Z" fill="#3056D3"/>
<path d="M507.224 76.3102H463.244C462.44 76.3094 461.669 75.9892 461.1 75.4198C460.532 74.8503 460.212 74.0783 460.211 73.273V46.6974C460.212 45.8921 460.532 45.1201 461.1 44.5507C461.669 43.9813 462.44 43.661 463.244 43.6602H507.224C508.028 43.661 508.799 43.9813 509.368 44.5507C509.937 45.1201 510.257 45.8921 510.257 46.6974V73.273C510.257 74.0783 509.937 74.8503 509.368 75.4198C508.799 75.9892 508.028 76.3094 507.224 76.3102ZM463.244 46.6974V73.273H507.226L507.224 46.6974L463.244 46.6974Z" fill="white"/>
<path d="M498.882 46.6972H471.584V34.5484C471.584 25.7489 477.324 19.3623 485.233 19.3623C493.142 19.3623 498.882 25.7489 498.882 34.5484L498.882 46.6972ZM474.617 43.66H495.849V34.5484C495.849 27.3954 491.484 22.3995 485.233 22.3995C478.982 22.3995 474.617 27.3954 474.617 34.5484L474.617 43.66Z" fill="white"/>
<path d="M485.232 62.2629C486.907 62.2629 488.265 60.9031 488.265 59.2257C488.265 57.5483 486.907 56.1885 485.232 56.1885C483.557 56.1885 482.199 57.5483 482.199 59.2257C482.199 60.9031 483.557 62.2629 485.232 62.2629Z" fill="white"/>
<path d="M448.179 169.774H229.591C228.518 169.773 227.489 169.345 226.73 168.585C225.971 167.825 225.544 166.795 225.543 165.72V111.425C225.544 110.35 225.971 109.32 226.73 108.56C227.489 107.8 228.518 107.373 229.591 107.372H448.179C449.252 107.373 450.281 107.8 451.04 108.56C451.798 109.32 452.225 110.35 452.227 111.425V165.72C452.225 166.795 451.798 167.825 451.04 168.585C450.281 169.345 449.252 169.773 448.179 169.774ZM229.591 108.993C228.947 108.994 228.33 109.25 227.874 109.706C227.419 110.162 227.163 110.78 227.162 111.425V165.72C227.163 166.365 227.419 166.983 227.874 167.439C228.33 167.895 228.947 168.152 229.591 168.152H448.179C448.823 168.152 449.44 167.895 449.895 167.439C450.351 166.983 450.607 166.365 450.607 165.72V111.425C450.607 110.78 450.351 110.162 449.895 109.706C449.44 109.25 448.823 108.994 448.179 108.993L229.591 108.993Z" fill="#E6E6E6"/>
<path d="M263.555 153.001C272.662 153.001 280.044 145.608 280.044 136.489C280.044 127.37 272.662 119.978 263.555 119.978C254.449 119.978 247.066 127.37 247.066 136.489C247.066 145.608 254.449 153.001 263.555 153.001Z" fill="#E6E6E6"/>
<path d="M301.637 125.482C301.276 125.481 300.918 125.552 300.584 125.69C300.25 125.828 299.947 126.031 299.691 126.286C299.436 126.542 299.233 126.846 299.094 127.18C298.956 127.514 298.885 127.872 298.885 128.234C298.885 128.596 298.956 128.954 299.094 129.288C299.233 129.622 299.436 129.926 299.691 130.181C299.947 130.437 300.25 130.639 300.584 130.777C300.918 130.916 301.276 130.986 301.637 130.986H431.194C431.923 130.986 432.622 130.696 433.137 130.18C433.653 129.664 433.942 128.964 433.942 128.234C433.942 127.504 433.653 126.804 433.137 126.288C432.622 125.772 431.923 125.482 431.194 125.482H301.637Z" fill="#E6E6E6"/>
<path d="M301.637 141.993C300.908 141.993 300.209 142.283 299.694 142.799C299.178 143.315 298.889 144.015 298.889 144.745C298.889 145.475 299.178 146.175 299.694 146.691C300.209 147.207 300.908 147.497 301.637 147.497H357.385C358.114 147.497 358.813 147.207 359.329 146.691C359.844 146.175 360.134 145.475 360.134 144.745C360.134 144.015 359.844 143.315 359.329 142.799C358.813 142.283 358.114 141.993 357.385 141.993H301.637Z" fill="#E6E6E6"/>
<path d="M180.777 143.106L140.369 164.618L139.857 146.692C153.046 144.487 165.594 140.649 177.196 134.399L181.422 123.944C181.883 122.805 182.631 121.805 183.594 121.043C184.557 120.281 185.701 119.783 186.915 119.597C188.128 119.412 189.369 119.545 190.515 119.985C191.661 120.425 192.673 121.155 193.452 122.105C194.592 123.494 195.162 125.266 195.046 127.06C194.93 128.855 194.138 130.538 192.829 131.769L180.777 143.106Z" fill="#FFB8B8"/>
<path d="M82.0453 267.306C81.7505 266.224 81.6879 265.091 81.8616 263.982C82.0353 262.874 82.4414 261.815 83.0532 260.875L91.9296 247.234C94.0291 244.007 97.2506 241.677 100.969 240.695C104.687 239.712 108.638 240.148 112.053 241.917C108.323 248.276 108.843 253.854 113.342 258.702C106.358 262.116 99.9032 266.522 94.1776 271.784C93.1324 272.498 91.932 272.951 90.6764 273.106C89.4209 273.261 88.1465 273.113 86.9595 272.675C85.7725 272.237 84.7073 271.521 83.8525 270.587C82.9977 269.653 82.378 268.529 82.0453 267.306Z" fill="#2F2E41"/>
<path d="M182.616 249.471C181.273 251.712 179.377 253.571 177.11 254.867C174.843 256.164 172.282 256.855 169.671 256.875L110.702 257.322L108.145 242.469L134.23 234.787L112.236 217.885L136.276 189.715L179.94 230.466C182.493 232.848 184.151 236.035 184.638 239.494C185.125 242.953 184.411 246.475 182.616 249.471Z" fill="#2F2E41"/>
<path d="M101.496 351.051H87.686C75.2865 265.942 62.6649 180.595 99.9618 148.74L143.95 155.911L138.323 193.3L113.772 221.47L101.496 351.051Z" fill="#2F2E41"/>
<path d="M113.636 370.331C112.555 370.626 111.424 370.689 110.317 370.515C109.21 370.341 108.152 369.935 107.213 369.322L92.2182 367.304C88.996 365.202 86.6685 361.976 85.6873 358.253C84.706 354.529 85.141 350.574 86.9078 347.153C93.258 350.889 98.8285 350.367 103.669 345.862C107.09 352.778 112.725 352.356 118.107 358.182C118.82 359.229 119.272 360.431 119.427 361.688C119.582 362.945 119.435 364.221 118.997 365.41C118.56 366.599 117.845 367.665 116.913 368.521C115.98 369.377 114.857 369.998 113.636 370.331Z" fill="#2F2E41"/>
<path d="M134.231 91.8887L108.656 85.7426C112.904 77.0365 113.254 67.3492 111.214 57.0605L128.604 56.5483C129.149 69.3427 130.798 81.2958 134.231 91.8887Z" fill="#FFB8B8"/>
<path d="M141.26 171.332C122.643 184.036 109.489 171.767 99.4503 152.838C100.845 141.255 98.5866 127.394 94.4035 112.332C92.5432 105.689 93.2377 98.5889 96.35 92.4335C99.4623 86.2781 104.766 81.5148 111.214 79.084L133.209 88.3032C151.884 103.546 155.56 120.058 148.553 137.472L141.26 171.332Z" fill="#3056D3"/>
<path d="M87.6862 104.693L67.2266 115.449L103.542 136.96L108.595 149.442C108.933 150.275 109.097 151.168 109.078 152.066C109.06 152.965 108.858 153.851 108.487 154.669C108.115 155.487 107.581 156.221 106.917 156.826C106.253 157.431 105.473 157.894 104.624 158.187C103.659 158.52 102.631 158.625 101.619 158.493C100.607 158.362 99.6389 157.998 98.791 157.429C97.9431 156.861 97.2381 156.104 96.7312 155.217C96.2244 154.33 95.9295 153.338 95.8695 152.317L95.3585 143.619L49.2017 128.367C47.6465 127.853 46.2286 126.991 45.0552 125.847C43.8818 124.703 42.9837 123.307 42.429 121.764C41.6205 119.515 41.5793 117.061 42.312 114.786C43.0447 112.511 44.5098 110.544 46.4782 109.192L83.5943 83.6938L87.6862 104.693Z" fill="#FFB8B8"/>
<path d="M108.146 106.742C99.6129 102.997 91.8537 107.065 82.0599 110.327L80.5254 83.1817C90.2502 77.9915 99.5222 76.5921 108.146 80.6208L108.146 106.742Z" fill="#3056D3"/>
<path d="M118.352 69.9941C127.37 69.9941 134.68 62.6738 134.68 53.6438C134.68 44.6138 127.37 37.2935 118.352 37.2935C109.334 37.2935 102.023 44.6138 102.023 53.6438C102.023 62.6738 109.334 69.9941 118.352 69.9941Z" fill="#FFB8B8"/>
<path d="M137.887 51.5809C121.721 53.1664 109.402 50.5189 101.529 42.9805V36.9097H136.515L137.887 51.5809Z" fill="#2F2E41"/>
</svg>
