<svg fill="none" height="128" viewBox="0 0 128 128" width="128" xmlns="http://www.w3.org/2000/svg"><g fill="#0063f7"><path d="m117.162 59.516c-.052-.5321-.299-1.0263-.693-1.3883-.393-.362-.907-.5664-1.442-.5744h-53.206c-1.4449.0353-2.8554.4477-4.0914 1.1961-1.236.7485-2.2546 1.8071-2.9545 3.0706-.648 1.13-.9888 2.4097-.9888 3.712 0 1.3024.3408 2.582.9888 3.712.185.3553.4595.6564.7965.8733.3369.217.7245.3425 1.1249.364h58.4585c.535-.0079 1.049-.2123 1.443-.5743s.64-.8562.692-1.3883c0-1.664 0-3.072 0-4.2667s0-3.1147-.128-4.736z" opacity=".88"/><path d="m70.0599 70.3109h-13.4934c-.3827-.0273-.7535-.1463-1.0806-.3468-.327-.2005-.6008-.4767-.7985-.8052l24.8099 43.9041c.1899.329.4641.601.7944.788.3303.188.7044.284 1.0842.279.2403.04.4859.04.7262 0 2.8216-1.015 5.5505-2.272 8.1561-3.755.2443-.137.4582-.322.6297-.543.1716-.221.2969-.475.3686-.745.0716-.271.0885-.553.049-.83-.0396-.277-.1345-.544-.2789-.783z" opacity=".72"/><path d="m81.2284 114.514h.0631c.226.04.4575.04.6834 0l1.3662-.555 1.2386-.512c1.8889-.784 3.7286-1.682 5.5087-2.688 8.3255-4.686 15.2436-11.5143 20.0336-19.7753 4.791-8.261 7.281-17.6533 7.21-27.2008 0-1.5786-.086-2.816-.214-4.2666-.042-.5285-.28-1.0222-.666-1.385-.387-.3629-.896-.5688-1.426-.5777h-8.54c-.3.0034-.596.0697-.868.1947-.272.1249-.515.3057-.712.5306-.199.2163-.349.4736-.437.7537-.089.2802-.114.5764-.076.8676v4.2667c-.01 6.8083-1.737 13.5043-5.021 19.4698-3.2837 5.9656-8.0188 11.0086-13.7675 14.6635-.2273.146-.4483.3043-.6703.4633-.1265.0906-.2533.1814-.3817.2702-.2111.0422-.4163.1123-.6101.2089-6.089 3.4624-12.9784 5.2714-19.9841 5.2484-10.752-.023-21.0572-4.301-28.66-11.8972-7.6028-7.5966-11.8841-17.8933-11.9066-28.6365.0225-10.7432 4.3038-21.0399 11.9066-28.6365s17.908-11.8743 28.66-11.8968c7.0024.0022 13.8855 1.8098 19.9841 5.248.3187.2022.69.306 1.0675.2986h.4697c.2928-.0645.5691-.1888.8116-.365s.4462-.4005.5979-.6589l4.2701-7.424c.2823-.4938.36-1.0784.2164-1.6286-.1437-.5502-.4975-1.0224-.9852-1.3154-8.0377-4.5384-17.1143-6.9197-26.3466-6.912-14.1496.0225-27.7132 5.6488-37.7185 15.6459-10.0053 9.997-15.6361 23.5495-15.6587 37.6874.0226 14.1379 5.6534 27.6904 15.6587 37.687 10.0053 9.997 23.5689 15.624 37.7185 15.646 5.8666.005 11.6703-.955 17.1846-2.819z"/></g></svg>