<svg width="168" height="42" viewBox="0 0 168 42" fill="none" xmlns="http://www.w3.org/2000/svg">
<g clip-path="url(#clip0_2002_974)">
<path opacity="0.72" d="M41.9328 19.2699C41.9122 19.0604 41.8152 18.8658 41.6603 18.7232C41.5054 18.5807 41.3033 18.5002 41.0928 18.4971H20.1601C19.5916 18.511 19.0367 18.6733 18.5504 18.968C18.0642 19.2627 17.6634 19.6796 17.3881 20.1771C17.1331 20.622 16.999 21.1259 16.999 21.6387C16.999 22.1515 17.1331 22.6553 17.3881 23.1003C17.4608 23.2402 17.5688 23.3587 17.7014 23.4441C17.834 23.5296 17.9865 23.579 18.144 23.5875H41.1433C41.3538 23.5844 41.5558 23.5038 41.7107 23.3613C41.8657 23.2188 41.9627 23.0242 41.9833 22.8147C41.9833 22.1595 41.9833 21.6051 41.9833 21.1347C41.9833 20.6643 41.9832 19.9083 41.9328 19.2699Z" fill="#3056D3"/>
<path d="M41.9161 19.2699C41.8994 19.0618 41.806 18.8674 41.6538 18.7245C41.5016 18.5817 41.3016 18.5006 41.0929 18.4971H37.7329C37.6151 18.4984 37.4987 18.5245 37.3917 18.5737C37.2846 18.6229 37.1891 18.6941 37.1113 18.7827C37.033 18.8678 36.9743 18.9691 36.9395 19.0794C36.9046 19.1898 36.8945 19.3064 36.9097 19.4211C36.9097 19.9587 36.9097 20.4963 36.9097 21.1011C36.9055 23.7818 36.2261 26.4184 34.9342 28.7673C33.6423 31.1162 31.7794 33.1019 29.5177 34.5411C29.2825 34.6923 29.0642 34.8771 28.8122 35.0115C27.5794 35.7135 26.2568 36.2448 24.8809 36.5907L27.0818 40.5051C27.1565 40.6345 27.2644 40.7417 27.3943 40.8155C27.5242 40.8893 27.6714 40.9271 27.8209 40.9251C27.9097 40.9411 28.0008 40.9411 28.0897 40.9251L28.6272 40.7067L29.1145 40.5051C29.8576 40.1964 30.5814 39.843 31.2818 39.4467C34.5573 37.6016 37.2788 34.9129 39.1637 31.6602C41.0486 28.4074 42.028 24.7092 42.0002 20.9499C42.0002 20.3283 41.9665 19.8411 41.9161 19.2699Z" fill="#3056D3"/>
<path d="M30.0246 35.2153C29.9117 35.0237 29.7322 34.8802 29.5205 34.8121H29.2853C29.1394 34.8133 28.9958 34.8478 28.8653 34.9129C26.4697 36.276 23.7592 36.9885 21.003 36.9793C16.7729 36.9705 12.7185 35.2861 9.72738 32.2949C6.73622 29.3038 5.05187 25.2495 5.04299 21.0193C5.05187 16.7892 6.73622 12.7349 9.72738 9.74372C12.7185 6.75256 16.7729 5.06821 21.003 5.05934C23.7579 5.06022 26.4659 5.77195 28.8653 7.12573C28.9907 7.20534 29.1368 7.24624 29.2853 7.24333H29.4701C29.5852 7.2179 29.694 7.16897 29.7894 7.09959C29.8848 7.03021 29.9649 6.94188 30.0246 6.84013L31.7046 3.91694C31.8156 3.72252 31.8462 3.49234 31.7897 3.27569C31.7332 3.05904 31.594 2.87313 31.4021 2.75773C28.2398 0.970746 24.6689 0.0331187 21.0366 0.0361401C15.4698 0.0450257 10.1335 2.26037 6.19717 6.19671C2.26083 10.133 0.0455067 15.4693 0.0366211 21.0361C0.0455067 26.603 2.26083 31.9392 6.19717 35.8756C10.1335 39.8119 15.4698 42.0272 21.0366 42.0361C24.6689 42.0392 28.2398 41.1015 31.4021 39.3145C31.4982 39.2606 31.5825 39.1879 31.65 39.1008C31.7175 39.0136 31.7668 38.9138 31.795 38.8073C31.8232 38.7008 31.8298 38.5896 31.8143 38.4805C31.7988 38.3714 31.7614 38.2666 31.7046 38.1721L30.0246 35.2153Z" fill="#3056D3"/>
<path opacity="0.56" d="M23.4025 23.52H18.0938C17.9432 23.5092 17.7973 23.4624 17.6687 23.3835C17.54 23.3045 17.4323 23.1958 17.3545 23.0664L27.1154 40.3536C27.1901 40.483 27.298 40.5902 27.4279 40.664C27.5579 40.7379 27.7051 40.7757 27.8545 40.7736C27.949 40.7896 28.0456 40.7896 28.1402 40.7736C29.2503 40.3739 30.3239 39.8793 31.349 39.2952C31.4451 39.2413 31.5293 39.1686 31.5968 39.0814C31.6642 38.9943 31.7135 38.8945 31.7417 38.788C31.7699 38.6814 31.7766 38.5703 31.761 38.4612C31.7455 38.3521 31.7081 38.2472 31.6513 38.1528L23.4025 23.52Z" fill="#3056D3"/>
</g>
<path d="M65.6485 14.3397V32.1383H62.5187V14.3397H57.75V11.398H70.4037V14.3397H65.6485Z" fill="#3056D3"/>
<path d="M81.1097 19.0547H84.1455V32.1383H81.1097V30.7681C79.8649 31.9323 78.5261 32.5144 77.0933 32.5144C75.2843 32.5144 73.7888 31.8606 72.6067 30.5532C71.4336 29.2188 70.847 27.5532 70.847 25.5562C70.847 23.595 71.4336 21.9606 72.6067 20.6532C73.7799 19.3457 75.2485 18.692 77.0127 18.692C78.5351 18.692 79.9007 19.3189 81.1097 20.5726V19.0547ZM73.9366 25.5562C73.9366 26.8099 74.2724 27.8308 74.944 28.6189C75.6336 29.4159 76.5022 29.8144 77.55 29.8144C78.6694 29.8144 79.5739 29.4293 80.2634 28.6591C80.953 27.8621 81.2978 26.8502 81.2978 25.6233C81.2978 24.3965 80.953 23.3845 80.2634 22.5875C79.5739 21.8084 78.6784 21.4189 77.5769 21.4189C76.5381 21.4189 75.6694 21.8129 74.9709 22.6009C74.2813 23.398 73.9366 24.383 73.9366 25.5562Z" fill="#3056D3"/>
<path d="M90.9828 19.0547V32.1383H87.9604V19.0547H90.9828ZM87.5037 13.6144C87.5037 13.086 87.6963 12.6293 88.0813 12.2442C88.4664 11.8592 88.9276 11.6666 89.4649 11.6666C90.0112 11.6666 90.4769 11.8592 90.8619 12.2442C91.247 12.6203 91.4396 13.0815 91.4396 13.6278C91.4396 14.1741 91.247 14.6397 90.8619 15.0248C90.4858 15.4099 90.0246 15.6024 89.4784 15.6024C88.9321 15.6024 88.4664 15.4099 88.0813 15.0248C87.6963 14.6397 87.5037 14.1696 87.5037 13.6144Z" fill="#3056D3"/>
<path d="M97.8336 9.4502V32.1383H94.8112V9.4502H97.8336Z" fill="#3056D3"/>
<path d="M112.905 21.3383H121.475V22.0233C121.475 23.5815 121.292 24.9606 120.925 26.1606C120.566 27.2711 119.962 28.3099 119.111 29.2771C117.186 31.4442 114.737 32.5278 111.763 32.5278C108.862 32.5278 106.377 31.48 104.308 29.3845C102.24 27.28 101.205 24.7547 101.205 21.8084C101.205 18.7994 102.257 16.2472 104.362 14.1517C106.466 12.0472 109.028 10.995 112.046 10.995C113.666 10.995 115.18 11.3263 116.586 11.989C117.929 12.6517 119.25 13.7263 120.549 15.2129L118.319 17.3487C116.617 15.083 114.544 13.9502 112.099 13.9502C109.905 13.9502 108.065 14.7069 106.578 16.2203C105.092 17.7069 104.349 19.5696 104.349 21.8084C104.349 24.1189 105.177 26.0218 106.834 27.5174C108.383 28.9054 110.062 29.5994 111.871 29.5994C113.411 29.5994 114.795 29.08 116.022 28.0412C117.249 26.9935 117.934 25.7397 118.077 24.28H112.905V21.3383Z" fill="#3056D3"/>
<path d="M124.847 19.0547H127.869V20.2233C128.425 19.6412 128.917 19.2427 129.347 19.0278C129.786 18.8039 130.305 18.692 130.905 18.692C131.702 18.692 132.535 18.9517 133.404 19.4711L132.02 22.2383C131.447 21.8263 130.887 21.6203 130.341 21.6203C128.693 21.6203 127.869 22.8651 127.869 25.3547V32.1383H124.847V19.0547Z" fill="#3056D3"/>
<path d="M138.589 19.0547V32.1383H135.566V19.0547H138.589ZM135.11 13.6144C135.11 13.086 135.302 12.6293 135.687 12.2442C136.072 11.8592 136.534 11.6666 137.071 11.6666C137.617 11.6666 138.083 11.8592 138.468 12.2442C138.853 12.6203 139.046 13.0815 139.046 13.6278C139.046 14.1741 138.853 14.6397 138.468 15.0248C138.092 15.4099 137.631 15.6024 137.084 15.6024C136.538 15.6024 136.072 15.4099 135.687 15.0248C135.302 14.6397 135.11 14.1696 135.11 13.6144Z" fill="#3056D3"/>
<path d="M152.062 9.4502H155.098V32.1383H152.062V30.7681C150.871 31.9323 149.523 32.5144 148.019 32.5144C146.228 32.5144 144.741 31.8606 143.559 30.5532C142.386 29.2188 141.799 27.5532 141.799 25.5562C141.799 23.6039 142.386 21.9741 143.559 20.6666C144.723 19.3502 146.187 18.692 147.951 18.692C149.483 18.692 150.853 19.3189 152.062 20.5726V9.4502ZM144.889 25.5562C144.889 26.8099 145.225 27.8308 145.896 28.6189C146.586 29.4159 147.454 29.8144 148.502 29.8144C149.622 29.8144 150.526 29.4293 151.216 28.6591C151.905 27.8621 152.25 26.8502 152.25 25.6233C152.25 24.3965 151.905 23.3845 151.216 22.5875C150.526 21.8084 149.631 21.4189 148.529 21.4189C147.49 21.4189 146.622 21.8129 145.923 22.6009C145.234 23.398 144.889 24.383 144.889 25.5562Z" fill="#3056D3"/>
<path d="M166.516 21.2845L164.017 22.6144C163.623 21.8084 163.135 21.4054 162.553 21.4054C162.275 21.4054 162.038 21.4994 161.841 21.6875C161.644 21.8666 161.546 22.0994 161.546 22.386C161.546 22.8875 162.128 23.3845 163.292 23.8771C164.895 24.5666 165.974 25.2024 166.529 25.7845C167.084 26.3666 167.362 27.1502 167.362 28.1353C167.362 29.398 166.896 30.4547 165.965 31.3054C165.06 32.1114 163.968 32.5144 162.687 32.5144C160.493 32.5144 158.94 31.4442 158.026 29.3039L160.605 28.1084C160.963 28.7353 161.237 29.1338 161.425 29.3039C161.792 29.6442 162.231 29.8144 162.741 29.8144C163.762 29.8144 164.272 29.3487 164.272 28.4174C164.272 27.88 163.878 27.3786 163.09 26.9129C162.786 26.7606 162.481 26.6129 162.177 26.4696C161.872 26.3263 161.563 26.1786 161.25 26.0263C160.372 25.5965 159.754 25.1666 159.396 24.7368C158.94 24.1905 158.711 23.4875 158.711 22.6278C158.711 21.4905 159.101 20.5502 159.88 19.8069C160.677 19.0636 161.644 18.692 162.781 18.692C164.456 18.692 165.701 19.5562 166.516 21.2845Z" fill="#3056D3"/>
<defs>
<clipPath id="clip0_2002_974">
<rect width="42" height="42" fill="white"/>
</clipPath>
</defs>
</svg>
