<svg fill="none" height="40" viewBox="0 0 160 40" width="160" xmlns="http://www.w3.org/2000/svg" xmlns:xlink="http://www.w3.org/1999/xlink"><clipPath id="a"><path d="m0 0h40v40h-40z"/></clipPath><g fill="#fff"><g clip-path="url(#a)"><path d="m39.9359 18.352c-.0196-.1996-.112-.3849-.2595-.5206-.1476-.1358-.34-.2125-.5405-.2154h-19.9359c-.5414.0132-1.0699.1678-1.533.4485s-.8448.6777-1.107 1.1515c-.2428.4237-.3705.9036-.3705 1.392 0 .4883.1277.9682.3705 1.392.0693.1332.1721.2461.2984.3275.1263.0813.2715.1284.4215.1365h21.9041c.2005-.003.3929-.0797.5404-.2154.1476-.1358.2399-.3211.2596-.5206 0-.624 0-1.152 0-1.6s-.0001-1.168-.0481-1.776z" opacity=".72"/><path d="m39.9203 18.352c-.0159-.1982-.1049-.3833-.2498-.5194s-.3354-.2133-.5342-.2166h-3.2c-.1122.0012-.223.0261-.325.073-.102.0468-.1929.1146-.267.199-.0746.0811-.1305.1775-.1636.2826-.0332.1051-.0428.2161-.0284.3254v1.6c-.004 2.5531-.651 5.0641-1.8814 7.3011-1.2304 2.2371-3.0046 4.1282-5.1586 5.4989-.224.144-.4319.32-.6719.448-1.1741.6686-2.4337 1.1746-3.7441 1.504l2.0961 3.728c.0711.1232.1739.2253.2976.2956.1238.0703.264.1063.4063.1044.0846.0153.1714.0153.256 0l.512-.208.464-.192c.7078-.294 1.3971-.6306 2.0641-1.008 3.1195-1.7573 5.7115-4.3179 7.5066-7.4158 1.7952-3.0978 2.7279-6.6199 2.7014-10.2002 0-.592-.0321-1.056-.0801-1.6z"/><path d="m28.5951 33.5387c-.1075-.1825-.2784-.3192-.4801-.384h-.224c-.1389.0011-.2757.0339-.4.096-2.2815 1.2982-4.8629 1.9767-7.4879 1.968-4.0287-.0085-7.8899-1.6126-10.73865-4.4613-2.84872-2.8488-4.45287-6.71-4.46132-10.7387.00845-4.0287 1.6126-7.89 4.46132-10.73871 2.84875-2.84873 6.70995-4.45286 10.73865-4.46132 2.6238.00084 5.2028.67868 7.4879 1.96799.1195.07582.2586.11478.4.112h.176c.1097-.02421.2132-.07081.3041-.13689.0908-.06607.1672-.1502.224-.2471l1.6-2.784c.1058-.18516.1349-.40437.0811-.6107-.0539-.20634-.1864-.3834-.3692-.4933-3.0116-1.701895-6.4126-2.5948726-9.8718-2.5919951-5.3018.0084625-10.38396 2.1183151-14.13286 5.8672151-3.74889 3.74889-5.8587213 8.83101-5.8671838 14.13281.0084625 5.3017 2.1182938 10.3839 5.8671838 14.1328 3.7489 3.7489 8.83106 5.8587 14.13286 5.8672 3.4592.0028 6.8602-.8901 9.8718-2.592.0916-.0514.1719-.1206.2362-.2036.0642-.083.1112-.178.1381-.2795.0268-.1015.0331-.2073.0183-.3112s-.0504-.2038-.1045-.2937z"/><path d="m22.2883 22.4h-5.0559c-.1434-.0102-.2823-.0548-.4049-.13-.1225-.0752-.2251-.1788-.2992-.302l9.2961 16.464c.0712.1233.1739.2253.2977.2957.1237.0703.2639.1063.4062.1043.09.0152.1821.0152.2721 0 1.0572-.3806 2.0797-.8517 3.056-1.408.0916-.0514.1717-.1206.236-.2036.0643-.0829.1112-.178.1381-.2795.0268-.1014.0331-.2073.0183-.3112s-.0503-.2038-.1045-.2937z" opacity=".56"/></g><path d="m62.5224 13.6567v16.951h-2.9808v-16.951h-4.5416v-2.8017h12.0512v2.8017z"/><path d="m77.2473 18.1471h2.8913v12.4606h-2.8913v-1.3049c-1.1855 1.1087-2.4605 1.6631-3.8251 1.6631-1.7228 0-3.1471-.6226-4.2729-1.8678-1.1173-1.2708-1.676-2.8572-1.676-4.7591 0-1.8678.5587-3.4243 1.676-4.6695 1.1172-1.2452 2.5159-1.8678 4.1961-1.8678 1.4499 0 2.7505.597 3.9019 1.7911zm-6.8315 6.1919c0 1.194.3198 2.1663.9595 2.9169.6567.759 1.484 1.1386 2.4818 1.1386 1.0661 0 1.9275-.3668 2.5843-1.1003.6567-.759.985-1.7228.985-2.8912 0-1.1685-.3283-2.1322-.985-2.8913-.6568-.742-1.5096-1.113-2.5587-1.113-.9893 0-1.8166.3753-2.4818 1.1258-.6568.7591-.9851 1.6972-.9851 2.8145z"/><path d="m86.6503 18.1471v12.4606h-2.8784v-12.4606zm-3.3134-5.1812c0-.5032.1834-.9382.5501-1.3049.3667-.3668.806-.5501 1.3177-.5501.5202 0 .9637.1833 1.3305.5501.3667.3582.5501.7974.5501 1.3177 0 .5202-.1834.9637-.5501 1.3305-.3582.3667-.7975.5501-1.3177.5501-.5203 0-.9638-.1834-1.3305-.5501-.3667-.3668-.5501-.8145-.5501-1.3433z"/><path d="m93.1748 9v21.6077h-2.8784v-21.6077z"/><path d="m107.529 20.322h8.162v.6524c0 1.484-.175 2.7975-.525 3.9403-.341 1.0576-.917 2.0469-1.727 2.968-1.833 2.064-4.166 3.096-6.998 3.096-2.763 0-5.13-.9979-7.0998-2.9936-1.9702-2.0043-2.9553-4.4094-2.9553-7.2154 0-2.8656 1.0022-5.2964 3.0064-7.2921 2.0047-2.0043 4.4437-3.0064 7.3177-3.0064 1.544 0 2.985.3156 4.324.9467 1.279.6311 2.537 1.6546 3.774 3.0704l-2.124 2.0341c-1.62-2.1578-3.594-3.2367-5.923-3.2367-2.089 0-3.842.7207-5.258 2.1621-1.416 1.4157-2.1235 3.1897-2.1235 5.3219 0 2.2004.7885 4.0128 2.3665 5.4371 1.476 1.322 3.075 1.983 4.798 1.983 1.467 0 2.784-.4947 3.953-1.484 1.168-.9979 1.821-2.1919 1.957-3.5821h-4.925z"/><path d="m118.902 18.1471h2.878v1.113c.529-.5543.998-.9339 1.408-1.1386.418-.2132.912-.3198 1.484-.3198.759 0 1.552.2473 2.379.742l-1.318 2.6354c-.545-.3923-1.078-.5885-1.599-.5885-1.569 0-2.354 1.1855-2.354 3.5565v6.4606h-2.878z"/><path d="m131.989 18.1471v12.4606h-2.878v-12.4606zm-3.313-5.1812c0-.5032.183-.9382.55-1.3049.367-.3668.806-.5501 1.318-.5501.52 0 .963.1833 1.33.5501.367.3582.55.7974.55 1.3177 0 .5202-.183.9637-.55 1.3305-.358.3667-.797.5501-1.317.5501-.521 0-.964-.1834-1.331-.5501-.367-.3668-.55-.8145-.55-1.3433z"/><path d="m144.821 9h2.891v21.6077h-2.891v-1.3049c-1.134 1.1087-2.418 1.6631-3.851 1.6631-1.706 0-3.121-.6226-4.247-1.8678-1.117-1.2708-1.676-2.8572-1.676-4.7591 0-1.8593.559-3.4115 1.676-4.6567 1.109-1.2537 2.503-1.8806 4.183-1.8806 1.459 0 2.764.597 3.915 1.7911zm-6.832 15.339c0 1.194.32 2.1663.96 2.9169.657.759 1.484 1.1386 2.482 1.1386 1.066 0 1.927-.3668 2.584-1.1003.657-.759.985-1.7228.985-2.8912 0-1.1685-.328-2.1322-.985-2.8913-.657-.742-1.51-1.113-2.559-1.113-.989 0-1.816.3753-2.482 1.1258-.656.7591-.985 1.6972-.985 2.8145z"/><path d="m158.586 20.2708-2.379 1.2665c-.375-.7676-.84-1.1514-1.395-1.1514-.264 0-.49.0896-.678.2687-.187.1706-.281.3923-.281.6652 0 .4776.554.951 1.663 1.4201 1.527.6567 2.554 1.2622 3.083 1.8166s.793 1.3006.793 2.2388c0 1.2026-.443 2.209-1.33 3.0192-.862.7676-1.902 1.1514-3.122 1.1514-2.089 0-3.569-1.0192-4.439-3.0576l2.456-1.1386c.342.597.602.9766.781 1.1386.349.3241.767.4862 1.253.4862.973 0 1.459-.4435 1.459-1.3305 0-.5118-.375-.9894-1.126-1.4329-.29-.145-.58-.2857-.87-.4221-.29-.1365-.584-.2772-.883-.4222-.835-.4094-1.424-.8188-1.765-1.2282-.435-.5202-.652-1.1897-.652-2.0085 0-1.0831.371-1.9787 1.113-2.6866.759-.7078 1.68-1.0618 2.763-1.0618 1.595 0 2.78.823 3.556 2.4691z"/></g></svg>