<svg width="160" height="40" viewBox="0 0 160 40" fill="none" xmlns="http://www.w3.org/2000/svg">
<g clip-path="url(#clip0_102_222)">
<path opacity="0.72" d="M39.9359 18.352C39.9163 18.1524 39.8239 17.9671 39.6764 17.8314C39.5288 17.6956 39.3364 17.6189 39.1359 17.616H19.2C18.6586 17.6292 18.1301 17.7838 17.667 18.0645C17.2039 18.3452 16.8222 18.7422 16.56 19.216C16.3172 19.6397 16.1895 20.1196 16.1895 20.608C16.1895 21.0963 16.3172 21.5762 16.56 22C16.6293 22.1332 16.7321 22.2461 16.8584 22.3275C16.9847 22.4088 17.1299 22.4559 17.2799 22.464H39.184C39.3845 22.461 39.5769 22.3843 39.7244 22.2486C39.872 22.1128 39.9643 21.9275 39.984 21.728C39.984 21.104 39.984 20.576 39.984 20.128C39.984 19.68 39.9839 18.96 39.9359 18.352Z" fill="#3056D3"/>
<path d="M39.9203 18.352C39.9044 18.1538 39.8154 17.9687 39.6705 17.8326C39.5256 17.6965 39.3351 17.6193 39.1363 17.616H35.9363C35.8241 17.6172 35.7133 17.6421 35.6113 17.689C35.5093 17.7358 35.4184 17.8036 35.3443 17.888C35.2697 17.9691 35.2138 18.0655 35.1807 18.1706C35.1475 18.2757 35.1379 18.3867 35.1523 18.496C35.1523 19.008 35.1523 19.52 35.1523 20.096C35.1483 22.6491 34.5013 25.1601 33.2709 27.3971C32.0405 29.6342 30.2663 31.5253 28.1123 32.896C27.8883 33.04 27.6804 33.216 27.4404 33.344C26.2663 34.0126 25.0067 34.5186 23.6963 34.848L25.7924 38.576C25.8635 38.6992 25.9663 38.8013 26.09 38.8716C26.2138 38.9419 26.354 38.9779 26.4963 38.976C26.5809 38.9913 26.6677 38.9913 26.7523 38.976L27.2643 38.768L27.7283 38.576C28.4361 38.282 29.1254 37.9454 29.7924 37.568C32.9119 35.8107 35.5039 33.2501 37.299 30.1522C39.0942 27.0544 40.0269 23.5323 40.0004 19.952C40.0004 19.36 39.9683 18.896 39.9203 18.352Z" fill="#3056D3"/>
<path d="M28.5951 33.5387C28.4876 33.3562 28.3167 33.2195 28.115 33.1547H27.891C27.7521 33.1558 27.6153 33.1886 27.491 33.2507C25.2095 34.5489 22.6281 35.2274 20.0031 35.2187C15.9744 35.2102 12.1132 33.6061 9.26445 30.7574C6.41573 27.9086 4.81158 24.0474 4.80312 20.0187C4.81158 15.99 6.41573 12.1287 9.26445 9.27999C12.1132 6.43126 15.9744 4.82713 20.0031 4.81867C22.6269 4.81951 25.2059 5.49735 27.491 6.78666C27.6105 6.86248 27.7496 6.90144 27.891 6.89866H28.067C28.1767 6.87445 28.2802 6.82785 28.3711 6.76177C28.4619 6.6957 28.5383 6.61157 28.5951 6.51467L30.1951 3.73067C30.3009 3.54551 30.33 3.3263 30.2762 3.11997C30.2223 2.91363 30.0898 2.73657 29.907 2.62667C26.8954 0.924775 23.4944 0.0317974 20.0352 0.0346749C14.7334 0.0431374 9.65124 2.15299 5.90234 5.90189C2.15345 9.65078 0.0436187 14.7329 0.0351562 20.0347C0.0436187 25.3364 2.15345 30.4186 5.90234 34.1675C9.65124 37.9164 14.7334 40.0262 20.0352 40.0347C23.4944 40.0375 26.8954 39.1446 29.907 37.4427C29.9986 37.3913 30.0789 37.3221 30.1432 37.2391C30.2074 37.1561 30.2544 37.0611 30.2812 36.9596C30.3081 36.8581 30.3144 36.7523 30.2996 36.6484C30.2848 36.5445 30.2492 36.4446 30.1951 36.3547L28.5951 33.5387Z" fill="#3056D3"/>
<path opacity="0.56" d="M22.2883 22.4H17.2324C17.089 22.3898 16.9501 22.3452 16.8275 22.27C16.705 22.1948 16.6024 22.0912 16.5283 21.968L25.8244 38.432C25.8956 38.5553 25.9983 38.6573 26.1221 38.7277C26.2458 38.798 26.386 38.834 26.5283 38.832C26.6183 38.8472 26.7104 38.8472 26.8004 38.832C27.8576 38.4514 28.8801 37.9803 29.8564 37.424C29.948 37.3726 30.0281 37.3034 30.0924 37.2204C30.1567 37.1375 30.2036 37.0424 30.2305 36.9409C30.2573 36.8395 30.2636 36.7336 30.2488 36.6297C30.234 36.5258 30.1985 36.4259 30.1443 36.336L22.2883 22.4Z" fill="#3056D3"/>
</g>
<path d="M62.5224 13.6567V30.6077H59.5416V13.6567H55V10.855H67.0512V13.6567H62.5224Z" fill="#090E34"/>
<path d="M77.2473 18.1471H80.1386V30.6077H77.2473V29.3028C76.0618 30.4115 74.7868 30.9659 73.4222 30.9659C71.6994 30.9659 70.2751 30.3433 69.1493 29.0981C68.032 27.8273 67.4733 26.2409 67.4733 24.339C67.4733 22.4712 68.032 20.9147 69.1493 19.6695C70.2665 18.4243 71.6652 17.8017 73.3454 17.8017C74.7953 17.8017 76.0959 18.3987 77.2473 19.5928V18.1471ZM70.4158 24.339C70.4158 25.533 70.7356 26.5053 71.3753 27.2559C72.032 28.0149 72.8593 28.3945 73.8571 28.3945C74.9232 28.3945 75.7846 28.0277 76.4414 27.2942C77.0981 26.5352 77.4264 25.5714 77.4264 24.403C77.4264 23.2345 77.0981 22.2708 76.4414 21.5117C75.7846 20.7697 74.9318 20.3987 73.8827 20.3987C72.8934 20.3987 72.0661 20.774 71.4009 21.5245C70.7441 22.2836 70.4158 23.2217 70.4158 24.339Z" fill="#090E34"/>
<path d="M86.6503 18.1471V30.6077H83.7719V18.1471H86.6503ZM83.3369 12.9659C83.3369 12.4627 83.5203 12.0277 83.887 11.661C84.2537 11.2942 84.693 11.1109 85.2047 11.1109C85.7249 11.1109 86.1684 11.2942 86.5352 11.661C86.9019 12.0192 87.0853 12.4584 87.0853 12.9787C87.0853 13.4989 86.9019 13.9424 86.5352 14.3092C86.177 14.6759 85.7377 14.8593 85.2175 14.8593C84.6972 14.8593 84.2537 14.6759 83.887 14.3092C83.5203 13.9424 83.3369 13.4947 83.3369 12.9659Z" fill="#090E34"/>
<path d="M93.1748 9V30.6077H90.2964V9H93.1748Z" fill="#090E34"/>
<path d="M107.529 20.322H115.691V20.9744C115.691 22.4584 115.516 23.7719 115.166 24.9147C114.825 25.9723 114.249 26.9616 113.439 27.8827C111.606 29.9467 109.273 30.9787 106.441 30.9787C103.678 30.9787 101.311 29.9808 99.3412 27.9851C97.371 25.9808 96.3859 23.5757 96.3859 20.7697C96.3859 17.9041 97.3881 15.4733 99.3923 13.4776C101.397 11.4733 103.836 10.4712 106.71 10.4712C108.254 10.4712 109.695 10.7868 111.034 11.4179C112.313 12.049 113.571 13.0725 114.808 14.4883L112.684 16.5224C111.064 14.3646 109.09 13.2857 106.761 13.2857C104.672 13.2857 102.919 14.0064 101.503 15.4478C100.087 16.8635 99.3795 18.6375 99.3795 20.7697C99.3795 22.9701 100.168 24.7825 101.746 26.2068C103.222 27.5288 104.821 28.1898 106.544 28.1898C108.011 28.1898 109.328 27.6951 110.497 26.7058C111.665 25.7079 112.318 24.5139 112.454 23.1237H107.529V20.322Z" fill="#090E34"/>
<path d="M118.902 18.1471H121.78V19.2601C122.309 18.7058 122.778 18.3262 123.188 18.1215C123.606 17.9083 124.1 17.8017 124.672 17.8017C125.431 17.8017 126.224 18.049 127.051 18.5437L125.733 21.1791C125.188 20.7868 124.655 20.5906 124.134 20.5906C122.565 20.5906 121.78 21.7761 121.78 24.1471V30.6077H118.902V18.1471Z" fill="#090E34"/>
<path d="M131.989 18.1471V30.6077H129.111V18.1471H131.989ZM128.676 12.9659C128.676 12.4627 128.859 12.0277 129.226 11.661C129.593 11.2942 130.032 11.1109 130.544 11.1109C131.064 11.1109 131.507 11.2942 131.874 11.661C132.241 12.0192 132.424 12.4584 132.424 12.9787C132.424 13.4989 132.241 13.9424 131.874 14.3092C131.516 14.6759 131.077 14.8593 130.557 14.8593C130.036 14.8593 129.593 14.6759 129.226 14.3092C128.859 13.9424 128.676 13.4947 128.676 12.9659Z" fill="#090E34"/>
<path d="M144.821 9H147.712V30.6077H144.821V29.3028C143.687 30.4115 142.403 30.9659 140.97 30.9659C139.264 30.9659 137.849 30.3433 136.723 29.0981C135.606 27.8273 135.047 26.2409 135.047 24.339C135.047 22.4797 135.606 20.9275 136.723 19.6823C137.832 18.4286 139.226 17.8017 140.906 17.8017C142.365 17.8017 143.67 18.3987 144.821 19.5928V9ZM137.989 24.339C137.989 25.533 138.309 26.5053 138.949 27.2559C139.606 28.0149 140.433 28.3945 141.431 28.3945C142.497 28.3945 143.358 28.0277 144.015 27.2942C144.672 26.5352 145 25.5714 145 24.403C145 23.2345 144.672 22.2708 144.015 21.5117C143.358 20.7697 142.505 20.3987 141.456 20.3987C140.467 20.3987 139.64 20.774 138.974 21.5245C138.318 22.2836 137.989 23.2217 137.989 24.339Z" fill="#090E34"/>
<path d="M158.586 20.2708L156.207 21.5373C155.832 20.7697 155.367 20.3859 154.812 20.3859C154.548 20.3859 154.322 20.4755 154.134 20.6546C153.947 20.8252 153.853 21.0469 153.853 21.3198C153.853 21.7974 154.407 22.2708 155.516 22.7399C157.043 23.3966 158.07 24.0021 158.599 24.5565C159.128 25.1109 159.392 25.8571 159.392 26.7953C159.392 27.9979 158.949 29.0043 158.062 29.8145C157.2 30.5821 156.16 30.9659 154.94 30.9659C152.851 30.9659 151.371 29.9467 150.501 27.9083L152.957 26.7697C153.299 27.3667 153.559 27.7463 153.738 27.9083C154.087 28.2324 154.505 28.3945 154.991 28.3945C155.964 28.3945 156.45 27.951 156.45 27.064C156.45 26.5522 156.075 26.0746 155.324 25.6311C155.034 25.4861 154.744 25.3454 154.454 25.209C154.164 25.0725 153.87 24.9318 153.571 24.7868C152.736 24.3774 152.147 23.968 151.806 23.5586C151.371 23.0384 151.154 22.3689 151.154 21.5501C151.154 20.467 151.525 19.5714 152.267 18.8635C153.026 18.1557 153.947 17.8017 155.03 17.8017C156.625 17.8017 157.81 18.6247 158.586 20.2708Z" fill="#090E34"/>
<defs>
<clipPath id="clip0_102_222">
<rect width="40" height="40" fill="white"/>
</clipPath>
</defs>
</svg>
