<svg fill="none" height="25" viewBox="0 0 195 25" width="195" xmlns="http://www.w3.org/2000/svg" xmlns:xlink="http://www.w3.org/1999/xlink"><linearGradient id="a" gradientUnits="userSpaceOnUse" x1="25.1891" x2="47.3785" y1="17.0242" y2="17.0242"><stop offset="0" stop-color="#003fff"/><stop offset=".6883" stop-color="#690aff"/></linearGradient><linearGradient id="b" gradientUnits="userSpaceOnUse" x1="3" x2="25.2061" y1="8.17711" y2="8.17711"><stop offset=".2862" stop-color="#e843a1"/><stop offset="1" stop-color="#003fff"/></linearGradient><linearGradient id="c" gradientUnits="userSpaceOnUse" x1="3" x2="47.3954" y1="12.5937" y2="12.5937"><stop offset=".16" stop-color="#e843a1"/><stop offset=".84" stop-color="#690aff"/></linearGradient><g stroke-miterlimit="10" stroke-width="6"><path d="m25.1895 12.5937c3.2728 4.4167 6.6012 8.8334 13.147 8.8334 4.9925 0 9.042-3.975 9.042-8.8334" stroke="url(#a)"/><path d="m3 12.5937c0-4.85823 4.04945-8.83323 9.042-8.83323 6.5458 0 9.8741 4.41664 13.147 8.83323" stroke="url(#b)"/><path d="m47.3781 12.5937c0-4.85823-4.0496-8.83323-9.0421-8.83323-6.5457 0-9.8741 4.41664-13.147 8.83323-3.2729 4.4168-6.6012 8.8334-13.147 8.8334-4.99255 0-9.042-3.975-9.042-8.8334" stroke="url(#c)"/></g><path d="m65.1294 24.1372v-23.1372h3.047v20.1193h9.5217v3.0179zm15.6275-18.30857v-3.21909h3.0471v3.21909zm0 18.30857v-16.69902h3.0471v16.69902zm41.1681-18.30857v-3.21909h3.047v3.21909zm0 18.30857v-16.69902h3.047v16.69902zm-21.018-10.613c-.095-.6538-.238-1.358-.476-2.0622-.238-.7041-.6193-1.358-1.0478-1.96163-.476-.60354-1.0476-1.10654-1.809-1.45857-.7622-.35212-1.6666-.55336-2.7617-.55336-1.4278 0-2.6186.30185-3.6179.95574-.476.30177-.8571.65381-1.2382 1.05619v-2.01193h-3.0471v16.69906h3.0471v-8.2992h.0475c0-1.0059.0957-1.8107.3336-2.515.1906-.7041.476-1.2574.8571-1.6598s.8088-.7041 1.2856-.9054c.4759-.2011.9993-.3017 1.571-.3017.857 0 1.5235.2011 2.0469.5532.5242.3522.9045.8551 1.2382 1.4084.2854.6036.4759 1.2072.5708 1.9114.0957.7041.1431 1.358.1431 2.0119v7.7962h3.0948v-8.9028c-.095-.503-.143-1.1066-.238-1.7605zm76.946 0c-.095-.6538-.238-1.358-.476-2.0622-.238-.7041-.619-1.358-1.048-1.96163-.476-.60354-1.047-1.10654-1.809-1.45857-.761-.35212-1.666-.55336-2.761-.55336-1.429 0-2.618.30185-3.619.95574-.476.30177-.857.65381-1.238 1.05619v-2.01193h-3.047v16.69906h3.047v-8.2992h.049c0-1.0059.094-1.8107.332-2.515.191-.7041.476-1.2574.857-1.6598.382-.4024.81-.7041 1.286-.9054.476-.2011.999-.3017 1.571-.3017.857 0 1.524.2011 2.047.5532.524.3522.905.8551 1.191 1.4084.285.6036.476 1.2072.57 1.9114.096.7041.144 1.358.144 2.0119v7.7962h3.094v-8.9028c-.047-.503-.095-1.1066-.19-1.7605zm-60.224 3.1186h1.524c.095-1.9114-.096-3.521-.667-4.9293-.571-1.358-1.428-2.46455-2.523-3.16878-1.143-.75443-2.523-1.10654-4.094-1.10654-1.524 0-2.905.35211-4.048 1.05627-1.142.70415-2.047 1.65985-2.713 2.96755-.667 1.2575-.953 2.7665-.953 4.4765 0 1.6096.334 3.0683 1 4.3258.667 1.2574 1.571 2.213 2.762 2.8669 1.19.7042 2.57 1.0563 4.141 1.0563 1.524 0 2.905-.4024 4.191-1.1569 1.237-.7544 2.19-1.861 2.808-3.2693l-2.999-.9557c-.381.8048-.952 1.4587-1.619 1.861-.714.4527-1.524.6539-2.475.6539-1.477 0-2.572-.4527-3.333-1.4084-.619-.8047-1-1.861-1.095-3.1688h8.713 1.38zm-9.141-5.0299c.762-.9556 1.905-1.4586 3.428-1.4586 1.381 0 2.428.4527 3.095 1.3077.476.6037.809 1.509.952 2.6156h-8.523c.191-1.006.572-1.8108 1.048-2.4647zm26.875 12.5243c-1.619 0-3-.3521-4.142-1.1066-1.144-.7041-2.001-1.7101-2.619-2.9676-.619-1.2574-.904-2.7161-.904-4.2753 0-1.6096.332-3.0682.951-4.3257.62-1.2574 1.477-2.2634 2.619-2.96755 1.142-.70416 2.523-1.05627 4.095-1.05627 1.713 0 3.189.45265 4.427 1.30777 1.238.85504 2.047 2.06215 2.428 3.52085l-3.047.855c-.285-.9053-.809-1.5591-1.476-2.0622-.666-.503-1.475-.7545-2.381-.7545-.999 0-1.808.2515-2.475.7043-.666.4526-1.142 1.1065-1.428 1.9616-.334.8047-.477 1.7604-.477 2.8167 0 1.6095.381 2.9675 1.144 3.9736.714 1.006 1.809 1.5089 3.285 1.5089.999 0 1.761-.2515 2.38-.7042.619-.4526 1.095-1.1065 1.381-1.9616l3.094.7545c-.523 1.5592-1.38 2.7161-2.571 3.5712-1.142.8047-2.618 1.2071-4.284 1.2071zm17.674 0c-1.572 0-2.952-.3521-4.095-1.0562-1.142-.7043-2.046-1.7102-2.666-2.9676-.619-1.2575-.952-2.7162-.952-4.3257 0-1.6598.333-3.1185.952-4.3759.667-1.2575 1.524-2.2132 2.714-2.91735 1.142-.70416 2.524-1.05627 4.047-1.05627 1.571 0 2.952.35211 4.094 1.05627 1.143.70415 2.048 1.71015 2.714 2.96755.619 1.2575.952 2.7161.952 4.3257 0 1.6599-.333 3.1185-.952 4.3759-.619 1.2575-1.523 2.2132-2.714 2.9676-1.19.6539-2.523 1.006-4.094 1.006zm0-2.867c1.524 0 2.619-.5029 3.38-1.5089.762-1.0061 1.143-2.3137 1.143-3.9736 0-1.6598-.381-2.9676-1.143-3.9735-.761-1.0061-1.856-1.5091-3.38-1.5091-1.047 0-1.857.2515-2.524.7043-.666.4526-1.142 1.1065-1.476 1.9113-.333.8048-.476 1.7604-.476 2.8167 0 1.6598.381 2.9676 1.143 3.9736.715 1.0563 1.857 1.5592 3.333 1.5592zm34.873 2.867c-1.905 0-3.476-.4024-4.714-1.2575-1.19-.855-1.952-2.0622-2.237-3.5711l3.142-.503c.19.8048.666 1.4587 1.333 1.9617.714.4526 1.572.7041 2.618.7041.953 0 1.714-.2012 2.239-.6036.523-.4024.808-.9053.808-1.6095 0-.4024-.094-.7042-.285-.9557s-.572-.503-1.19-.7042c-.619-.2012-1.523-.503-2.762-.8551-1.333-.352-2.428-.7544-3.237-1.1568-.81-.4024-1.381-.9054-1.714-1.4084-.333-.5533-.524-1.2071-.524-1.9616 0-.9556.238-1.8107.762-2.51489.524-.70416 1.238-1.25743 2.142-1.65981.905-.40239 2-.60362 3.238-.60362 1.19 0 2.285.20123 3.238.55326.952.40239 1.714.90539 2.285 1.60955.571.70411.952 1.50891 1.047 2.46471l-3.142.5532c-.096-.7545-.477-1.358-1.047-1.8108-.62-.4526-1.381-.7041-2.334-.7041-.904-.0503-1.665.1006-2.237.4526-.572.3522-.857.8048-.857 1.4084 0 .3521.095.6539.333.9054.238.2514.667.5029 1.285.7042.619.2011 1.572.503 2.809.8048 1.333.352 2.381.7041 3.143 1.1568.762.4023 1.333.9053 1.666 1.4586.334.5533.524 1.2575.524 2.0623 0 1.5592-.571 2.8167-1.714 3.6717-1.047.9557-2.618 1.4084-4.618 1.4084z" fill="#000"/></svg>