<svg width="200" height="201" viewBox="0 0 200 201" fill="none" xmlns="http://www.w3.org/2000/svg">
<path d="M155.997 90.0773L125.649 87.8087C122.71 87.586 119.76 88.0723 117.047 89.2266L108.975 92.6673C107.889 94.6384 106.555 96.4619 105.005 98.093C101.11 102.252 86.1755 109.984 78.2921 111.61C76.4347 111.941 74.5203 111.606 72.8853 110.665C69.3136 113.53 65.5712 116.176 61.6786 118.588C61.6786 118.588 69.0515 139.592 96.5036 127.719L118.339 118.248L113.556 129.723C113.688 136.283 113.726 144.885 113.291 150.618C118.417 152.18 123.885 152.232 129.04 150.768C131.1 136.779 132.669 114.698 127.338 106.36L153.428 106.115C156.715 100.193 156.425 96.8264 155.997 90.0773Z" fill="#FECFC4"/>
<path d="M107.523 81.9482L110.699 67.9774C110.734 67.826 110.739 67.6692 110.713 67.5159C110.687 67.3627 110.631 67.2161 110.549 67.0844C110.466 66.9528 110.358 66.8387 110.232 66.7486C110.105 66.6585 109.962 66.5943 109.811 66.5595C109.659 66.5248 109.502 66.5202 109.349 66.546C109.196 66.5719 109.049 66.6276 108.918 66.7101C108.786 66.7926 108.672 66.9003 108.582 67.0269C108.492 67.1535 108.428 67.2966 108.393 67.4481L104.65 83.9143" fill="#FECFC4"/>
<path d="M107.523 81.9482L110.699 67.9774C110.734 67.826 110.739 67.6692 110.713 67.5159C110.687 67.3627 110.631 67.2161 110.549 67.0844C110.466 66.9528 110.358 66.8387 110.232 66.7486C110.105 66.6585 109.962 66.5943 109.811 66.5595C109.659 66.5248 109.502 66.5202 109.349 66.546C109.196 66.5719 109.049 66.6276 108.918 66.7101C108.786 66.7926 108.672 66.9003 108.582 67.0269C108.492 67.1535 108.428 67.2966 108.393 67.4481L104.65 83.9143C105.12 85.6506 106.385 87.9789 107.523 81.9482Z" fill="#FECFC4"/>
<path d="M105.066 29.0131C105.066 31.3575 104.37 33.6492 103.068 35.5985C101.765 37.5478 99.9142 39.0671 97.7482 39.9642C95.5823 40.8614 93.199 41.0961 90.8996 40.6388C88.6003 40.1814 86.4882 39.0525 84.8305 37.3947C83.1727 35.737 82.0438 33.6249 81.5864 31.3256C81.1291 29.0263 81.3638 26.6429 82.261 24.477C83.1581 22.3111 84.6774 20.4598 86.6267 19.1573C88.576 17.8549 90.8677 17.1597 93.2121 17.1597C96.3552 17.1618 99.3689 18.4113 101.591 20.6338C103.814 22.8563 105.063 25.87 105.066 29.0131Z" fill="#FECFC4"/>
<path d="M166.964 91.5707C164.788 96.7274 161.716 101.458 157.889 105.541C159.988 105.863 162.086 106.337 163.882 106.619C165.753 105.803 167.507 104.742 169.098 103.464C174.073 99.456 184.321 94.484 186.566 91.6483C182.501 91.0602 172.557 91.4572 166.964 91.5707Z" fill="#6153BD"/>
<path d="M128.508 162.276C123.269 160.298 118.423 157.405 114.197 153.73C113.951 155.83 113.573 157.947 113.346 159.762C114.233 161.603 115.358 163.319 116.692 164.866C120.871 169.668 126.221 179.726 129.13 181.881C129.585 177.797 128.83 167.872 128.508 162.276Z" fill="#6153BD"/>
<path d="M63.6069 102.347C63.2288 102.536 62.8318 102.706 62.4348 102.876C60.5806 100.697 58.8385 98.4256 57.215 96.0701C57.3851 96.4681 62.6029 107.753 71.2614 112.007C71.8286 111.553 72.3768 111.118 72.8872 110.684C69.6525 108.925 66.2914 105.523 63.6069 102.347Z" fill="#6153BD"/>
<path d="M113.327 120.401C113.327 120.401 113.497 124.39 113.592 129.702L118.337 118.246L113.327 120.401Z" fill="#6153BD"/>
<path d="M62.4159 52.7398C62.4159 52.7398 59.1055 46.538 51.3186 50.32C43.5318 54.102 45.0422 69.3006 45.0422 69.3006C45.0422 69.3006 38.1219 72.609 34.4355 78.1859C28.7262 86.8255 31.6007 99.87 49.3545 99.87C48.5082 96.146 48.2151 92.3175 48.4849 88.5081C48.9575 81.7968 51.3962 75.6527 53.5514 69.3573C56.2996 61.2192 55.7096 61.8699 56.6707 58.8839C54.3822 56.7099 57.1055 54.101 58.3344 56.2173C58.8548 57.073 58.9791 57.1069 59.395 57.2372C61.6477 57.9427 65.7352 58.7297 67.952 57.9954C67.955 57.9377 68.1441 52.7398 62.4159 52.7398Z" fill="#6153BD"/>
<path d="M58.219 71.985L56.1961 66.9185C56.8707 67.8229 57.6657 68.6299 58.5592 69.3194C58.3932 70.2004 58.2795 71.0905 58.219 71.985Z" fill="#6153BD"/>
<path d="M84.9695 157.834C85.1003 158.473 85.0386 159.137 84.7922 159.741C84.5457 160.345 84.1257 160.863 83.5851 161.228C83.0446 161.594 82.4078 161.791 81.7552 161.794C81.1027 161.798 80.4638 161.608 79.9192 161.248C79.3747 160.889 78.9489 160.376 78.6959 159.774C78.4428 159.173 78.3738 158.51 78.4975 157.869C78.6212 157.229 78.9321 156.639 79.3909 156.175C79.8497 155.711 80.4358 155.393 81.0751 155.263C81.4998 155.173 81.9381 155.168 82.3645 155.25C82.7909 155.331 83.1968 155.496 83.5586 155.736C83.9209 155.975 84.2322 156.283 84.4743 156.643C84.7165 157.004 84.8849 157.408 84.9695 157.834Z" fill="#6153BD"/>
<path d="M105.066 29.0131C105.066 31.3575 104.37 33.6492 103.068 35.5985C101.765 37.5478 99.9142 39.0671 97.7482 39.9642C95.5823 40.8614 93.199 41.0961 90.8996 40.6388C88.6003 40.1814 86.4882 39.0525 84.8305 37.3947C83.1727 35.737 82.0438 33.6249 81.5864 31.3256C81.1291 29.0263 81.3638 26.6429 82.261 24.477C83.1581 22.3111 84.6774 20.4598 86.6267 19.1573C88.576 17.8549 90.8677 17.1597 93.2121 17.1597C96.3552 17.1618 99.3689 18.4113 101.591 20.6338C103.814 22.8563 105.063 25.87 105.066 29.0131Z" stroke="#120071"/>
<path d="M130.984 127.301L140.758 132.235C142.764 133.245 145.089 133.418 147.223 132.716C149.356 132.015 151.125 130.495 152.14 128.492L163.332 106.335" stroke="#120071" stroke-linecap="round" stroke-linejoin="round"/>
<path d="M170.421 92.3081L177.321 78.6587C178.331 76.6526 178.504 74.328 177.802 72.1946C177.101 70.0612 175.582 68.2931 173.578 67.2779L104.514 32.3853M65.365 77.7931L85.4024 38.1015" stroke="#120071" stroke-linecap="round" stroke-linejoin="round"/>
<path d="M177.643 71.6638L119.963 80.965L98.6418 39.5581" stroke="#120071" stroke-linecap="round" stroke-linejoin="round"/>
<path d="M88.3585 130.458C81.877 137.586 73.386 142.58 64.0069 144.78C54.6278 146.981 44.8018 146.285 35.8265 142.784C29.8684 140.461 24.4391 136.961 19.8625 132.495C15.286 128.028 11.6557 122.685 9.18834 116.785C5.47243 107.897 4.53924 98.091 6.51196 88.6615C8.48468 79.2321 13.2706 70.6226 20.2378 63.9695" stroke="#120071" stroke-linecap="round" stroke-linejoin="round"/>
<path d="M58.219 73.5542C58.1662 72.1214 58.2876 70.6876 58.5811 69.2837C60.8856 70.8249 62.79 69.8668 64.188 67.8728C65.9811 64.9707 66.9016 61.6141 66.8396 58.2034" stroke="#120071" stroke-linecap="round" stroke-linejoin="round"/>
<path d="M57.215 96.0702C58.8378 98.4258 60.5793 100.697 62.4328 102.876C65.412 101.627 68.1564 99.8795 70.548 97.708C72.3197 96.0997 73.9093 94.3015 75.2882 92.3459C72.0261 88.0805 69.0033 83.6373 66.2337 79.0368C64.8846 76.7932 62.8599 75.0342 60.4497 74.012C59.416 73.6104 58.2997 73.4676 57.1981 73.5961C56.38 73.8107 55.523 73.8298 54.6962 73.6517C53.8695 73.4737 53.0962 73.1036 52.439 72.5713" stroke="#120071" stroke-linecap="round" stroke-linejoin="round"/>
<path d="M156.148 91.5518C158.719 91.6463 163.823 91.6274 166.943 91.5707C164.773 96.7259 161.708 101.456 157.888 105.541C156.924 105.39 154.882 105.182 153.956 105.126" stroke="#120071" stroke-linecap="round" stroke-linejoin="round"/>
<path d="M186.565 91.6465C187.643 91.7977 188.335 92.0445 188.418 92.3838C188.941 94.531 177.704 99.7468 172.651 103.821C171.181 105.021 169.537 105.99 167.775 106.695C166.49 106.931 165.17 106.905 163.895 106.619C165.769 105.806 167.525 104.744 169.117 103.464C174.078 99.4642 184.316 94.5011 186.565 91.6465Z" stroke="#120071" stroke-linecap="round" stroke-linejoin="round"/>
<path d="M166.964 91.5708C172.559 91.4574 182.503 91.0604 186.565 91.6465C184.315 94.4822 174.073 99.4592 169.097 103.462C167.506 104.743 165.751 105.804 163.879 106.619C162.083 106.336 159.985 105.863 157.886 105.542C161.714 101.458 164.787 96.7278 166.964 91.5708Z" stroke="#120071" stroke-linecap="round" stroke-linejoin="round"/>
<path d="M128.281 150.99C128.111 153.826 128.281 158.004 128.508 162.295C123.276 160.313 118.438 157.42 114.216 153.75C114.329 152.786 114.405 151.822 114.424 150.915" stroke="#120071" stroke-linecap="round" stroke-linejoin="round"/>
<path d="M129.132 181.881C129.018 182.975 128.812 183.662 128.47 183.771C126.362 184.443 120.716 173.319 116.465 168.421C115.205 166.993 114.173 165.379 113.403 163.638C113.126 162.361 113.106 161.041 113.346 159.757C114.229 161.6 115.355 163.316 116.692 164.861C120.871 169.684 126.22 179.726 129.132 181.881Z" stroke="#120071" stroke-linecap="round" stroke-linejoin="round"/>
<path d="M128.508 162.276C128.829 167.872 129.585 177.798 129.132 181.878C126.22 179.723 120.857 169.676 116.694 164.863C115.358 163.317 114.233 161.601 113.348 159.759C113.575 157.944 113.953 155.826 114.199 153.727C118.424 157.403 123.269 160.297 128.508 162.276Z" stroke="#120071" stroke-linecap="round" stroke-linejoin="round"/>
<path d="M71.2634 112.007C62.6049 107.753 57.3871 96.4671 57.215 96.0701" stroke="#120071" stroke-linecap="round" stroke-linejoin="round"/>
<path d="M63.6069 102.347C66.2934 105.523 69.6585 108.941 72.8902 110.705C74.5293 111.634 76.4412 111.961 78.2961 111.631C86.1864 110.039 101.114 102.273 105.009 98.1139C112.061 90.5817 111.482 84.8435 110.869 75.2577C110.621 71.3633 110.131 71.4568 109.546 73.2677C108.675 75.9701 107.577 82.5212 106.672 85.1022C106.588 85.3619 106.414 85.5828 106.181 85.7261C105.484 86.1241 105.046 85.2535 104.688 84.0247C104.309 82.7202 104.039 80.9829 103.686 79.9452C103.069 78.1154 101.808 76.4477 101.607 81.8168C101.49 84.9739 101.482 90.4116 98.0528 92.4036C95.3842 93.9242 92.6034 95.2388 89.7346 96.3358C86.7674 97.4979 83.6591 98.2607 80.491 98.6044C78.7697 98.6959 76.4633 96.7328 74.2703 93.6891" stroke="#120071" stroke-linecap="round" stroke-linejoin="round"/>
<path d="M107.523 81.9482L110.699 67.9774C110.734 67.826 110.739 67.6692 110.713 67.5159C110.687 67.3627 110.631 67.2161 110.549 67.0844C110.466 66.9528 110.358 66.8387 110.232 66.7486C110.105 66.6585 109.962 66.5943 109.811 66.5595C109.659 66.5248 109.502 66.5202 109.349 66.546C109.196 66.5719 109.049 66.6276 108.918 66.7101C108.786 66.7926 108.672 66.9003 108.582 67.0269C108.492 67.1535 108.428 67.2966 108.393 67.4481L104.65 83.9143" stroke="#120071" stroke-linecap="round" stroke-linejoin="round"/>
<path d="M113.333 120.419C116.282 119.152 118.342 118.246 118.342 118.246L113.592 129.702" stroke="#120071" stroke-linecap="round" stroke-linejoin="round"/>
<path d="M72.8892 110.703C69.3182 113.559 65.5742 116.193 61.6786 118.588C55.3272 114.155 50.9166 107.456 49.3545 99.8701" stroke="#120071" stroke-linecap="round" stroke-linejoin="round"/>
<path d="M108.96 92.6673L117.826 88.9052C120.022 87.9774 122.406 87.5822 124.783 87.752L155.997 90.0773C156.699 96.6095 156.616 100.367 153.426 106.109L127.373 106.355" stroke="#120071" stroke-linecap="round" stroke-linejoin="round"/>
<path d="M62.4159 52.7398C62.4159 52.7398 59.1055 46.538 51.3186 50.32C43.5318 54.102 45.0422 69.3006 45.0422 69.3006C45.0422 69.3006 38.1219 72.609 34.4355 78.1859C28.7262 86.8255 31.6007 99.87 49.3545 99.87C48.5081 96.146 48.2151 92.3175 48.4849 88.5081C48.9575 81.7968 51.3962 75.6527 53.5514 69.3573C54.0429 67.9016 55.2151 64.3475 55.6121 62.8719C55.9713 61.4928 56.1414 60.5277 56.6707 58.8839C54.3822 56.7099 57.1055 54.101 58.3344 56.2173C58.8766 57.1128 58.9821 57.0611 59.5761 57.2571C61.0467 57.7407 65.0088 58.8382 67.957 57.9536C67.955 57.9566 68.1441 52.7398 62.4159 52.7398Z" stroke="#120071" stroke-linecap="round" stroke-linejoin="round"/>
<path d="M25.0964 55.9906C18.3943 59.2234 12.0886 63.2203 6.30483 67.9018C6.14205 68.003 6.00626 68.1422 5.90911 68.3075C5.81196 68.4728 5.75635 68.6591 5.74706 68.8506C5.73776 69.0421 5.77506 69.2329 5.85574 69.4068C5.93643 69.5807 6.05809 69.7325 6.2103 69.849L10.5206 73.2708C13.1325 69.845 16.6737 66.9496 20.2318 63.9586C17.4932 67.5014 15.0946 71.2946 13.0678 75.2877L17.7055 78.9612C17.8552 79.0802 18.0312 79.1615 18.2188 79.1982C18.4064 79.235 18.6 79.2261 18.7835 79.1724C18.9669 79.1186 19.1348 79.0216 19.2729 78.8894C19.411 78.7573 19.5154 78.5939 19.5771 78.413L26.8735 57.3956C26.9587 57.1599 26.9677 56.9035 26.899 56.6625C26.8304 56.4215 26.6877 56.2082 26.4912 56.0528C26.2946 55.8974 26.0541 55.8077 25.8038 55.7966C25.5535 55.7854 25.306 55.8533 25.0964 55.9906Z" stroke="#120071" stroke-linecap="round" stroke-linejoin="round"/>
<path d="M153.274 19.9586C149.512 18.086 145.296 20.7546 145.901 24.6848L144.143 26.3097L146.563 26.4987C148.699 30.1096 154.125 30.2618 155.902 26.7067C156.446 25.463 156.474 24.0547 155.982 22.79C155.489 21.5253 154.516 20.5072 153.274 19.9586Z" stroke="#120071" stroke-linecap="round" stroke-linejoin="round"/>
<path d="M175.658 129.192C174.504 128.595 173.161 128.481 171.924 128.873C171.311 129.068 170.742 129.381 170.251 129.796C169.76 130.211 169.355 130.719 169.06 131.29C169.06 131.29 165.865 137.53 163.181 137.34L176.527 144.24C174.807 142.16 177.756 135.79 177.756 135.79C178.053 135.22 178.233 134.596 178.288 133.955C178.343 133.314 178.27 132.669 178.075 132.056C177.88 131.443 177.566 130.875 177.151 130.383C176.737 129.892 176.229 129.487 175.658 129.192Z" stroke="#120071" stroke-linecap="round" stroke-linejoin="round"/>
<path d="M172.047 141.934C171.902 142.229 171.7 142.493 171.452 142.709C171.205 142.925 170.916 143.09 170.604 143.193C170.291 143.297 169.961 143.336 169.634 143.311C169.306 143.285 168.986 143.193 168.694 143.042C168.402 142.891 168.143 142.683 167.932 142.43C167.721 142.178 167.563 141.886 167.467 141.571C167.371 141.256 167.338 140.926 167.372 140.598C167.405 140.271 167.503 139.954 167.661 139.665" stroke="#120071" stroke-linecap="round" stroke-linejoin="round"/>
<path d="M190.215 56.9746L186.679 69.1494" stroke="#120071" stroke-linecap="round" stroke-linejoin="round"/>
<path d="M194.525 64.8201L182.35 61.2849" stroke="#120071" stroke-linecap="round" stroke-linejoin="round"/>
<path d="M113.611 144.372C118.981 145.256 124.451 145.356 129.85 144.671" stroke="#120071" stroke-linecap="round" stroke-linejoin="round"/>
<path d="M148.775 89.5857C149.627 95.2571 148.709 101.053 146.147 106.184" stroke="#120071" stroke-linecap="round" stroke-linejoin="round"/>
<path d="M84.9695 157.834C85.1003 158.473 85.0386 159.137 84.7922 159.741C84.5457 160.345 84.1257 160.863 83.5851 161.228C83.0446 161.594 82.4078 161.791 81.7552 161.795C81.1027 161.798 80.4638 161.608 79.9192 161.249C79.3747 160.889 78.9489 160.376 78.6959 159.775C78.4428 159.173 78.3738 158.51 78.4975 157.87C78.6212 157.229 78.9321 156.639 79.3909 156.175C79.8497 155.711 80.4358 155.394 81.0751 155.263C81.4998 155.173 81.9381 155.168 82.3645 155.25C82.7909 155.331 83.1968 155.497 83.5586 155.736C83.921 155.975 84.2323 156.284 84.4745 156.644C84.7167 157.004 84.885 157.408 84.9695 157.834Z" stroke="#120071" stroke-linecap="round" stroke-linejoin="round"/>
<path d="M83.476 147.493C84.7432 146.307 86.3336 145.524 88.0461 145.243C89.7585 144.961 91.5159 145.195 93.0957 145.913C94.676 146.63 96.0082 147.799 96.9236 149.274C97.839 150.748 98.2966 152.461 98.2384 154.195C98.1803 155.93 97.609 157.608 96.5969 159.018C95.5848 160.428 94.1772 161.506 92.5524 162.115C90.9279 162.725 89.1591 162.839 87.4696 162.444C85.7801 162.049 84.2456 161.161 83.0601 159.894C81.4716 158.194 80.6231 155.933 80.7011 153.607C80.7791 151.282 81.7772 149.083 83.476 147.493Z" stroke="#120071" stroke-linecap="round" stroke-linejoin="round"/>
<path d="M61.6786 118.588C61.6786 118.588 69.0515 139.591 96.5036 127.719L113.333 120.419C113.542 128.361 113.982 141.802 113.313 150.612C118.439 152.173 123.906 152.226 129.061 150.763C131.122 136.772 132.715 114.688 127.378 106.354C120.465 95.5556 99.21 102.479 99.21 102.479" stroke="#120071" stroke-linecap="round" stroke-linejoin="round"/>
<path d="M58.5811 69.2837C57.6702 68.6344 56.8699 67.8425 56.211 66.9385L58.219 71.9851" stroke="#120071" stroke-linecap="round" stroke-linejoin="round"/>
</svg>
