<svg width="200" height="201" viewBox="0 0 200 201" fill="none" xmlns="http://www.w3.org/2000/svg">
<path d="M95.0648 18.5547C87.6451 18.7617 81.7935 24.4252 82.0004 31.2032C82.2273 39.0935 90.3445 44.5123 98.4816 42.7372L98.0468 37.6209C97.9521 36.7729 98.0254 35.9146 98.2626 35.095C98.4999 34.2754 98.8963 33.5106 99.4293 32.8443C99.9624 32.178 100.621 31.6234 101.369 31.212C102.117 30.8006 102.938 30.5407 103.786 30.447L108.827 30.0131C108.412 23.4442 102.332 18.3468 95.0648 18.5547Z" fill="#FECFC4"/>
<path fill-rule="evenodd" clip-rule="evenodd" d="M88.0421 151.061L148.527 145.963C150.179 145.823 151.708 145.032 152.777 143.764C153.847 142.497 154.368 140.857 154.228 139.204L150.717 97.9557C150.576 96.3037 149.785 94.7753 148.518 93.7062C147.251 92.6371 145.611 92.1149 143.959 92.2544L111.641 94.9737C111.07 95.8443 110.698 96.298 109.841 96.9726C108.452 98.0342 106.729 98.5626 104.984 98.462C103.239 98.3614 101.589 97.6385 100.331 96.4244L99.8895 95.9866L89.8082 96.8343C93.1514 108.704 93.5036 116.938 93.7484 128.698C93.9519 132.155 93.4787 135.618 92.3554 138.893L88.0421 151.061ZM123.268 124.216L129.366 127.066L128.271 114.116L122.74 117.966C122.546 116.746 121.897 115.645 120.923 114.885C119.949 114.125 118.723 113.762 117.492 113.871L105.692 114.891C105.05 114.943 104.425 115.122 103.853 115.418C103.28 115.714 102.773 116.121 102.359 116.615C101.944 117.108 101.632 117.678 101.439 118.293C101.247 118.908 101.178 119.555 101.238 120.196L101.709 125.668C101.763 126.31 101.942 126.935 102.238 127.507C102.534 128.079 102.941 128.587 103.434 129.001C103.927 129.415 104.497 129.728 105.112 129.92C105.727 130.113 106.373 130.182 107.015 130.123L118.795 129.142C120.024 129.036 121.169 128.47 121.998 127.556C122.828 126.642 123.282 125.448 123.268 124.214V124.216Z" fill="#FECFC4"/>
<path d="M167.594 98.1258C167.645 98.5766 167.606 99.0329 167.48 99.4686C167.354 99.9043 167.143 100.311 166.86 100.665C166.576 101.019 166.225 101.313 165.827 101.53C165.428 101.747 164.991 101.884 164.54 101.931C163.86 102.002 163.175 101.869 162.571 101.549C161.968 101.229 161.473 100.736 161.151 100.134C160.937 99.7335 160.804 99.2949 160.761 98.8432L160.213 93.6692C160.127 92.7674 160.4 91.8679 160.974 91.1664C161.547 90.4649 162.374 90.018 163.275 89.923C164.176 89.8286 165.078 90.0938 165.784 90.661C166.491 91.2283 166.945 92.0516 167.047 92.9518L167.594 98.1258Z" fill="#FECFC4"/>
<path d="M129.725 35.7712C130.017 36.4577 130.239 37.1731 130.385 37.9045C130.951 36.7154 131.286 35.4289 131.369 34.1145C130.845 34.6899 130.296 35.2426 129.725 35.7712Z" fill="#6153BD"/>
<path d="M78.3946 61.7288C78.5568 62.6213 78.8622 63.4819 79.3 64.277C80.7547 64.277 82.3597 64.0889 82.7557 63.5038C82.8124 63.4043 82.8691 63.2959 82.9248 63.1825C82.3776 64.261 80.3975 63.1665 78.3946 61.7288Z" fill="#6153BD"/>
<path d="M28.4247 103.714C24.9123 98.6731 2.58055 117.08 5.78843 121.723L6.33568 122.214C10.9813 124.801 31.1609 107.679 28.4247 103.714Z" fill="#6153BD"/>
<path d="M66.6337 168.692C62.0447 170.874 76.2364 196.474 80.5637 192.838C83.1527 189.081 70.2584 166.956 66.6337 168.692Z" fill="#6153BD"/>
<path d="M23.4596 119.722C23.3712 120.048 23.3458 120.388 23.385 120.723C23.5741 121.931 25.1213 121.988 26.1601 121.704C25.4326 120.836 24.5062 120.156 23.4596 119.722Z" fill="#6153BD"/>
<path d="M33.4833 109.868C34.1997 110.755 34.936 111.642 35.5977 112.455C35.7081 112.138 35.7777 111.808 35.8056 111.474C35.825 111.19 35.7703 110.906 35.6468 110.649C35.5233 110.393 35.3352 110.173 35.101 110.011C34.8669 109.849 34.5946 109.75 34.311 109.725C34.0274 109.7 33.7422 109.749 33.4833 109.868Z" fill="#6153BD"/>
<path d="M67.8416 71.6239C67.6321 71.6462 67.434 71.7301 67.2722 71.8651C67.1105 72 66.9924 72.1799 66.9329 72.3819C66.8734 72.584 66.8752 72.7992 66.9381 73.0002C67.0009 73.2013 67.122 73.3792 67.286 73.5114C67.45 73.6436 67.6495 73.7242 67.8593 73.743C68.0691 73.7618 68.2798 73.7179 68.4646 73.6169C68.6495 73.516 68.8002 73.3624 68.8978 73.1757C68.9954 72.989 69.0354 72.7776 69.0127 72.5682C68.9998 72.4285 68.9589 72.2928 68.8926 72.1692C68.8263 72.0456 68.7359 71.9366 68.6267 71.8485C68.5175 71.7605 68.3918 71.6952 68.2569 71.6567C68.1221 71.6181 67.9808 71.6069 67.8416 71.6239Z" fill="#6153BD"/>
<path d="M60.2895 80.3988C60.1466 80.4087 60.0072 80.4473 59.8795 80.5124C59.7519 80.5775 59.6387 80.6677 59.5467 80.7775C59.4548 80.8874 59.3859 81.0147 59.3443 81.1518C59.3027 81.2889 59.2892 81.433 59.3046 81.5754C59.32 81.7178 59.364 81.8557 59.434 81.9807C59.504 82.1058 59.5984 82.2154 59.7118 82.303C59.8251 82.3907 59.955 82.4546 60.0936 82.4909C60.2322 82.5271 60.3767 82.5351 60.5184 82.5142C60.7907 82.474 61.0369 82.33 61.2053 82.1122C61.3737 81.8945 61.4512 81.62 61.4216 81.3464C61.392 81.0727 61.2575 80.8212 61.0465 80.6445C60.8354 80.4678 60.5641 80.3798 60.2895 80.3988Z" fill="#6153BD"/>
<path d="M64.7651 91.9905C64.6229 92.0012 64.4843 92.0403 64.3575 92.1056C64.2307 92.1708 64.1183 92.2609 64.027 92.3704C63.9357 92.4799 63.8673 92.6066 63.8259 92.7431C63.7845 92.8795 63.771 93.0229 63.786 93.1647C63.8011 93.3065 63.8445 93.4438 63.9136 93.5685C63.9828 93.6932 64.0763 93.8027 64.1886 93.8906C64.3008 93.9785 64.4296 94.0429 64.5673 94.0801C64.705 94.1172 64.8487 94.1263 64.9899 94.1069C65.264 94.0692 65.5126 93.9262 65.6831 93.7084C65.8536 93.4905 65.9326 93.2148 65.9034 92.9397C65.8742 92.6646 65.739 92.4117 65.5265 92.2345C65.314 92.0573 65.0409 91.9698 64.7651 91.9905Z" fill="#6153BD"/>
<path d="M54.9484 78.398C54.809 78.4122 54.6738 78.4538 54.5506 78.5204C54.4273 78.5869 54.3185 78.6772 54.2302 78.786C54.1419 78.8948 54.076 79.0199 54.0362 79.1542C53.9964 79.2885 53.9836 79.4294 53.9984 79.5687C54.0132 79.708 54.0554 79.843 54.1225 79.9659C54.1896 80.0889 54.2804 80.1974 54.3895 80.2851C54.4987 80.3729 54.6241 80.4383 54.7586 80.4775C54.8931 80.5166 55.034 80.5289 55.1733 80.5134C55.4528 80.4824 55.7087 80.342 55.885 80.1228C56.0613 79.9036 56.1435 79.6235 56.1138 79.3438C56.0841 79.0641 55.9447 78.8076 55.7263 78.6303C55.5079 78.4531 55.2282 78.3696 54.9484 78.398Z" fill="#6153BD"/>
<path d="M76.8285 75.774C76.685 75.783 76.5449 75.8209 76.4165 75.8855C76.2881 75.9501 76.1741 76.04 76.0814 76.1498C75.9887 76.2596 75.9192 76.387 75.8771 76.5244C75.8349 76.6618 75.821 76.8063 75.8362 76.9492C75.8514 77.0921 75.8954 77.2304 75.9654 77.3559C76.0355 77.4813 76.1303 77.5913 76.244 77.6792C76.3577 77.767 76.4881 77.8309 76.6272 77.8671C76.7663 77.9032 76.9112 77.9108 77.0533 77.8894C77.3246 77.8486 77.5697 77.7046 77.7374 77.4875C77.9051 77.2704 77.9826 76.9969 77.9536 76.7241C77.9246 76.4513 77.7914 76.2002 77.5817 76.0232C77.3721 75.8462 77.1023 75.7569 76.8285 75.774Z" fill="#6153BD"/>
<path d="M70.6734 84.3828C70.5317 84.394 70.3937 84.4336 70.2676 84.4991C70.1414 84.5646 70.0297 84.6548 69.939 84.7642C69.8483 84.8736 69.7804 85.0001 69.7394 85.1362C69.6984 85.2723 69.6851 85.4152 69.7002 85.5565C69.7154 85.6978 69.7587 85.8347 69.8277 85.959C69.8966 86.0833 69.9898 86.1925 70.1016 86.2802C70.2135 86.3679 70.3418 86.4322 70.479 86.4695C70.6161 86.5068 70.7594 86.5162 70.9002 86.4971C71.1748 86.46 71.424 86.3173 71.5949 86.0992C71.7659 85.8812 71.8449 85.605 71.8154 85.3296C71.7858 85.0541 71.65 84.801 71.4367 84.6242C71.2234 84.4474 70.9495 84.3608 70.6734 84.3828Z" fill="#6153BD"/>
<path d="M81.7179 88.3847C81.5759 88.3957 81.4375 88.435 81.311 88.5004C81.1844 88.5658 81.0723 88.656 80.9812 88.7655C80.8901 88.875 80.8219 89.0017 80.7807 89.138C80.7395 89.2744 80.726 89.4176 80.7411 89.5592C80.7562 89.7009 80.7996 89.838 80.8687 89.9626C80.9378 90.0872 81.0312 90.1966 81.1433 90.2844C81.2554 90.3722 81.3841 90.4367 81.5216 90.4739C81.6591 90.5111 81.8026 90.5204 81.9437 90.5011C82.2182 90.4637 82.4672 90.3207 82.6379 90.1027C82.8087 89.8847 82.8878 89.6087 82.8584 89.3333C82.829 89.0579 82.6935 88.8048 82.4805 88.6277C82.2676 88.4506 81.994 88.3634 81.7179 88.3847Z" fill="#6153BD"/>
<path d="M86.3048 70.0729C86.0953 70.095 85.897 70.1787 85.7351 70.3136C85.5733 70.4484 85.455 70.6283 85.3954 70.8303C85.3357 71.0324 85.3374 71.2476 85.4002 71.4488C85.4629 71.6499 85.5839 71.8279 85.7479 71.9602C85.9119 72.0925 86.1114 72.1732 86.3212 72.192C86.5311 72.2109 86.7418 72.1671 86.9267 72.0661C87.1116 71.9651 87.2624 71.8115 87.36 71.6248C87.4576 71.4381 87.4976 71.2266 87.475 71.0171C87.4621 70.8775 87.4214 70.7419 87.3552 70.6183C87.289 70.4947 87.1987 70.3856 87.0896 70.2976C86.9805 70.2095 86.8548 70.1442 86.72 70.1057C86.5852 70.0671 86.444 70.0559 86.3048 70.0729Z" fill="#6153BD"/>
<path d="M96.1971 87.931C96.0549 87.9416 95.9163 87.9807 95.7895 88.046C95.6628 88.1113 95.5504 88.2013 95.4591 88.3108C95.3677 88.4203 95.2994 88.5471 95.258 88.6835C95.2166 88.82 95.203 88.9633 95.2181 89.1051C95.2331 89.2469 95.2765 89.3842 95.3457 89.5089C95.4148 89.6336 95.5083 89.7432 95.6206 89.831C95.7329 89.9189 95.8617 89.9833 95.9993 90.0205C96.137 90.0577 96.2807 90.0668 96.422 90.0473C96.696 90.0096 96.9447 89.8666 97.1152 89.6488C97.2857 89.4309 97.3647 89.1552 97.3354 88.8801C97.3062 88.605 97.171 88.3521 96.9586 88.1749C96.7461 87.9978 96.473 87.9103 96.1971 87.931Z" fill="#6153BD"/>
<path d="M96.2349 78.0198C96.3738 78.0052 96.5085 77.9633 96.6312 77.8965C96.7539 77.8297 96.8622 77.7394 96.9499 77.6307C97.0376 77.522 97.103 77.3971 97.1424 77.2631C97.1817 77.129 97.1942 76.9886 97.1792 76.8497C97.1362 76.5802 96.9914 76.3374 96.7746 76.1716C96.5578 76.0058 96.2856 75.9296 96.0142 75.9587C95.7428 75.9878 95.493 76.1201 95.3163 76.3281C95.1397 76.5361 95.0496 76.8041 95.0648 77.0766C95.0794 77.2154 95.1213 77.35 95.1881 77.4727C95.2549 77.5953 95.3452 77.7036 95.454 77.7912C95.5627 77.8788 95.6876 77.9441 95.8216 77.9834C95.9557 78.0226 96.0961 78.035 96.2349 78.0198Z" fill="#6153BD"/>
<path d="M107.77 90.1778C107.561 90.2005 107.364 90.2844 107.202 90.4189C107.041 90.5534 106.923 90.7326 106.863 90.934C106.817 91.0849 106.807 91.244 106.831 91.3996C106.855 91.5553 106.913 91.7037 107.002 91.834C107.09 91.9643 107.206 92.0733 107.342 92.153C107.478 92.2328 107.63 92.2813 107.787 92.2951C107.935 92.3097 108.085 92.2928 108.227 92.2457C108.369 92.1985 108.499 92.1221 108.609 92.0214C108.719 91.9206 108.807 91.7979 108.867 91.661C108.926 91.5242 108.957 91.3763 108.955 91.227C108.954 91.0778 108.922 90.9304 108.86 90.7945C108.798 90.6587 108.708 90.5373 108.596 90.4384C108.485 90.3394 108.353 90.2651 108.211 90.2202C108.069 90.1753 107.918 90.1608 107.77 90.1778Z" fill="#6153BD"/>
<path d="M109.091 78.9274C108.882 78.9502 108.685 79.0343 108.523 79.169C108.362 79.3037 108.244 79.483 108.184 79.6846C108.14 79.8352 108.13 79.9936 108.155 80.1485C108.18 80.3033 108.239 80.4508 108.327 80.5803C108.416 80.7097 108.532 80.818 108.667 80.8973C108.802 80.9766 108.954 81.025 109.11 81.039C109.266 81.053 109.423 81.0322 109.57 80.9782C109.718 80.9242 109.851 80.8383 109.961 80.7266C110.071 80.6149 110.155 80.4802 110.207 80.3323C110.259 80.1843 110.278 80.0266 110.261 79.8706C110.231 79.5905 110.091 79.3337 109.872 79.1562C109.652 78.9798 109.372 78.8975 109.091 78.9274Z" fill="#6153BD"/>
<path d="M118.53 75.1513C118.519 75.0091 118.48 74.8705 118.415 74.7437C118.35 74.6169 118.26 74.5045 118.15 74.4132C118.041 74.3219 117.914 74.2535 117.777 74.2121C117.641 74.1707 117.498 74.1572 117.356 74.1722C117.214 74.1873 117.077 74.2307 116.952 74.2998C116.827 74.369 116.718 74.4625 116.63 74.5748C116.542 74.687 116.478 74.8158 116.44 74.9535C116.403 75.0912 116.394 75.2349 116.414 75.3761C116.451 75.6502 116.594 75.8988 116.812 76.0693C117.03 76.2398 117.306 76.3188 117.581 76.2896C117.856 76.2604 118.109 76.1252 118.286 75.9127C118.463 75.7003 118.551 75.4271 118.53 75.1513Z" fill="#6153BD"/>
<path d="M150.038 16.0811C149.922 14.6173 149.289 13.2427 148.251 12.2041C147.213 11.1655 145.839 10.531 144.375 10.4146C142.911 10.2986 141.454 10.7085 140.266 11.5706C139.077 12.4327 138.235 13.6905 137.891 15.1179C136.185 14.3245 134.304 13.9836 132.429 14.128C130.553 14.2724 128.747 14.8973 127.183 15.9424C125.619 16.9876 124.35 18.4178 123.499 20.0954C122.649 21.773 122.244 23.6414 122.325 25.5206C124.599 24.9043 126.935 24.5494 129.29 24.463C129.417 25.2361 129.593 26.0002 129.818 26.7515C130.026 27.2231 130.347 27.2609 130.913 26.3923C132.178 24.5615 134.745 27.3932 131.743 29.5832C133.039 31.8256 134.685 33.8461 136.619 35.5682C139.215 34.7325 141.408 32.9629 142.774 30.6023C144.139 28.2417 144.58 25.4582 144.01 22.7914C144.146 22.7914 144.281 22.7844 144.417 22.7685C145.225 22.6987 146.012 22.4704 146.732 22.0965C147.452 21.7226 148.091 21.2105 148.613 20.5895C149.135 19.9684 149.529 19.2506 149.774 18.477C150.018 17.7035 150.108 16.8893 150.038 16.0811Z" fill="#6153BD"/>
<path d="M70.0316 115.55L70.2396 123.212L72.936 120.777C71.7601 119.159 70.7849 117.404 70.0316 115.55Z" fill="#6153BD"/>
<path d="M87.3625 80.5691L90.0431 84.3829L90.1943 89.2724L87.3625 80.5691Z" fill="#6153BD"/>
<path d="M82.7368 54.725C83.0652 54.6648 83.3615 54.4898 83.5726 54.2311C83.7837 53.9725 83.8959 53.6471 83.8891 53.3133C83.8823 52.9795 83.7569 52.659 83.5354 52.4092C83.3138 52.1594 83.0106 51.9966 82.68 51.9499C82.9358 51.7631 83.1212 51.4955 83.2063 51.1904C83.2914 50.8853 83.2714 50.5605 83.1493 50.2682C83.0272 49.9759 82.8103 49.7332 82.5335 49.5793C82.2566 49.4254 81.936 49.3691 81.6234 49.4197C81.7836 49.1537 81.8515 48.8423 81.8168 48.5337C81.782 48.2252 81.6464 47.9367 81.431 47.713C81.2156 47.4894 80.9325 47.343 80.6255 47.2966C80.3184 47.2503 80.0047 47.3065 79.7329 47.4565C79.799 47.1395 79.7543 46.8094 79.6061 46.5214C79.4579 46.2334 79.2152 46.0051 78.9188 45.8747C78.6224 45.7442 78.2901 45.7196 77.9777 45.8049C77.6653 45.8901 77.3916 46.0802 77.2026 46.3431C77.1721 46.0028 77.0238 45.6838 76.7833 45.4412C76.5428 45.1985 76.2251 45.0473 75.8851 45.0137C75.5451 44.9801 75.2041 45.0662 74.9207 45.2571C74.6374 45.448 74.4295 45.7318 74.333 46.0595C74.1995 45.7655 73.9693 45.5261 73.6808 45.3811C73.3923 45.2361 73.0628 45.1943 72.7472 45.2627C72.4316 45.3311 72.149 45.5056 71.9463 45.757C71.7437 46.0084 71.6333 46.3217 71.6336 46.6446C71.398 46.442 71.1024 46.3225 70.7922 46.3045C70.4821 46.2864 70.1746 46.3707 69.9171 46.5446C69.6596 46.7184 69.4663 46.972 69.3671 47.2664C69.2679 47.5608 69.2682 47.8797 69.3679 48.1739C69.0745 48.0656 68.7533 48.0581 68.455 48.1526C68.1568 48.2471 67.8985 48.4382 67.721 48.6958C67.5435 48.9534 67.4569 49.2628 67.4747 49.5751C67.4926 49.8875 67.614 50.185 67.8197 50.4206C67.4866 50.4023 67.1577 50.5024 66.8911 50.7031C66.6246 50.9037 66.4376 51.1922 66.363 51.5174C66.2885 51.8426 66.3313 52.1837 66.4839 52.4804C66.6365 52.7771 66.889 53.0104 67.1968 53.139C66.8696 53.2023 66.5755 53.3798 66.3669 53.6398C66.1584 53.8998 66.0488 54.2254 66.0579 54.5586C66.067 54.8917 66.1941 55.2109 66.4165 55.4591C66.6389 55.7074 66.9423 55.8686 67.2725 55.914C67.0221 56.1039 66.8425 56.3721 66.7623 56.6759C66.682 56.9797 66.7056 57.3016 66.8294 57.5904C66.9532 57.8792 67.1701 58.1183 67.4454 58.2696C67.7208 58.4209 68.0389 58.4757 68.3491 58.4254C68.1926 58.6926 68.1284 59.004 68.1663 59.3113C68.2043 59.6187 68.3424 59.905 68.5592 60.1261C68.776 60.3473 69.0596 60.4909 69.3661 60.5349C69.6727 60.5789 69.9852 60.5208 70.2555 60.3696C70.193 60.6856 70.2406 61.0135 70.3904 61.2986C70.5402 61.5838 70.7831 61.809 71.0787 61.937C71.3743 62.0649 71.7048 62.0877 72.0152 62.0017C72.3256 61.9157 72.5972 61.726 72.7848 61.4641C72.8014 61.6997 72.8762 61.9275 73.0024 62.1272C73.1287 62.3268 73.3024 62.492 73.5082 62.608C73.7139 62.7241 73.9452 62.7873 74.1813 62.792C74.4175 62.7968 74.6511 62.7429 74.8613 62.6352C75.0305 62.4273 77.3488 59.5766 78.1647 58.5378C76.1648 56.2732 77.8254 54.8006 78.901 56.2921C79.4682 57.104 80.294 56.8772 79.8065 54.4603C80.432 54.1883 81.0315 53.8599 81.5975 53.4793C81.9955 55.0076 82.294 56.311 82.5417 57.4055C82.8288 57.331 83.0853 57.1683 83.2752 56.9405C83.465 56.7126 83.5787 56.431 83.6002 56.1352C83.6217 55.8394 83.55 55.5442 83.3951 55.2913C83.2403 55.0384 83.01 54.8403 82.7368 54.725Z" fill="#6153BD"/>
<path d="M82.5477 57.4054C82.3029 56.3109 82.0005 55.0085 81.6045 53.4792C81.0385 53.8598 80.439 54.1882 79.8135 54.4602C80.305 56.8771 79.4801 57.099 78.908 56.292C77.8434 54.7916 76.1708 56.2731 78.1717 58.5377C77.079 59.9106 75.9775 61.2764 74.8673 62.6352C74.6571 62.7431 74.4234 62.7972 74.1872 62.7925C73.9509 62.7879 73.7195 62.7247 73.5137 62.6087C73.3079 62.4926 73.1341 62.3273 73.008 62.1275C72.8818 61.9277 72.8071 61.6998 72.7908 61.464C72.6026 61.7248 72.3311 61.9135 72.0211 61.9989C71.7111 62.0843 71.3812 62.0612 71.0861 61.9335C70.791 61.8058 70.5484 61.5811 70.3984 61.2967C70.2485 61.0123 70.2001 60.6852 70.2615 60.3695C69.9912 60.5207 69.6787 60.5788 69.3721 60.5348C69.0656 60.4908 68.782 60.3472 68.5652 60.1261C68.3483 59.9049 68.2103 59.6186 68.1723 59.3112C68.1343 59.0039 68.1985 58.6926 68.355 58.4253C68.0449 58.4757 67.7268 58.4208 67.4514 58.2695C67.176 58.1182 66.9592 57.8791 66.8354 57.5903C66.7116 57.3015 66.6879 56.9796 66.7682 56.6758C66.8485 56.372 67.0281 56.1038 67.2784 55.9139C66.9482 55.8685 66.6449 55.7073 66.4225 55.459C66.2001 55.2108 66.073 54.8917 66.0639 54.5585C66.0548 54.2253 66.1643 53.8997 66.3729 53.6397C66.5815 53.3797 66.8756 53.2022 67.2028 53.1389C66.895 53.0103 66.6424 52.777 66.4899 52.4803C66.3373 52.1836 66.2945 51.8425 66.369 51.5173C66.4435 51.1921 66.6306 50.9036 66.8971 50.703C67.1637 50.5023 67.4926 50.4022 67.8257 50.4205C67.619 50.1851 67.4968 49.8874 67.4785 49.5747C67.4601 49.2619 67.5467 48.952 67.7245 48.694C67.9023 48.436 68.1611 48.2448 68.4598 48.1505C68.7586 48.0563 69.0803 48.0645 69.3739 48.1738C69.277 47.8804 69.2786 47.5634 69.3786 47.271C69.4786 46.9786 69.6714 46.7269 69.9276 46.5543C70.1839 46.3817 70.4896 46.2975 70.7981 46.3147C71.1066 46.3319 71.401 46.4494 71.6365 46.6495C71.6363 46.3266 71.7467 46.0133 71.9493 45.7619C72.152 45.5105 72.4346 45.336 72.7502 45.2676C73.0658 45.1992 73.3952 45.241 73.6838 45.386C73.9723 45.531 74.2025 45.7704 74.336 46.0644C74.4325 45.7367 74.6404 45.4529 74.9237 45.262C75.2071 45.0711 75.5481 44.985 75.8881 45.0186C76.2281 45.0522 76.5458 45.2034 76.7863 45.446C77.0268 45.6887 77.175 46.0077 77.2056 46.348C77.3951 46.0861 77.6688 45.8971 77.9808 45.8125C78.2928 45.7279 78.6244 45.7528 78.9203 45.883C79.2162 46.0132 79.4585 46.2409 79.6069 46.5281C79.7553 46.8153 79.8008 47.1447 79.7359 47.4614C80.0077 47.3113 80.3214 47.2551 80.6285 47.3015C80.9355 47.3479 81.2186 47.4943 81.434 47.7179C81.6494 47.9416 81.785 48.23 81.8198 48.5386C81.8545 48.8471 81.7865 49.1586 81.6263 49.4245C81.939 49.374 82.2596 49.4302 82.5365 49.5842C82.8133 49.7381 83.0302 49.9808 83.1523 50.2731C83.2743 50.5654 83.2944 50.8902 83.2093 51.1953C83.1242 51.5004 82.9388 51.768 82.683 51.9548C83.0147 52.0002 83.3192 52.1624 83.5419 52.4123C83.7645 52.6623 83.8906 52.9835 83.8974 53.3181C83.9043 53.6528 83.7914 53.9788 83.5792 54.2377C83.3669 54.4965 83.0693 54.671 82.7398 54.7299C83.0102 54.8468 83.2376 55.0449 83.3905 55.2968C83.5434 55.5487 83.6142 55.8419 83.5931 56.1358C83.572 56.4297 83.4601 56.7098 83.2728 56.9372C83.0855 57.1647 82.8321 57.3283 82.5477 57.4054Z" stroke="#120071" stroke-linecap="round" stroke-linejoin="round"/>
<path d="M82.7746 49.6653L87.8341 49.2504C88.4382 49.1975 89.0468 49.2647 89.6248 49.4479C90.2028 49.6312 90.7389 49.927 91.2021 50.3183C91.6653 50.7096 92.0466 51.1886 92.324 51.7279C92.6013 52.2671 92.7692 52.8559 92.8181 53.4603L94.1962 70.0161" stroke="#120071" stroke-linecap="round" stroke-linejoin="round"/>
<path d="M90.3823 89.0076L91.1564 88.9509C91.8322 88.9433 92.4925 88.7472 93.0629 88.3848" stroke="#120071" stroke-linecap="round" stroke-linejoin="round"/>
<path d="M55.3444 91.949L45.1884 92.8176C43.9697 92.9196 42.7603 92.5336 41.826 91.7444C40.8917 90.9552 40.3088 89.8274 40.2055 88.6088L37.6185 58.1011C37.516 56.882 37.9019 55.672 38.6914 54.7374C39.4809 53.8028 40.6092 53.22 41.8283 53.1171L66.6606 51.0247" stroke="#120071" stroke-linecap="round" stroke-linejoin="round"/>
<path d="M88.0421 151.061L148.527 145.963C150.179 145.823 151.708 145.032 152.777 143.764C153.847 142.497 154.369 140.857 154.229 139.204L150.717 97.9557C150.576 96.3037 149.785 94.7753 148.518 93.7062C147.251 92.6371 145.611 92.1149 143.959 92.2544L111.642 94.9737" stroke="#120071" stroke-linecap="round" stroke-linejoin="round"/>
<path d="M89.8351 96.8234L99.8786 95.9736" stroke="#120071" stroke-linecap="round" stroke-linejoin="round"/>
<path d="M122.419 28.8391L103.767 30.444C102.059 30.6347 100.495 31.4947 99.4197 32.8356C98.344 34.1764 97.8436 35.889 98.0279 37.5981L101.766 80.6219" stroke="#120071" stroke-linecap="round" stroke-linejoin="round"/>
<path d="M115.245 86.9312L171.823 82.0418C173.079 81.9284 174.271 81.4389 175.245 80.6373C176.218 79.8356 176.927 78.7591 177.279 77.5483" stroke="#120071" stroke-linecap="round" stroke-linejoin="round"/>
<path d="M175.467 50.5906L173.786 31.0518C173.674 29.3353 172.886 27.7333 171.594 26.5972C170.302 25.4611 168.613 24.8836 166.896 24.9913L144.11 26.9554" stroke="#120071" stroke-linecap="round" stroke-linejoin="round"/>
<path d="M154.757 56.2732C152.813 59.3308 148.716 68.261 146.337 74.0558C150.904 75.841 154.752 79.0868 157.282 83.2874" stroke="#120071" stroke-linecap="round" stroke-linejoin="round"/>
<path d="M124.345 66.052C125.035 69.6075 125.937 73.1187 127.044 76.5672C126.005 80.4745 125.59 83.9481 125.1 86.0814" stroke="#120071" stroke-linecap="round" stroke-linejoin="round"/>
<path d="M126.157 51.5161C124.731 53.7143 123.899 56.244 123.741 58.8592" stroke="#120071" stroke-linecap="round" stroke-linejoin="round"/>
<path d="M146.318 74.0747C140.995 77.9074 130.933 79.9452 127.044 76.5672" stroke="#120071" stroke-linecap="round" stroke-linejoin="round"/>
<path d="M143.902 75.5283C146.742 77.749 149.018 80.6076 150.546 83.8724" stroke="#120071" stroke-linecap="round" stroke-linejoin="round"/>
<path d="M130.398 37.8826C130.955 36.6985 131.285 35.4199 131.369 34.1145C130.845 34.6901 130.296 35.2429 129.725 35.7712" stroke="#120071" stroke-linecap="round" stroke-linejoin="round"/>
<path d="M152.057 61.3327L158.816 72.7533C164.045 82.2307 174.935 85.2117 181.772 71.0549C184.999 64.3715 186.529 59.879 189.361 55.2344C184.73 53.9143 180.514 51.4321 177.113 48.0236C173.97 52.7542 171.174 57.7067 168.749 62.8422C155.062 33.7513 153.382 38.8806 144.264 38.3761C141.482 38.2994 138.802 37.3112 136.637 35.5632" stroke="#120071" stroke-linecap="round" stroke-linejoin="round"/>
<path d="M116.699 61.5586C119.399 52.3837 125.446 48.143 128.101 45.2486C129.35 44.0507 130.182 42.4835 130.475 40.7775C130.767 39.0715 130.504 37.3167 129.725 35.7712C124.968 39.9621 122.344 36.6209 122.344 25.5227" stroke="#120071" stroke-linecap="round" stroke-linejoin="round"/>
<path d="M145.413 38.4138C141.629 41.4547 138.214 44.9276 135.237 48.7618C134.77 49.3429 134.161 49.793 133.469 50.0681C132.776 50.3432 132.024 50.4339 131.286 50.3314C130.548 50.2288 129.849 49.9365 129.258 49.4829C128.667 49.0294 128.203 48.4302 127.913 47.7439C127.685 47.2146 127.471 46.6794 127.271 46.139" stroke="#120071" stroke-linecap="round" stroke-linejoin="round"/>
<path d="M168.746 62.842L166.5 67.9016" stroke="#120071" stroke-linecap="round" stroke-linejoin="round"/>
<path d="M74.8643 62.6353C72.2256 66.0183 70.358 65.7964 65.3879 68.0152C55.2688 72.5275 58.7423 90.6127 58.7423 90.6127" stroke="#120071" stroke-linecap="round" stroke-linejoin="round"/>
<path d="M82.5477 57.4055C83.3726 61.2293 83.2979 62.6929 82.7557 63.484C82.3577 64.07 80.7547 64.2581 79.301 64.2581" stroke="#120071" stroke-linecap="round" stroke-linejoin="round"/>
<path d="M82.9288 63.1666C82.4005 64.2611 80.3965 63.1666 78.3946 61.7129C78.7727 63.4502 79.0364 65.5317 80.4523 65.6203C93.0032 66.4073 94.3285 67.8292 105.221 86.5153" stroke="#120071" stroke-linecap="round" stroke-linejoin="round"/>
<path d="M103.881 84.1938C104.352 82.8724 107.278 76.8497 108.978 71.413C112.699 71.012 116.439 71.9861 119.493 74.1502C118.322 79.7003 114.925 88.121 111.998 94.3099C111.5 95.3562 110.761 96.269 109.841 96.9728C108.921 97.6767 107.846 98.1514 106.706 98.3576C105.567 98.5642 104.394 98.4967 103.285 98.1605C102.177 97.8243 101.164 97.2292 100.331 96.4243C95.4438 91.6186 91.1009 86.2887 87.3814 80.5312" stroke="#120071" stroke-linecap="round" stroke-linejoin="round"/>
<path d="M87.4003 80.5312L90.1943 89.2723" stroke="#120071" stroke-linecap="round" stroke-linejoin="round"/>
<path d="M66.767 96.4084C72.3738 98.1994 81.9636 97.5218 89.459 95.4831C90.5913 93.2553 90.1197 84.4585 90.1197 84.4585" stroke="#120071" stroke-linecap="round" stroke-linejoin="round"/>
<path d="M66.7093 95.9738C64.2934 99.4473 59.5453 99.5757 57.3643 95.9549C54.6161 91.3779 53.438 84.8547 52.8529 77.6051C52.8529 77.6051 57.1314 76.236 58.9224 76.7723" stroke="#120071" stroke-linecap="round" stroke-linejoin="round"/>
<path d="M72.936 120.777L53.0012 138.428C51.6825 139.588 49.9882 140.231 48.2321 140.238C46.4759 140.245 44.7768 139.615 43.4492 138.465L23.8367 121.497" stroke="#120071" stroke-linecap="round" stroke-linejoin="round"/>
<path d="M50.1913 124.197L35.3529 110.208" stroke="#120071" stroke-linecap="round" stroke-linejoin="round"/>
<path d="M63.6696 77.4736C63.6696 77.4736 66.9531 90.7071 66.7471 96.7478C62.7529 99.0183 59.6665 102.6 58.011 106.886C55.6001 113.4 47.2501 121.327 47.2501 121.327" stroke="#120071" stroke-linecap="round" stroke-linejoin="round"/>
<path d="M89.458 95.4832C93.1574 108.075 93.5256 116.478 93.7803 128.67C93.9837 132.127 93.5105 135.59 92.3873 138.865L83.7417 163.18C78.454 162.625 73.371 160.834 68.9033 157.951L77.5498 133.183C77.7164 128.952 76.297 124.812 73.5698 121.573C70.87 118.284 69.1786 114.285 68.6993 110.057" stroke="#120071" stroke-linecap="round" stroke-linejoin="round"/>
<path d="M70.5231 65.9954C70.5231 65.9954 73.543 69.3177 80.7169 65.6362" stroke="#120071" stroke-linecap="round" stroke-linejoin="round"/>
<path d="M54.3444 77.1711C54.2854 74.2908 53.963 71.4218 53.3813 68.6002C52.8245 66.4285 52.0265 64.326 51.0022 62.3317C49.4998 59.4024 49.9873 58.6094 52.4002 61.275C54.7829 64.266 56.7453 67.5689 58.2329 71.0917" stroke="#120071" stroke-linecap="round" stroke-linejoin="round"/>
<path d="M57.3951 69.2261C58.5941 70.5853 59.3115 66.4401 59.7622 65.5227C60.3851 64.2581 61.1552 62.881 61.1025 66.7695C61.0876 67.8451 61.2159 69.5634 61.3861 71.2619" stroke="#120071" stroke-linecap="round" stroke-linejoin="round"/>
<path d="M52.249 65.1078C51.7017 64.5038 50.458 63.2969 50.0968 62.9556C48.4471 61.3775 48.1187 61.9337 48.3058 62.2591C49.0222 63.5148 50.3654 65.4491 50.9923 66.6371C51.9952 68.5614 54.031 72.225 54.1444 74.1125" stroke="#120071" stroke-linecap="round" stroke-linejoin="round"/>
<path d="M50.9276 66.5238C50.6062 66.2979 50.3405 66.1118 50.1913 66.0143C48.2789 64.7676 48.0769 65.3347 48.3008 65.6163C49.2072 66.7486 50.853 68.4262 51.6619 69.5048C52.6117 70.8336 53.4332 72.2495 54.1156 73.7335" stroke="#120071" stroke-linecap="round" stroke-linejoin="round"/>
<path d="M118.607 73.5274C119.619 70.5078 120.895 67.5832 122.42 64.7873C123.711 62.6769 125.237 60.7198 126.969 58.9536C129.513 56.3666 129.258 55.3477 125.837 57.3676C122.348 59.7504 119.198 62.5955 116.473 65.8251" stroke="#120071" stroke-linecap="round" stroke-linejoin="round"/>
<path d="M118.06 64.0343C116.156 65.4541 116.858 60.6045 116.68 59.4632C116.44 57.9329 116.095 56.2166 114.867 60.3508C114.528 61.4821 113.149 64.9885 110.549 71.3177" stroke="#120071" stroke-linecap="round" stroke-linejoin="round"/>
<path d="M124.741 61.464C125.515 60.9923 127.214 60.1426 127.705 59.8978C129.97 58.7645 130.119 59.4799 129.838 59.7466C128.677 60.8501 126.63 62.448 125.59 63.5027C123.913 65.2052 120.569 68.4111 119.813 70.3752" stroke="#120071" stroke-linecap="round" stroke-linejoin="round"/>
<path d="M125.685 63.4093C126.1 63.277 126.44 63.1645 126.629 63.1108C129.049 62.3695 129.082 63.0899 128.744 63.3188C127.416 64.2143 125.14 65.455 123.929 66.3386C122.496 67.4335 121.169 68.6597 119.965 70.0012" stroke="#120071" stroke-linecap="round" stroke-linejoin="round"/>
<path d="M28.4247 103.714C25.0646 98.8869 4.46708 115.538 5.51382 121.051C5.676 121.904 6.41429 122.668 8.13664 122.435C14.7564 121.538 30.9072 107.286 28.4247 103.714Z" stroke="#120071" stroke-linecap="round" stroke-linejoin="round"/>
<path d="M28.4247 103.714C29.4625 105.035 33.0305 109.302 35.5787 112.47" stroke="#120071" stroke-linecap="round" stroke-linejoin="round"/>
<path d="M81.6612 162.916C80.8652 165.917 76.3976 172.504 79.8294 180.945C81.5875 185.267 82.6044 191.57 80.2274 193.156" stroke="#120071" stroke-linecap="round" stroke-linejoin="round"/>
<path d="M66.0297 169.259C67.5403 165.854 69.0255 162.438 70.4853 159.011" stroke="#120071" stroke-linecap="round" stroke-linejoin="round"/>
<path d="M66.6337 168.692C62.4129 170.699 73.6803 191.334 78.8483 193.216C80.2761 193.737 80.9577 192.719 80.902 191.203C80.6672 184.899 69.8963 167.144 66.6337 168.692Z" stroke="#120071" stroke-linecap="round" stroke-linejoin="round"/>
<path d="M33.4653 109.868C33.7243 109.751 34.0091 109.703 34.2922 109.728C34.5753 109.753 34.8471 109.851 35.0812 110.012C35.3154 110.174 35.5035 110.393 35.6272 110.649C35.7509 110.905 35.8059 111.189 35.7867 111.473C35.4743 115.453 28.0804 122.271 24.7561 121.869C23.7611 121.747 23.1303 121.044 23.4626 119.704" stroke="#120071" stroke-linecap="round" stroke-linejoin="round"/>
<path d="M82.5646 156.151L88.3585 137.826C89.364 134.963 89.7876 131.927 89.6043 128.897C88.8013 115.778 87.8302 105.639 85.47 96.4084" stroke="#120071" stroke-linecap="round" stroke-linejoin="round"/>
<path d="M71.2584 151.192C75.5439 154.453 80.7342 156.306 86.1158 156.497" stroke="#120071" stroke-linecap="round" stroke-linejoin="round"/>
<path d="M29.4247 126.33C35.1449 124.498 38.3548 120.36 40.2801 114.965" stroke="#120071" stroke-linecap="round" stroke-linejoin="round"/>
<path d="M70.0316 115.55L53.9663 129.785C52.6449 130.962 50.9388 131.615 49.1691 131.622C47.3995 131.629 45.6883 130.989 44.3576 129.823L35.8812 122.384" stroke="#120071" stroke-linecap="round" stroke-linejoin="round"/>
<path d="M72.7499 101.429C72.5052 101.467 72.146 106.225 72.7877 108.15C74.0154 109.847 75.5847 111.268 77.3946 112.322C78.4299 110.598 79.6726 109.007 81.095 107.584C80.906 105.186 80.6791 103.922 80.4154 101.391C77.874 101.755 75.2948 101.767 72.7499 101.429Z" stroke="#120071" stroke-linecap="round" stroke-linejoin="round"/>
<path d="M62.0467 100.467C63.0158 100.481 63.9675 100.727 64.8218 101.184C63.0845 102.033 61.3294 106.358 61.3294 106.358L57.4588 108.209" stroke="#120071" stroke-linecap="round" stroke-linejoin="round"/>
<path d="M184.868 38.7891C187.853 39.7323 189.512 41.2616 191.435 43.7163" stroke="#120071" stroke-linecap="round" stroke-linejoin="round"/>
<path d="M184.132 40.189C185.174 41.2461 185.984 42.5088 186.51 43.8965C187.037 45.2842 187.268 46.7664 187.19 48.2485" stroke="#120071" stroke-linecap="round" stroke-linejoin="round"/>
<path d="M189.87 41.8498C191.029 40.3238 191.998 38.6629 192.756 36.9036C194.149 33.638 195.003 34.5445 194.228 37.6399C194.048 38.363 193.847 39.0807 193.625 39.7921C193.074 41.535 192.545 43.2846 192.039 45.0407C191.504 46.9073 187.959 54.8007 187.959 54.8007C184.637 53.9131 181.182 51.4973 178.483 49.2695C178.539 49.156 179.975 46.5143 180.03 46.4188C180.322 45.8909 180.447 45.2862 180.386 44.6856C180.325 44.0851 180.083 43.5175 179.691 43.0587C178.325 41.4209 176.498 38.9792 177.104 38.3195C178.044 37.2976 181.011 40.7533 182.597 40.9632C183.163 41.0378 183.617 39.3205 183.71 38.6976C183.881 37.5653 184.477 33.7126 184.522 33.3365C184.933 29.8361 186.184 30.4291 186.165 33.5246C186.146 36.4698 186.146 38.3762 186.146 38.3762" stroke="#120071" stroke-linecap="round" stroke-linejoin="round"/>
<path d="M185.906 39.1314C185.906 39.1314 187.965 32.6758 188.095 32.241C189.119 28.863 190.193 29.6361 189.681 32.6748C189.192 35.5832 188.661 39.1314 188.661 39.1314" stroke="#120071" stroke-linecap="round" stroke-linejoin="round"/>
<path d="M188.157 40.1702C189.142 38.1957 190.012 36.1658 190.762 34.0907C191.986 30.7674 192.885 31.6162 192.31 34.639C191.995 36.5183 191.547 38.3729 190.97 40.1891" stroke="#120071" stroke-linecap="round" stroke-linejoin="round"/>
<path d="M167.594 98.1258C167.645 98.5766 167.606 99.0329 167.48 99.4686C167.354 99.9043 167.143 100.311 166.86 100.665C166.576 101.019 166.225 101.313 165.827 101.53C165.428 101.747 164.991 101.884 164.54 101.931C163.86 102.002 163.175 101.869 162.571 101.549C161.968 101.229 161.473 100.736 161.151 100.134C160.937 99.7335 160.804 99.2949 160.761 98.8432L160.213 93.6692C160.127 92.7674 160.4 91.8679 160.974 91.1664C161.547 90.4649 162.374 90.018 163.275 89.923C164.176 89.8286 165.078 90.0938 165.784 90.661C166.491 91.2283 166.945 92.0516 167.047 92.9518L167.594 98.1258Z" stroke="#120071" stroke-linecap="round" stroke-linejoin="round"/>
<path d="M157.967 96.7667L158.23 99.3149C158.396 100.897 159.183 102.348 160.418 103.35C161.654 104.352 163.236 104.823 164.818 104.658C166.4 104.491 167.852 103.705 168.855 102.47C169.856 101.234 170.326 99.6513 170.161 98.0692L169.898 95.521" stroke="#120071" stroke-linecap="round" stroke-linejoin="round"/>
<path d="M164.819 104.658L165.329 109.415" stroke="#120071" stroke-linecap="round" stroke-linejoin="round"/>
<path d="M162.781 109.68L167.859 109.15" stroke="#120071" stroke-linecap="round" stroke-linejoin="round"/>
<path d="M123.268 124.216L129.366 127.066L128.271 114.115L122.74 117.966" stroke="#120071" stroke-linecap="round" stroke-linejoin="round"/>
<path d="M117.492 113.871C118.723 113.763 119.948 114.126 120.922 114.885C121.896 115.645 122.545 116.746 122.74 117.966L123.249 123.837C123.334 124.802 123.131 125.771 122.665 126.62C122.199 127.47 121.491 128.162 120.631 128.61C120.06 128.906 119.436 129.087 118.795 129.142L107.015 130.123C106.373 130.182 105.726 130.113 105.111 129.921C104.497 129.728 103.927 129.415 103.434 129.001C102.94 128.587 102.534 128.079 102.238 127.507C101.942 126.935 101.762 126.31 101.709 125.668L101.238 120.196C101.179 119.555 101.248 118.908 101.441 118.293C101.633 117.679 101.945 117.108 102.359 116.615C102.773 116.121 103.281 115.714 103.853 115.418C104.425 115.122 105.05 114.943 105.692 114.891L117.492 113.871Z" stroke="#120071" stroke-linecap="round" stroke-linejoin="round"/>
<path d="M150.038 16.0811C149.95 14.9908 149.575 13.9433 148.949 13.046C148.324 12.1487 147.471 11.4339 146.478 10.9749C145.486 10.5159 144.389 10.3291 143.3 10.4338C142.211 10.5386 141.17 10.931 140.283 11.5708C139.094 12.4267 138.249 13.6778 137.899 15.1001C139.449 15.8152 140.81 16.8821 141.875 18.2159C142.941 19.5498 143.68 21.1137 144.035 22.7834C144.878 22.7639 145.708 22.5718 146.473 22.2189C147.239 21.8661 147.925 21.3599 148.487 20.7319C149.05 20.1038 149.478 19.367 149.744 18.5671C150.011 17.7672 150.111 16.9211 150.038 16.0811Z" stroke="#120071" stroke-linecap="round" stroke-linejoin="round"/>
<path d="M144.205 24.1428C144.028 22.0094 143.231 19.9745 141.911 18.2891C140.591 16.6038 138.806 15.3417 136.778 14.6586C134.749 13.9755 132.565 13.9013 130.494 14.4452C128.424 14.989 126.558 16.1271 125.127 17.719C123.208 19.8528 122.202 22.6538 122.325 25.5208C124.599 24.9045 126.935 24.5496 129.29 24.4631C129.417 25.2363 129.593 26.0004 129.818 26.7516C130.026 27.2233 130.347 27.2611 130.913 26.3924C132.178 24.5616 134.745 27.3934 131.743 29.5834C133.039 31.8258 134.685 33.8463 136.619 35.5683C138.99 34.8036 141.031 33.257 142.409 31.1816C143.787 29.1062 144.42 26.6246 144.205 24.1428Z" stroke="#120071" stroke-linecap="round" stroke-linejoin="round"/>
<path d="M17.7961 87.8565L21.7413 87.4595" stroke="#120071" stroke-linecap="round" stroke-linejoin="round"/>
<path d="M28.7262 86.742L32.6723 86.3459" stroke="#120071" stroke-linecap="round" stroke-linejoin="round"/>
<path d="M24.4785 79.6626L24.8755 83.6088" stroke="#120071" stroke-linecap="round" stroke-linejoin="round"/>
<path d="M25.5929 90.5938L25.9889 94.5389" stroke="#120071" stroke-linecap="round" stroke-linejoin="round"/>
<path d="M19.4388 82.3821L22.5154 84.8736" stroke="#120071" stroke-linecap="round" stroke-linejoin="round"/>
<path d="M27.9521 89.3101L31.0296 91.8204" stroke="#120071" stroke-linecap="round" stroke-linejoin="round"/>
<path d="M29.954 81.3054L27.4615 84.383" stroke="#120071" stroke-linecap="round" stroke-linejoin="round"/>
<path d="M23.0248 89.8196L20.5144 92.8971" stroke="#120071" stroke-linecap="round" stroke-linejoin="round"/>
<path d="M109.205 42.6617L106.916 37.0737C108.315 34.9937 108.992 32.5115 108.842 30.0092C108.427 23.4422 102.328 18.3429 95.0608 18.5508C87.6411 18.7578 81.7895 24.4213 81.9965 31.1993C82.2024 38.3543 88.8958 43.4766 96.2081 43.0457C98.8274 42.8806 101.353 42.0093 103.517 40.5244L109.205 42.6617Z" stroke="#120071" stroke-linecap="round" stroke-linejoin="round"/>
<path d="M65.7093 39.8109C65.3603 40.1453 64.9199 40.3686 64.444 40.4527C63.968 40.5368 63.4777 40.4778 63.0353 40.2833C62.5928 40.0888 62.218 39.7674 61.9581 39.3598C61.6983 38.9522 61.5652 38.4767 61.5757 37.9935C61.5861 37.5102 61.7396 37.041 62.0168 36.645C62.294 36.249 62.6823 35.9441 63.1328 35.7688C63.5833 35.5936 64.0756 35.5558 64.5475 35.6604C65.0194 35.765 65.4497 36.0071 65.784 36.3563C66.2306 36.8251 66.4735 37.4516 66.4595 38.099C66.4455 38.7463 66.1758 39.3618 65.7093 39.8109Z" stroke="#120071" stroke-linecap="round" stroke-linejoin="round"/>
<path d="M166.669 7.60474L167.519 17.9129" stroke="#120071" stroke-linecap="round" stroke-linejoin="round"/>
<path d="M172.257 12.324L161.95 13.1926" stroke="#120071" stroke-linecap="round" stroke-linejoin="round"/>
<path d="M26.1591 121.704C25.4404 120.824 24.5132 120.136 23.4616 119.704C21.6308 119.043 19.8348 119.628 17.7016 120.233C13.4032 121.427 8.79532 124.02 6.37747 122.23" stroke="#120071" stroke-linecap="round" stroke-linejoin="round"/>
<path d="M70.2396 123.215L70.0316 115.55" stroke="#120071" stroke-linecap="round" stroke-linejoin="round"/>
</svg>
