<svg width="200" height="201" viewBox="0 0 200 201" fill="none" xmlns="http://www.w3.org/2000/svg">
<path d="M116.529 102.415L106.778 100.09L64.4994 56.4165C57.9623 59.6784 52.575 64.8556 49.056 71.2579L66.8466 90.5798L46.3904 85.7043C42.3447 91.9808 40.6055 98.5796 41.5149 105.574L93.3932 119.395C97.7364 124.104 99.8219 126.77 103.961 129.146C108.215 131.585 115.136 134.293 122.792 132.289C123.753 132.159 119.629 111.325 116.529 102.415Z" fill="#FECFC4"/>
<path d="M141.163 32.2548L135.813 21.0441C135.237 19.8328 134.315 18.8193 133.163 18.1318C132.011 17.4444 130.681 17.1137 129.342 17.1815C128.452 17.2272 127.58 17.4477 126.775 17.8303L121.255 20.4571L132.428 43.9202L137.949 41.2924C138.755 40.9112 139.477 40.3749 140.075 39.7141C140.674 39.0534 141.135 38.2812 141.435 37.4417C141.734 36.6019 141.863 35.7113 141.817 34.8211C141.77 33.931 141.548 33.0588 141.163 32.2548ZM134.414 33.6727C134.414 33.7224 134.394 33.7712 134.358 33.806C134.341 33.8236 134.32 33.8375 134.297 33.847C134.274 33.8565 134.25 33.8614 134.225 33.8614C134.2 33.8614 134.176 33.8565 134.153 33.847C134.13 33.8375 134.109 33.8236 134.092 33.806C134.074 33.7886 134.06 33.7678 134.051 33.7449C134.041 33.722 134.036 33.6975 134.036 33.6727V29.436L131.219 30.6837C131.19 30.694 131.16 30.6976 131.129 30.6942C131.099 30.6908 131.07 30.6805 131.044 30.664C131.019 30.6476 130.997 30.6255 130.981 30.5994C130.966 30.5733 130.956 30.5439 130.953 30.5136V25.9972C130.953 25.9724 130.958 25.9477 130.968 25.9247C130.977 25.9018 130.991 25.8809 131.009 25.8633C131.026 25.8457 131.047 25.8318 131.07 25.8223C131.093 25.8129 131.118 25.8081 131.143 25.8082C131.192 25.8082 131.241 25.8281 131.276 25.8639C131.293 25.8814 131.307 25.9021 131.317 25.925C131.327 25.9479 131.332 25.9724 131.332 25.9972V30.232L134.149 28.9842C134.177 28.9729 134.207 28.9687 134.237 28.972C134.267 28.9753 134.295 28.986 134.32 29.0031C134.346 29.0191 134.369 29.041 134.385 29.0668C134.402 29.0931 134.412 29.1232 134.414 29.1544V33.6727Z" fill="#FECFC4"/>
<path d="M156.439 83.2256C156.55 83.6833 156.562 84.1609 156.477 84.6246C157.784 84.0429 158.976 83.2295 159.994 82.2236C158.84 82.6593 157.651 82.9946 156.439 83.2256Z" fill="#6153BD"/>
<path d="M119.176 99.6552C117.039 94.4752 112.652 85.7401 108.815 86.7421C106.3 87.4038 105.204 92.1867 105.582 98.8811L106.754 100.091L116.51 102.416C116.144 101.22 115.636 100.071 114.998 98.9945C116.318 99.2393 117.81 99.4472 119.176 99.6552Z" fill="#6153BD"/>
<path d="M47.5973 38.7393C45.9715 41.6327 45.3287 52.0305 43.6651 57.6263C43.0198 59.6867 42.6014 61.8113 42.4174 63.9625C43.3105 65.4363 44.4485 66.7469 45.7825 67.838C47.5145 63.5295 50.0125 59.5702 53.1554 56.1518C51.2231 51.1778 51.6699 45.5271 47.5973 38.7393Z" fill="#6153BD"/>
<path d="M37.5777 90.712C33.1808 87.4504 30.7868 82.6356 23.587 78.9531C23.7571 82.2615 28.7669 91.4115 30.3361 97.0263C30.8828 99.1116 31.6628 101.129 32.6614 103.039C34.2042 103.807 35.8669 104.306 37.5777 104.514C36.7518 99.9502 36.7518 95.2755 37.5777 90.712Z" fill="#6153BD"/>
<path d="M141.069 83.188C140.483 88.7082 143.413 89.8236 146.362 85.1919C144.509 84.7864 142.726 84.1112 141.069 83.188Z" fill="#6153BD"/>
<path d="M144.906 73.9612C145.852 74.4149 147.402 74.793 147.78 74.5283L148.347 73.1483C147.44 72.0518 146.06 72.7184 144.906 73.9612Z" fill="#6153BD"/>
<path d="M163.779 70.6528C162.949 67.5763 160.66 63.9038 155.405 59.3477C154.22 63.8645 153.305 68.4475 152.663 73.0727C155.148 72.4554 157.703 72.1631 160.263 72.2031C160.49 71.7115 160.967 72.2329 161.568 73.9612C161.587 74.0179 161.643 74.1692 161.7 74.3592C161.822 74.3187 161.951 74.3058 162.078 74.3214C162.011 73.4686 161.923 72.6176 161.813 71.7692C161.256 67.3067 162.559 66.6868 163.742 71.1643C163.816 71.4479 163.969 72.223 164.14 73.1682C164.122 72.3182 164.001 71.4736 163.779 70.6528Z" fill="#6153BD"/>
<path d="M161.241 102.793L160.296 109.278C160.296 109.278 163.113 105.686 164.096 104.004L161.241 102.793Z" fill="#6153BD"/>
<path d="M62.1741 150.36L81.6851 154.16L63.4029 137.883L43.892 134.082L62.1741 150.36Z" fill="#6153BD"/>
<path d="M81.6472 154.16L99.8338 142.231L78.508 139.641L70.9261 144.613L81.6472 154.16Z" fill="#6153BD"/>
<path d="M62.174 150.36L81.685 154.16L63.4029 137.883L43.8919 134.082L62.174 150.36Z" stroke="#120071" stroke-linejoin="round"/>
<path d="M81.6472 154.16L99.8338 142.231L78.508 139.641L70.9261 144.613L81.6472 154.16Z" stroke="#120071" stroke-linejoin="round"/>
<path d="M78.5657 70.9365C85.6447 68.0956 93.3111 67.029 100.897 67.8297C108.482 68.6304 115.757 71.2741 122.087 75.5304" stroke="#120071" stroke-linecap="round" stroke-linejoin="round"/>
<path d="M57.2399 88.2924C58.2807 86.7413 59.4103 85.2517 60.6229 83.8308" stroke="#120071" stroke-linecap="round" stroke-linejoin="round"/>
<path d="M49.8281 107.787C49.5397 109.911 49.3944 112.053 49.3933 114.196C49.3779 121.891 51.277 129.47 54.9195 136.248" stroke="#120071" stroke-linecap="round" stroke-linejoin="round"/>
<path d="M141.522 124.422C139.807 132.057 136.198 139.138 131.027 145.012C125.857 150.886 119.292 155.365 111.936 158.036C104.676 160.671 96.8745 161.462 89.2331 160.337C81.5917 159.212 74.3492 156.207 68.156 151.592" stroke="#120071" stroke-linecap="round" stroke-linejoin="round"/>
<path d="M142.127 25.3925C145.02 23.5776 148.877 22.6682 152.167 23.8423C157.612 25.7865 160.36 32.3137 159.01 37.7374C157.75 42.806 153.737 47.2108 151.013 51.5391C146.421 58.8384 144.545 64.2631 147.251 72.6002" stroke="#120071" stroke-linecap="round" stroke-linejoin="round"/>
<path d="M137.59 24.7495L139.915 29.6081L141.56 28.8121C142.006 28.5957 142.349 28.2129 142.515 27.7461C142.681 27.2793 142.657 26.766 142.449 26.3166L141.752 24.842C141.536 24.3965 141.153 24.0538 140.686 23.8876C140.219 23.7214 139.706 23.7451 139.257 23.9535L137.59 24.7495Z" stroke="#120071" stroke-linecap="round" stroke-linejoin="round"/>
<path d="M132.447 43.9204L121.274 20.4573L110.195 25.7328L121.369 49.1949L132.447 43.9204Z" stroke="#120071" stroke-linecap="round" stroke-linejoin="round"/>
<path d="M141.182 32.2549L135.832 21.0253C135.059 19.4009 133.673 18.1498 131.979 17.5472C130.284 16.9445 128.419 17.0395 126.794 17.8115L121.274 20.4572L132.447 43.9203L137.968 41.2925C138.773 40.9104 139.494 40.3735 140.091 39.7124C140.688 39.0514 141.149 38.2791 141.447 37.4398C141.746 36.6006 141.876 35.7107 141.831 34.821C141.785 33.9313 141.565 33.0593 141.182 32.2549Z" stroke="#120071" stroke-linecap="round" stroke-linejoin="round"/>
<path d="M131.498 26.0094C131.498 25.9104 131.458 25.8155 131.388 25.7455C131.318 25.6755 131.224 25.6362 131.125 25.6362C131.026 25.6362 130.931 25.6755 130.861 25.7455C130.791 25.8155 130.751 25.9104 130.751 26.0094H131.498ZM131.125 30.4252H130.751C130.751 30.4863 130.766 30.5466 130.795 30.6007C130.824 30.6547 130.865 30.7008 130.916 30.735C130.967 30.7691 131.025 30.7902 131.086 30.7964C131.147 30.8026 131.208 30.7937 131.265 30.7704L131.125 30.4252ZM134.203 29.1814H134.576C134.576 29.1205 134.561 29.0605 134.532 29.0067C134.504 28.9529 134.462 28.9069 134.412 28.8728C134.361 28.8387 134.303 28.8174 134.242 28.8108C134.182 28.8043 134.12 28.8126 134.064 28.8352L134.203 29.1814ZM133.83 33.6898C133.83 33.7887 133.869 33.8836 133.939 33.9536C134.009 34.0236 134.104 34.0629 134.203 34.0629C134.302 34.0629 134.397 34.0236 134.467 33.9536C134.537 33.8836 134.576 33.7887 134.576 33.6898H133.83ZM130.751 26.0094V30.4252H131.498V26.0094H130.751ZM131.265 30.7704L134.342 29.5267L134.064 28.8352L130.985 30.0789L131.265 30.7704ZM133.83 29.1814V33.6898H134.576V29.1814H133.83Z" fill="#120071"/>
<path d="M121.369 49.1948L110.195 25.7327L99.1164 31.0072L110.289 54.4693L121.369 49.1948Z" stroke="#120071" stroke-linecap="round" stroke-linejoin="round"/>
<path d="M90.7216 42.5212C90.3391 41.7167 90.1189 40.8448 90.0735 39.9552C90.0281 39.0656 90.1584 38.1757 90.4569 37.3365C90.7555 36.4972 91.2164 35.725 91.8134 35.0639C92.4104 34.4029 93.1319 33.8659 93.9364 33.4836L99.1164 31.0071L110.289 54.4692L105.109 56.9457C104.305 57.3282 103.433 57.5485 102.544 57.5939C101.654 57.6394 100.764 57.5092 99.9253 57.2107C99.0861 56.9123 98.3139 56.4515 97.6529 55.8545C96.9919 55.2576 96.4549 54.5364 96.0727 53.7319L90.7216 42.5212Z" stroke="#120071" stroke-linecap="round" stroke-linejoin="round"/>
<path d="M93.3882 119.393L41.494 105.573C40.5866 98.5777 42.3258 91.9789 46.3695 85.7024L66.8446 90.5779" stroke="#120071" stroke-linecap="round" stroke-linejoin="round"/>
<path d="M116.51 102.415L106.773 100.09" stroke="#120071" stroke-linecap="round" stroke-linejoin="round"/>
<path d="M121.86 125.367C118.586 125.988 115.203 125.693 112.085 124.516C108.039 123.063 104.424 120.614 101.574 117.394L53.8927 64.46" stroke="#120071" stroke-linecap="round" stroke-linejoin="round"/>
<path d="M41.5477 98.0859L83.7457 108.937" stroke="#120071" stroke-linecap="round" stroke-linejoin="round"/>
<path d="M152.658 73.1294C151.41 83.0933 153.774 84.7002 159.975 82.2237" stroke="#120071" stroke-linecap="round" stroke-linejoin="round"/>
<path d="M114.427 108.011L64.4864 56.4233C57.9549 59.6851 52.5724 64.8597 49.056 71.2578L97.8528 124.251C99.6172 126.188 101.671 127.84 103.94 129.148C108.203 131.594 115.127 134.295 122.79 132.291" stroke="#120071" stroke-linecap="round" stroke-linejoin="round"/>
<path d="M150.521 85.2486C157.101 88.6316 156.534 83.5661 156.534 83.5661L156.494 83.2139" stroke="#120071" stroke-linecap="round" stroke-linejoin="round"/>
<path d="M156.194 85.3809C155.248 89.729 137.155 100.978 110.554 86.9311" stroke="#120071" stroke-linecap="round" stroke-linejoin="round"/>
<path d="M105.582 98.88C105.204 92.1866 106.299 87.4016 108.815 86.741C112.651 85.735 117.039 94.4731 119.176 99.6541C117.909 99.3894 116.359 99.1625 114.997 98.9924" stroke="#120071" stroke-linecap="round" stroke-linejoin="round"/>
<path d="M47.5973 38.7394C47.0869 37.8698 46.652 37.3763 46.3307 37.4161C44.3247 37.6668 43.8183 49.0446 42.1148 54.7529C41.4928 56.6833 41.117 58.6845 40.9965 60.709C41.245 61.8786 41.7283 62.9855 42.4173 63.9627C42.5882 61.8103 43.0069 59.6849 43.6651 57.6285C45.3277 52.0306 45.9715 41.6329 47.5973 38.7394Z" stroke="#120071" stroke-linecap="round" stroke-linejoin="round"/>
<path d="M53.1554 56.1518C51.8699 52.8434 51.6868 49.7987 50.849 46.6614C50.1036 43.8941 49.011 41.2323 47.5973 38.7393C45.9715 41.6327 45.3188 52.0275 43.6651 57.6263C43.0183 59.6863 42.5999 61.8111 42.4174 63.9625C43.3105 65.4363 44.4485 66.7469 45.7825 67.838C47.5143 63.5294 50.0122 59.57 53.1554 56.1518Z" stroke="#120071" stroke-linecap="round" stroke-linejoin="round"/>
<path d="M45.7824 67.8362L49.053 71.258" stroke="#120071" stroke-linecap="round" stroke-linejoin="round"/>
<path d="M53.1554 56.1519L57.4856 61.0114" stroke="#120071" stroke-linecap="round" stroke-linejoin="round"/>
<path d="M23.584 78.9533C22.6954 78.4986 22.0527 78.3105 21.8069 78.5185C20.2587 79.8249 25.8725 89.6963 27.4973 95.4196C28.0087 97.3816 28.7579 99.2738 29.7281 101.054C30.5582 101.915 31.5554 102.597 32.6584 103.058C31.6595 101.148 30.8795 99.1308 30.3331 97.0454C28.7769 91.4087 23.7571 82.2617 23.584 78.9533Z" stroke="#120071" stroke-linecap="round" stroke-linejoin="round"/>
<path d="M37.5777 90.7121C34.723 88.5947 32.925 86.1202 30.5629 83.9252C28.4555 81.9808 26.1118 80.3094 23.587 78.9502C23.7571 82.2586 28.761 91.4106 30.3361 97.0234C30.882 99.1089 31.662 101.126 32.6614 103.036C34.2042 103.804 35.8669 104.303 37.5777 104.511C36.7521 99.9482 36.7521 95.2746 37.5777 90.7121Z" stroke="#120071" stroke-linecap="round" stroke-linejoin="round"/>
<path d="M37.5966 104.514L41.491 105.572" stroke="#120071" stroke-linecap="round" stroke-linejoin="round"/>
<path d="M37.5776 90.7122L43.0412 92.2813" stroke="#120071" stroke-linecap="round" stroke-linejoin="round"/>
<path d="M169.881 126.993C170.437 128.197 170.625 129.539 170.419 130.849C170.213 132.16 169.624 133.38 168.726 134.356C168.053 135.085 167.227 135.655 166.308 136.027C165.389 136.398 164.398 136.561 163.408 136.504C162.418 136.447 161.453 136.172 160.582 135.697C159.712 135.223 158.957 134.561 158.373 133.76C157.657 132.778 157.221 131.62 157.112 130.41C157.003 129.2 157.225 127.983 157.753 126.889C158.282 125.795 159.098 124.865 160.113 124.199C161.129 123.532 162.307 123.154 163.521 123.104C164.847 123.051 166.158 123.392 167.29 124.084C168.422 124.776 169.324 125.788 169.881 126.993Z" stroke="#120071" stroke-linecap="round" stroke-linejoin="round"/>
<path d="M161.884 125.669L163.793 129.81L167.858 127.938" stroke="#120071" stroke-linecap="round" stroke-linejoin="round"/>
<path d="M148.347 73.1483C148.173 72.9344 147.944 72.7712 147.685 72.6756C145.994 72.0597 143.413 75.0388 141.957 79.2745C140.501 83.5102 140.711 87.4156 142.43 88.0086C143.566 88.4006 145.058 87.2335 146.381 85.1918" stroke="#120071" stroke-linecap="round" stroke-linejoin="round"/>
<path d="M147.685 72.6757C142.848 71.5475 138.071 70.1719 133.374 68.5545C127.967 66.6819 118.929 69.5186 123.297 79.8795C125.433 84.9461 131.615 90.7499 136.569 93.7558" stroke="#120071" stroke-linecap="round" stroke-linejoin="round"/>
<path d="M142.43 88.0086L129.006 81.2217" stroke="#120071" stroke-linecap="round" stroke-linejoin="round"/>
<path d="M153.793 82.6208C153.398 83.1304 152.988 83.6281 152.564 84.1133C150.724 86.1859 145.908 85.8337 141.05 83.2059" stroke="#120071" stroke-linecap="round" stroke-linejoin="round"/>
<path d="M147.742 74.4905C147.364 74.7741 145.852 74.396 144.906 73.9612" stroke="#120071" stroke-linecap="round" stroke-linejoin="round"/>
<path d="M150.994 72.0141C151.013 71.8061 151.05 70.4221 151.069 70.237C151.164 66.9097 150.399 67.4799 149.217 70.8987C148.213 73.6116 147.064 76.2688 145.776 78.8587" stroke="#120071" stroke-linecap="round" stroke-linejoin="round"/>
<path d="M154.001 65.3406C153.679 64.1685 152.736 65.1526 151.959 68.1386C151.318 70.5972 150.824 72.7156 150.332 74.3205" stroke="#120071" stroke-linecap="round" stroke-linejoin="round"/>
<path d="M152.583 73.8289C151.5 73.8542 150.445 74.1816 149.538 74.7741" stroke="#120071" stroke-linecap="round" stroke-linejoin="round"/>
<path d="M179.939 105.653L166.606 98.6772C167.665 92.8724 171.011 87.1063 175.76 84.2139C175.76 84.2139 186.686 91.3241 192.341 97.0135C197.925 102.631 193.435 114.535 179.995 111.136C175.56 110.007 169.682 106.54 164.096 103.996C152.662 122.304 131.353 129.284 124.694 131.705C124.054 131.937 123.417 132.131 122.785 132.296C123.901 132.145 118.002 103.309 114.996 98.9986C122.444 100.473 145.264 103.233 160.426 87.6556" stroke="#120071" stroke-linecap="round" stroke-linejoin="round"/>
<path d="M168.009 79.2745C168.009 79.2745 169.181 76.3423 170.696 75.792C172.322 75.205 169.464 80.5382 169.618 83.5063C169.674 84.565 173.079 86.2853 173.079 86.2853" stroke="#120071" stroke-linecap="round" stroke-linejoin="round"/>
<path d="M166.005 71.6738C165.873 69.9913 166.15 64.5626 167.423 69.8211C167.666 71.234 167.823 72.6619 167.896 74.0937C168.166 76.4771 168.122 78.8858 167.763 81.2577" stroke="#120071" stroke-linecap="round" stroke-linejoin="round"/>
<path d="M162.187 75.7762C162.112 75.5682 161.658 74.2837 161.601 74.0937C160.467 70.9743 159.952 71.7872 160.127 75.3981C160.274 78.4428 159.962 82.8855 159.9 84.0765C159.671 88.5202 161.658 89.8047 167.746 94.4364" stroke="#120071" stroke-linecap="round" stroke-linejoin="round"/>
<path d="M164.682 76.8727C164.436 74.7364 163.922 71.8977 163.756 71.2768C162.571 66.8043 161.262 67.4391 161.827 71.8818C162.15 74.415 162.186 76.3244 162.338 78.008" stroke="#120071" stroke-linecap="round" stroke-linejoin="round"/>
<path d="M163.793 71.4092C163.774 62.7527 165.485 66.3984 165.949 71.2201C166.159 73.3942 166.402 75.0011 166.44 76.2867" stroke="#120071" stroke-linecap="round" stroke-linejoin="round"/>
<path d="M163.795 70.7344C162.999 67.636 160.701 63.9436 155.4 59.3477C154.216 63.865 153.3 68.4479 152.658 73.0727C155.143 72.4554 157.698 72.1631 160.258 72.2031" stroke="#120071" stroke-linecap="round" stroke-linejoin="round"/>
<path d="M152.11 89.6335C153.263 90.6922 154.379 91.6235 157.763 90.144" stroke="#120071" stroke-linecap="round" stroke-linejoin="round"/>
<path d="M159.994 82.2239C159.218 83.3582 156.477 84.6248 156.477 84.6248" stroke="#120071" stroke-linecap="round" stroke-linejoin="round"/>
<path d="M187.974 55.7927C187.804 56.7569 182.643 56.5887 176.442 55.4146C170.241 54.2405 165.362 52.5221 165.533 51.558C165.703 50.5938 170.864 50.762 177.066 51.9361C183.268 53.1102 188.144 54.8285 187.974 55.7927Z" stroke="#120071" stroke-linecap="round" stroke-linejoin="round"/>
<path d="M182.548 63.7905C181.735 64.282 178.477 60.1647 175.27 54.5638C172.063 48.963 170.127 44.0337 170.94 43.5422C171.752 43.0507 175.005 47.172 178.219 52.7679C181.433 58.3637 183.361 63.2989 182.548 63.7905Z" stroke="#120071" stroke-linecap="round" stroke-linejoin="round"/>
<path d="M5.47498 123.023L15.2877 131.492L17.8776 113.777" stroke="#120071" stroke-linecap="round" stroke-linejoin="round"/>
<path d="M71.4564 29.7406C71.4478 30.0126 71.3857 30.2802 71.2736 30.5282C71.1616 30.7761 71.0018 30.9996 70.8034 31.1858C70.6049 31.3721 70.3718 31.5174 70.1172 31.6135C69.8626 31.7096 69.5916 31.7546 69.3196 31.746C69.0477 31.7374 68.78 31.6753 68.5321 31.5632C68.2841 31.4512 68.0606 31.2914 67.8744 31.093C67.6882 30.8945 67.5428 30.6614 67.4467 30.4068C67.3506 30.1522 67.3056 29.8812 67.3142 29.6092C67.3316 29.06 67.5665 28.5401 67.9673 28.164C68.368 27.7879 68.9017 27.5864 69.451 27.6038C70.0003 27.6212 70.5201 27.8561 70.8962 28.2569C71.2723 28.6576 71.4738 29.1913 71.4564 29.7406Z" stroke="#120071" stroke-linecap="round" stroke-linejoin="round"/>
<path d="M106.244 175.147L114.336 183.805" stroke="#120071" stroke-linecap="round" stroke-linejoin="round"/>
<path d="M114.62 175.43L105.96 183.522" stroke="#120071" stroke-linecap="round" stroke-linejoin="round"/>
<path d="M164.097 103.991C163.156 103.56 162.204 103.154 161.241 102.774L160.296 109.278" stroke="#120071" stroke-linecap="round" stroke-linejoin="round"/>
</svg>
