<svg width="405" height="250" viewBox="0 0 405 250" fill="none" xmlns="http://www.w3.org/2000/svg">
<rect width="405" height="250" rx="5" fill="#F4F7FF"/>
<path d="M184.361 207.913C184.361 208.155 184.556 208.35 184.799 208.35H275.675C275.918 208.35 276.113 208.155 276.113 207.913C276.113 207.796 276.069 207.693 275.995 207.616H243.024C242.322 207.616 241.635 207.568 240.959 207.477H184.799C184.556 207.477 184.361 207.671 184.361 207.913Z" fill="#E7E7E7"/>
<path d="M140.457 130.648H191.049C199.62 130.648 206.568 137.587 206.568 146.147V186.675C206.568 195.235 199.62 202.173 191.049 202.173H140.457C131.886 202.173 124.938 195.235 124.938 186.675V146.147C124.938 137.587 131.886 130.648 140.457 130.648Z" fill="white"/>
<path d="M124.57 186.675V146.147C124.57 137.398 131.697 130.281 140.457 130.281H191.049C199.809 130.281 206.936 137.398 206.936 146.147V186.675C206.936 195.423 199.809 202.54 191.049 202.54H140.457C131.697 202.54 124.57 195.423 124.57 186.675ZM140.457 131.015C132.102 131.015 125.305 137.803 125.305 146.147V186.675C125.305 195.018 132.102 201.806 140.457 201.806H191.049C199.404 201.806 206.201 195.018 206.201 186.675V146.147C206.201 137.803 199.404 131.015 191.049 131.015H140.457Z" fill="#3F3D56"/>
<path d="M159.372 148.393H170.704L158.94 183.2C158.692 183.934 158.004 184.427 157.229 184.428H148.41C147.413 184.428 146.606 183.621 146.605 182.626C146.605 182.43 146.637 182.236 146.7 182.05L157.66 149.62C157.908 148.887 158.597 148.393 159.372 148.393V148.393L159.372 148.393H159.372Z" fill="url(#paint0_linear_3062_4410)"/>
<path d="M175.839 171.74H157.87C157.41 171.74 157.038 172.111 157.037 172.57C157.037 172.801 157.133 173.021 157.302 173.178L168.849 183.941C169.185 184.254 169.627 184.429 170.087 184.428H180.262L175.839 171.74Z" fill="#0078D4"/>
<path d="M159.372 148.393C158.587 148.39 157.892 148.897 157.656 149.644L146.714 182.02C146.378 182.956 146.865 183.986 147.801 184.322C147.998 184.392 148.205 184.428 148.415 184.427H157.461C158.147 184.305 158.714 183.823 158.945 183.167L161.127 176.744L168.922 184.005C169.248 184.275 169.658 184.424 170.082 184.427H180.219L175.773 171.739L162.812 171.742L170.745 148.393H159.372L159.372 148.393L159.372 148.393Z" fill="url(#paint1_linear_3062_4410)"/>
<path d="M173.846 149.618C173.599 148.886 172.911 148.392 172.137 148.393H159.508C160.282 148.393 160.97 148.886 161.217 149.618L172.177 182.049C172.496 182.992 171.989 184.015 171.045 184.333C170.859 184.396 170.664 184.428 170.468 184.428H183.098C184.094 184.427 184.902 183.62 184.901 182.625C184.901 182.429 184.869 182.235 184.807 182.049L173.846 149.618V149.618Z" fill="url(#paint2_linear_3062_4410)"/>
<path d="M94.8863 40.3672H145.478C154.049 40.3672 160.997 47.306 160.997 55.8654V96.394C160.997 104.953 154.049 111.892 145.478 111.892H94.8863C86.3153 111.892 79.3672 104.953 79.3672 96.3939V55.8654C79.3672 47.306 86.3153 40.3672 94.8863 40.3672V40.3672Z" fill="white"/>
<path d="M79 96.3937V55.8653C79 47.1172 86.1268 40 94.8866 40H145.479C154.238 40 161.365 47.1172 161.365 55.8653V96.3937C161.365 105.142 154.238 112.259 145.479 112.259H94.8866C86.1268 112.259 79 105.142 79 96.3937ZM94.8866 40.734C86.5319 40.734 79.735 47.5218 79.735 55.8653V96.3937C79.735 104.737 86.5319 111.525 94.8866 111.525H145.479C153.833 111.525 160.63 104.737 160.63 96.3937V55.8653C160.63 47.5218 153.833 40.734 145.479 40.734H94.8866V40.734Z" fill="#3F3D56"/>
<path d="M110.077 76.7492C110.077 77.3183 110.139 77.7797 110.247 78.1181C110.37 78.4565 110.524 78.8257 110.739 79.2256C110.816 79.3486 110.847 79.4717 110.847 79.5794C110.847 79.7332 110.755 79.887 110.555 80.0408L109.584 80.6868C109.446 80.7791 109.307 80.8252 109.184 80.8252C109.03 80.8252 108.876 80.7483 108.722 80.6099C108.506 80.3792 108.321 80.1331 108.167 79.887C108.013 79.6255 107.859 79.3332 107.69 78.9795C106.488 80.3946 104.979 81.1021 103.162 81.1021C101.868 81.1021 100.836 80.7329 100.081 79.9946C99.3265 79.2563 98.9414 78.2719 98.9414 77.0414C98.9414 75.734 99.4035 74.6727 100.343 73.8728C101.283 73.073 102.53 72.6731 104.117 72.6731C104.64 72.6731 105.179 72.7192 105.749 72.7961C106.319 72.873 106.904 72.9961 107.52 73.1345V72.0117C107.52 70.8427 107.274 70.0275 106.796 69.5506C106.304 69.0738 105.472 68.8431 104.286 68.8431C103.747 68.8431 103.192 68.9046 102.623 69.0431C102.053 69.1815 101.498 69.3507 100.959 69.566C100.713 69.6737 100.528 69.7352 100.42 69.766C100.312 69.7968 100.235 69.8121 100.174 69.8121C99.9579 69.8121 99.8501 69.6583 99.8501 69.3353V68.5816C99.8501 68.3355 99.8809 68.1509 99.9579 68.0432C100.035 67.9356 100.174 67.8279 100.389 67.7202C100.928 67.4434 101.575 67.2126 102.33 67.0281C103.085 66.8281 103.885 66.7358 104.733 66.7358C106.565 66.7358 107.905 67.1511 108.768 67.9817C109.615 68.8123 110.046 70.0736 110.046 71.7656V76.7491H110.077L110.077 76.7492L110.077 76.7492ZM103.824 79.0872C104.332 79.0872 104.856 78.9949 105.41 78.8103C105.965 78.6257 106.458 78.2873 106.874 77.8259C107.12 77.5336 107.305 77.2106 107.397 76.8415C107.49 76.4723 107.551 76.0262 107.551 75.5033V74.8572C107.105 74.7496 106.627 74.6573 106.134 74.5958C105.641 74.5342 105.164 74.5035 104.686 74.5035C103.654 74.5035 102.9 74.7034 102.391 75.1187C101.883 75.534 101.637 76.1185 101.637 76.8876C101.637 77.6105 101.822 78.1489 102.207 78.518C102.576 78.9026 103.115 79.0872 103.824 79.0872L103.824 79.0872H103.824ZM116.192 80.7483C115.915 80.7483 115.73 80.7022 115.607 80.5945C115.483 80.5022 115.375 80.2869 115.283 79.9947L111.664 68.1048C111.571 67.7972 111.525 67.5972 111.525 67.4895C111.525 67.2434 111.648 67.105 111.895 67.105H113.404C113.697 67.105 113.897 67.1511 114.005 67.2588C114.128 67.3511 114.22 67.5664 114.313 67.8587L116.9 78.0412L119.303 67.8587C119.38 67.5511 119.472 67.3511 119.596 67.2588C119.719 67.1665 119.935 67.105 120.212 67.105H121.444C121.737 67.105 121.937 67.1511 122.06 67.2588C122.183 67.3511 122.291 67.5664 122.353 67.8587L124.786 78.1643L127.451 67.8587C127.543 67.5511 127.651 67.3511 127.759 67.2588C127.882 67.1665 128.082 67.105 128.36 67.105H129.792C130.038 67.105 130.177 67.228 130.177 67.4895C130.177 67.5664 130.162 67.6433 130.146 67.7356C130.131 67.8279 130.1 67.951 130.038 68.1202L126.326 80.01C126.234 80.3177 126.126 80.5176 126.003 80.6099C125.88 80.7022 125.68 80.7637 125.418 80.7637H124.093C123.8 80.7637 123.6 80.7176 123.477 80.6099C123.354 80.5022 123.246 80.3023 123.184 79.9946L120.797 70.0736L118.425 79.9793C118.348 80.2869 118.256 80.4868 118.132 80.5945C118.009 80.7022 117.794 80.7483 117.516 80.7483H116.192L116.192 80.7483H116.192ZM135.984 81.1636C135.183 81.1636 134.382 81.0714 133.612 80.8868C132.842 80.7022 132.241 80.5022 131.84 80.2715C131.594 80.1331 131.425 79.9793 131.363 79.8408C131.301 79.7024 131.271 79.5486 131.271 79.4102V78.6257C131.271 78.3027 131.394 78.1489 131.625 78.1489C131.717 78.1489 131.81 78.1643 131.902 78.195C131.994 78.2258 132.133 78.2873 132.287 78.3488C132.811 78.5796 133.381 78.7641 133.981 78.8872C134.597 79.0102 135.198 79.0718 135.814 79.0718C136.784 79.0718 137.539 78.9026 138.063 78.5642C138.587 78.2258 138.864 77.7336 138.864 77.1029C138.864 76.6723 138.725 76.3185 138.448 76.0262C138.171 75.734 137.647 75.4725 136.892 75.2264L134.659 74.5342C133.535 74.1805 132.703 73.6575 132.195 72.9653C131.686 72.2885 131.425 71.5349 131.425 70.735C131.425 70.089 131.563 69.5199 131.84 69.0277C132.118 68.5355 132.487 68.1048 132.949 67.7664C133.411 67.4126 133.935 67.1511 134.551 66.9666C135.167 66.782 135.814 66.7051 136.492 66.7051C136.831 66.7051 137.185 66.7205 137.524 66.7666C137.878 66.8128 138.201 66.8743 138.525 66.9358C138.833 67.0127 139.126 67.0896 139.403 67.1819C139.68 67.2742 139.896 67.3665 140.05 67.4588C140.265 67.5818 140.419 67.7049 140.512 67.8433C140.604 67.9664 140.65 68.1356 140.65 68.3509V69.0738C140.65 69.3969 140.527 69.566 140.296 69.566C140.173 69.566 139.973 69.5045 139.711 69.3815C138.833 68.9815 137.847 68.7816 136.754 68.7816C135.876 68.7816 135.183 68.92 134.705 69.2123C134.228 69.5045 133.981 69.9506 133.981 70.5812C133.981 71.0119 134.135 71.381 134.443 71.6733C134.751 71.9655 135.321 72.2578 136.138 72.5193L138.325 73.2114C139.434 73.5652 140.235 74.0574 140.712 74.6881C141.19 75.3187 141.421 76.0416 141.421 76.8415C141.421 77.5029 141.282 78.1028 141.02 78.6257C140.743 79.1487 140.373 79.6101 139.896 79.9793C139.418 80.3638 138.848 80.6407 138.186 80.8407C137.493 81.056 136.769 81.1637 135.984 81.1637H135.984L135.984 81.1636Z" fill="#252F3E"/>
<path fill-rule="evenodd" clip-rule="evenodd" d="M138.895 88.6405C133.828 92.3782 126.466 94.3624 120.136 94.3624C111.264 94.3624 103.27 91.0862 97.2325 85.6411C96.755 85.2104 97.1863 84.626 97.7562 84.9643C104.287 88.7482 112.342 91.04 120.675 91.04C126.296 91.04 132.473 89.871 138.156 87.4715C139.003 87.087 139.727 88.0253 138.895 88.6405L138.895 88.6405Z" fill="#FF9900"/>
<path fill-rule="evenodd" clip-rule="evenodd" d="M141.006 86.2403C140.359 85.4097 136.724 85.8404 135.076 86.0403C134.583 86.1019 134.506 85.6712 134.953 85.3482C137.849 83.3178 142.608 83.9023 143.162 84.5791C143.717 85.2713 143.008 90.0241 140.297 92.3006C139.882 92.6544 139.481 92.4698 139.666 92.0083C140.282 90.4856 141.653 87.0555 141.006 86.2403H141.006H141.006Z" fill="#FF9900"/>
<path d="M236.445 67.3589C236.078 66.9919 233.138 59.285 233.138 59.285L226.156 58.918L222.961 66.44L236.445 67.3589Z" fill="#FFB6B6"/>
<path d="M226.537 62.4674C231.728 62.4674 235.936 58.2651 235.936 53.0814C235.936 47.8976 231.728 43.6953 226.537 43.6953C221.347 43.6953 217.139 47.8976 217.139 53.0814C217.139 58.2651 221.347 62.4674 226.537 62.4674Z" fill="#FFB6B6"/>
<path d="M244.344 118.187L247.652 129.197L238.832 193.055H232.861L229.645 144.978L225.97 161.493L244.712 185.348L239.934 190.853L212.924 164.612L213.475 124.059L215.68 117.82L244.344 118.187Z" fill="#2F2E41"/>
<path d="M234.416 60.792L233.682 60.8281C233.682 60.8281 233.026 54.9813 232.641 54.6328C232.256 54.2843 231.558 55.0536 231.558 55.0536C231.558 55.0536 228.531 53.3653 228.441 51.5325C228.35 49.6997 228.278 48.2335 227.177 48.2877C226.076 48.3419 219.908 50.1151 218.44 50.1873C216.972 50.2595 214.643 47.802 217.104 45.4763C219.564 43.1506 221.731 42.3091 222.08 41.9245C222.429 41.5399 224.726 39.9571 226.733 41.3281C228.741 42.6991 231.31 42.5727 231.31 42.5727C231.31 42.5727 236.136 43.4376 235.51 45.6731C234.885 47.9085 237.304 52.1988 236.311 54.4522C235.319 56.7057 234.416 60.792 234.416 60.792L234.416 60.792Z" fill="#2F2E41"/>
<path d="M232.585 191.953L239.2 192.687L239.935 204.798C239.935 204.798 239.567 210.67 233.32 209.936C227.073 209.202 228.91 203.33 228.91 203.33L232.585 191.953Z" fill="#2F2E41"/>
<path d="M241.221 183.33C241.221 183.33 245.998 181.128 246.733 183.697L248.203 188.834C248.203 188.834 248.203 193.972 248.571 194.339C248.938 194.706 255.92 204.248 249.673 209.386C249.673 209.386 246.366 209.753 244.528 204.615C242.691 199.477 237.178 194.339 237.178 194.339C237.178 194.339 236.111 191.77 237.931 191.954C239.751 192.137 242.323 187.733 241.588 186.265C240.853 184.798 241.221 183.33 241.221 183.33Z" fill="#2F2E41"/>
<path d="M180.547 135.383C178.837 134.664 178.368 131.906 179.5 129.222C179.938 128.144 180.627 127.186 181.511 126.429L182.832 123.403L182.785 123.371L186.582 108.258C187.465 104.743 189.896 101.779 193.235 100.361C195.221 99.5172 197.105 99.3648 197.653 101.386C198.563 104.739 192.64 115.542 189.069 121.619L186.287 128.437C186.362 129.599 186.158 130.761 185.691 131.827C184.559 134.51 182.256 136.102 180.547 135.383V135.383Z" fill="#FFB6B6"/>
<path d="M223.214 65.1562L235.341 65.5232L247.101 70.6612L245.263 101.122C245.263 101.122 247.468 108.095 246.366 109.196C245.263 110.297 246.366 115.233 245.631 115.334C244.896 115.435 245.631 120.743 245.631 120.743C245.631 120.743 235.341 117.27 226.521 119.472C217.702 121.674 214.762 118.004 214.762 118.004C214.762 118.004 212.557 109.196 212.557 107.361V69.8376L223.214 65.1562Z" fill="#3056D3"/>
<path d="M214.579 69.7431C214.579 69.7431 209.434 68.2751 206.862 71.9451C204.289 75.615 202.819 75.615 202.819 80.386C202.819 80.386 187.752 101.672 188.487 103.874L184.996 109.562L193.816 114.333C193.816 114.333 196.94 111.214 196.94 108.278C196.94 105.342 205.759 97.2679 205.759 97.2679C205.759 97.2679 213.477 87.3589 213.844 83.689C214.212 80.019 214.579 69.7431 214.579 69.7431Z" fill="#3056D3"/>
<path d="M259.888 137.254H310.48C319.051 137.254 325.999 144.193 325.999 152.752V193.281C325.999 201.84 319.051 208.779 310.48 208.779H259.888C251.317 208.779 244.369 201.84 244.369 193.281V152.752C244.369 144.193 251.317 137.254 259.888 137.254Z" fill="white"/>
<path d="M243.635 192.913V152.385C243.635 143.637 250.762 136.52 259.521 136.52H310.113C318.873 136.52 326 143.637 326 152.385V192.913C326 201.661 318.873 208.778 310.113 208.778H259.521C250.762 208.778 243.635 201.661 243.635 192.913ZM259.521 137.254C251.167 137.254 244.37 144.041 244.37 152.385V192.913C244.37 201.257 251.167 208.044 259.521 208.044H310.113C318.468 208.044 325.265 201.257 325.265 192.913V152.385C325.265 144.041 318.468 137.254 310.113 137.254H259.521Z" fill="#3F3D56"/>
<path d="M291.626 165.59H292.874L296.432 162.037L296.607 160.528C289.985 154.692 279.879 155.321 274.034 161.934C272.411 163.771 271.232 165.956 270.59 168.321C270.986 168.158 271.425 168.132 271.838 168.246L278.954 167.074C278.954 167.074 279.316 166.475 279.504 166.513C282.669 163.041 287.996 162.636 291.651 165.59H291.626V165.59Z" fill="#EA4335"/>
<path d="M301.5 168.321C300.682 165.313 299.003 162.609 296.669 160.541L291.675 165.528C293.784 167.249 294.985 169.841 294.933 172.56V173.445C297.388 173.445 299.378 175.432 299.378 177.883C299.378 180.335 297.388 182.322 294.933 182.322H286.045L285.158 183.219V188.543L286.045 189.428H294.933C301.318 189.478 306.534 184.349 306.583 177.974C306.614 174.109 304.706 170.486 301.5 168.321V168.321Z" fill="#4285F4"/>
<path d="M277.143 189.378H286.032V182.272H277.143C276.509 182.272 275.884 182.136 275.308 181.873L274.059 182.26L270.476 185.813L270.164 187.06C272.173 188.575 274.625 189.389 277.143 189.378Z" fill="#34A853"/>
<path d="M277.144 166.326C270.759 166.364 265.614 171.564 265.653 177.94C265.674 181.5 267.339 184.852 270.165 187.022L275.321 181.873C273.084 180.864 272.09 178.235 273.101 176.001C274.111 173.767 276.744 172.774 278.981 173.784C279.966 174.228 280.756 175.017 281.201 176.001L286.357 170.852C284.163 167.988 280.754 166.313 277.144 166.326L277.144 166.326Z" fill="#FBBC05"/>
<path d="M254.48 143.687C256.333 143.59 257.711 141.155 257.558 138.246C257.513 137.084 257.19 135.949 256.616 134.937L256.402 131.643L256.457 131.629L258.021 116.126C258.385 112.521 257.106 108.908 254.447 106.443C252.866 104.976 251.145 104.194 249.943 105.909C247.948 108.756 249.848 120.924 251.141 127.851L251.441 135.208C250.976 136.275 250.773 137.437 250.85 138.599C251.002 141.506 252.628 143.784 254.48 143.687Z" fill="#FFB6B6"/>
<path d="M244.777 70.4102C244.777 70.4102 250.116 70.7731 251.288 75.0971C252.461 79.4211 253.844 79.9193 252.222 84.4071C252.222 84.4071 259.161 109.536 257.721 111.358L259.072 117.893L249.154 119.391C249.154 119.391 247.276 115.398 248.274 112.636C249.272 109.875 243.719 99.2905 243.719 99.2905C243.719 99.2905 239.828 87.3541 240.729 83.7774C241.631 80.2007 244.777 70.4102 244.777 70.4102V70.4102Z" fill="#3056D3"/>
<defs>
<linearGradient id="paint0_linear_3062_4410" x1="163.502" y1="151.063" x2="151.762" y2="185.793" gradientUnits="userSpaceOnUse">
<stop stop-color="#114A8B"/>
<stop offset="1" stop-color="#0669BC"/>
</linearGradient>
<linearGradient id="paint1_linear_3062_4410" x1="167.178" y1="167.243" x2="164.457" y2="168.164" gradientUnits="userSpaceOnUse">
<stop stop-opacity="0.3"/>
<stop offset="0.071" stop-opacity="0.2"/>
<stop offset="0.321" stop-opacity="0.1"/>
<stop offset="0.623" stop-opacity="0.05"/>
<stop offset="1" stop-opacity="0"/>
</linearGradient>
<linearGradient id="paint2_linear_3062_4410" x1="165.767" y1="150.019" x2="178.654" y2="184.4" gradientUnits="userSpaceOnUse">
<stop stop-color="#3CCBF4"/>
<stop offset="1" stop-color="#2892DF"/>
</linearGradient>
</defs>
</svg>
