<svg width="120" height="120" viewBox="0 0 120 120" fill="none" xmlns="http://www.w3.org/2000/svg">
<mask id="mask0" style="mask-type:alpha" maskUnits="userSpaceOnUse" x="0" y="0" width="120" height="120">
<circle cx="60" cy="60" r="60" fill="#C4C4C4"/>
</mask>
<g mask="url(#mask0)">
<path d="M113.504 -54.992C112.677 -54.992 112.007 -55.6654 112.007 -56.496C112.007 -57.3266 112.677 -58 113.504 -58C114.33 -58 115 -57.3266 115 -56.496C115 -55.6654 114.33 -54.992 113.504 -54.992Z" fill="#3056D3"/>
<path d="M100.337 -54.992C99.5102 -54.992 98.8403 -55.6654 98.8403 -56.496C98.8403 -57.3266 99.5102 -58 100.337 -58C101.163 -58 101.833 -57.3266 101.833 -56.496C101.833 -55.6654 101.163 -54.992 100.337 -54.992Z" fill="#3056D3"/>
<path d="M87.1696 -54.992C86.3433 -54.992 85.6734 -55.6654 85.6734 -56.496C85.6734 -57.3266 86.3433 -58 87.1696 -58C87.996 -58 88.6659 -57.3266 88.6659 -56.496C88.6659 -55.6654 87.996 -54.992 87.1696 -54.992Z" fill="#3056D3"/>
<path d="M74.0025 -54.992C73.1761 -54.992 72.5062 -55.6654 72.5062 -56.496C72.5062 -57.3266 73.1761 -58 74.0025 -58C74.8288 -58 75.4987 -57.3266 75.4987 -56.496C75.4987 -55.6654 74.8288 -54.992 74.0025 -54.992Z" fill="#3056D3"/>
<path d="M60.8353 -54.992C60.0089 -54.992 59.3391 -55.6654 59.3391 -56.496C59.3391 -57.3266 60.0089 -58 60.8353 -58C61.6617 -58 62.3316 -57.3266 62.3316 -56.496C62.3316 -55.6654 61.6617 -54.992 60.8353 -54.992Z" fill="#3056D3"/>
<path d="M35.399 -54.992C34.5727 -54.992 33.9028 -55.6654 33.9028 -56.496C33.9028 -57.3266 34.5727 -58 35.399 -58C36.2254 -58 36.8953 -57.3266 36.8953 -56.496C36.8953 -55.6654 36.2254 -54.992 35.399 -54.992Z" fill="#3056D3"/>
<path d="M9.36407 -54.992C8.53771 -54.992 7.86781 -55.6654 7.86781 -56.496C7.86781 -57.3266 8.53771 -58 9.36407 -58C10.1904 -58 10.8603 -57.3266 10.8603 -56.496C10.8603 -55.6654 10.1904 -54.992 9.36407 -54.992Z" fill="#3056D3"/>
<path d="M47.9676 -54.992C47.1412 -54.992 46.4713 -55.6654 46.4713 -56.496C46.4713 -57.3266 47.1412 -58 47.9676 -58C48.794 -58 49.4639 -57.3266 49.4639 -56.496C49.4639 -55.6654 48.794 -54.992 47.9676 -54.992Z" fill="#3056D3"/>
<path d="M22.5312 -54.992C21.7049 -54.992 21.035 -55.6654 21.035 -56.496C21.035 -57.3266 21.7049 -58 22.5312 -58C23.3576 -58 24.0275 -57.3266 24.0275 -56.496C24.0275 -55.6654 23.3576 -54.992 22.5312 -54.992Z" fill="#3056D3"/>
<path d="M-3.50372 -54.992C-4.33009 -54.992 -4.99998 -55.6654 -4.99998 -56.496C-4.99998 -57.3266 -4.33009 -58 -3.50372 -58C-2.67736 -58 -2.00746 -57.3266 -2.00746 -56.496C-2.00746 -55.6654 -2.67736 -54.992 -3.50372 -54.992Z" fill="#3056D3"/>
<path d="M113.504 -41.7569C112.677 -41.7569 112.007 -42.4302 112.007 -43.2609C112.007 -44.0915 112.677 -44.7649 113.504 -44.7649C114.33 -44.7649 115 -44.0915 115 -43.2609C115 -42.4302 114.33 -41.7569 113.504 -41.7569Z" fill="#3056D3"/>
<path d="M100.337 -41.7569C99.5102 -41.7569 98.8403 -42.4302 98.8403 -43.2609C98.8403 -44.0915 99.5102 -44.7649 100.337 -44.7649C101.163 -44.7649 101.833 -44.0915 101.833 -43.2609C101.833 -42.4302 101.163 -41.7569 100.337 -41.7569Z" fill="#3056D3"/>
<path d="M87.1696 -41.7569C86.3433 -41.7569 85.6734 -42.4302 85.6734 -43.2609C85.6734 -44.0915 86.3433 -44.7649 87.1696 -44.7649C87.996 -44.7649 88.6659 -44.0915 88.6659 -43.2609C88.6659 -42.4302 87.996 -41.7569 87.1696 -41.7569Z" fill="#3056D3"/>
<path d="M74.0025 -41.7569C73.1761 -41.7569 72.5062 -42.4302 72.5062 -43.2609C72.5062 -44.0915 73.1761 -44.7649 74.0025 -44.7649C74.8288 -44.7649 75.4987 -44.0915 75.4987 -43.2609C75.4987 -42.4302 74.8288 -41.7569 74.0025 -41.7569Z" fill="#3056D3"/>
<path d="M60.8353 -41.7571C60.0089 -41.7571 59.3391 -42.4304 59.3391 -43.261C59.3391 -44.0917 60.0089 -44.765 60.8353 -44.765C61.6617 -44.765 62.3316 -44.0917 62.3316 -43.261C62.3316 -42.4304 61.6617 -41.7571 60.8353 -41.7571Z" fill="#3056D3"/>
<path d="M35.399 -41.7571C34.5727 -41.7571 33.9028 -42.4304 33.9028 -43.261C33.9028 -44.0917 34.5727 -44.765 35.399 -44.765C36.2254 -44.765 36.8953 -44.0917 36.8953 -43.261C36.8953 -42.4304 36.2254 -41.7571 35.399 -41.7571Z" fill="#3056D3"/>
<path d="M9.36407 -41.7571C8.53771 -41.7571 7.86781 -42.4304 7.86781 -43.261C7.86781 -44.0917 8.53771 -44.765 9.36407 -44.765C10.1904 -44.765 10.8603 -44.0917 10.8603 -43.261C10.8603 -42.4304 10.1904 -41.7571 9.36407 -41.7571Z" fill="#3056D3"/>
<path d="M47.9676 -41.7571C47.1412 -41.7571 46.4713 -42.4304 46.4713 -43.261C46.4713 -44.0917 47.1412 -44.765 47.9676 -44.765C48.7939 -44.765 49.4638 -44.0917 49.4638 -43.261C49.4638 -42.4304 48.7939 -41.7571 47.9676 -41.7571Z" fill="#3056D3"/>
<path d="M22.5312 -41.7571C21.7049 -41.7571 21.035 -42.4304 21.035 -43.261C21.035 -44.0917 21.7049 -44.765 22.5312 -44.765C23.3576 -44.765 24.0275 -44.0917 24.0275 -43.261C24.0275 -42.4304 23.3576 -41.7571 22.5312 -41.7571Z" fill="#3056D3"/>
<path d="M-3.50372 -41.7571C-4.33009 -41.7571 -4.99999 -42.4304 -4.99999 -43.261C-4.99999 -44.0917 -4.33009 -44.765 -3.50372 -44.765C-2.67736 -44.765 -2.00746 -44.0917 -2.00746 -43.261C-2.00746 -42.4304 -2.67736 -41.7571 -3.50372 -41.7571Z" fill="#3056D3"/>
<path d="M113.504 -28.5217C112.677 -28.5217 112.007 -29.1951 112.007 -30.0257C112.007 -30.8564 112.677 -31.5297 113.504 -31.5297C114.33 -31.5297 115 -30.8564 115 -30.0257C115 -29.1951 114.33 -28.5217 113.504 -28.5217Z" fill="#3056D3"/>
<path d="M113.504 10.883C112.677 10.883 112.007 10.2097 112.007 9.37902C112.007 8.54839 112.677 7.87502 113.504 7.87502C114.33 7.87502 115 8.54839 115 9.37902C115 10.2097 114.33 10.883 113.504 10.883Z" fill="#3056D3"/>
<path d="M100.337 -28.5217C99.5102 -28.5217 98.8403 -29.1951 98.8403 -30.0257C98.8403 -30.8564 99.5102 -31.5297 100.337 -31.5297C101.163 -31.5297 101.833 -30.8564 101.833 -30.0257C101.833 -29.1951 101.163 -28.5217 100.337 -28.5217Z" fill="#3056D3"/>
<path d="M100.337 10.883C99.5102 10.883 98.8403 10.2097 98.8403 9.37902C98.8403 8.54838 99.5102 7.87502 100.337 7.87502C101.163 7.87502 101.833 8.54839 101.833 9.37902C101.833 10.2097 101.163 10.883 100.337 10.883Z" fill="#3056D3"/>
<path d="M87.1696 -28.5217C86.3433 -28.5217 85.6734 -29.1951 85.6734 -30.0257C85.6734 -30.8564 86.3433 -31.5297 87.1696 -31.5297C87.996 -31.5297 88.6659 -30.8564 88.6659 -30.0257C88.6659 -29.1951 87.996 -28.5217 87.1696 -28.5217Z" fill="#3056D3"/>
<path d="M87.1696 10.883C86.3433 10.883 85.6734 10.2097 85.6734 9.37902C85.6734 8.54838 86.3433 7.87502 87.1696 7.87502C87.996 7.87502 88.6659 8.54838 88.6659 9.37902C88.6659 10.2097 87.996 10.883 87.1696 10.883Z" fill="#3056D3"/>
<path d="M74.0025 -28.5217C73.1761 -28.5217 72.5062 -29.1951 72.5062 -30.0257C72.5062 -30.8564 73.1761 -31.5297 74.0025 -31.5297C74.8288 -31.5297 75.4987 -30.8564 75.4987 -30.0257C75.4987 -29.1951 74.8288 -28.5217 74.0025 -28.5217Z" fill="#3056D3"/>
<path d="M74.0025 10.883C73.1761 10.883 72.5062 10.2097 72.5062 9.37902C72.5062 8.54838 73.1761 7.87502 74.0025 7.87502C74.8288 7.87502 75.4987 8.54838 75.4987 9.37902C75.4987 10.2097 74.8288 10.883 74.0025 10.883Z" fill="#3056D3"/>
<path d="M60.8353 -28.5216C60.0089 -28.5216 59.3391 -29.1949 59.3391 -30.0256C59.3391 -30.8562 60.0089 -31.5296 60.8353 -31.5296C61.6617 -31.5296 62.3316 -30.8562 62.3316 -30.0256C62.3316 -29.1949 61.6617 -28.5216 60.8353 -28.5216Z" fill="#3056D3"/>
<path d="M60.8353 10.8832C60.0089 10.8832 59.3391 10.2098 59.3391 9.37919C59.3391 8.54856 60.0089 7.8752 60.8353 7.8752C61.6617 7.8752 62.3316 8.54856 62.3316 9.37919C62.3316 10.2098 61.6617 10.8832 60.8353 10.8832Z" fill="#3056D3"/>
<path d="M35.399 -28.5216C34.5727 -28.5216 33.9028 -29.1949 33.9028 -30.0256C33.9028 -30.8562 34.5727 -31.5296 35.399 -31.5296C36.2254 -31.5296 36.8953 -30.8562 36.8953 -30.0256C36.8953 -29.1949 36.2254 -28.5216 35.399 -28.5216Z" fill="#3056D3"/>
<path d="M35.399 10.8832C34.5727 10.8832 33.9028 10.2098 33.9028 9.37918C33.9028 8.54856 34.5727 7.87519 35.399 7.87519C36.2254 7.87519 36.8953 8.54856 36.8953 9.37919C36.8953 10.2098 36.2254 10.8832 35.399 10.8832Z" fill="#3056D3"/>
<path d="M9.36407 -28.5216C8.53771 -28.5216 7.86781 -29.1949 7.86781 -30.0256C7.86781 -30.8562 8.53771 -31.5296 9.36407 -31.5296C10.1904 -31.5296 10.8603 -30.8562 10.8603 -30.0256C10.8603 -29.1949 10.1904 -28.5216 9.36407 -28.5216Z" fill="#3056D3"/>
<path d="M9.36407 10.8832C8.53771 10.8832 7.86781 10.2098 7.86781 9.37918C7.86781 8.54856 8.53771 7.87519 9.36407 7.87519C10.1904 7.87519 10.8603 8.54856 10.8603 9.37918C10.8603 10.2098 10.1904 10.8832 9.36407 10.8832Z" fill="#3056D3"/>
<path d="M47.9676 -28.5216C47.1412 -28.5216 46.4713 -29.1949 46.4713 -30.0256C46.4713 -30.8562 47.1412 -31.5296 47.9676 -31.5296C48.7939 -31.5296 49.4638 -30.8562 49.4638 -30.0256C49.4638 -29.1949 48.7939 -28.5216 47.9676 -28.5216Z" fill="#3056D3"/>
<path d="M47.9676 10.8832C47.1412 10.8832 46.4713 10.2098 46.4713 9.37919C46.4713 8.54856 47.1412 7.8752 47.9676 7.8752C48.7939 7.8752 49.4638 8.54856 49.4638 9.37919C49.4638 10.2098 48.7939 10.8832 47.9676 10.8832Z" fill="#3056D3"/>
<path d="M22.5312 -28.5216C21.7049 -28.5216 21.035 -29.1949 21.035 -30.0256C21.035 -30.8562 21.7049 -31.5296 22.5312 -31.5296C23.3576 -31.5296 24.0275 -30.8562 24.0275 -30.0256C24.0275 -29.1949 23.3576 -28.5216 22.5312 -28.5216Z" fill="#3056D3"/>
<path d="M22.5312 10.8832C21.7049 10.8832 21.035 10.2098 21.035 9.37918C21.035 8.54856 21.7049 7.87519 22.5312 7.87519C23.3576 7.87519 24.0275 8.54856 24.0275 9.37918C24.0275 10.2098 23.3576 10.8832 22.5312 10.8832Z" fill="#3056D3"/>
<path d="M-3.50372 -28.5216C-4.33009 -28.5216 -4.99999 -29.1949 -4.99999 -30.0256C-4.99999 -30.8562 -4.33009 -31.5296 -3.50372 -31.5296C-2.67736 -31.5296 -2.00746 -30.8562 -2.00746 -30.0256C-2.00746 -29.1949 -2.67736 -28.5216 -3.50372 -28.5216Z" fill="#3056D3"/>
<path d="M-3.50373 10.8832C-4.33009 10.8832 -4.99999 10.2098 -4.99999 9.37918C-4.99999 8.54856 -4.33009 7.87519 -3.50373 7.87519C-2.67736 7.87519 -2.00746 8.54856 -2.00746 9.37918C-2.00746 10.2098 -2.67736 10.8832 -3.50373 10.8832Z" fill="#3056D3"/>
<path d="M113.504 -15.2866C112.677 -15.2866 112.007 -15.96 112.007 -16.7906C112.007 -17.6212 112.677 -18.2946 113.504 -18.2946C114.33 -18.2946 115 -17.6212 115 -16.7906C115 -15.96 114.33 -15.2866 113.504 -15.2866Z" fill="#3056D3"/>
<path d="M113.504 24.1181C112.677 24.1181 112.007 23.4448 112.007 22.6142C112.007 21.7835 112.677 21.1102 113.504 21.1102C114.33 21.1102 115 21.7835 115 22.6142C115 23.4448 114.33 24.1181 113.504 24.1181Z" fill="#3056D3"/>
<path d="M100.337 -15.2866C99.5102 -15.2866 98.8403 -15.96 98.8403 -16.7906C98.8403 -17.6212 99.5102 -18.2946 100.337 -18.2946C101.163 -18.2946 101.833 -17.6212 101.833 -16.7906C101.833 -15.96 101.163 -15.2866 100.337 -15.2866Z" fill="#3056D3"/>
<path d="M100.337 24.1181C99.5102 24.1181 98.8403 23.4448 98.8403 22.6142C98.8403 21.7835 99.5102 21.1102 100.337 21.1102C101.163 21.1102 101.833 21.7835 101.833 22.6142C101.833 23.4448 101.163 24.1181 100.337 24.1181Z" fill="#3056D3"/>
<path d="M87.1696 -15.2866C86.3433 -15.2866 85.6734 -15.96 85.6734 -16.7906C85.6734 -17.6212 86.3433 -18.2946 87.1696 -18.2946C87.996 -18.2946 88.6659 -17.6212 88.6659 -16.7906C88.6659 -15.96 87.996 -15.2866 87.1696 -15.2866Z" fill="#3056D3"/>
<path d="M87.1696 24.1181C86.3433 24.1181 85.6734 23.4448 85.6734 22.6141C85.6734 21.7835 86.3433 21.1102 87.1696 21.1102C87.996 21.1102 88.6659 21.7835 88.6659 22.6141C88.6659 23.4448 87.996 24.1181 87.1696 24.1181Z" fill="#3056D3"/>
<path d="M74.0025 -15.2866C73.1761 -15.2866 72.5062 -15.96 72.5062 -16.7906C72.5062 -17.6212 73.1761 -18.2946 74.0025 -18.2946C74.8288 -18.2946 75.4987 -17.6212 75.4987 -16.7906C75.4987 -15.96 74.8288 -15.2866 74.0025 -15.2866Z" fill="#3056D3"/>
<path d="M74.0025 24.1181C73.1761 24.1181 72.5062 23.4448 72.5062 22.6141C72.5062 21.7835 73.1761 21.1102 74.0025 21.1102C74.8288 21.1102 75.4987 21.7835 75.4987 22.6141C75.4987 23.4448 74.8288 24.1181 74.0025 24.1181Z" fill="#3056D3"/>
<path d="M60.8353 -15.2866C60.0089 -15.2866 59.3391 -15.96 59.3391 -16.7906C59.3391 -17.6212 60.0089 -18.2946 60.8353 -18.2946C61.6617 -18.2946 62.3316 -17.6212 62.3316 -16.7906C62.3316 -15.96 61.6617 -15.2866 60.8353 -15.2866Z" fill="#3056D3"/>
<path d="M60.8353 24.1181C60.0089 24.1181 59.3391 23.4448 59.3391 22.6141C59.3391 21.7835 60.0089 21.1102 60.8353 21.1102C61.6617 21.1102 62.3316 21.7835 62.3316 22.6141C62.3316 23.4448 61.6617 24.1181 60.8353 24.1181Z" fill="#3056D3"/>
<path d="M35.399 -15.2866C34.5727 -15.2866 33.9028 -15.96 33.9028 -16.7906C33.9028 -17.6212 34.5727 -18.2946 35.399 -18.2946C36.2254 -18.2946 36.8953 -17.6212 36.8953 -16.7906C36.8953 -15.96 36.2254 -15.2866 35.399 -15.2866Z" fill="#3056D3"/>
<path d="M35.399 24.1181C34.5727 24.1181 33.9028 23.4448 33.9028 22.6141C33.9028 21.7835 34.5727 21.1101 35.399 21.1101C36.2254 21.1101 36.8953 21.7835 36.8953 22.6141C36.8953 23.4448 36.2254 24.1181 35.399 24.1181Z" fill="#3056D3"/>
<path d="M9.36407 -15.2866C8.53771 -15.2866 7.86781 -15.96 7.86781 -16.7906C7.86781 -17.6212 8.53771 -18.2946 9.36407 -18.2946C10.1904 -18.2946 10.8603 -17.6212 10.8603 -16.7906C10.8603 -15.96 10.1904 -15.2866 9.36407 -15.2866Z" fill="#3056D3"/>
<path d="M9.36407 24.1181C8.53771 24.1181 7.86781 23.4448 7.86781 22.6141C7.86781 21.7835 8.53771 21.1101 9.36407 21.1101C10.1904 21.1101 10.8603 21.7835 10.8603 22.6141C10.8603 23.4448 10.1904 24.1181 9.36407 24.1181Z" fill="#3056D3"/>
<path d="M47.9676 -15.2866C47.1412 -15.2866 46.4713 -15.96 46.4713 -16.7906C46.4713 -17.6212 47.1412 -18.2946 47.9676 -18.2946C48.7939 -18.2946 49.4638 -17.6212 49.4638 -16.7906C49.4638 -15.96 48.7939 -15.2866 47.9676 -15.2866Z" fill="#3056D3"/>
<path d="M47.9676 24.1181C47.1412 24.1181 46.4713 23.4448 46.4713 22.6141C46.4713 21.7835 47.1412 21.1102 47.9676 21.1102C48.7939 21.1102 49.4638 21.7835 49.4638 22.6141C49.4638 23.4448 48.7939 24.1181 47.9676 24.1181Z" fill="#3056D3"/>
<path d="M22.5312 -15.2866C21.7049 -15.2866 21.035 -15.96 21.035 -16.7906C21.035 -17.6212 21.7049 -18.2946 22.5312 -18.2946C23.3576 -18.2946 24.0275 -17.6212 24.0275 -16.7906C24.0275 -15.96 23.3576 -15.2866 22.5312 -15.2866Z" fill="#3056D3"/>
<path d="M22.5312 24.1181C21.7049 24.1181 21.035 23.4448 21.035 22.6141C21.035 21.7835 21.7049 21.1101 22.5312 21.1101C23.3576 21.1101 24.0275 21.7835 24.0275 22.6141C24.0275 23.4448 23.3576 24.1181 22.5312 24.1181Z" fill="#3056D3"/>
<path d="M-3.50373 -15.2866C-4.33009 -15.2866 -4.99999 -15.96 -4.99999 -16.7906C-4.99999 -17.6212 -4.33009 -18.2946 -3.50372 -18.2946C-2.67736 -18.2946 -2.00746 -17.6212 -2.00746 -16.7906C-2.00746 -15.96 -2.67736 -15.2866 -3.50373 -15.2866Z" fill="#3056D3"/>
<path d="M-3.50373 24.1181C-4.33009 24.1181 -4.99999 23.4448 -4.99999 22.6141C-4.99999 21.7835 -4.33009 21.1101 -3.50373 21.1101C-2.67736 21.1101 -2.00747 21.7835 -2.00747 22.6141C-2.00747 23.4448 -2.67736 24.1181 -3.50373 24.1181Z" fill="#3056D3"/>
<path d="M113.504 -2.0513C112.677 -2.0513 112.007 -2.72466 112.007 -3.55529C112.007 -4.38593 112.677 -5.05929 113.504 -5.05929C114.33 -5.05929 115 -4.38593 115 -3.55529C115 -2.72466 114.33 -2.0513 113.504 -2.0513Z" fill="#3056D3"/>
<path d="M113.504 37.3535C112.677 37.3535 112.007 36.6801 112.007 35.8495C112.007 35.0188 112.677 34.3455 113.504 34.3455C114.33 34.3455 115 35.0188 115 35.8495C115 36.6801 114.33 37.3535 113.504 37.3535Z" fill="#3056D3"/>
<path d="M100.337 -2.0513C99.5102 -2.0513 98.8403 -2.72466 98.8403 -3.55529C98.8403 -4.38593 99.5102 -5.05929 100.337 -5.05929C101.163 -5.05929 101.833 -4.38593 101.833 -3.55529C101.833 -2.72466 101.163 -2.0513 100.337 -2.0513Z" fill="#3056D3"/>
<path d="M100.337 37.3535C99.5102 37.3535 98.8403 36.6801 98.8403 35.8495C98.8403 35.0188 99.5102 34.3455 100.337 34.3455C101.163 34.3455 101.833 35.0188 101.833 35.8495C101.833 36.6801 101.163 37.3535 100.337 37.3535Z" fill="#3056D3"/>
<path d="M87.1696 -2.05131C86.3433 -2.05131 85.6734 -2.72466 85.6734 -3.5553C85.6734 -4.38593 86.3433 -5.05929 87.1696 -5.05929C87.996 -5.05929 88.6659 -4.38593 88.6659 -3.5553C88.6659 -2.72466 87.996 -2.05131 87.1696 -2.05131Z" fill="#3056D3"/>
<path d="M87.1696 37.3535C86.3433 37.3535 85.6734 36.6801 85.6734 35.8495C85.6734 35.0188 86.3433 34.3455 87.1696 34.3455C87.996 34.3455 88.6659 35.0188 88.6659 35.8495C88.6659 36.6801 87.996 37.3535 87.1696 37.3535Z" fill="#3056D3"/>
<path d="M74.0025 -2.05131C73.1761 -2.05131 72.5062 -2.72466 72.5062 -3.5553C72.5062 -4.38593 73.1761 -5.05929 74.0025 -5.05929C74.8288 -5.05929 75.4987 -4.38593 75.4987 -3.5553C75.4987 -2.72466 74.8288 -2.05131 74.0025 -2.05131Z" fill="#3056D3"/>
<path d="M74.0025 37.3535C73.1761 37.3535 72.5062 36.6801 72.5062 35.8495C72.5062 35.0188 73.1761 34.3455 74.0025 34.3455C74.8288 34.3455 75.4987 35.0188 75.4987 35.8495C75.4987 36.6801 74.8288 37.3535 74.0025 37.3535Z" fill="#3056D3"/>
<path d="M60.8353 -2.05147C60.0089 -2.05147 59.3391 -2.72483 59.3391 -3.55547C59.3391 -4.3861 60.0089 -5.05946 60.8353 -5.05946C61.6617 -5.05946 62.3316 -4.3861 62.3316 -3.55547C62.3316 -2.72483 61.6617 -2.05147 60.8353 -2.05147Z" fill="#3056D3"/>
<path d="M60.8353 37.3531C60.0089 37.3531 59.339 36.6797 59.3391 35.8491C59.3391 35.0185 60.0089 34.3451 60.8353 34.3451C61.6617 34.3451 62.3316 35.0185 62.3316 35.8491C62.3316 36.6797 61.6617 37.3531 60.8353 37.3531Z" fill="#3056D3"/>
<path d="M35.399 -2.05148C34.5727 -2.05148 33.9028 -2.72483 33.9028 -3.55547C33.9028 -4.3861 34.5727 -5.05946 35.399 -5.05946C36.2254 -5.05946 36.8953 -4.3861 36.8953 -3.55547C36.8953 -2.72483 36.2254 -2.05148 35.399 -2.05148Z" fill="#3056D3"/>
<path d="M35.3989 37.3531C34.5726 37.3531 33.9027 36.6797 33.9027 35.8491C33.9027 35.0185 34.5726 34.3451 35.3989 34.3451C36.2253 34.3451 36.8952 35.0185 36.8952 35.8491C36.8952 36.6797 36.2253 37.3531 35.3989 37.3531Z" fill="#3056D3"/>
<path d="M9.36407 -2.05148C8.53771 -2.05148 7.86781 -2.72484 7.86781 -3.55547C7.86781 -4.3861 8.53771 -5.05946 9.36407 -5.05946C10.1904 -5.05946 10.8603 -4.3861 10.8603 -3.55547C10.8603 -2.72484 10.1904 -2.05148 9.36407 -2.05148Z" fill="#3056D3"/>
<path d="M9.36407 37.3531C8.53771 37.3531 7.86781 36.6797 7.86781 35.8491C7.86781 35.0185 8.53771 34.3451 9.36407 34.3451C10.1904 34.3451 10.8603 35.0185 10.8603 35.8491C10.8603 36.6797 10.1904 37.3531 9.36407 37.3531Z" fill="#3056D3"/>
<path d="M47.9676 -2.05147C47.1412 -2.05147 46.4713 -2.72483 46.4713 -3.55547C46.4713 -4.3861 47.1412 -5.05946 47.9676 -5.05946C48.7939 -5.05946 49.4638 -4.3861 49.4638 -3.55547C49.4638 -2.72483 48.7939 -2.05147 47.9676 -2.05147Z" fill="#3056D3"/>
<path d="M47.9676 37.3531C47.1412 37.3531 46.4713 36.6797 46.4713 35.8491C46.4713 35.0185 47.1412 34.3451 47.9676 34.3451C48.7939 34.3451 49.4638 35.0185 49.4638 35.8491C49.4638 36.6797 48.7939 37.3531 47.9676 37.3531Z" fill="#3056D3"/>
<path d="M22.5312 -2.05148C21.7049 -2.05148 21.035 -2.72483 21.035 -3.55547C21.035 -4.3861 21.7049 -5.05946 22.5312 -5.05946C23.3576 -5.05946 24.0275 -4.3861 24.0275 -3.55547C24.0275 -2.72483 23.3576 -2.05148 22.5312 -2.05148Z" fill="#3056D3"/>
<path d="M22.5312 37.3531C21.7049 37.3531 21.035 36.6797 21.035 35.8491C21.035 35.0185 21.7049 34.3451 22.5312 34.3451C23.3576 34.3451 24.0275 35.0185 24.0275 35.8491C24.0275 36.6797 23.3576 37.3531 22.5312 37.3531Z" fill="#3056D3"/>
<path d="M-3.50373 -2.05148C-4.33009 -2.05148 -4.99999 -2.72484 -4.99999 -3.55547C-4.99999 -4.3861 -4.33009 -5.05946 -3.50373 -5.05946C-2.67736 -5.05946 -2.00746 -4.3861 -2.00746 -3.55547C-2.00746 -2.72484 -2.67736 -2.05148 -3.50373 -2.05148Z" fill="#3056D3"/>
<path d="M-3.50373 37.3531C-4.33009 37.3531 -4.99999 36.6797 -4.99999 35.8491C-4.99999 35.0185 -4.33009 34.3451 -3.50373 34.3451C-2.67736 34.3451 -2.00747 35.0185 -2.00747 35.8491C-2.00747 36.6797 -2.67736 37.3531 -3.50373 37.3531Z" fill="#3056D3"/>
<path d="M113.504 49.6545C112.677 49.6545 112.007 48.9812 112.007 48.1506C112.007 47.3199 112.677 46.6466 113.504 46.6466C114.33 46.6466 115 47.3199 115 48.1506C115 48.9812 114.33 49.6545 113.504 49.6545Z" fill="#3056D3"/>
<path d="M100.337 49.6545C99.5102 49.6545 98.8403 48.9812 98.8403 48.1506C98.8403 47.3199 99.5102 46.6466 100.337 46.6466C101.163 46.6466 101.833 47.3199 101.833 48.1506C101.833 48.9812 101.163 49.6545 100.337 49.6545Z" fill="#3056D3"/>
<path d="M87.1696 49.6545C86.3433 49.6545 85.6734 48.9812 85.6734 48.1505C85.6734 47.3199 86.3433 46.6466 87.1696 46.6466C87.996 46.6466 88.6659 47.3199 88.6659 48.1505C88.6659 48.9812 87.996 49.6545 87.1696 49.6545Z" fill="#3056D3"/>
<path d="M74.0025 49.6545C73.1761 49.6545 72.5062 48.9812 72.5062 48.1505C72.5062 47.3199 73.1761 46.6466 74.0025 46.6466C74.8288 46.6466 75.4987 47.3199 75.4987 48.1505C75.4987 48.9812 74.8288 49.6545 74.0025 49.6545Z" fill="#3056D3"/>
<path d="M60.8353 49.6545C60.0089 49.6545 59.339 48.9812 59.339 48.1505C59.339 47.3199 60.0089 46.6466 60.8353 46.6466C61.6617 46.6466 62.3316 47.3199 62.3316 48.1505C62.3316 48.9812 61.6617 49.6545 60.8353 49.6545Z" fill="#3056D3"/>
<path d="M35.399 49.6545C34.5727 49.6545 33.9028 48.9812 33.9028 48.1505C33.9028 47.3199 34.5727 46.6465 35.399 46.6465C36.2254 46.6465 36.8953 47.3199 36.8953 48.1505C36.8953 48.9812 36.2254 49.6545 35.399 49.6545Z" fill="#3056D3"/>
<path d="M9.36407 49.6545C8.53771 49.6545 7.86781 48.9812 7.86781 48.1505C7.86781 47.3199 8.53771 46.6465 9.36407 46.6465C10.1904 46.6465 10.8603 47.3199 10.8603 48.1505C10.8603 48.9812 10.1904 49.6545 9.36407 49.6545Z" fill="#3056D3"/>
<path d="M47.9676 49.6545C47.1412 49.6545 46.4713 48.9812 46.4713 48.1505C46.4713 47.3199 47.1412 46.6466 47.9676 46.6466C48.794 46.6466 49.4639 47.3199 49.4639 48.1505C49.4639 48.9812 48.794 49.6545 47.9676 49.6545Z" fill="#3056D3"/>
<path d="M22.5312 49.6545C21.7049 49.6545 21.035 48.9812 21.035 48.1505C21.035 47.3199 21.7049 46.6465 22.5312 46.6465C23.3576 46.6465 24.0275 47.3199 24.0275 48.1505C24.0275 48.9812 23.3576 49.6545 22.5312 49.6545Z" fill="#3056D3"/>
<path d="M-3.50373 49.6545C-4.33009 49.6545 -4.99999 48.9812 -4.99999 48.1505C-4.99999 47.3199 -4.33009 46.6465 -3.50373 46.6465C-2.67737 46.6465 -2.00747 47.3199 -2.00747 48.1505C-2.00747 48.9812 -2.67737 49.6545 -3.50373 49.6545Z" fill="#3056D3"/>
<path d="M113.504 62.8897C112.677 62.8897 112.007 62.2163 112.007 61.3857C112.007 60.5551 112.677 59.8817 113.504 59.8817C114.33 59.8817 115 60.5551 115 61.3857C115 62.2163 114.33 62.8897 113.504 62.8897Z" fill="#3056D3"/>
<path d="M100.337 62.8897C99.5102 62.8897 98.8403 62.2163 98.8403 61.3857C98.8403 60.5551 99.5102 59.8817 100.337 59.8817C101.163 59.8817 101.833 60.5551 101.833 61.3857C101.833 62.2163 101.163 62.8897 100.337 62.8897Z" fill="#3056D3"/>
<path d="M87.1696 62.8897C86.3433 62.8897 85.6734 62.2163 85.6734 61.3857C85.6734 60.5551 86.3433 59.8817 87.1696 59.8817C87.996 59.8817 88.6659 60.5551 88.6659 61.3857C88.6659 62.2163 87.996 62.8897 87.1696 62.8897Z" fill="#3056D3"/>
<path d="M74.0025 62.8897C73.1761 62.8897 72.5062 62.2163 72.5062 61.3857C72.5062 60.5551 73.1761 59.8817 74.0025 59.8817C74.8288 59.8817 75.4987 60.5551 75.4987 61.3857C75.4987 62.2163 74.8288 62.8897 74.0025 62.8897Z" fill="#3056D3"/>
<path d="M60.8353 62.8895C60.0089 62.8895 59.339 62.2161 59.339 61.3855C59.339 60.5549 60.0089 59.8815 60.8353 59.8815C61.6617 59.8815 62.3316 60.5549 62.3316 61.3855C62.3316 62.2161 61.6617 62.8895 60.8353 62.8895Z" fill="#3056D3"/>
<path d="M35.399 62.8895C34.5727 62.8895 33.9028 62.2161 33.9028 61.3855C33.9028 60.5549 34.5727 59.8815 35.399 59.8815C36.2254 59.8815 36.8953 60.5549 36.8953 61.3855C36.8953 62.2161 36.2254 62.8895 35.399 62.8895Z" fill="#3056D3"/>
<path d="M9.36407 62.8895C8.53771 62.8895 7.86781 62.2161 7.86781 61.3855C7.86781 60.5549 8.53771 59.8815 9.36407 59.8815C10.1904 59.8815 10.8603 60.5549 10.8603 61.3855C10.8603 62.2161 10.1904 62.8895 9.36407 62.8895Z" fill="#3056D3"/>
<path d="M47.9676 62.8895C47.1412 62.8895 46.4713 62.2161 46.4713 61.3855C46.4713 60.5549 47.1412 59.8815 47.9676 59.8815C48.7939 59.8815 49.4638 60.5549 49.4638 61.3855C49.4638 62.2161 48.7939 62.8895 47.9676 62.8895Z" fill="#3056D3"/>
<path d="M22.5312 62.8895C21.7049 62.8895 21.035 62.2161 21.035 61.3855C21.035 60.5549 21.7049 59.8815 22.5312 59.8815C23.3576 59.8815 24.0275 60.5549 24.0275 61.3855C24.0275 62.2161 23.3576 62.8895 22.5312 62.8895Z" fill="#3056D3"/>
<path d="M-3.50373 62.8895C-4.33009 62.8895 -4.99999 62.2161 -4.99999 61.3855C-4.99999 60.5549 -4.33009 59.8815 -3.50373 59.8815C-2.67737 59.8815 -2.00747 60.5549 -2.00747 61.3855C-2.00747 62.2161 -2.67737 62.8895 -3.50373 62.8895Z" fill="#3056D3"/>
<path d="M113.504 76.1248C112.677 76.1248 112.007 75.4514 112.007 74.6208C112.007 73.7902 112.677 73.1168 113.504 73.1168C114.33 73.1168 115 73.7902 115 74.6208C115 75.4514 114.33 76.1248 113.504 76.1248Z" fill="#3056D3"/>
<path d="M113.504 115.53C112.677 115.53 112.007 114.856 112.007 114.026C112.007 113.195 112.677 112.522 113.504 112.522C114.33 112.522 115 113.195 115 114.026C115 114.856 114.33 115.53 113.504 115.53Z" fill="#3056D3"/>
<path d="M100.337 76.1248C99.5102 76.1248 98.8403 75.4514 98.8403 74.6208C98.8403 73.7902 99.5102 73.1168 100.337 73.1168C101.163 73.1168 101.833 73.7902 101.833 74.6208C101.833 75.4514 101.163 76.1248 100.337 76.1248Z" fill="#3056D3"/>
<path d="M100.337 115.53C99.5102 115.53 98.8403 114.856 98.8403 114.026C98.8403 113.195 99.5102 112.522 100.337 112.522C101.163 112.522 101.833 113.195 101.833 114.026C101.833 114.856 101.163 115.53 100.337 115.53Z" fill="#3056D3"/>
<path d="M87.1696 76.1248C86.3433 76.1248 85.6734 75.4514 85.6734 74.6208C85.6734 73.7902 86.3433 73.1168 87.1696 73.1168C87.996 73.1168 88.6659 73.7902 88.6659 74.6208C88.6659 75.4514 87.996 76.1248 87.1696 76.1248Z" fill="#3056D3"/>
<path d="M87.1696 115.53C86.3433 115.53 85.6734 114.856 85.6734 114.026C85.6734 113.195 86.3433 112.522 87.1696 112.522C87.996 112.522 88.6659 113.195 88.6659 114.026C88.6659 114.856 87.996 115.53 87.1696 115.53Z" fill="#3056D3"/>
<path d="M74.0025 76.1248C73.1761 76.1248 72.5062 75.4514 72.5062 74.6208C72.5062 73.7902 73.1761 73.1168 74.0025 73.1168C74.8288 73.1168 75.4987 73.7902 75.4987 74.6208C75.4987 75.4514 74.8288 76.1248 74.0025 76.1248Z" fill="#3056D3"/>
<path d="M74.0025 115.53C73.1761 115.53 72.5062 114.856 72.5062 114.026C72.5062 113.195 73.1761 112.522 74.0025 112.522C74.8288 112.522 75.4987 113.195 75.4987 114.026C75.4987 114.856 74.8288 115.53 74.0025 115.53Z" fill="#3056D3"/>
<path d="M60.8353 76.125C60.0089 76.125 59.339 75.4516 59.339 74.621C59.339 73.7904 60.0089 73.117 60.8353 73.117C61.6617 73.117 62.3316 73.7904 62.3316 74.621C62.3316 75.4516 61.6617 76.125 60.8353 76.125Z" fill="#3056D3"/>
<path d="M60.8353 115.53C60.0089 115.53 59.339 114.856 59.339 114.026C59.339 113.195 60.0089 112.522 60.8353 112.522C61.6617 112.522 62.3316 113.195 62.3316 114.026C62.3316 114.856 61.6617 115.53 60.8353 115.53Z" fill="#3056D3"/>
<path d="M35.399 76.125C34.5727 76.125 33.9028 75.4516 33.9028 74.621C33.9028 73.7904 34.5727 73.117 35.399 73.117C36.2254 73.117 36.8953 73.7904 36.8953 74.621C36.8953 75.4516 36.2254 76.125 35.399 76.125Z" fill="#3056D3"/>
<path d="M35.399 115.53C34.5727 115.53 33.9028 114.856 33.9028 114.026C33.9028 113.195 34.5727 112.522 35.399 112.522C36.2254 112.522 36.8953 113.195 36.8953 114.026C36.8953 114.856 36.2254 115.53 35.399 115.53Z" fill="#3056D3"/>
<path d="M9.36407 76.125C8.53771 76.125 7.86781 75.4516 7.86781 74.621C7.86781 73.7904 8.53771 73.117 9.36407 73.117C10.1904 73.117 10.8603 73.7904 10.8603 74.621C10.8603 75.4516 10.1904 76.125 9.36407 76.125Z" fill="#3056D3"/>
<path d="M9.36407 115.53C8.5377 115.53 7.86781 114.856 7.86781 114.026C7.86781 113.195 8.5377 112.522 9.36407 112.522C10.1904 112.522 10.8603 113.195 10.8603 114.026C10.8603 114.856 10.1904 115.53 9.36407 115.53Z" fill="#3056D3"/>
<path d="M47.9676 76.125C47.1412 76.125 46.4713 75.4516 46.4713 74.621C46.4713 73.7904 47.1412 73.117 47.9676 73.117C48.7939 73.117 49.4638 73.7904 49.4638 74.621C49.4638 75.4516 48.7939 76.125 47.9676 76.125Z" fill="#3056D3"/>
<path d="M47.9676 115.53C47.1412 115.53 46.4713 114.856 46.4713 114.026C46.4713 113.195 47.1412 112.522 47.9676 112.522C48.7939 112.522 49.4638 113.195 49.4638 114.026C49.4638 114.856 48.7939 115.53 47.9676 115.53Z" fill="#3056D3"/>
<path d="M22.5312 76.125C21.7049 76.125 21.035 75.4516 21.035 74.621C21.035 73.7904 21.7049 73.117 22.5312 73.117C23.3576 73.117 24.0275 73.7904 24.0275 74.621C24.0275 75.4516 23.3576 76.125 22.5312 76.125Z" fill="#3056D3"/>
<path d="M22.5312 115.53C21.7049 115.53 21.035 114.856 21.035 114.026C21.035 113.195 21.7049 112.522 22.5312 112.522C23.3576 112.522 24.0275 113.195 24.0275 114.026C24.0275 114.856 23.3576 115.53 22.5312 115.53Z" fill="#3056D3"/>
<path d="M-3.50373 76.125C-4.33009 76.125 -4.99999 75.4516 -4.99999 74.621C-4.99999 73.7904 -4.33009 73.117 -3.50373 73.117C-2.67737 73.117 -2.00747 73.7904 -2.00747 74.621C-2.00747 75.4516 -2.67737 76.125 -3.50373 76.125Z" fill="#3056D3"/>
<path d="M-3.50373 115.53C-4.33009 115.53 -4.99999 114.856 -4.99999 114.026C-4.99999 113.195 -4.33009 112.522 -3.50373 112.522C-2.67737 112.522 -2.00747 113.195 -2.00747 114.026C-2.00747 114.856 -2.67737 115.53 -3.50373 115.53Z" fill="#3056D3"/>
<path d="M113.504 89.36C112.677 89.36 112.007 88.6866 112.007 87.856C112.007 87.0253 112.677 86.352 113.504 86.352C114.33 86.352 115 87.0253 115 87.856C115 88.6866 114.33 89.36 113.504 89.36Z" fill="#3056D3"/>
<path d="M113.504 128.765C112.677 128.765 112.007 128.091 112.007 127.261C112.007 126.43 112.677 125.757 113.504 125.757C114.33 125.757 115 126.43 115 127.261C115 128.091 114.33 128.765 113.504 128.765Z" fill="#3056D3"/>
<path d="M100.337 89.36C99.5102 89.36 98.8403 88.6866 98.8403 87.856C98.8403 87.0253 99.5102 86.352 100.337 86.352C101.163 86.352 101.833 87.0253 101.833 87.856C101.833 88.6866 101.163 89.36 100.337 89.36Z" fill="#3056D3"/>
<path d="M100.337 128.765C99.5102 128.765 98.8403 128.091 98.8403 127.261C98.8403 126.43 99.5102 125.757 100.337 125.757C101.163 125.757 101.833 126.43 101.833 127.261C101.833 128.091 101.163 128.765 100.337 128.765Z" fill="#3056D3"/>
<path d="M87.1696 89.36C86.3433 89.36 85.6734 88.6866 85.6734 87.856C85.6734 87.0253 86.3433 86.352 87.1696 86.352C87.996 86.352 88.6659 87.0253 88.6659 87.856C88.6659 88.6866 87.996 89.36 87.1696 89.36Z" fill="#3056D3"/>
<path d="M87.1696 128.765C86.3433 128.765 85.6734 128.091 85.6734 127.261C85.6734 126.43 86.3433 125.757 87.1696 125.757C87.996 125.757 88.6659 126.43 88.6659 127.261C88.6659 128.091 87.996 128.765 87.1696 128.765Z" fill="#3056D3"/>
<path d="M74.0025 89.36C73.1761 89.36 72.5062 88.6866 72.5062 87.856C72.5062 87.0253 73.1761 86.352 74.0025 86.352C74.8288 86.352 75.4987 87.0253 75.4987 87.856C75.4987 88.6866 74.8288 89.36 74.0025 89.36Z" fill="#3056D3"/>
<path d="M74.0025 128.765C73.1761 128.765 72.5062 128.091 72.5062 127.261C72.5062 126.43 73.1761 125.757 74.0025 125.757C74.8288 125.757 75.4987 126.43 75.4987 127.261C75.4987 128.091 74.8288 128.765 74.0025 128.765Z" fill="#3056D3"/>
<path d="M60.8353 89.36C60.0089 89.36 59.339 88.6866 59.339 87.856C59.339 87.0253 60.0089 86.352 60.8353 86.352C61.6617 86.352 62.3316 87.0253 62.3316 87.856C62.3316 88.6866 61.6617 89.36 60.8353 89.36Z" fill="#3056D3"/>
<path d="M60.8353 128.765C60.0089 128.765 59.339 128.091 59.339 127.261C59.339 126.43 60.0089 125.757 60.8353 125.757C61.6617 125.757 62.3316 126.43 62.3316 127.261C62.3316 128.091 61.6617 128.765 60.8353 128.765Z" fill="#3056D3"/>
<path d="M35.399 89.36C34.5727 89.36 33.9028 88.6866 33.9028 87.856C33.9028 87.0253 34.5727 86.352 35.399 86.352C36.2254 86.352 36.8953 87.0253 36.8953 87.856C36.8953 88.6866 36.2254 89.36 35.399 89.36Z" fill="#3056D3"/>
<path d="M35.399 128.765C34.5727 128.765 33.9028 128.091 33.9028 127.261C33.9028 126.43 34.5727 125.757 35.399 125.757C36.2254 125.757 36.8953 126.43 36.8953 127.261C36.8953 128.091 36.2254 128.765 35.399 128.765Z" fill="#3056D3"/>
<path d="M9.36407 89.36C8.53771 89.36 7.86781 88.6866 7.86781 87.856C7.86781 87.0253 8.53771 86.352 9.36407 86.352C10.1904 86.352 10.8603 87.0253 10.8603 87.856C10.8603 88.6866 10.1904 89.36 9.36407 89.36Z" fill="#3056D3"/>
<path d="M9.36407 128.765C8.5377 128.765 7.8678 128.091 7.86781 127.261C7.86781 126.43 8.5377 125.757 9.36407 125.757C10.1904 125.757 10.8603 126.43 10.8603 127.261C10.8603 128.091 10.1904 128.765 9.36407 128.765Z" fill="#3056D3"/>
<path d="M47.9676 89.36C47.1412 89.36 46.4713 88.6866 46.4713 87.856C46.4713 87.0253 47.1412 86.352 47.9676 86.352C48.7939 86.352 49.4638 87.0253 49.4638 87.856C49.4638 88.6866 48.7939 89.36 47.9676 89.36Z" fill="#3056D3"/>
<path d="M47.9676 128.765C47.1412 128.765 46.4713 128.091 46.4713 127.261C46.4713 126.43 47.1412 125.757 47.9676 125.757C48.7939 125.757 49.4638 126.43 49.4638 127.261C49.4638 128.091 48.7939 128.765 47.9676 128.765Z" fill="#3056D3"/>
<path d="M22.5312 89.36C21.7049 89.36 21.035 88.6866 21.035 87.856C21.035 87.0253 21.7049 86.352 22.5312 86.352C23.3576 86.352 24.0275 87.0253 24.0275 87.856C24.0275 88.6866 23.3576 89.36 22.5312 89.36Z" fill="#3056D3"/>
<path d="M22.5312 128.765C21.7049 128.765 21.035 128.091 21.035 127.261C21.035 126.43 21.7049 125.757 22.5312 125.757C23.3576 125.757 24.0275 126.43 24.0275 127.261C24.0275 128.091 23.3576 128.765 22.5312 128.765Z" fill="#3056D3"/>
<path d="M-3.50373 89.3599C-4.33009 89.3599 -4.99999 88.6866 -4.99999 87.856C-4.99999 87.0253 -4.33009 86.352 -3.50373 86.352C-2.67737 86.352 -2.00747 87.0253 -2.00747 87.856C-2.00747 88.6866 -2.67737 89.3599 -3.50373 89.3599Z" fill="#3056D3"/>
<path d="M-3.50373 128.765C-4.33009 128.765 -4.99999 128.091 -4.99999 127.261C-4.99999 126.43 -4.33009 125.757 -3.50373 125.757C-2.67737 125.757 -2.00747 126.43 -2.00747 127.261C-2.00747 128.091 -2.67737 128.765 -3.50373 128.765Z" fill="#3056D3"/>
<path d="M113.504 102.595C112.677 102.595 112.007 101.922 112.007 101.091C112.007 100.261 112.677 99.5873 113.504 99.5873C114.33 99.5873 115 100.261 115 101.091C115 101.922 114.33 102.595 113.504 102.595Z" fill="#3056D3"/>
<path d="M113.504 142C112.677 142 112.007 141.327 112.007 140.496C112.007 139.665 112.677 138.992 113.504 138.992C114.33 138.992 115 139.665 115 140.496C115 141.327 114.33 142 113.504 142Z" fill="#3056D3"/>
<path d="M100.337 102.595C99.5102 102.595 98.8403 101.922 98.8403 101.091C98.8403 100.261 99.5102 99.5873 100.337 99.5873C101.163 99.5873 101.833 100.261 101.833 101.091C101.833 101.922 101.163 102.595 100.337 102.595Z" fill="#3056D3"/>
<path d="M100.337 142C99.5102 142 98.8403 141.327 98.8403 140.496C98.8403 139.665 99.5102 138.992 100.337 138.992C101.163 138.992 101.833 139.665 101.833 140.496C101.833 141.327 101.163 142 100.337 142Z" fill="#3056D3"/>
<path d="M87.1696 102.595C86.3433 102.595 85.6734 101.922 85.6734 101.091C85.6734 100.261 86.3433 99.5873 87.1696 99.5873C87.996 99.5873 88.6659 100.261 88.6659 101.091C88.6659 101.922 87.996 102.595 87.1696 102.595Z" fill="#3056D3"/>
<path d="M87.1696 142C86.3433 142 85.6734 141.327 85.6734 140.496C85.6734 139.665 86.3433 138.992 87.1696 138.992C87.996 138.992 88.6659 139.665 88.6659 140.496C88.6659 141.327 87.996 142 87.1696 142Z" fill="#3056D3"/>
<path d="M74.0025 102.595C73.1761 102.595 72.5062 101.922 72.5062 101.091C72.5062 100.261 73.1761 99.5873 74.0025 99.5873C74.8288 99.5873 75.4987 100.261 75.4987 101.091C75.4987 101.922 74.8288 102.595 74.0025 102.595Z" fill="#3056D3"/>
<path d="M74.0025 142C73.1761 142 72.5062 141.327 72.5062 140.496C72.5062 139.665 73.1761 138.992 74.0025 138.992C74.8288 138.992 75.4987 139.665 75.4987 140.496C75.4987 141.327 74.8288 142 74.0025 142Z" fill="#3056D3"/>
<path d="M60.8353 102.595C60.0089 102.595 59.339 101.922 59.339 101.091C59.339 100.26 60.0089 99.5871 60.8353 99.5871C61.6617 99.5871 62.3316 100.26 62.3316 101.091C62.3316 101.922 61.6617 102.595 60.8353 102.595Z" fill="#3056D3"/>
<path d="M60.8353 142C60.0089 142 59.339 141.326 59.339 140.496C59.339 139.665 60.0089 138.992 60.8353 138.992C61.6617 138.992 62.3316 139.665 62.3316 140.496C62.3316 141.326 61.6617 142 60.8353 142Z" fill="#3056D3"/>
<path d="M35.399 102.595C34.5727 102.595 33.9028 101.922 33.9028 101.091C33.9028 100.26 34.5727 99.5871 35.399 99.5871C36.2254 99.5871 36.8953 100.26 36.8953 101.091C36.8953 101.922 36.2254 102.595 35.399 102.595Z" fill="#3056D3"/>
<path d="M35.3989 142C34.5726 142 33.9027 141.326 33.9027 140.496C33.9027 139.665 34.5726 138.992 35.3989 138.992C36.2253 138.992 36.8952 139.665 36.8952 140.496C36.8952 141.326 36.2253 142 35.3989 142Z" fill="#3056D3"/>
<path d="M9.36407 102.595C8.53771 102.595 7.86781 101.922 7.86781 101.091C7.86781 100.26 8.53771 99.5871 9.36407 99.5871C10.1904 99.5871 10.8603 100.26 10.8603 101.091C10.8603 101.922 10.1904 102.595 9.36407 102.595Z" fill="#3056D3"/>
<path d="M9.36407 142C8.5377 142 7.8678 141.326 7.8678 140.496C7.8678 139.665 8.5377 138.992 9.36407 138.992C10.1904 138.992 10.8603 139.665 10.8603 140.496C10.8603 141.326 10.1904 142 9.36407 142Z" fill="#3056D3"/>
<path d="M47.9676 102.595C47.1412 102.595 46.4713 101.922 46.4713 101.091C46.4713 100.26 47.1412 99.5871 47.9676 99.5871C48.7939 99.5871 49.4638 100.26 49.4638 101.091C49.4638 101.922 48.7939 102.595 47.9676 102.595Z" fill="#3056D3"/>
<path d="M47.9676 142C47.1412 142 46.4713 141.326 46.4713 140.496C46.4713 139.665 47.1412 138.992 47.9676 138.992C48.7939 138.992 49.4638 139.665 49.4638 140.496C49.4638 141.326 48.7939 142 47.9676 142Z" fill="#3056D3"/>
<path d="M22.5312 102.595C21.7049 102.595 21.035 101.922 21.035 101.091C21.035 100.26 21.7049 99.5871 22.5312 99.5871C23.3576 99.5871 24.0275 100.26 24.0275 101.091C24.0275 101.922 23.3576 102.595 22.5312 102.595Z" fill="#3056D3"/>
<path d="M22.5312 142C21.7049 142 21.035 141.326 21.035 140.496C21.035 139.665 21.7049 138.992 22.5312 138.992C23.3576 138.992 24.0275 139.665 24.0275 140.496C24.0275 141.326 23.3576 142 22.5312 142Z" fill="#3056D3"/>
<path d="M-3.50373 102.595C-4.33009 102.595 -4.99999 101.922 -4.99999 101.091C-4.99999 100.26 -4.33009 99.5871 -3.50373 99.5871C-2.67737 99.5871 -2.00747 100.26 -2.00747 101.091C-2.00747 101.922 -2.67737 102.595 -3.50373 102.595Z" fill="#3056D3"/>
<path d="M-3.50373 142C-4.33009 142 -4.99999 141.326 -4.99999 140.496C-4.99999 139.665 -4.33009 138.992 -3.50373 138.992C-2.67737 138.992 -2.00747 139.665 -2.00747 140.496C-2.00747 141.326 -2.67737 142 -3.50373 142Z" fill="#3056D3"/>
</g>
</svg>
