<svg width="567" height="533" viewBox="0 0 567 533" fill="none" xmlns="http://www.w3.org/2000/svg">
<g clip-path="url(#clip0)">
<path d="M122.733 246.641C96.0037 220.328 84.7146 192.877 90.9441 169.345C98.9387 139.147 134.454 118.268 188.385 112.061L188.584 113.793C135.404 119.913 100.43 140.324 92.6296 169.791C86.5668 192.692 97.6921 219.544 123.956 245.399L122.733 246.641Z" fill="#F0F0F0"/>
<path d="M380.624 340.044C347.264 340.044 311.013 335.087 275.005 325.554C230.477 313.766 189.649 295.972 156.936 274.097L157.905 272.648C190.461 294.418 231.107 312.13 275.451 323.869C315.524 334.478 355.898 339.394 392.193 338.097L392.256 339.838C388.423 339.976 384.545 340.045 380.624 340.044Z" fill="#F0F0F0"/>
<path d="M457.155 329.081L456.596 327.43C486.432 317.342 505.093 301.092 510.562 280.435C517.514 254.175 502.411 223.702 468.035 194.629C433.484 165.408 383.66 141.162 327.74 126.358L328.186 124.673C384.35 139.542 434.417 163.913 469.16 193.298C504.079 222.83 519.381 253.934 512.247 280.881C506.622 302.131 487.571 318.798 457.155 329.081Z" fill="#F0F0F0"/>
<path d="M183.194 340.773C117.645 311.701 67.1338 273.983 40.9669 234.567L42.4191 233.603C68.4051 272.746 118.651 310.24 183.901 339.179L183.194 340.773Z" fill="#F0F0F0"/>
<path d="M413.662 391.137C406.9 391.137 400.024 390.987 393.032 390.685L393.107 388.943C445.286 391.202 491.326 384.958 526.256 370.881L526.908 372.499C496.437 384.776 457.6 391.137 413.662 391.137Z" fill="#F0F0F0"/>
<path d="M375.629 113.624C364.795 110.097 353.651 106.812 342.507 103.862C278.377 86.8848 215.338 80.857 160.2 86.4337L160.025 84.6989C215.368 79.104 278.623 85.1463 342.953 102.177C354.128 105.136 365.304 108.429 376.169 111.967L375.629 113.624Z" fill="#F0F0F0"/>
<path d="M81.7659 249.256C55.0368 222.943 43.7477 195.492 49.9772 171.96C57.9717 141.762 93.4875 120.883 147.418 114.676L147.617 116.408C94.4374 122.528 59.4635 142.939 51.6626 172.406C45.5999 195.307 56.7252 222.158 82.9891 248.014L81.7659 249.256Z" fill="#F0F0F0"/>
<path d="M339.657 342.659C306.297 342.659 270.046 337.701 234.039 328.169C189.51 316.38 148.683 298.587 115.97 276.712L116.938 275.263C149.494 297.032 190.141 314.744 234.485 326.483C274.558 337.093 314.931 342.009 351.226 340.711L351.289 342.453C347.456 342.591 343.579 342.659 339.657 342.659Z" fill="#F0F0F0"/>
<path d="M416.188 331.696L415.63 330.045C445.465 319.957 464.126 303.707 469.595 283.05C476.547 256.79 461.444 226.317 427.068 197.244C392.517 168.023 342.693 143.777 286.773 128.973L287.219 127.288C343.384 142.157 393.45 166.528 428.193 195.913C463.112 225.445 478.415 256.549 471.281 283.496C465.655 304.746 446.604 321.413 416.188 331.696Z" fill="#F0F0F0"/>
<path d="M142.227 343.387C76.6778 314.315 26.1669 276.598 0 237.182L1.45216 236.218C27.4382 275.361 77.684 312.855 142.934 341.794L142.227 343.387Z" fill="#F0F0F0"/>
<path d="M372.695 393.752C365.934 393.752 359.057 393.601 352.065 393.299L352.14 391.558C404.32 393.817 450.359 387.573 485.289 373.496L485.941 375.113C455.47 387.391 416.633 393.752 372.695 393.752Z" fill="#F0F0F0"/>
<path d="M334.662 116.239C323.828 112.712 312.684 109.427 301.54 106.477C237.411 89.4996 174.371 83.4718 119.233 89.0485L119.058 87.3137C174.401 81.7187 237.657 87.761 301.986 104.792C313.162 107.75 324.337 111.044 335.202 114.582L334.662 116.239Z" fill="#F0F0F0"/>
<path d="M345.503 273.155L360.321 271.412L365.55 316.737L378.903 379.328C380.76 380.233 382.275 381.713 383.223 383.548C384.171 385.384 384.5 387.476 384.163 389.514C383.825 391.552 382.839 393.427 381.35 394.858C379.861 396.29 377.949 397.203 375.9 397.461C373.85 397.718 371.772 397.307 369.975 396.288C368.178 395.269 366.758 393.698 365.927 391.807C365.095 389.916 364.897 387.807 365.361 385.794C365.825 383.781 366.926 381.971 368.502 380.635L355.091 343.758L345.503 273.155Z" fill="#FFB6B6"/>
<path d="M343.12 198.881L336.026 212.49L282.899 200.773L288.719 174.386C293.326 153.5 311.793 138.416 332.679 143.022C353.565 147.629 363.31 168.043 358.704 188.929L350.143 215.601L341.48 213.69L343.12 198.881Z" fill="#2F2E41"/>
<path d="M362.064 348.989C362.064 348.989 367.294 375.138 360.321 413.49C353.348 451.842 351.604 468.403 351.604 468.403C351.604 468.403 356.834 474.505 353.348 477.991C349.861 481.478 353.348 488.451 353.348 488.451L345.503 573L318.482 568.642L321.969 489.323C321.969 489.323 318.482 482.349 320.225 480.606C321.969 478.863 318.482 468.403 318.482 468.403L314.124 385.598L287.103 476.248C287.103 476.248 289.718 479.735 287.103 482.349C284.488 484.964 279.259 498.039 279.259 498.039L261.826 559.054L233.934 553.824L249.623 484.093C249.623 484.093 247.88 479.735 250.495 477.12C251.257 476.32 251.814 475.346 252.118 474.284C252.422 473.221 252.463 472.1 252.238 471.018C252.238 471.018 249.623 468.403 253.11 464.917C256.596 461.43 258.339 447.484 258.339 447.484C258.339 447.484 260.954 354.219 269.671 348.989C278.387 343.759 362.064 348.989 362.064 348.989Z" fill="#2F2E41"/>
<path d="M322.651 204.766C336.13 204.766 347.057 193.839 347.057 180.36C347.057 166.881 336.13 155.954 322.651 155.954C309.172 155.954 298.245 166.881 298.245 180.36C298.245 193.839 309.172 204.766 322.651 204.766Z" fill="#FFB6B6"/>
<path d="M288.257 211.601C288.257 211.601 270.541 209.526 265.312 214.756L270.541 320.224C270.541 320.224 267.055 322.839 268.798 328.94C269.81 332.945 269.81 337.138 268.798 341.143C268.798 341.143 263.568 347.245 266.183 349.859C268.798 352.474 362.935 350.731 362.935 350.731C362.935 350.731 366.421 344.63 361.191 341.143C355.962 337.656 358.577 328.068 358.577 328.068C358.577 328.068 360.32 325.454 355.962 321.095C351.603 316.737 348.117 281 348.117 281L359.448 237.418C359.448 237.418 348.042 224.543 335.005 223.572L288.257 211.601Z" fill="#E6E6E6"/>
<path d="M345.943 238.017L359.447 237.417C359.447 237.417 367.292 253.107 368.164 267.053L372.964 319.079L342.015 323.71L345.943 238.017Z" fill="#E6E6E6"/>
<path d="M343.561 181.571L352.626 169.906C353.16 167.451 352.701 164.883 351.349 162.765C349.996 160.647 347.86 159.15 345.407 158.602L311.159 151.048C308.703 150.513 306.135 150.972 304.017 152.325C301.899 153.678 300.402 155.814 299.854 158.267L299.834 158.354L302.287 172.439L302.718 172.362C323.973 168.572 330.027 169.906 343.213 181.275L343.561 181.571Z" fill="#2F2E41"/>
<path d="M252.346 367.938L253.98 299.305L255.724 250.494L276.643 253.109L265.408 369.773C266.59 371.256 267.305 373.056 267.463 374.946C267.622 376.836 267.216 378.73 266.298 380.389C265.379 382.048 263.99 383.398 262.305 384.268C260.619 385.137 258.714 385.487 256.83 385.274C254.945 385.06 253.167 384.293 251.719 383.069C250.27 381.844 249.218 380.218 248.694 378.396C248.17 376.573 248.198 374.636 248.775 372.83C249.352 371.023 250.452 369.428 251.935 368.247C252.069 368.14 252.206 368.037 252.346 367.937V367.938Z" fill="#FFB6B6"/>
<path d="M280.571 216.226L265.312 214.755C265.312 214.755 262.697 214.755 260.082 223.471C257.467 232.188 243.092 324.309 243.092 324.309L274.9 327.196L280.571 216.226Z" fill="#E6E6E6"/>
<path d="M136.12 96.3448C158.022 96.3448 175.777 78.5894 175.777 56.6871C175.777 34.7847 158.022 17.0293 136.12 17.0293C114.217 17.0293 96.4622 34.7847 96.4622 56.6871C96.4622 78.5894 114.217 96.3448 136.12 96.3448Z" fill="#3056D3"/>
<path d="M145.422 81.0589C137.406 81.0589 129.57 78.6819 122.905 74.2285C116.24 69.775 111.045 63.4452 107.978 56.0394C104.91 48.6336 104.107 40.4845 105.671 32.6226C107.235 24.7606 111.095 17.539 116.763 11.8708C122.431 6.20267 129.653 2.34261 137.515 0.778778C145.377 -0.785058 153.526 0.0175641 160.932 3.08515C168.337 6.15273 174.667 11.3475 179.121 18.0125C183.574 24.6776 185.951 32.5135 185.951 40.5295C185.939 51.2748 181.665 61.5766 174.067 69.1747C166.469 76.7728 156.167 81.0468 145.422 81.0589ZM145.422 1.74329C137.751 1.74328 130.252 4.01805 123.873 8.27992C117.495 12.5418 112.524 18.5994 109.588 25.6866C106.653 32.7738 105.884 40.5725 107.381 48.0962C108.878 55.62 112.572 62.5311 117.996 67.9554C123.42 73.3798 130.331 77.0738 137.855 78.5704C145.379 80.0669 153.177 79.2988 160.265 76.3632C167.352 73.4276 173.409 68.4563 177.671 62.0779C181.933 55.6995 184.208 48.2006 184.208 40.5295C184.196 30.2463 180.106 20.3877 172.835 13.1164C165.564 5.8451 155.705 1.75496 145.422 1.74329Z" fill="#A8AAB5"/>
<path d="M501.042 225.461C516.082 225.461 528.275 213.268 528.275 198.228C528.275 183.187 516.082 170.994 501.042 170.994C486.001 170.994 473.808 183.187 473.808 198.228C473.808 213.268 486.001 225.461 501.042 225.461Z" fill="#3056D3"/>
<path d="M507.43 215.238C501.871 215.238 496.437 213.589 491.816 210.501C487.194 207.413 483.591 203.023 481.464 197.888C479.337 192.752 478.78 187.101 479.865 181.649C480.949 176.198 483.626 171.19 487.557 167.259C491.487 163.329 496.495 160.652 501.947 159.567C507.399 158.483 513.05 159.04 518.185 161.167C523.321 163.294 527.71 166.896 530.798 171.518C533.887 176.14 535.535 181.574 535.535 187.133C535.527 194.584 532.563 201.728 527.294 206.997C522.025 212.266 514.881 215.229 507.43 215.238ZM507.43 160.771C502.216 160.771 497.119 162.317 492.784 165.213C488.449 168.11 485.07 172.227 483.075 177.044C481.08 181.861 480.557 187.162 481.575 192.276C482.592 197.389 485.103 202.086 488.789 205.773C492.476 209.46 497.173 211.971 502.287 212.988C507.401 214.005 512.701 213.483 517.518 211.488C522.335 209.493 526.452 206.114 529.349 201.778C532.246 197.443 533.792 192.346 533.792 187.133C533.784 180.143 531.004 173.443 526.062 168.501C521.12 163.558 514.419 160.778 507.43 160.771Z" fill="#A8AAB5"/>
<path d="M82.6876 330.676C104.308 330.676 121.835 313.149 121.835 291.528C121.835 269.907 104.308 252.38 82.6876 252.38C61.0669 252.38 43.5399 269.907 43.5399 291.528C43.5399 313.149 61.0669 330.676 82.6876 330.676Z" fill="#E4E4E4"/>
<path d="M91.8702 315.599C83.9552 315.599 76.2179 313.252 69.6368 308.854C63.0557 304.457 57.9263 298.207 54.8974 290.894C51.8685 283.581 51.076 275.535 52.6202 267.772C54.1644 260.009 57.9759 252.878 63.5727 247.281C69.1695 241.685 76.3003 237.873 84.0633 236.329C91.8262 234.785 99.8728 235.577 107.185 238.606C114.498 241.635 120.748 246.765 125.145 253.346C129.543 259.927 131.89 267.665 131.89 275.58C131.878 286.19 127.657 296.362 120.155 303.864C112.652 311.367 102.48 315.587 91.8702 315.599ZM91.8702 237.303C84.3 237.303 76.8997 239.548 70.6053 243.754C64.3109 247.96 59.405 253.938 56.508 260.932C53.611 267.926 52.853 275.622 54.3299 283.047C55.8068 290.472 59.4523 297.292 64.8052 302.645C70.1582 307.998 76.9783 311.643 84.4031 313.12C91.8279 314.597 99.5239 313.839 106.518 310.942C113.512 308.045 119.49 303.139 123.696 296.845C127.901 290.55 130.146 283.15 130.146 275.58C130.135 265.432 126.099 255.703 118.923 248.527C111.747 241.351 102.018 237.315 91.8702 237.303Z" fill="#F0F0F0"/>
<path d="M59.0541 155.45C62.9053 155.45 66.0272 152.328 66.0272 148.477C66.0272 144.626 62.9053 141.504 59.0541 141.504C55.203 141.504 52.0811 144.626 52.0811 148.477C52.0811 152.328 55.203 155.45 59.0541 155.45Z" fill="#F2F2F2"/>
<path d="M417.296 120.584C421.147 120.584 424.269 117.462 424.269 113.611C424.269 109.76 421.147 106.638 417.296 106.638C413.445 106.638 410.323 109.76 410.323 113.611C410.323 117.462 413.445 120.584 417.296 120.584Z" fill="#FD6584"/>
<path d="M463.492 368.13C467.344 368.13 470.466 365.008 470.466 361.157C470.466 357.306 467.344 354.184 463.492 354.184C459.641 354.184 456.519 357.306 456.519 361.157C456.519 365.008 459.641 368.13 463.492 368.13Z" fill="#F2F2F2"/>
<path d="M151.211 175.76L151.475 174.037L185.532 179.261C182.061 175.911 170.568 165.549 160.144 164.499C147.691 163.244 142.212 168.574 141.488 175.759C140.764 182.943 145.068 189.261 157.522 190.516C168.078 191.58 181.616 183.505 185.497 181.02L151.211 175.76Z" fill="#F2F2F2"/>
<path d="M477.105 83.4399L476.054 82.0484L503.549 61.2832C498.727 61.4341 483.286 62.4455 475.263 69.1837C465.68 77.2336 465.679 84.878 470.323 90.4073C474.968 95.9367 482.497 97.257 492.081 89.2072C500.205 82.3837 503.86 67.0497 504.785 62.5346L477.105 83.4399Z" fill="#F2F2F2"/>
<path d="M412.183 283.338L411.427 282.337L431.208 267.398C427.739 267.507 416.63 268.234 410.859 273.082C403.964 278.873 403.963 284.373 407.304 288.351C410.646 292.329 416.063 293.279 422.958 287.488C428.803 282.578 431.432 271.547 432.098 268.298L412.183 283.338Z" fill="#F2F2F2"/>
<path d="M255.59 45.5446C260.949 31.1348 273.612 18.6837 288.914 17.2026C279.714 31.1628 275.749 47.9271 277.719 64.5297C278.502 70.9298 280.04 77.9668 276.589 83.414C274.443 86.8034 270.66 88.8901 266.76 89.8317C262.86 90.7733 258.796 90.7004 254.785 90.622L253.887 91.0655C251.066 75.9523 250.23 59.9545 255.59 45.5446Z" fill="#F0F0F0"/>
<path d="M288.988 17.517C278.557 24.8049 270.686 35.1946 266.495 47.2102C265.547 49.7809 265.01 52.4849 264.904 55.2228C264.887 57.8932 265.585 60.5195 266.926 62.8288C268.133 65.0071 269.62 67.0954 270.277 69.5293C270.595 70.7801 270.644 72.0839 270.423 73.3552C270.201 74.6266 269.713 75.8367 268.991 76.9063C267.261 79.6181 264.66 81.5467 262.051 83.3442C259.154 85.34 256.113 87.3672 254.34 90.5025C254.125 90.8824 253.549 90.5269 253.763 90.1476C256.847 84.6927 263.32 82.7112 267.279 78.0777C269.127 75.9156 270.334 73.1836 269.763 70.3046C269.263 67.787 267.732 65.6322 266.49 63.4372C265.149 61.2036 264.375 58.6755 264.236 56.0739C264.202 53.3394 264.634 50.6192 265.513 48.0296C267.399 42.1682 270.195 36.6397 273.798 31.6467C277.879 25.9255 282.909 20.9445 288.669 16.9192C289.026 16.6702 289.343 17.2696 288.988 17.517V17.517Z" fill="white"/>
<path d="M267.617 43.2613C265.697 42.2845 264.186 40.6568 263.355 38.6689C262.523 36.6811 262.426 34.4625 263.079 32.4093C263.213 31.9944 263.864 32.1826 263.73 32.5981C263.118 34.5089 263.209 36.5755 263.987 38.425C264.765 40.2745 266.178 41.7851 267.972 42.6841C268.361 42.8799 268.004 43.456 267.617 43.2613Z" fill="white"/>
<path d="M266.169 61.8046C270.369 60.478 273.914 57.6172 276.099 53.7925C276.315 53.4134 276.892 53.7687 276.676 54.1474C274.395 58.1232 270.699 61.0929 266.326 62.4637C265.909 62.594 265.754 61.9342 266.169 61.8046Z" fill="white"/>
<path d="M278.343 26.6946C279.008 27.2274 279.794 27.5868 280.631 27.7406C281.469 27.8945 282.332 27.8379 283.142 27.5759C283.557 27.4403 283.712 28.1003 283.299 28.235C282.403 28.5203 281.45 28.5816 280.524 28.4137C279.598 28.2458 278.728 27.8538 277.988 27.2718C277.914 27.2228 277.861 27.1473 277.841 27.0608C277.82 26.9742 277.833 26.883 277.877 26.8057C277.925 26.7295 278 26.6751 278.087 26.6543C278.175 26.6335 278.267 26.648 278.343 26.6946Z" fill="white"/>
<path d="M325.799 53.9336C325.542 54.0257 325.285 54.1177 325.027 54.2153C321.581 55.4705 318.243 57.0036 315.045 58.7995C314.796 58.9345 314.545 59.075 314.3 59.2167C306.642 63.6256 299.869 69.4178 294.326 76.299C292.123 79.0392 290.131 81.9431 288.368 84.9855C285.934 89.1873 283.629 93.9368 280.054 96.9989C279.685 97.3226 279.296 97.6231 278.889 97.8986L254.497 92.1268C254.448 92.0858 254.398 92.0504 254.349 92.0094L253.364 91.8234C253.444 91.6602 253.531 91.4926 253.611 91.3293C253.657 91.2344 253.708 91.1408 253.754 91.0459C253.787 90.9831 253.819 90.9202 253.845 90.8617C253.855 90.8407 253.866 90.8198 253.876 90.8044C253.901 90.7458 253.931 90.6941 253.956 90.6411C254.436 89.7029 254.924 88.7664 255.42 87.8317C255.421 87.8261 255.421 87.8261 255.428 87.8218C259.135 80.6633 263.678 73.9698 268.961 67.8816C269.121 67.7021 269.283 67.5169 269.454 67.34C271.867 64.6626 274.495 62.1869 277.311 59.9376C278.858 58.7109 280.465 57.5633 282.127 56.4991C286.427 53.7578 291.132 51.7099 296.069 50.4306C305.91 47.8817 316.457 48.5086 325.139 53.5425C325.361 53.6715 325.578 53.7991 325.799 53.9336Z" fill="#F0F0F0"/>
<path d="M325.671 54.2304C312.954 53.7687 300.414 57.3257 289.834 64.3962C287.529 65.8779 285.472 67.7137 283.739 69.8358C282.118 71.9576 281.094 74.475 280.775 77.1262C280.427 79.5923 280.357 82.155 279.416 84.4936C278.916 85.6836 278.171 86.7545 277.229 87.6361C276.286 88.5178 275.168 89.1903 273.948 89.6096C270.934 90.7333 267.696 90.707 264.53 90.5713C261.015 90.4206 257.367 90.2084 254.064 91.6446C253.664 91.8186 253.417 91.1874 253.817 91.0137C259.564 88.515 265.924 90.8299 271.876 89.5142C274.653 88.9003 277.261 87.4458 278.539 84.8032C279.655 82.4923 279.73 79.8497 280.06 77.3496C280.334 74.7587 281.238 72.2742 282.694 70.1132C284.313 67.9096 286.296 65.9977 288.557 64.4594C293.591 60.9148 299.152 58.1839 305.035 56.3667C311.738 54.2556 318.753 53.3066 325.776 53.5609C326.21 53.5768 326.103 54.2462 325.671 54.2304L325.671 54.2304Z" fill="white"/>
<path d="M293.107 61.9188C292.161 59.9826 291.935 57.7734 292.468 55.6858C293.002 53.5982 294.259 51.768 296.017 50.5222C296.374 50.2714 296.781 50.8137 296.424 51.0649C294.784 52.2219 293.613 53.9268 293.12 55.8718C292.628 57.8169 292.847 59.8739 293.738 61.6716C293.931 62.0625 293.299 62.3075 293.107 61.9188Z" fill="white"/>
<path d="M280.786 75.8524C284.938 77.322 289.492 77.1725 293.539 75.4339C293.939 75.2613 294.186 75.8924 293.786 76.0648C289.571 77.8662 284.832 78.0121 280.515 76.4733C280.103 76.3264 280.377 75.7063 280.786 75.8524Z" fill="white"/>
<path d="M311.645 55.1493C311.855 55.9746 312.266 56.735 312.843 57.3621C313.419 57.9892 314.142 58.4634 314.946 58.7421C315.359 58.8838 315.085 59.5038 314.675 59.363C313.787 59.051 312.99 58.5263 312.352 57.8349C311.714 57.1434 311.255 56.3062 311.015 55.3965C310.985 55.3126 310.988 55.2205 311.024 55.139C311.059 55.0574 311.125 54.9925 311.206 54.9574C311.29 54.9251 311.383 54.9271 311.465 54.9631C311.548 54.999 311.612 55.0659 311.646 55.1493H311.645Z" fill="white"/>
<path d="M181.501 244.278C186.86 229.868 199.523 217.417 214.825 215.936C205.625 229.896 201.66 246.661 203.63 263.263C204.413 269.663 205.951 276.7 202.501 282.147C200.354 285.537 196.571 287.623 192.671 288.565C188.771 289.507 184.707 289.434 180.696 289.355L179.798 289.799C176.977 274.686 176.141 258.688 181.501 244.278Z" fill="#F0F0F0"/>
<path d="M214.9 216.25C204.468 223.538 196.597 233.928 192.406 245.944C191.458 248.514 190.921 251.218 190.815 253.956C190.798 256.627 191.496 259.253 192.837 261.562C194.044 263.74 195.531 265.829 196.188 268.263C196.506 269.513 196.555 270.817 196.334 272.089C196.112 273.36 195.624 274.57 194.902 275.64C193.172 278.352 190.571 280.28 187.962 282.078C185.065 284.073 182.024 286.101 180.251 289.236C180.037 289.616 179.46 289.26 179.674 288.881C182.758 283.426 189.231 281.445 193.19 276.811C195.038 274.649 196.245 271.917 195.674 269.038C195.174 266.52 193.643 264.366 192.401 262.171C191.06 259.937 190.286 257.409 190.147 254.807C190.114 252.073 190.545 249.353 191.424 246.763C193.31 240.902 196.106 235.373 199.71 230.38C203.79 224.659 208.82 219.678 214.58 215.653C214.937 215.404 215.254 216.003 214.9 216.25V216.25Z" fill="white"/>
<path d="M193.528 241.995C191.608 241.018 190.097 239.39 189.266 237.402C188.434 235.414 188.337 233.196 188.991 231.143C189.124 230.728 189.775 230.916 189.641 231.332C189.029 233.242 189.12 235.309 189.898 237.158C190.676 239.008 192.089 240.518 193.883 241.417C194.272 241.613 193.915 242.189 193.528 241.995Z" fill="white"/>
<path d="M192.08 260.538C196.28 259.211 199.825 256.351 202.01 252.526C202.226 252.147 202.803 252.502 202.587 252.881C200.307 256.857 196.611 259.826 192.237 261.197C191.82 261.327 191.665 260.668 192.08 260.538Z" fill="white"/>
<path d="M204.254 225.428C204.919 225.961 205.705 226.32 206.542 226.474C207.38 226.628 208.243 226.571 209.053 226.309C209.468 226.174 209.623 226.834 209.21 226.968C208.314 227.254 207.361 227.315 206.435 227.147C205.509 226.979 204.639 226.587 203.899 226.005C203.825 225.956 203.772 225.881 203.752 225.794C203.731 225.708 203.744 225.616 203.788 225.539C203.836 225.463 203.911 225.409 203.998 225.388C204.086 225.367 204.178 225.381 204.254 225.428Z" fill="white"/>
<path d="M251.71 252.667C251.453 252.759 251.196 252.851 250.938 252.949C247.492 254.204 244.154 255.737 240.956 257.533C240.707 257.668 240.456 257.808 240.211 257.95C232.553 262.359 225.78 268.151 220.237 275.032C218.034 277.773 216.042 280.676 214.279 283.719C211.845 287.921 209.54 292.67 205.965 295.732C205.596 296.056 205.207 296.356 204.8 296.632L180.408 290.86C180.36 290.819 180.309 290.784 180.26 290.743L179.276 290.557C179.355 290.394 179.442 290.226 179.522 290.063C179.568 289.968 179.619 289.874 179.665 289.779C179.698 289.716 179.73 289.654 179.756 289.595C179.767 289.574 179.778 289.553 179.787 289.538C179.813 289.479 179.843 289.428 179.867 289.375C180.347 288.436 180.835 287.5 181.331 286.565C181.332 286.56 181.332 286.56 181.339 286.555C185.046 279.397 189.589 272.703 194.872 266.615C195.033 266.435 195.194 266.25 195.365 266.073C197.778 263.396 200.406 260.92 203.223 258.671C204.769 257.444 206.376 256.297 208.038 255.233C212.339 252.491 217.043 250.443 221.98 249.164C231.821 246.615 242.368 247.242 251.05 252.276C251.272 252.405 251.489 252.533 251.71 252.667Z" fill="#F0F0F0"/>
<path d="M251.582 252.964C238.865 252.502 226.326 256.059 215.745 263.13C213.44 264.611 211.384 266.447 209.65 268.569C208.029 270.691 207.005 273.208 206.686 275.86C206.338 278.326 206.268 280.888 205.327 283.227C204.828 284.417 204.082 285.488 203.14 286.369C202.197 287.251 201.079 287.924 199.859 288.343C196.845 289.467 193.607 289.44 190.441 289.305C186.927 289.154 183.278 288.942 179.975 290.378C179.575 290.552 179.328 289.921 179.728 289.747C185.475 287.248 191.836 289.563 197.787 288.248C200.564 287.634 203.172 286.179 204.45 283.537C205.567 281.226 205.641 278.583 205.971 276.083C206.245 273.492 207.149 271.008 208.605 268.847C210.224 266.643 212.207 264.731 214.468 263.193C219.503 259.648 225.063 256.917 230.947 255.1C237.649 252.989 244.664 252.04 251.687 252.294C252.122 252.31 252.014 252.98 251.582 252.964L251.582 252.964Z" fill="white"/>
<path d="M219.018 260.652C218.073 258.716 217.846 256.507 218.38 254.419C218.913 252.332 220.171 250.501 221.929 249.256C222.285 249.005 222.692 249.547 222.335 249.798C220.696 250.955 219.524 252.66 219.031 254.605C218.539 256.55 218.758 258.607 219.649 260.405C219.842 260.796 219.21 261.041 219.018 260.652Z" fill="white"/>
<path d="M206.697 274.586C210.849 276.055 215.403 275.906 219.45 274.167C219.851 273.995 220.097 274.626 219.697 274.798C215.482 276.6 210.743 276.746 206.426 275.207C206.015 275.06 206.288 274.44 206.697 274.586Z" fill="white"/>
<path d="M237.557 253.882C237.766 254.708 238.178 255.468 238.754 256.095C239.33 256.722 240.053 257.196 240.858 257.475C241.271 257.617 240.997 258.237 240.586 258.096C239.699 257.784 238.901 257.259 238.263 256.568C237.625 255.876 237.166 255.039 236.926 254.129C236.896 254.046 236.899 253.953 236.935 253.872C236.97 253.79 237.036 253.725 237.118 253.69C237.201 253.658 237.294 253.66 237.377 253.696C237.459 253.732 237.523 253.799 237.557 253.882H237.557Z" fill="white"/>
<path d="M485.13 352.287C482.395 342.062 484.54 330.026 492.539 323.095C492.939 334.598 497.395 345.589 505.119 354.123C508.109 357.404 511.777 360.741 512.011 365.174C512.025 367.967 510.965 370.659 509.052 372.694C507.148 374.7 504.994 376.453 502.645 377.911L502.317 378.518C494.71 371.159 487.865 362.512 485.13 352.287Z" fill="#F0F0F0"/>
<path d="M492.706 323.242C489.755 331.491 489.478 340.46 491.915 348.875C492.408 350.696 493.184 352.427 494.216 354.007C495.27 355.512 496.709 356.708 498.382 357.47C499.992 358.091 501.52 358.906 502.934 359.896C503.611 360.471 504.158 361.183 504.541 361.985C504.923 362.787 505.131 363.661 505.152 364.549C505.141 366.743 504.689 368.913 503.823 370.929C502.992 373.204 502.093 375.554 502.348 378.02C502.379 378.319 501.913 378.35 501.882 378.051C501.439 373.76 504.283 370.068 504.658 365.889C504.801 364.926 504.722 363.943 504.427 363.015C504.131 362.087 503.628 361.239 502.954 360.536C501.671 359.322 499.952 358.722 498.38 357.985C496.737 357.266 495.295 356.155 494.18 354.751C493.071 353.229 492.229 351.53 491.691 349.726C490.413 345.684 489.779 341.466 489.811 337.228C489.822 332.39 490.66 327.589 492.289 323.033C492.39 322.752 492.806 322.962 492.706 323.242L492.706 323.242Z" fill="white"/>
<path d="M490.971 346.211C489.504 346.428 488.007 346.117 486.748 345.332C485.489 344.548 484.55 343.341 484.099 341.928C484.008 341.642 484.449 341.488 484.539 341.775C484.957 343.091 485.832 344.215 487.006 344.943C488.18 345.672 489.575 345.956 490.94 345.746C491.237 345.701 491.266 346.166 490.971 346.211Z" fill="white"/>
<path d="M497.549 357.197C499.378 354.779 500.228 351.76 499.93 348.742C499.9 348.443 500.365 348.413 500.395 348.711C500.7 351.852 499.809 354.992 497.9 357.505C497.718 357.744 497.368 357.435 497.549 357.197Z" fill="white"/>
<path d="M490.389 332.637C490.974 332.671 491.559 332.559 492.09 332.312C492.622 332.064 493.083 331.689 493.434 331.219C493.613 330.977 493.962 331.286 493.785 331.526C493.395 332.043 492.885 332.458 492.298 332.732C491.711 333.007 491.066 333.134 490.42 333.102C490.358 333.104 490.299 333.083 490.252 333.042C490.206 333.002 490.177 332.946 490.171 332.885C490.168 332.823 490.188 332.762 490.229 332.716C490.27 332.669 490.327 332.641 490.389 332.637Z" fill="white"/>
<path d="M527.884 329.012C527.776 329.166 527.669 329.32 527.563 329.477C526.129 331.556 524.866 333.747 523.787 336.029C523.7 336.205 523.616 336.383 523.535 336.561C520.993 342.088 519.5 348.038 519.131 354.111C518.987 356.527 519.026 358.951 519.249 361.361C519.558 364.69 520.157 368.275 519.371 371.418C519.293 371.747 519.194 372.071 519.076 372.388L503.083 378.87C503.04 378.867 502.997 378.867 502.953 378.863L502.326 379.151C502.306 379.028 502.288 378.899 502.268 378.776C502.256 378.704 502.247 378.631 502.235 378.56C502.228 378.511 502.222 378.463 502.213 378.42C502.21 378.404 502.208 378.388 502.207 378.375C502.198 378.332 502.195 378.291 502.187 378.252C502.083 377.534 501.984 376.814 501.889 376.091C501.888 376.088 501.888 376.088 501.89 376.083C501.117 370.587 500.999 365.019 501.539 359.496C501.557 359.331 501.574 359.163 501.599 358.995C501.887 356.53 502.375 354.093 503.059 351.708C503.438 350.403 503.883 349.118 504.392 347.859C505.713 344.606 507.538 341.581 509.799 338.895C514.307 333.542 520.478 329.69 527.357 329.055C527.533 329.039 527.706 329.024 527.884 329.012Z" fill="#F0F0F0"/>
<path d="M527.93 329.229C520.607 334.039 514.986 341.033 511.866 349.219C511.162 350.97 510.74 352.82 510.613 354.702C510.548 356.539 510.977 358.36 511.854 359.976C512.766 361.441 513.496 363.012 514.028 364.653C514.222 365.52 514.231 366.418 514.053 367.289C513.875 368.159 513.516 368.982 512.998 369.704C511.668 371.449 510 372.909 508.095 373.998C506.062 375.314 503.929 376.649 502.648 378.772C502.492 379.029 502.102 378.773 502.257 378.516C504.487 374.823 508.981 373.587 511.797 370.477C512.491 369.794 513.019 368.961 513.342 368.042C513.665 367.124 513.773 366.143 513.659 365.176C513.365 363.434 512.353 361.921 511.542 360.386C510.663 358.822 510.181 357.068 510.136 355.274C510.167 353.392 510.518 351.529 511.174 349.764C512.587 345.767 514.62 342.018 517.198 338.653C520.119 334.797 523.678 331.468 527.722 328.811C527.972 328.647 528.178 329.066 527.93 329.229L527.93 329.229Z" fill="white"/>
<path d="M512.715 346.524C511.413 345.814 510.406 344.664 509.873 343.28C509.34 341.896 509.317 340.367 509.807 338.967C509.907 338.684 510.351 338.826 510.251 339.11C509.792 340.412 509.814 341.836 510.313 343.124C510.812 344.413 511.754 345.48 512.971 346.134C513.235 346.276 512.978 346.666 512.715 346.524Z" fill="white"/>
<path d="M511.353 359.256C514.27 358.426 516.766 356.527 518.345 353.938C518.501 353.682 518.891 353.938 518.735 354.194C517.087 356.885 514.485 358.856 511.448 359.713C511.159 359.794 511.065 359.337 511.353 359.256V359.256Z" fill="white"/>
<path d="M520.423 335.336C520.87 335.715 521.404 335.978 521.977 336.101C522.551 336.223 523.146 336.201 523.708 336.037C523.997 335.951 524.09 336.409 523.803 336.493C523.181 336.672 522.524 336.695 521.89 336.562C521.256 336.428 520.665 336.141 520.168 335.726C520.118 335.691 520.083 335.638 520.07 335.578C520.058 335.518 520.069 335.455 520.1 335.403C520.135 335.351 520.188 335.315 520.248 335.303C520.309 335.29 520.372 335.302 520.423 335.336Z" fill="white"/>
</g>
<defs>
<clipPath id="clip0">
<rect width="567" height="609" fill="white"/>
</clipPath>
</defs>
</svg>
