<svg width="521" height="389" viewBox="0 0 521 389" fill="none" xmlns="http://www.w3.org/2000/svg">
<g clip-path="url(#clip0_1375_755)">
<path d="M517.788 25.1601H185.647C185.302 25.1525 184.974 25.0103 184.732 24.7639C184.491 24.5176 184.355 24.1866 184.355 23.842C184.355 23.4974 184.491 23.1665 184.732 22.9201C184.974 22.6738 185.302 22.5316 185.647 22.5239H517.788C518.133 22.5316 518.461 22.6738 518.703 22.9201C518.944 23.1665 519.079 23.4974 519.079 23.842C519.079 24.1866 518.944 24.5176 518.703 24.7639C518.461 25.0103 518.133 25.1525 517.788 25.1601Z" fill="#E6E6E6"/>
<path d="M208.256 15.7937C212.531 15.7937 215.997 12.2582 215.997 7.89687C215.997 3.53555 212.531 0 208.256 0C203.981 0 200.516 3.53555 200.516 7.89687C200.516 12.2582 203.981 15.7937 208.256 15.7937Z" fill="#3F3D56"/>
<path d="M234.997 15.7937C239.272 15.7937 242.737 12.2582 242.737 7.89687C242.737 3.53555 239.272 0 234.997 0C230.721 0 227.256 3.53555 227.256 7.89687C227.256 12.2582 230.721 15.7937 234.997 15.7937Z" fill="#3F3D56"/>
<path d="M261.737 15.7937C266.012 15.7937 269.477 12.2582 269.477 7.89687C269.477 3.53555 266.012 0 261.737 0C257.462 0 253.996 3.53555 253.996 7.89687C253.996 12.2582 257.462 15.7937 261.737 15.7937Z" fill="#3F3D56"/>
<path d="M501.685 1.95264H482.692C482.317 1.96114 481.959 2.11602 481.697 2.38411C481.434 2.65221 481.287 3.01223 481.287 3.38715C481.287 3.76206 481.434 4.12209 481.697 4.39019C481.959 4.65828 482.317 4.81315 482.692 4.82165H501.685C502.063 4.81659 502.424 4.66323 502.689 4.39476C502.954 4.12629 503.103 3.7643 503.103 3.38715C503.103 3.01 502.954 2.64801 502.689 2.37954C502.424 2.11107 502.063 1.9577 501.685 1.95264Z" fill="#3F3D56"/>
<path d="M501.685 7.34033H482.693C482.317 7.34866 481.96 7.50345 481.697 7.77155C481.434 8.03966 481.287 8.39977 481.287 8.77479C481.287 9.14981 481.434 9.50993 481.697 9.77803C481.96 10.0461 482.317 10.2009 482.693 10.2093H501.685C502.063 10.2041 502.424 10.0507 502.689 9.78229C502.955 9.51383 503.104 9.15189 503.104 8.77479C503.104 8.39769 502.955 8.03575 502.689 7.76729C502.424 7.49883 502.063 7.34545 501.685 7.34033Z" fill="#3F3D56"/>
<path d="M501.685 12.7275H482.692C482.317 12.736 481.959 12.8909 481.697 13.159C481.434 13.4271 481.287 13.7871 481.287 14.162C481.287 14.537 481.434 14.897 481.697 15.1651C481.959 15.4332 482.317 15.588 482.692 15.5966H501.685C502.063 15.5915 502.424 15.4381 502.689 15.1697C502.954 14.9012 503.103 14.5392 503.103 14.162C503.103 13.7849 502.954 13.4229 502.689 13.1544C502.424 12.886 502.063 12.7326 501.685 12.7275Z" fill="#3F3D56"/>
<path d="M244.141 160.612H378.143C378.306 160.612 378.463 160.677 378.579 160.792C378.695 160.908 378.76 161.064 378.76 161.227V238.984C378.76 239.147 378.695 239.304 378.579 239.419C378.463 239.535 378.306 239.6 378.143 239.6H244.141V160.612Z" fill="#E6E6E6"/>
<path d="M377.984 240.02L243.963 161.208L244.316 160.015L378.337 238.827C378.496 238.874 378.629 238.981 378.708 239.126C378.787 239.271 378.805 239.441 378.758 239.599C378.735 239.678 378.697 239.751 378.645 239.814C378.594 239.878 378.53 239.931 378.459 239.97C378.387 240.009 378.308 240.033 378.226 240.042C378.145 240.05 378.063 240.043 377.984 240.02Z" fill="white"/>
<path d="M244.316 240.196L243.963 239.003L377.984 160.191C378.063 160.168 378.145 160.161 378.226 160.169C378.308 160.178 378.387 160.203 378.459 160.242C378.53 160.281 378.594 160.333 378.645 160.397C378.697 160.46 378.735 160.533 378.758 160.612C378.805 160.77 378.787 160.94 378.708 161.085C378.629 161.23 378.496 161.338 378.337 161.384L244.316 240.196Z" fill="white"/>
<path d="M362.924 82.8262H259.826C258.215 82.8262 256.908 84.1298 256.908 85.738V85.738C256.908 87.3461 258.215 88.6497 259.826 88.6497H362.924C364.536 88.6497 365.842 87.3461 365.842 85.738C365.842 84.1298 364.536 82.8262 362.924 82.8262Z" fill="#E6E6E6"/>
<path d="M376.784 101.004H245.967C244.355 101.004 243.049 102.308 243.049 103.916C243.049 105.524 244.355 106.827 245.967 106.827H376.784C378.395 106.827 379.702 105.524 379.702 103.916C379.702 102.308 378.395 101.004 376.784 101.004Z" fill="#E6E6E6"/>
<path d="M376.784 119.182H245.967C244.355 119.182 243.049 120.485 243.049 122.093C243.049 123.702 244.355 125.005 245.967 125.005H376.784C378.395 125.005 379.702 123.702 379.702 122.093C379.702 120.485 378.395 119.182 376.784 119.182Z" fill="#3056D3"/>
<path d="M500.834 180.546C500.829 191.514 497.41 202.21 491.05 211.155C484.69 220.1 475.703 226.853 465.331 230.481C464.879 230.642 464.428 230.789 463.971 230.931C453.321 234.329 441.866 234.278 431.245 230.786C420.625 227.294 411.383 220.539 404.843 211.489C398.302 202.438 394.798 191.554 394.83 180.395C394.863 169.237 398.431 158.374 405.025 149.361C411.619 140.349 420.9 133.648 431.54 130.218C442.181 126.788 453.636 126.805 464.267 130.265C474.898 133.725 484.16 140.452 490.727 149.483C497.295 158.514 500.833 169.387 500.834 180.546V180.546Z" fill="#E6E6E6"/>
<path d="M376.759 126.174C376.702 126.823 376.789 127.476 377.013 128.088C377.237 128.7 377.593 129.255 378.055 129.715C378.518 130.175 379.075 130.528 379.689 130.749C380.303 130.971 380.958 131.055 381.608 130.997L388.135 145.43L392.542 138.475L385.668 125.836C385.497 124.752 384.934 123.769 384.086 123.072C383.237 122.376 382.161 122.014 381.063 122.055C379.965 122.097 378.92 122.539 378.127 123.298C377.334 124.057 376.847 125.08 376.759 126.174Z" fill="#FFB6B6"/>
<path d="M441.079 180.526C440.984 180.1 440.862 179.679 440.715 179.268C439.78 176.615 437.875 174.413 435.381 173.102C435.322 173.068 435.259 173.034 435.2 173.004L405.384 157.907L402.739 152.76L392.051 131.982L389.431 132.761L383.238 134.597L383.096 134.636L393.361 169.111L395.717 170.913L422.397 191.275L423.266 191.941C425.41 193.575 428.071 194.386 430.765 194.228C433.458 194.07 436.005 192.953 437.943 191.079C438.342 190.697 438.711 190.284 439.047 189.845C440.052 188.537 440.755 187.023 441.106 185.412C441.457 183.801 441.448 182.133 441.079 180.526Z" fill="#3056D3"/>
<path d="M457.655 218.39L457.498 212.709L457.046 196.236C458.68 185.692 459.838 184.522 451.958 177.314C451.656 177.249 451.372 177.123 451.123 176.942C450.874 176.762 450.665 176.531 450.51 176.266C449.793 174.806 451.516 172.328 450.029 168.514L438.296 169.185L435.381 173.102L423.653 188.871C423.194 189.65 422.774 190.453 422.397 191.275C417.377 202.156 424.183 207.94 424.713 208.934L427.962 219.144L429.753 229.046L430.332 230.422L431.966 231.019C442.39 234.268 453.564 234.237 463.97 230.931C462.219 226.582 460.106 222.387 457.655 218.39Z" fill="#3056D3"/>
<path d="M480.38 258.436C480.645 257.841 480.777 257.195 480.766 256.544C480.754 255.893 480.6 255.252 480.313 254.666C480.026 254.081 479.615 253.566 479.107 253.156C478.599 252.747 478.008 252.454 477.374 252.297L475.927 236.529L469.486 241.666L471.848 255.853C471.655 256.932 471.866 258.045 472.44 258.98C473.014 259.915 473.912 260.608 474.964 260.926C476.016 261.245 477.148 261.167 478.146 260.708C479.144 260.249 479.939 259.441 480.38 258.436L480.38 258.436Z" fill="#FFB6B6"/>
<path d="M457.939 181.119C457.098 179.847 456.004 178.761 454.727 177.927C453.449 177.092 452.014 176.527 450.51 176.266C449.859 176.148 449.199 176.089 448.537 176.089C446.333 176.09 444.177 176.739 442.34 177.955C441.757 178.339 441.213 178.778 440.715 179.268C439.655 180.293 438.807 181.516 438.22 182.869C437.633 184.221 437.32 185.676 437.296 187.149C437.273 188.622 437.541 190.086 438.085 191.456C438.628 192.826 439.437 194.076 440.465 195.134L457.498 212.709L463.705 219.115L465.33 230.481L467.827 247.968L470.556 248.085L477.014 248.37L477.161 248.374L478.235 223.87L478.736 212.445L457.939 181.119Z" fill="#3056D3"/>
<path d="M434.664 141.634C430.515 149.793 433.225 159.244 440.923 164.214C449.247 169.588 460.054 168.411 463.549 157.967C467.442 146.337 464.244 141.348 457.29 135.387C449.141 128.402 439.146 132.818 434.664 141.634Z" fill="#2F2E41"/>
<path d="M455.084 159.809C452.973 162.571 449.849 164.383 446.399 164.847C442.95 165.312 439.456 164.39 436.687 162.286C433.918 160.182 432.099 157.066 431.63 153.624C431.161 150.182 432.08 146.695 434.186 143.929L434.3 143.78C436.451 141.093 439.575 139.357 442.997 138.947C446.419 138.538 449.865 139.487 452.592 141.59C455.319 143.693 457.108 146.782 457.574 150.19C458.04 153.598 457.144 157.052 455.081 159.807L455.084 159.809Z" fill="#FFB6B6"/>
<path d="M430.645 140.313C432.779 142.339 435.381 143.81 438.22 144.596C438.789 143.939 439.464 143.381 440.216 142.945C439.856 143.693 439.609 144.49 439.484 145.311C440.75 147.933 445.922 149.818 450.865 151.746L457.412 140.216L448.746 135.316C441.783 130.511 433.585 132.562 430.645 140.313Z" fill="#2F2E41"/>
<path d="M462.351 135.402C462.983 135.169 463.663 135.098 464.33 135.196C464.996 135.293 465.628 135.555 466.167 135.958C467.222 136.758 468.075 137.794 468.657 138.981C469.717 140.903 470.479 142.974 470.916 145.124C471.29 146.984 471.226 149.232 469.554 150.203C468.159 151.013 466.164 150.503 464.882 149.422C463.693 148.288 462.792 146.889 462.251 145.339C461.626 143.856 461.034 142.318 459.922 141.086L461.077 141.624C460.712 140.518 460.542 139.357 460.574 138.192C460.601 137.613 460.779 137.051 461.09 136.561C461.402 136.071 461.836 135.672 462.351 135.402Z" fill="#2F2E41"/>
<path d="M447.362 136.913L456.659 142.17C459.173 143.592 461.018 145.952 461.788 148.731C462.559 151.51 462.191 154.481 460.767 156.989C458.692 160.643 455.326 163.393 451.328 164.703C447.329 166.012 442.985 165.787 439.144 164.071L447.639 156.587L436.115 162.446L433.654 161.055C446.014 158.812 448.398 149.137 447.362 136.913Z" fill="#2F2E41"/>
<path d="M464.924 146.152C466.488 147.97 468.938 148.677 471.148 149.623C475.048 151.33 478.472 153.962 481.123 157.288C483.774 160.615 485.572 164.537 486.361 168.713C486.972 172.115 486.892 175.637 487.857 178.954C488.816 182.27 491.192 185.524 494.601 186.1C496.908 186.493 499.22 185.604 501.39 184.726C502.584 184.248 503.777 183.767 504.971 183.285C503.726 180.167 502.483 177.05 501.242 173.933C503.236 176.875 505.556 179.584 508.157 182.008C512.434 180.287 516.715 178.566 521 176.845C510.458 176.885 512.257 166.673 509.899 156.427C508.602 150.797 497.564 146.984 495.4 141.628C494.231 138.722 492.252 136.212 489.697 134.394C487.143 132.576 484.12 131.526 480.986 131.369C477.853 131.212 474.74 131.954 472.015 133.508C469.291 135.061 467.07 137.361 465.615 140.135C463.45 140.995 463.388 144.357 464.924 146.152Z" fill="#2F2E41"/>
<path d="M158.711 244.795C158.193 244.14 157.824 243.381 157.628 242.57C157.433 241.759 157.417 240.916 157.581 240.098C157.745 239.28 158.084 238.507 158.577 237.834C159.069 237.16 159.702 236.6 160.432 236.195L157.422 207.651L165.129 204.879L168.456 238.807C169.049 240.084 169.151 241.534 168.744 242.882C168.338 244.23 167.45 245.382 166.248 246.12C165.047 246.858 163.616 247.131 162.227 246.887C160.838 246.642 159.587 245.898 158.711 244.795Z" fill="#FFB6B6"/>
<path d="M154.589 140.146C154.589 140.146 167.1 146.238 167.14 153.399C167.181 160.561 168.217 167.038 167.238 169.809C166.259 172.58 169.726 192.721 168.103 194.716C166.48 196.71 169.824 197.731 168.067 201.144C166.31 204.558 165.532 205.201 166.176 205.977C166.82 206.753 167.766 221.551 167.766 221.551L157.457 222.837L146.49 175.077L154.589 140.146Z" fill="#3F3D56"/>
<path d="M95.0953 247.694C95.7101 247.129 96.1948 246.438 96.5156 245.668C96.8364 244.897 96.9857 244.067 96.9533 243.234C96.9208 242.4 96.7074 241.584 96.3277 240.841C95.948 240.098 95.4111 239.446 94.7541 238.931L102.237 211.218L95.0644 207.268L86.4184 240.248C85.6311 241.416 85.3006 242.831 85.4893 244.226C85.6781 245.621 86.3731 246.899 87.4426 247.817C88.5122 248.735 89.8819 249.229 91.2924 249.206C92.7028 249.184 94.0559 248.646 95.0953 247.694H95.0953Z" fill="#FFB6B6"/>
<path d="M115.698 145.003C115.698 145.003 102.381 149.05 101.209 156.116C100.038 163.181 97.991 169.414 98.52 172.305C99.049 175.195 92.4431 194.539 93.7306 196.764C95.0181 198.989 91.5551 199.47 92.7507 203.118C93.9464 206.765 94.6131 207.522 93.8546 208.187C93.0961 208.853 89.8242 223.316 89.8242 223.316L99.801 226.208L118.176 180.771L115.698 145.003Z" fill="#3F3D56"/>
<path d="M166.839 371.679L175.721 371.679L179.947 337.489L166.838 337.49L166.839 371.679Z" fill="#FFB6B6"/>
<path d="M178.677 372.477V366.468L176.342 366.61L166.837 367.172L164.637 367.307L162.955 387.432L162.865 388.511H169.172L169.375 387.44L170.291 382.57L172.656 387.44L173.174 388.511H189.895C190.89 388.505 191.842 388.107 192.545 387.404C193.248 386.702 193.644 385.75 193.649 384.757C194.354 381.468 180.449 374.358 178.677 372.477Z" fill="#2F2E41"/>
<path d="M62.7793 362.031L70.5048 366.405L91.0871 338.749L79.6854 332.294L62.7793 362.031Z" fill="#FFB6B6"/>
<path d="M72.6835 368.551L75.6493 363.329L73.562 362.302L65.0102 358.114L63.0281 357.14L53.29 371.368L51 374.71L53.5903 376.179L56.481 377.819L60.4002 373.204L59.9647 379.79L73.6221 387.53H73.6296L74.5081 388.024C75.3754 388.513 76.4018 388.639 77.3619 388.373C78.3219 388.108 79.1372 387.473 79.6286 386.608C81.866 384.091 73.2917 371.069 72.6835 368.551Z" fill="#2F2E41"/>
<path d="M122.759 203.851C103.073 204.556 96.1542 284.655 102.166 286.108L74.1113 338.283L114.043 356.146L140.298 265.169L144.674 298.648L138.84 351.779L164.651 358.008L182.504 356.736C177.865 293.405 166.282 226.61 156.683 200.773L122.759 203.851Z" fill="#2F2E41"/>
<path d="M113.722 209.467L113.592 209.953C126.175 216.939 134.768 215.445 148.523 211.216L158.564 209.11C160.756 206.258 158.97 203.468 156.541 200.752L162.561 151.342C162.551 149.753 162.214 148.183 161.57 146.73C160.927 145.277 159.991 143.972 158.821 142.895C157.651 141.818 156.272 140.992 154.768 140.469C153.265 139.946 151.67 139.738 150.083 139.856L141.041 133.171L128.168 133.614L119.557 143.106L114.413 144.94L110.416 146.362C109.608 147.088 108.726 147.925 107.881 148.849L114.203 186.396L116.892 197.624C113.287 201.726 111.301 205.729 113.722 209.467Z" fill="#3F3D56"/>
<path d="M40.6932 382.31C36.0682 381.761 31.6245 380.187 27.6868 377.704C23.7491 375.222 20.4168 371.893 17.9333 367.96C14.7038 362.734 13.0374 356.527 11.4258 350.524C10.9566 348.777 10.4717 346.971 9.95819 345.229C9.37759 343.327 9.38122 341.294 9.96862 339.393C10.556 337.492 11.7003 335.811 13.254 334.565C14.7559 333.308 16.6005 332.529 18.55 332.329C20.4995 332.128 22.4646 332.514 24.1921 333.438L24.5692 333.638L25.2299 348.459C26.2091 346.473 28.3576 341.988 30.0599 337.509L30.2027 337.134L30.5288 337.369C33.9511 339.822 37.0502 342.696 39.7529 345.922C44.5253 351.712 47.9769 358.47 49.868 365.725C51.7591 372.981 52.0443 380.56 50.7037 387.937L50.6215 388.376L40.6932 382.31Z" fill="#F2F2F2"/>
<path d="M3.24874e-06 388.268C-0.000284227 388.364 0.0185097 388.459 0.0552973 388.548C0.0920849 388.637 0.146146 388.718 0.214365 388.786C0.282585 388.854 0.363615 388.908 0.452803 388.945C0.54199 388.982 0.637571 389 0.734045 389H520.266C520.461 389 520.647 388.923 520.785 388.786C520.923 388.648 521 388.462 521 388.268C521 388.073 520.923 387.887 520.785 387.75C520.647 387.612 520.461 387.535 520.266 387.535H0.734007C0.637537 387.535 0.541966 387.554 0.452784 387.59C0.363602 387.627 0.282571 387.681 0.214356 387.749C0.146141 387.817 0.0920837 387.898 0.0552973 387.987C0.0185109 388.076 -0.000280929 388.171 3.24874e-06 388.268Z" fill="#CCCCCC"/>
<path d="M152.912 124.742L152.924 124.738C153.597 124.561 154.172 124.123 154.522 123.522C154.872 122.922 154.969 122.207 154.791 121.535L151.051 107.396C150.383 104.862 149.212 102.488 147.607 100.415C144.467 96.3718 139.885 93.6931 134.816 92.9377C132.199 92.5508 129.531 92.6966 126.973 93.3663C116.505 96.1061 113.582 99.5609 112.991 117.241C112.4 134.921 116.736 131.401 116.736 131.401C116.826 131.742 116.984 132.062 117.2 132.34C117.623 132.884 118.24 133.243 118.922 133.344C119.272 133.395 119.628 133.375 119.97 133.286C133.042 131.943 146.28 130.72 152.914 124.741L152.912 124.742Z" fill="#2F2E41"/>
<path d="M122.18 109.815C121.493 112.58 121.643 115.487 122.611 118.167C123.579 120.848 125.321 123.182 127.617 124.875C129.913 126.568 132.661 127.544 135.512 127.679C138.364 127.815 141.192 127.104 143.639 125.637C145.261 124.671 146.675 123.394 147.799 121.879C148.923 120.364 149.734 118.642 150.186 116.812C150.87 114.048 150.718 111.144 149.751 108.467C148.783 105.789 147.042 103.457 144.749 101.765C142.455 100.073 139.71 99.0968 136.861 98.9592C134.012 98.8217 131.186 99.529 128.739 100.992C127.115 101.956 125.699 103.233 124.573 104.747C123.447 106.262 122.634 107.985 122.18 109.815L122.18 109.815Z" fill="#FFB6B6"/>
<path d="M155.849 107.363C155.32 105.359 154.394 103.482 153.124 101.842C151.321 97.3551 148.492 93.7284 143.01 95.9302C140.954 95.627 138.858 95.7396 136.846 96.2613L134.007 96.9941C133.975 97.0023 133.943 97.0106 133.911 97.019C129.946 98.0661 126.56 100.642 124.498 104.18C122.437 107.719 121.868 111.929 122.917 115.886L122.992 116.169L128.997 114.613L129.534 108.372L131.455 113.978L134.557 113.175L134.827 110.026L135.796 112.853C141.678 115.133 148.495 112.871 155.921 107.648L155.849 107.363Z" fill="#2F2E41"/>
<path d="M142.071 127.121C142.286 127.553 142.375 128.037 142.328 128.517C142.306 128.763 142.249 129.004 142.159 129.233C142.082 129.429 141.983 129.615 141.862 129.788C141.504 130.297 140.977 130.663 140.373 130.819C140.336 130.828 140.298 130.837 140.26 130.845C140.222 130.854 140.184 130.861 140.145 130.867C140.106 130.874 140.067 130.88 140.029 130.884C139.99 130.889 139.95 130.893 139.911 130.896L137.679 131.071L133.093 125.591L134.608 131.318L124.467 132.129L118.039 107.826L134.288 103.629L134.01 104.2C133.091 106.111 132.718 108.238 132.932 110.346C133.16 112.48 133.752 114.558 134.683 116.492C135.609 118.453 136.722 120.32 138.006 122.068C139.135 123.62 140.352 125.105 141.652 126.516C141.819 126.697 141.961 126.901 142.071 127.121Z" fill="#2F2E41"/>
</g>
<defs>
<clipPath id="clip0_1375_755">
<rect width="521" height="389" fill="white"/>
</clipPath>
</defs>
</svg>
