<svg width="157" height="40" viewBox="0 0 157 40" fill="none" xmlns="http://www.w3.org/2000/svg">
<g clip-path="url(#clip0_966_20594)">
<path opacity="0.56" d="M15.1061 3.33333C15.1061 1.49167 16.6083 0 18.463 0H20.1415C31.2655 0 40.2831 8.95417 40.2831 20V36.6667C40.2831 38.5083 38.7809 40 36.9262 40H35.2477C24.1237 40 15.1061 31.0458 15.1061 20V3.33333Z" fill="#4A6CF7"/>
<path opacity="0.88" d="M16.7847 40C26.0546 40 33.5694 32.538 33.5694 23.3333C33.5694 14.1285 26.0546 6.66663 16.7847 6.66663C7.51476 6.66663 0 14.1285 0 23.3333C0 32.538 7.51476 40 16.7847 40Z" fill="#4A6CF7"/>
<path d="M63.2375 31.7787H68.8377L60.9753 10H54.8531L46.997 31.7787H52.5331L53.8347 27.9317H61.9354L63.2375 31.7787ZM60.5759 23.8366H55.227L57.8819 15.8635L60.5759 23.8366ZM79.175 25.2947L75.1857 14.4674H69.2762L76.3006 31.1893L72.3373 40H78.034L88.861 14.4674H83.1383L79.175 25.2947ZM96.0596 23.7435C96.0596 20.7652 97.516 19.8966 100.023 19.8966H101.473V14.2813C99.153 14.2813 97.2647 15.5223 96.0596 17.3526V14.4674H90.7686V31.7787H96.0596V23.7435ZM120.891 23.123C120.891 17.6318 116.998 14.2193 111.92 14.2193C106.88 14.2193 102.949 17.6318 102.949 23.123C102.949 28.6143 106.79 32.0269 111.862 32.0269C116.934 32.0269 120.891 28.6143 120.891 23.123ZM108.337 23.123C108.337 20.1758 110.006 18.8108 111.92 18.8108C113.776 18.8108 115.51 20.1758 115.51 23.123C115.51 26.0393 113.75 27.4354 111.862 27.4354C109.941 27.4354 108.337 26.0393 108.337 23.123ZM132.349 23.8056C132.349 29.4209 135.997 31.9959 140.456 31.9959C144.91 31.9959 148.59 29.4209 148.59 23.8056V10.1551H145.773V23.8366C145.773 27.8077 143.672 29.514 140.482 29.514C137.299 29.514 135.165 27.8077 135.165 23.8366V10.1551H132.349V23.8056ZM153.288 31.7787H156.098V10.1551H153.288V31.7787Z" fill="#2D2D2D"/>
</g>
<defs>
<clipPath id="clip0_966_20594">
<rect width="157" height="40" fill="white"/>
</clipPath>
</defs>
</svg>
