<svg width="200" height="52" viewBox="0 0 200 52" fill="none" xmlns="http://www.w3.org/2000/svg">
<path opacity="0.56" d="M19.3555 4.27083C19.3555 1.9112 21.2802 0 23.6565 0H25.8071C40.0598 0 51.6136 11.4725 51.6136 25.625V46.9792C51.6136 49.3388 49.6888 51.25 47.3125 51.25H45.1619C30.9092 51.25 19.3555 39.7775 19.3555 25.625V4.27083Z" fill="white"/>
<path opacity="0.88" d="M21.5054 51.2501C33.3825 51.2501 43.0108 41.6895 43.0108 29.8959C43.0108 18.1023 33.3825 8.54175 21.5054 8.54175C9.62829 8.54175 0 18.1023 0 29.8959C0 41.6895 9.62829 51.2501 21.5054 51.2501Z" fill="white"/>
<path d="M81.0229 40.7165H88.1982L78.1245 12.8125H70.2804L60.2148 40.7165H67.3079L68.9756 35.7876H79.3546L81.0229 40.7165ZM77.6127 30.5407H70.7595L74.1611 20.3251L77.6127 30.5407ZM101.443 32.4088L96.3315 18.5364H88.76L97.76 39.9612L92.6821 51.25H99.981L113.853 18.5364H106.521L101.443 32.4088ZM123.076 30.4214C123.076 26.6055 124.942 25.4925 128.155 25.4925H130.012V18.2979C127.04 18.2979 124.62 19.8879 123.076 22.2331V18.5364H116.297V40.7165H123.076V30.4214ZM154.891 29.6264C154.891 22.5908 149.904 18.2184 143.397 18.2184C136.94 18.2184 131.903 22.5908 131.903 29.6264C131.903 36.6621 136.825 41.0344 143.323 41.0344C149.821 41.0344 154.891 36.6621 154.891 29.6264ZM138.806 29.6264C138.806 25.8502 140.945 24.1013 143.397 24.1013C145.775 24.1013 147.997 25.8502 147.997 29.6264C147.997 33.3628 145.742 35.1516 143.323 35.1516C140.862 35.1516 138.806 33.3628 138.806 29.6264ZM169.572 30.5009C169.572 37.6955 174.246 40.9947 179.96 40.9947C185.665 40.9947 190.381 37.6955 190.381 30.5009V13.0113H186.772V30.5407C186.772 35.6286 184.08 37.8148 179.993 37.8148C175.914 37.8148 173.181 35.6286 173.181 30.5407V13.0113H169.572V30.5009ZM196.4 40.7165H200V13.0113H196.4V40.7165Z" fill="white"/>
</svg>
