<svg width="200" height="52" viewBox="0 0 200 52" fill="none" xmlns="http://www.w3.org/2000/svg">
<g clip-path="url(#clip0)">
<path opacity="0.64" d="M20.3634 38.4298C19.5181 38.4298 18.6918 38.6802 17.9891 39.1495C17.2863 39.6186 16.7386 40.2855 16.4152 41.0657C16.0917 41.846 16.0071 42.7045 16.1719 43.5328C16.3368 44.3611 16.7439 45.122 17.3416 45.7192C17.9391 46.3162 18.7007 46.723 19.5296 46.8877C20.3586 47.0524 21.2178 46.9679 21.9987 46.6447C22.7796 46.3215 23.4471 45.7742 23.9167 45.072C24.3862 44.3699 24.6368 43.5443 24.6368 42.6997C24.6368 41.5673 24.1866 40.4812 23.3852 39.6804C22.5837 38.8797 21.4967 38.4298 20.3634 38.4298Z" fill="#542DED"/>
<path opacity="0.64" d="M37.4805 38.4298C36.6353 38.4298 35.809 38.6802 35.1063 39.1495C34.4035 39.6186 33.8558 40.2855 33.5323 41.0657C33.2089 41.846 33.1243 42.7045 33.2891 43.5328C33.454 44.3611 33.8611 45.122 34.4586 45.7192C35.0563 46.3162 35.8179 46.723 36.6468 46.8877C37.4758 47.0524 38.335 46.9679 39.1159 46.6447C39.8968 46.3215 40.5643 45.7742 41.0338 45.072C41.5034 44.3699 41.754 43.5443 41.754 42.6997C41.754 41.5673 41.3037 40.4812 40.5023 39.6804C39.7009 38.8797 38.6139 38.4298 37.4805 38.4298Z" fill="#542DED"/>
<path d="M41.6658 8.53967H13.7598C13.496 8.54881 13.2447 8.65528 13.0547 8.83858L17.3283 27.4557C17.3283 27.6051 17.3283 27.7332 17.4778 27.8826C17.976 28.4871 18.6026 28.9733 19.3123 29.3057C20.0219 29.638 20.7967 29.8084 21.5803 29.8041H37.4778C40.0003 29.7763 42.4114 28.7613 44.1931 26.9769C45.9751 25.1926 46.9855 22.7812 47.0078 20.2607V13.8558C47.0021 12.4439 46.4367 11.0918 45.4356 10.0954C44.4344 9.09907 43.0789 8.53967 41.6658 8.53967Z" fill="#542DED"/>
<path opacity="0.8" d="M38.7607 35.8464H24.2307C21.9767 35.8559 19.7872 35.0943 18.0263 33.6884C16.2654 32.2824 15.0391 30.3166 14.5512 28.1178L10.2777 9.26583C10.1345 8.63265 9.78312 8.06567 9.27959 7.65544C8.77608 7.24522 8.1495 7.01542 7.49994 7.00274H5.64096C5.27827 7.00274 4.93044 6.85878 4.67398 6.60254C4.41751 6.34629 4.27344 5.99875 4.27344 5.63636C4.27344 5.27396 4.41751 4.92642 4.67398 4.67017C4.93044 4.41392 5.27827 4.26996 5.64096 4.26996H7.49994C8.78333 4.26386 10.0301 4.69688 11.0331 5.49701C12.036 6.29713 12.7346 7.41617 13.0127 8.66803L17.2863 27.52C17.6417 29.1107 18.5303 30.5325 19.8049 31.5497C21.0795 32.5669 22.6636 33.1188 24.2948 33.1137H38.8248C39.1874 33.1137 39.5353 33.2575 39.7917 33.5138C40.0482 33.77 40.1922 34.1176 40.1922 34.48C40.1922 34.8424 40.0482 35.1899 39.7917 35.4462C39.5353 35.7024 39.1874 35.8464 38.8248 35.8464H38.7607Z" fill="#542DED"/>
<path d="M73.8723 23.3141C72.1287 23.3141 70.7355 22.7761 69.6928 21.7C68.6501 20.607 68.0774 19.121 67.9749 17.2422L67.9492 16.3711L67.9749 15.5257C68.0774 13.681 68.6501 12.2121 69.6928 11.119C70.7355 10.0259 72.1287 9.47937 73.8723 9.47937C75.7527 9.47937 77.2056 10.0772 78.2313 11.2728C79.274 12.4683 79.7954 14.0909 79.7954 16.1405V16.6017C79.7954 16.7724 79.7355 16.9177 79.6159 17.0372C79.5133 17.1397 79.3765 17.1909 79.2056 17.1909H70.3082V17.4215C70.3595 18.5318 70.7014 19.4797 71.3338 20.2653C71.9663 21.051 72.804 21.4438 73.8467 21.4438C74.6501 21.4438 75.2996 21.2901 75.7954 20.9827C76.3082 20.6582 76.6928 20.3251 76.9492 19.9835C77.1031 19.7785 77.2227 19.659 77.3082 19.6248C77.3937 19.5736 77.539 19.548 77.7441 19.548H78.8723C79.0261 19.548 79.1543 19.5906 79.2569 19.6761C79.3765 19.7615 79.4364 19.8724 79.4364 20.0091C79.4364 20.3848 79.2056 20.8375 78.7441 21.367C78.2826 21.8964 77.6245 22.3576 76.7697 22.7504C75.9322 23.1262 74.9663 23.3141 73.8723 23.3141ZM77.462 15.4488V15.3719C77.462 14.1764 77.1373 13.2028 76.4877 12.4513C75.8381 11.6998 74.9663 11.324 73.8723 11.324C72.7611 11.324 71.8894 11.6998 71.2569 12.4513C70.6245 13.2028 70.3082 14.1764 70.3082 15.3719V15.4488H77.462ZM87.2209 23.3141C85.3918 23.3141 83.9645 22.8017 82.9388 21.7769C81.9132 20.7351 81.3747 19.2832 81.3235 17.4215L81.2978 16.3967L81.3235 15.3719C81.3747 13.5103 81.9132 12.067 82.9388 11.0422C83.9645 10.0003 85.3918 9.47937 87.2209 9.47937C88.4517 9.47937 89.4858 9.7014 90.3235 10.1455C91.1781 10.5725 91.8106 11.1105 92.2209 11.7595C92.6482 12.4086 92.879 13.0576 92.9132 13.7066C92.9303 13.8604 92.8704 13.997 92.7337 14.1166C92.614 14.2361 92.4773 14.2959 92.3235 14.2959H91.1952C91.0242 14.2959 90.896 14.2617 90.8106 14.1934C90.7251 14.108 90.6396 13.9628 90.5542 13.7579C90.2465 12.921 89.8191 12.3317 89.2722 11.9901C88.7422 11.6314 88.067 11.4521 87.2465 11.4521C86.1696 11.4521 85.3149 11.7852 84.6824 12.4513C84.0499 13.1174 83.7081 14.1336 83.6568 15.5L83.6311 16.3967L83.6568 17.2934C83.7081 18.6599 84.0499 19.6761 84.6824 20.3422C85.3149 21.0083 86.1696 21.3414 87.2465 21.3414C88.0841 21.3414 88.7678 21.1706 89.2978 20.829C89.8277 20.4703 90.2465 19.8724 90.5542 19.0356C90.6396 18.8306 90.7251 18.6939 90.8106 18.6257C90.896 18.5402 91.0242 18.4976 91.1952 18.4976H92.3235C92.4773 18.4976 92.614 18.5574 92.7337 18.6769C92.8704 18.7964 92.9303 18.9331 92.9132 19.0868C92.879 19.7187 92.6482 20.3592 92.2209 21.0083C91.8106 21.6574 91.1781 22.2038 90.3235 22.648C89.4858 23.0921 88.4517 23.3141 87.2209 23.3141ZM100.37 23.3141C98.4894 23.3141 97.0364 22.7846 96.0108 21.7257C95.0022 20.6667 94.4637 19.2576 94.3954 17.4984L94.3697 16.3967L94.3954 15.2951C94.4637 13.5359 95.0108 12.1268 96.0364 11.0678C97.0791 10.0088 98.5236 9.47937 100.37 9.47937C102.216 9.47937 103.652 10.0088 104.677 11.0678C105.72 12.1268 106.276 13.5359 106.344 15.2951C106.378 15.6708 106.395 16.038 106.395 16.3967C106.395 16.7554 106.378 17.1227 106.344 17.4984C106.276 19.2576 105.729 20.6667 104.703 21.7257C103.694 22.7846 102.25 23.3141 100.37 23.3141ZM100.37 21.3926C101.464 21.3926 102.327 21.051 102.959 20.3678C103.609 19.6675 103.959 18.6683 104.011 17.3703C104.028 17.1995 104.036 16.8749 104.036 16.3967C104.036 15.9185 104.028 15.5939 104.011 15.4232C103.959 14.1251 103.609 13.1344 102.959 12.4513C102.327 11.751 101.464 11.4009 100.37 11.4009C99.2756 11.4009 98.4038 11.751 97.7544 12.4513C97.1218 13.1344 96.78 14.1251 96.7287 15.4232L96.7031 16.3967L96.7287 17.3703C96.78 18.6683 97.1218 19.6675 97.7544 20.3678C98.4038 21.051 99.2756 21.3926 100.37 21.3926ZM109.197 23.0579C109.026 23.0579 108.881 23.0066 108.761 22.9042C108.659 22.7846 108.607 22.6394 108.607 22.4686V10.3248C108.607 10.154 108.659 10.0174 108.761 9.91491C108.881 9.79535 109.026 9.73557 109.197 9.73557H110.274C110.445 9.73557 110.582 9.79535 110.684 9.91491C110.787 10.0174 110.838 10.154 110.838 10.3248V11.1959C111.761 10.0516 113.009 9.47937 114.582 9.47937C116.462 9.47937 117.795 10.265 118.582 11.8364C118.992 11.119 119.573 10.5469 120.325 10.1199C121.094 9.69287 121.949 9.47937 122.889 9.47937C124.291 9.47937 125.436 9.9576 126.325 10.9141C127.214 11.8706 127.659 13.2541 127.659 15.0645V22.4686C127.659 22.6394 127.599 22.7846 127.479 22.9042C127.377 23.0066 127.24 23.0579 127.069 23.0579H125.966C125.795 23.0579 125.65 23.0066 125.53 22.9042C125.428 22.7846 125.377 22.6394 125.377 22.4686V15.2951C125.377 13.9286 125.094 12.9551 124.53 12.3744C123.966 11.7766 123.223 11.4777 122.3 11.4777C121.479 11.4777 120.77 11.7852 120.171 12.4C119.59 12.9979 119.3 13.9628 119.3 15.2951V22.4686C119.3 22.6394 119.24 22.7846 119.12 22.9042C119.018 23.0066 118.881 23.0579 118.71 23.0579H117.582C117.411 23.0579 117.265 23.0066 117.146 22.9042C117.043 22.7846 116.992 22.6394 116.992 22.4686V15.2951C116.992 13.9458 116.693 12.9723 116.094 12.3744C115.513 11.7766 114.787 11.4777 113.915 11.4777C113.094 11.4777 112.385 11.7766 111.787 12.3744C111.206 12.9723 110.915 13.9372 110.915 15.2695V22.4686C110.915 22.6394 110.855 22.7846 110.736 22.9042C110.633 23.0066 110.496 23.0579 110.325 23.0579H109.197ZM130.933 23.0579C130.762 23.0579 130.617 23.0066 130.497 22.9042C130.394 22.7846 130.343 22.6394 130.343 22.4686V10.3248C130.343 10.154 130.394 10.0174 130.497 9.91491C130.617 9.79535 130.762 9.73557 130.933 9.73557H132.009C132.181 9.73557 132.317 9.79535 132.42 9.91491C132.522 10.0174 132.574 10.154 132.574 10.3248V11.1959C133.497 10.0516 134.745 9.47937 136.317 9.47937C138.198 9.47937 139.531 10.265 140.317 11.8364C140.727 11.119 141.309 10.5469 142.061 10.1199C142.83 9.69287 143.685 9.47937 144.625 9.47937C146.027 9.47937 147.172 9.9576 148.061 10.9141C148.951 11.8706 149.394 13.2541 149.394 15.0645V22.4686C149.394 22.6394 149.335 22.7846 149.215 22.9042C149.112 23.0066 148.976 23.0579 148.804 23.0579H147.702C147.531 23.0579 147.386 23.0066 147.266 22.9042C147.163 22.7846 147.112 22.6394 147.112 22.4686V15.2951C147.112 13.9286 146.83 12.9551 146.266 12.3744C145.702 11.7766 144.958 11.4777 144.035 11.4777C143.215 11.4777 142.506 11.7852 141.907 12.4C141.326 12.9979 141.035 13.9628 141.035 15.2951V22.4686C141.035 22.6394 140.976 22.7846 140.856 22.9042C140.753 23.0066 140.617 23.0579 140.445 23.0579H139.317C139.147 23.0579 139.002 23.0066 138.881 22.9042C138.779 22.7846 138.727 22.6394 138.727 22.4686V15.2951C138.727 13.9458 138.429 12.9723 137.83 12.3744C137.249 11.7766 136.522 11.4777 135.651 11.4777C134.83 11.4777 134.121 11.7766 133.522 12.3744C132.942 12.9723 132.651 13.9372 132.651 15.2695V22.4686C132.651 22.6394 132.592 22.7846 132.471 22.9042C132.368 23.0066 132.233 23.0579 132.061 23.0579H130.933ZM157.361 23.3141C155.617 23.3141 154.224 22.7761 153.181 21.7C152.139 20.607 151.566 19.121 151.463 17.2422L151.438 16.3711L151.463 15.5257C151.566 13.681 152.139 12.2121 153.181 11.119C154.224 10.0259 155.617 9.47937 157.361 9.47937C159.242 9.47937 160.694 10.0772 161.72 11.2728C162.762 12.4683 163.284 14.0909 163.284 16.1405V16.6017C163.284 16.7724 163.224 16.9177 163.104 17.0372C163.002 17.1397 162.865 17.1909 162.694 17.1909H153.797V17.4215C153.848 18.5318 154.19 19.4797 154.822 20.2653C155.454 21.051 156.293 21.4438 157.335 21.4438C158.139 21.4438 158.788 21.2901 159.284 20.9827C159.797 20.6582 160.181 20.3251 160.438 19.9835C160.592 19.7785 160.711 19.659 160.797 19.6248C160.883 19.5736 161.027 19.548 161.233 19.548H162.361C162.515 19.548 162.643 19.5906 162.745 19.6761C162.865 19.7615 162.925 19.8724 162.925 20.0091C162.925 20.3848 162.694 20.8375 162.233 21.367C161.771 21.8964 161.113 22.3576 160.258 22.7504C159.421 23.1262 158.454 23.3141 157.361 23.3141ZM160.951 15.4488V15.3719C160.951 14.1764 160.626 13.2028 159.976 12.4513C159.326 11.6998 158.454 11.324 157.361 11.324C156.249 11.324 155.377 11.6998 154.745 12.4513C154.113 13.2028 153.797 14.1764 153.797 15.3719V15.4488H160.951ZM165.966 23.0579C165.795 23.0579 165.649 23.0066 165.53 22.9042C165.427 22.7846 165.376 22.6394 165.376 22.4686V10.3504C165.376 10.1796 165.427 10.0345 165.53 9.91491C165.649 9.79535 165.795 9.73557 165.966 9.73557H167.043C167.231 9.73557 167.376 9.79535 167.479 9.91491C167.598 10.0174 167.658 10.1626 167.658 10.3504V11.4777C168.359 10.3163 169.547 9.73557 171.222 9.73557H172.222C172.411 9.73557 172.556 9.78681 172.658 9.88929C172.761 9.99177 172.812 10.1369 172.812 10.3248V11.2728C172.812 11.4436 172.761 11.5887 172.658 11.7083C172.556 11.8108 172.411 11.862 172.222 11.862H170.761C169.821 11.862 169.077 12.1353 168.53 12.6818C168.001 13.2284 167.735 13.9714 167.735 14.9108V22.4686C167.735 22.6394 167.675 22.7846 167.556 22.9042C167.436 23.0066 167.29 23.0579 167.12 23.0579H165.966ZM179.074 23.3141C177.245 23.3141 175.817 22.8017 174.792 21.7769C173.766 20.7351 173.227 19.2832 173.176 17.4215L173.151 16.3967L173.176 15.3719C173.227 13.5103 173.766 12.067 174.792 11.0422C175.817 10.0003 177.245 9.47937 179.074 9.47937C180.304 9.47937 181.339 9.7014 182.176 10.1455C183.031 10.5725 183.663 11.1105 184.074 11.7595C184.502 12.4086 184.733 13.0576 184.766 13.7066C184.784 13.8604 184.724 13.997 184.586 14.1166C184.467 14.2361 184.33 14.2959 184.176 14.2959H183.048C182.877 14.2959 182.749 14.2617 182.663 14.1934C182.579 14.108 182.493 13.9628 182.407 13.7579C182.099 12.921 181.672 12.3317 181.125 11.9901C180.595 11.6314 179.92 11.4521 179.099 11.4521C178.022 11.4521 177.168 11.7852 176.535 12.4513C175.903 13.1174 175.561 14.1336 175.51 15.5L175.484 16.3967L175.51 17.2934C175.561 18.6599 175.903 19.6761 176.535 20.3422C177.168 21.0083 178.022 21.3414 179.099 21.3414C179.938 21.3414 180.621 21.1706 181.151 20.829C181.681 20.4703 182.099 19.8724 182.407 19.0356C182.493 18.8306 182.579 18.6939 182.663 18.6257C182.749 18.5402 182.877 18.4976 183.048 18.4976H184.176C184.33 18.4976 184.467 18.5574 184.586 18.6769C184.724 18.7964 184.784 18.9331 184.766 19.0868C184.733 19.7187 184.502 20.3592 184.074 21.0083C183.663 21.6574 183.031 22.2038 182.176 22.648C181.339 23.0921 180.304 23.3141 179.074 23.3141ZM192.094 23.3141C190.351 23.3141 188.958 22.7761 187.915 21.7C186.872 20.607 186.299 19.121 186.197 17.2422L186.171 16.3711L186.197 15.5257C186.299 13.681 186.872 12.2121 187.915 11.119C188.958 10.0259 190.351 9.47937 192.094 9.47937C193.975 9.47937 195.427 10.0772 196.453 11.2728C197.497 12.4683 198.017 14.0909 198.017 16.1405V16.6017C198.017 16.7724 197.958 16.9177 197.838 17.0372C197.735 17.1397 197.599 17.1909 197.427 17.1909H188.53V17.4215C188.581 18.5318 188.924 19.4797 189.556 20.2653C190.189 21.051 191.026 21.4438 192.068 21.4438C192.872 21.4438 193.522 21.2901 194.017 20.9827C194.53 20.6582 194.915 20.3251 195.171 19.9835C195.325 19.7785 195.445 19.659 195.53 19.6248C195.616 19.5736 195.761 19.548 195.966 19.548H197.094C197.248 19.548 197.376 19.5906 197.479 19.6761C197.599 19.7615 197.658 19.8724 197.658 20.0091C197.658 20.3848 197.427 20.8375 196.966 21.367C196.504 21.8964 195.847 22.3576 194.992 22.7504C194.154 23.1262 193.189 23.3141 192.094 23.3141ZM195.684 15.4488V15.3719C195.684 14.1764 195.36 13.2028 194.71 12.4513C194.061 11.6998 193.189 11.324 192.094 11.324C190.984 11.324 190.112 11.6998 189.479 12.4513C188.847 13.2028 188.53 14.1764 188.53 15.3719V15.4488H195.684Z" fill="#542DED"/>
<path fill-rule="evenodd" clip-rule="evenodd" d="M121.792 28.1819H75.3179L66.6641 39.7108L75.3179 51.2397H116.664L121.792 28.1819ZM124.356 28.1819L119.228 51.2397H127.241L135.895 39.7108L127.241 28.1819H124.356Z" fill="#542DED"/>
<path d="M76.8067 44.8347C76.7042 44.8347 76.617 44.7988 76.5452 44.7271C76.4734 44.6553 76.4375 44.5682 76.4375 44.4657V34.4586C76.4375 34.3459 76.4683 34.2537 76.5298 34.1819C76.6016 34.1102 76.6939 34.0743 76.8067 34.0743H78.2221C78.3349 34.0743 78.4272 34.1102 78.499 34.1819C78.5708 34.2537 78.6067 34.3459 78.6067 34.4586V38.4092H83.099V34.4586C83.099 34.3459 83.1349 34.2537 83.2067 34.1819C83.2785 34.1102 83.3657 34.0743 83.4683 34.0743H84.899C85.0119 34.0743 85.099 34.1102 85.1606 34.1819C85.2324 34.2537 85.2683 34.3459 85.2683 34.4586V44.4657C85.2683 44.5682 85.2324 44.6553 85.1606 44.7271C85.099 44.7988 85.0119 44.8347 84.899 44.8347H83.4683C83.3657 44.8347 83.2785 44.7988 83.2067 44.7271C83.1349 44.6553 83.099 44.5682 83.099 44.4657V40.3614H78.6067V44.4657C78.6067 44.5682 78.5708 44.6553 78.499 44.7271C78.4272 44.7988 78.3349 44.8347 78.2221 44.8347H76.8067ZM89.7985 44.8347C89.696 44.8347 89.6088 44.7988 89.537 44.7271C89.4652 44.6553 89.4293 44.5682 89.4293 44.4657V35.9958H86.5831C86.4806 35.9958 86.3934 35.96 86.3216 35.8882C86.2498 35.8165 86.2139 35.7243 86.2139 35.6115V34.4586C86.2139 34.3459 86.2447 34.2537 86.3062 34.1819C86.378 34.1102 86.4703 34.0743 86.5831 34.0743H94.4447C94.5575 34.0743 94.6498 34.1102 94.7216 34.1819C94.7934 34.2537 94.8293 34.3459 94.8293 34.4586V35.6115C94.8293 35.7243 94.7934 35.8165 94.7216 35.8882C94.6498 35.96 94.5575 35.9958 94.4447 35.9958H91.6139V44.4657C91.6139 44.5682 91.578 44.6553 91.5062 44.7271C91.4447 44.7988 91.3575 44.8347 91.2447 44.8347H89.7985ZM96.1439 44.8347C96.0414 44.8347 95.9542 44.7988 95.8824 44.7271C95.8106 44.6553 95.7747 44.5682 95.7747 44.4657V34.4586C95.7747 34.3459 95.8054 34.2537 95.867 34.1819C95.9388 34.1102 96.0311 34.0743 96.1439 34.0743H97.3901C97.5849 34.0743 97.7388 34.1717 97.8516 34.3664L100.821 39.8695L103.79 34.3664C103.903 34.1717 104.057 34.0743 104.252 34.0743H105.482C105.595 34.0743 105.688 34.1102 105.759 34.1819C105.831 34.2537 105.867 34.3459 105.867 34.4586V44.4657C105.867 44.5785 105.831 44.6707 105.759 44.7424C105.688 44.8039 105.595 44.8347 105.482 44.8347H104.159C104.057 44.8347 103.97 44.7988 103.898 44.7271C103.826 44.6553 103.79 44.5682 103.79 44.4657V37.8558L101.652 41.914C101.539 42.1395 101.37 42.2522 101.144 42.2522H100.498C100.282 42.2522 100.108 42.1395 99.9747 41.914L97.8362 37.8558V44.4657C97.8362 44.5682 97.8003 44.6553 97.7285 44.7271C97.667 44.7988 97.5798 44.8347 97.467 44.8347H96.1439ZM108.013 44.8347C107.911 44.8347 107.824 44.7988 107.752 44.7271C107.68 44.6553 107.644 44.5682 107.644 44.4657V34.4433C107.644 34.3305 107.68 34.2434 107.752 34.1819C107.824 34.1102 107.911 34.0743 108.013 34.0743H109.46C109.572 34.0743 109.66 34.1102 109.721 34.1819C109.793 34.2434 109.829 34.3305 109.829 34.4433V42.99H114.706C114.819 42.99 114.911 43.0259 114.983 43.0976C115.054 43.1694 115.09 43.2565 115.09 43.359V44.4657C115.09 44.5682 115.054 44.6553 114.983 44.7271C114.911 44.7988 114.819 44.8347 114.706 44.8347H108.013Z" fill="white"/>
</g>
<defs>
<clipPath id="clip0">
<rect width="200" height="51.2397" fill="white"/>
</clipPath>
</defs>
</svg>
