<svg width="102" height="26" viewBox="0 0 102 26" fill="none" xmlns="http://www.w3.org/2000/svg">
<path opacity="0.64" d="M10.3325 19.5C9.90363 19.5 9.48435 19.6271 9.1278 19.8652C8.77117 20.1032 8.49326 20.4416 8.32913 20.8375C8.165 21.2334 8.12206 21.6691 8.20572 22.0893C8.28938 22.5096 8.49593 22.8957 8.79921 23.1988C9.10242 23.5017 9.48884 23.7081 9.90948 23.7917C10.3301 23.8753 10.7661 23.8324 11.1624 23.6684C11.5586 23.5044 11.8973 23.2267 12.1356 22.8704C12.3738 22.5141 12.501 22.0952 12.501 21.6666C12.501 21.092 12.2725 20.5409 11.8658 20.1346C11.4592 19.7283 10.9076 19.5 10.3325 19.5Z" fill="white"/>
<path opacity="0.64" d="M19.0176 19.5C18.5887 19.5 18.1694 19.6271 17.8129 19.8652C17.4562 20.1032 17.1783 20.4416 17.0142 20.8375C16.8501 21.2334 16.8071 21.6691 16.8908 22.0893C16.9744 22.5096 17.181 22.8957 17.4842 23.1988C17.7875 23.5017 18.1739 23.7081 18.5945 23.7917C19.0152 23.8753 19.4512 23.8324 19.8474 23.6684C20.2437 23.5044 20.5823 23.2267 20.8206 22.8704C21.0588 22.5141 21.186 22.0952 21.186 21.6666C21.186 21.092 20.9576 20.5409 20.5509 20.1346C20.1443 19.7283 19.5927 19.5 19.0176 19.5Z" fill="white"/>
<path d="M21.1424 4.33325H6.98231C6.84843 4.33789 6.72092 4.39191 6.62451 4.48492L8.79301 13.9316C8.79301 14.0074 8.79301 14.0724 8.86887 14.1483C9.12167 14.455 9.43965 14.7017 9.79972 14.8703C10.1598 15.0389 10.553 15.1254 10.9506 15.1233H19.0173C20.2973 15.1091 21.5207 14.5941 22.4248 13.6886C23.329 12.7833 23.8416 11.5597 23.853 10.2808V7.03075C23.8501 6.31434 23.5632 5.62824 23.0552 5.12267C22.5472 4.6171 21.8594 4.33325 21.1424 4.33325Z" fill="white"/>
<path opacity="0.8" d="M19.6684 18.1892H12.2956C11.1519 18.194 10.0409 17.8075 9.14741 17.0942C8.2539 16.3807 7.63166 15.3832 7.38406 14.2675L5.21563 4.70166C5.14298 4.38037 4.96466 4.09267 4.70916 3.88452C4.45367 3.67636 4.13574 3.55976 3.80613 3.55332H2.86285C2.67882 3.55332 2.50232 3.48028 2.37219 3.35026C2.24205 3.22023 2.16895 3.04388 2.16895 2.85999C2.16895 2.67611 2.24205 2.49976 2.37219 2.36973C2.50232 2.23971 2.67882 2.16666 2.86285 2.16666H3.80613C4.45735 2.16356 5.09001 2.38328 5.59892 2.78929C6.10782 3.19528 6.46231 3.7631 6.60342 4.39832L8.77192 13.9642C8.95225 14.7713 9.40314 15.4928 10.0499 16.0089C10.6967 16.5251 11.5005 16.8051 12.3282 16.8025H19.701C19.885 16.8025 20.0615 16.8755 20.1916 17.0056C20.3218 17.1356 20.3948 17.3119 20.3948 17.4958C20.3948 17.6797 20.3218 17.856 20.1916 17.9861C20.0615 18.1161 19.885 18.1892 19.701 18.1892H19.6684Z" fill="white"/>
<path d="M37.484 11.83C36.5993 11.83 35.8923 11.557 35.3632 11.011C34.8342 10.4564 34.5436 9.70235 34.4915 8.749L34.4785 8.307L34.4915 7.878C34.5436 6.942 34.8342 6.19666 35.3632 5.642C35.8923 5.08733 36.5993 4.81 37.484 4.81C38.4381 4.81 39.1754 5.11333 39.6958 5.72C40.2249 6.32666 40.4895 7.15 40.4895 8.19V8.424C40.4895 8.51064 40.4591 8.58435 40.3984 8.645C40.3464 8.697 40.277 8.723 40.1902 8.723H35.6755V8.84C35.7015 9.40335 35.875 9.88435 36.1959 10.283C36.5168 10.6816 36.9419 10.881 37.471 10.881C37.8787 10.881 38.2082 10.803 38.4598 10.647C38.72 10.4824 38.9152 10.3134 39.0453 10.14C39.1234 10.036 39.184 9.97535 39.2274 9.958C39.2708 9.932 39.3445 9.919 39.4486 9.919H40.0211C40.0992 9.919 40.1642 9.94064 40.2163 9.984C40.277 10.0274 40.3073 10.0836 40.3073 10.153C40.3073 10.3436 40.1902 10.5734 39.956 10.842C39.7218 11.1106 39.3879 11.3446 38.9542 11.544C38.5292 11.7346 38.0391 11.83 37.484 11.83ZM39.3055 7.839V7.8C39.3055 7.19335 39.1407 6.69935 38.8111 6.318C38.4815 5.93666 38.0391 5.746 37.484 5.746C36.9202 5.746 36.4778 5.93666 36.1569 6.318C35.836 6.69935 35.6755 7.19335 35.6755 7.8V7.839H39.3055ZM44.2573 11.83C43.3292 11.83 42.605 11.57 42.0845 11.05C41.5641 10.5214 41.2909 9.78464 41.2649 8.84L41.2518 8.32L41.2649 7.8C41.2909 6.85535 41.5641 6.123 42.0845 5.603C42.605 5.07433 43.3292 4.81 44.2573 4.81C44.8818 4.81 45.4066 4.92266 45.8316 5.148C46.2653 5.36466 46.5863 5.63766 46.7944 5.967C47.0113 6.29633 47.1284 6.62564 47.1457 6.955C47.1544 7.033 47.124 7.10235 47.0546 7.163C46.9939 7.22364 46.9245 7.254 46.8465 7.254H46.274C46.1872 7.254 46.1222 7.23664 46.0788 7.202C46.0354 7.15864 45.9921 7.085 45.9487 6.981C45.7926 6.55635 45.5757 6.25733 45.2982 6.084C45.0293 5.902 44.6867 5.811 44.2703 5.811C43.7239 5.811 43.2902 5.98 42.9693 6.318C42.6483 6.656 42.4749 7.17164 42.4488 7.865L42.4358 8.32L42.4488 8.775C42.4749 9.46835 42.6483 9.984 42.9693 10.322C43.2902 10.66 43.7239 10.829 44.2703 10.829C44.6953 10.829 45.0423 10.7424 45.3112 10.569C45.5801 10.387 45.7926 10.0836 45.9487 9.659C45.9921 9.555 46.0354 9.48564 46.0788 9.451C46.1222 9.40764 46.1872 9.386 46.274 9.386H46.8465C46.9245 9.386 46.9939 9.41635 47.0546 9.477C47.124 9.53764 47.1544 9.607 47.1457 9.685C47.1284 10.0056 47.0113 10.3306 46.7944 10.66C46.5863 10.9894 46.2653 11.2666 45.8316 11.492C45.4066 11.7174 44.8818 11.83 44.2573 11.83ZM50.9293 11.83C49.9752 11.83 49.2379 11.5614 48.7175 11.024C48.2057 10.4866 47.9325 9.77164 47.8978 8.879L47.8848 8.32L47.8978 7.761C47.9325 6.86835 48.2101 6.15333 48.7305 5.616C49.2596 5.07866 49.9925 4.81 50.9293 4.81C51.8661 4.81 52.5947 5.07866 53.1151 5.616C53.6442 6.15333 53.9261 6.86835 53.9608 7.761C53.9781 7.95164 53.9868 8.138 53.9868 8.32C53.9868 8.502 53.9781 8.68835 53.9608 8.879C53.9261 9.77164 53.6486 10.4866 53.1281 11.024C52.6164 11.5614 51.8834 11.83 50.9293 11.83ZM50.9293 10.855C51.4844 10.855 51.9224 10.6816 52.2434 10.335C52.573 9.97964 52.7508 9.47264 52.7768 8.814C52.7855 8.72735 52.7899 8.56264 52.7899 8.32C52.7899 8.07735 52.7855 7.91264 52.7768 7.826C52.7508 7.16735 52.573 6.66464 52.2434 6.318C51.9224 5.96266 51.4844 5.785 50.9293 5.785C50.3741 5.785 49.9318 5.96266 49.6022 6.318C49.2812 6.66464 49.1078 7.16735 49.0818 7.826L49.0688 8.32L49.0818 8.814C49.1078 9.47264 49.2812 9.97964 49.6022 10.335C49.9318 10.6816 50.3741 10.855 50.9293 10.855ZM55.4085 11.7C55.3217 11.7 55.248 11.674 55.1873 11.622C55.1352 11.5614 55.1092 11.4876 55.1092 11.401V5.239C55.1092 5.15233 55.1352 5.083 55.1873 5.031C55.248 4.97033 55.3217 4.94 55.4085 4.94H55.9549C56.0416 4.94 56.111 4.97033 56.1631 5.031C56.2151 5.083 56.2411 5.15233 56.2411 5.239V5.681C56.7095 5.10033 57.3427 4.81 58.1407 4.81C59.0948 4.81 59.7714 5.20866 60.1704 6.006C60.3786 5.642 60.6735 5.35166 61.0551 5.135C61.4455 4.91833 61.8791 4.81 62.3562 4.81C63.0674 4.81 63.6486 5.05266 64.0996 5.538C64.5507 6.02333 64.7762 6.72535 64.7762 7.644V11.401C64.7762 11.4876 64.7458 11.5614 64.6851 11.622C64.6331 11.674 64.5637 11.7 64.477 11.7H63.9175C63.8307 11.7 63.757 11.674 63.6963 11.622C63.6443 11.5614 63.6182 11.4876 63.6182 11.401V7.761C63.6182 7.06764 63.4751 6.57364 63.1889 6.279C62.9027 5.97566 62.5253 5.824 62.057 5.824C61.6406 5.824 61.2806 5.98 60.9771 6.292C60.6821 6.59535 60.5347 7.085 60.5347 7.761V11.401C60.5347 11.4876 60.5043 11.5614 60.4436 11.622C60.3916 11.674 60.3222 11.7 60.2354 11.7H59.663C59.5762 11.7 59.5025 11.674 59.4418 11.622C59.3897 11.5614 59.3637 11.4876 59.3637 11.401V7.761C59.3637 7.07635 59.2119 6.58235 58.9084 6.279C58.6134 5.97566 58.2448 5.824 57.8024 5.824C57.3861 5.824 57.0261 5.97566 56.7225 6.279C56.4276 6.58235 56.2802 7.072 56.2802 7.748V11.401C56.2802 11.4876 56.2498 11.5614 56.1891 11.622C56.1371 11.674 56.0676 11.7 55.9809 11.7H55.4085ZM66.4375 11.7C66.351 11.7 66.2774 11.674 66.2163 11.622C66.1643 11.5614 66.1382 11.4876 66.1382 11.401V5.239C66.1382 5.15233 66.1643 5.083 66.2163 5.031C66.2774 4.97033 66.351 4.94 66.4375 4.94H66.9839C67.0711 4.94 67.1401 4.97033 67.1921 5.031C67.2441 5.083 67.2702 5.15233 67.2702 5.239V5.681C67.7386 5.10033 68.3722 4.81 69.1697 4.81C70.1241 4.81 70.8006 5.20866 71.1994 6.006C71.4076 5.642 71.7029 5.35166 72.0841 5.135C72.4745 4.91833 72.9084 4.81 73.3852 4.81C74.0969 4.81 74.6778 5.05266 75.1287 5.538C75.5801 6.02333 75.8052 6.72535 75.8052 7.644V11.401C75.8052 11.4876 75.7753 11.5614 75.7141 11.622C75.6621 11.674 75.5931 11.7 75.506 11.7H74.9465C74.86 11.7 74.7865 11.674 74.7253 11.622C74.6733 11.5614 74.6473 11.4876 74.6473 11.401V7.761C74.6473 7.06764 74.5041 6.57364 74.2179 6.279C73.9317 5.97566 73.5544 5.824 73.086 5.824C72.6696 5.824 72.3099 5.98 72.0061 6.292C71.7114 6.59535 71.5637 7.085 71.5637 7.761V11.401C71.5637 11.4876 71.5338 11.5614 71.4726 11.622C71.4206 11.674 71.3516 11.7 71.2645 11.7H70.692C70.6055 11.7 70.532 11.674 70.4708 11.622C70.4188 11.5614 70.3927 11.4876 70.3927 11.401V7.761C70.3927 7.07635 70.2412 6.58235 69.9374 6.279C69.6427 5.97566 69.2738 5.824 68.8315 5.824C68.4151 5.824 68.0554 5.97566 67.7516 6.279C67.4569 6.58235 67.3092 7.072 67.3092 7.748V11.401C67.3092 11.4876 67.2793 11.5614 67.2181 11.622C67.1661 11.674 67.0971 11.7 67.01 11.7H66.4375ZM79.8477 11.83C78.9629 11.83 78.2558 11.557 77.7269 11.011C77.198 10.4564 76.9072 9.70235 76.8552 8.749L76.8422 8.307L76.8552 7.878C76.9072 6.942 77.198 6.19666 77.7269 5.642C78.2558 5.08733 78.9629 4.81 79.8477 4.81C80.802 4.81 81.5391 5.11333 82.0595 5.72C82.5884 6.32666 82.8531 7.15 82.8531 8.19V8.424C82.8531 8.51064 82.8226 8.58435 82.7621 8.645C82.71 8.697 82.6404 8.723 82.5539 8.723H78.0392V8.84C78.0652 9.40335 78.2389 9.88435 78.5596 10.283C78.8803 10.6816 79.3058 10.881 79.8347 10.881C80.2425 10.881 80.5717 10.803 80.8235 10.647C81.0837 10.4824 81.2788 10.3134 81.409 10.14C81.487 10.036 81.5475 9.97535 81.5911 9.958C81.6347 9.932 81.7082 9.919 81.8123 9.919H82.3848C82.4628 9.919 82.5279 9.94064 82.5799 9.984C82.6404 10.0274 82.671 10.0836 82.671 10.153C82.671 10.3436 82.5539 10.5734 82.3197 10.842C82.0855 11.1106 81.7518 11.3446 81.3179 11.544C80.8931 11.7346 80.4026 11.83 79.8477 11.83ZM81.6692 7.839V7.8C81.6692 7.19335 81.5046 6.69935 81.1748 6.318C80.8449 5.93666 80.4026 5.746 79.8477 5.746C79.2836 5.746 78.8413 5.93666 78.5206 6.318C78.1998 6.69935 78.0392 7.19335 78.0392 7.8V7.839H81.6692ZM84.2141 11.7C84.1276 11.7 84.0534 11.674 83.9929 11.622C83.9409 11.5614 83.9148 11.4876 83.9148 11.401V5.252C83.9148 5.16533 83.9409 5.09166 83.9929 5.031C84.0534 4.97033 84.1276 4.94 84.2141 4.94H84.7605C84.8562 4.94 84.9297 4.97033 84.9817 5.031C85.0422 5.083 85.0728 5.15666 85.0728 5.252V5.824C85.4286 5.23466 86.031 4.94 86.8813 4.94H87.3887C87.4843 4.94 87.5578 4.966 87.6099 5.018C87.6619 5.07 87.6879 5.14366 87.6879 5.239V5.72C87.6879 5.80666 87.6619 5.88033 87.6099 5.941C87.5578 5.993 87.4843 6.019 87.3887 6.019H86.6471C86.1702 6.019 85.7929 6.15766 85.5151 6.435C85.2465 6.71235 85.1118 7.08935 85.1118 7.566V11.401C85.1118 11.4876 85.0812 11.5614 85.0207 11.622C84.9602 11.674 84.8861 11.7 84.7996 11.7H84.2141ZM90.8652 11.83C89.9375 11.83 89.2128 11.57 88.6924 11.05C88.1719 10.5214 87.8987 9.78464 87.8727 8.84L87.8597 8.32L87.8727 7.8C87.8987 6.85535 88.1719 6.123 88.6924 5.603C89.2128 5.07433 89.9375 4.81 90.8652 4.81C91.4897 4.81 92.0147 4.92266 92.4395 5.148C92.8734 5.36466 93.1941 5.63766 93.4023 5.967C93.6195 6.29633 93.7366 6.62564 93.7536 6.955C93.7627 7.033 93.7321 7.10235 93.6625 7.163C93.602 7.22364 93.5324 7.254 93.4543 7.254H92.8818C92.7953 7.254 92.7303 7.23664 92.6867 7.202C92.6437 7.15864 92.6001 7.085 92.5566 6.981C92.4004 6.55635 92.1838 6.25733 91.906 6.084C91.6374 5.902 91.2945 5.811 90.8782 5.811C90.3317 5.811 89.8985 5.98 89.5771 6.318C89.2564 6.656 89.0827 7.17164 89.0567 7.865L89.0437 8.32L89.0567 8.775C89.0827 9.46835 89.2564 9.984 89.5771 10.322C89.8985 10.66 90.3317 10.829 90.8782 10.829C91.3036 10.829 91.6504 10.7424 91.919 10.569C92.1884 10.387 92.4004 10.0836 92.5566 9.659C92.6001 9.555 92.6437 9.48564 92.6867 9.451C92.7303 9.40764 92.7953 9.386 92.8818 9.386H93.4543C93.5324 9.386 93.602 9.41635 93.6625 9.477C93.7321 9.53764 93.7627 9.607 93.7536 9.685C93.7366 10.0056 93.6195 10.3306 93.4023 10.66C93.1941 10.9894 92.8734 11.2666 92.4395 11.492C92.0147 11.7174 91.4897 11.83 90.8652 11.83ZM97.472 11.83C96.5873 11.83 95.8808 11.557 95.3513 11.011C94.8224 10.4564 94.5316 9.70235 94.4796 8.749L94.4665 8.307L94.4796 7.878C94.5316 6.942 94.8224 6.19666 95.3513 5.642C95.8808 5.08733 96.5873 4.81 97.472 4.81C98.4264 4.81 99.1634 5.11333 99.6839 5.72C100.213 6.32666 100.478 7.15 100.478 8.19V8.424C100.478 8.51064 100.448 8.58435 100.386 8.645C100.334 8.697 100.265 8.723 100.178 8.723H95.6635V8.84C95.6896 9.40335 95.8632 9.88435 96.184 10.283C96.5053 10.6816 96.9301 10.881 97.459 10.881C97.8669 10.881 98.1967 10.803 98.4478 10.647C98.708 10.4824 98.9032 10.3134 99.0333 10.14C99.1114 10.036 99.1725 9.97535 99.2155 9.958C99.2591 9.932 99.3326 9.919 99.4367 9.919H100.009C100.087 9.919 100.152 9.94064 100.204 9.984C100.265 10.0274 100.295 10.0836 100.295 10.153C100.295 10.3436 100.178 10.5734 99.9441 10.842C99.7099 11.1106 99.3762 11.3446 98.9422 11.544C98.5174 11.7346 98.0276 11.83 97.472 11.83ZM99.2935 7.839V7.8C99.2935 7.19335 99.1289 6.69935 98.7991 6.318C98.47 5.93666 98.0276 5.746 97.472 5.746C96.9087 5.746 96.4663 5.93666 96.1449 6.318C95.8242 6.69935 95.6635 7.19335 95.6635 7.8V7.839H99.2935Z" fill="white"/>
<path fill-rule="evenodd" clip-rule="evenodd" d="M61.8012 14.3H38.2193L33.8281 20.15L38.2193 26H59.1991L61.8012 14.3ZM63.1023 14.3L60.5002 26H64.566L68.9572 20.15L64.566 14.3H63.1023Z" fill="white" fill-opacity="0.2"/>
<path d="M38.974 22.75C38.9219 22.75 38.8777 22.7318 38.8413 22.6954C38.8048 22.659 38.7866 22.6148 38.7866 22.5628V17.485C38.7866 17.4278 38.8022 17.381 38.8335 17.3446C38.8699 17.3082 38.9167 17.29 38.974 17.29H39.6922C39.7494 17.29 39.7963 17.3082 39.8327 17.3446C39.8691 17.381 39.8873 17.4278 39.8873 17.485V19.4896H42.1668V17.485C42.1668 17.4278 42.185 17.381 42.2215 17.3446C42.2579 17.3082 42.3021 17.29 42.3542 17.29H43.0802C43.1374 17.29 43.1817 17.3082 43.2129 17.3446C43.2493 17.381 43.2675 17.4278 43.2675 17.485V22.5628C43.2675 22.6148 43.2493 22.659 43.2129 22.6954C43.1817 22.7318 43.1374 22.75 43.0802 22.75H42.3542C42.3021 22.75 42.2579 22.7318 42.2215 22.6954C42.185 22.659 42.1668 22.6148 42.1668 22.5628V20.4802H39.8873V22.5628C39.8873 22.6148 39.8691 22.659 39.8327 22.6954C39.7963 22.7318 39.7494 22.75 39.6922 22.75H38.974ZM45.5663 22.75C45.5142 22.75 45.47 22.7318 45.4336 22.6954C45.3971 22.659 45.3789 22.6148 45.3789 22.5628V18.265H43.9347C43.8827 18.265 43.8384 18.2468 43.802 18.2104C43.7656 18.174 43.7474 18.1272 43.7474 18.07V17.485C43.7474 17.4278 43.763 17.381 43.7942 17.3446C43.8306 17.3082 43.8775 17.29 43.9347 17.29H47.9238C47.9811 17.29 48.0279 17.3082 48.0643 17.3446C48.1008 17.381 48.119 17.4278 48.119 17.485V18.07C48.119 18.1272 48.1008 18.174 48.0643 18.2104C48.0279 18.2468 47.9811 18.265 47.9238 18.265H46.4874V22.5628C46.4874 22.6148 46.4692 22.659 46.4328 22.6954C46.4016 22.7318 46.3573 22.75 46.3001 22.75H45.5663ZM48.786 22.75C48.734 22.75 48.6898 22.7318 48.6533 22.6954C48.6169 22.659 48.5987 22.6148 48.5987 22.5628V17.485C48.5987 17.4278 48.6143 17.381 48.6455 17.3446C48.6819 17.3082 48.7288 17.29 48.786 17.29H49.4184C49.5172 17.29 49.5953 17.3394 49.6526 17.4382L51.1592 20.2306L52.6658 17.4382C52.7231 17.3394 52.8012 17.29 52.9 17.29H53.5245C53.5818 17.29 53.6286 17.3082 53.6651 17.3446C53.7015 17.381 53.7197 17.4278 53.7197 17.485V22.5628C53.7197 22.62 53.7015 22.6668 53.6651 22.7032C53.6286 22.7344 53.5818 22.75 53.5245 22.75H52.8532C52.8012 22.75 52.7569 22.7318 52.7205 22.6954C52.6841 22.659 52.6658 22.6148 52.6658 22.5628V19.2088L51.5807 21.268C51.5235 21.3824 51.4376 21.4396 51.3231 21.4396H50.9953C50.886 21.4396 50.7975 21.3824 50.7298 21.268L49.6447 19.2088V22.5628C49.6447 22.6148 49.6265 22.659 49.5901 22.6954C49.5589 22.7318 49.5146 22.75 49.4574 22.75H48.786ZM54.8088 22.75C54.7568 22.75 54.7126 22.7318 54.6761 22.6954C54.6397 22.659 54.6215 22.6148 54.6215 22.5628V17.4772C54.6215 17.42 54.6397 17.3758 54.6761 17.3446C54.7126 17.3082 54.7568 17.29 54.8088 17.29H55.5426C55.5999 17.29 55.6441 17.3082 55.6754 17.3446C55.7118 17.3758 55.73 17.42 55.73 17.4772V21.814H58.2046C58.2619 21.814 58.3087 21.8322 58.3452 21.8686C58.3816 21.905 58.3998 21.9492 58.3998 22.0012V22.5628C58.3998 22.6148 58.3816 22.659 58.3452 22.6954C58.3087 22.7318 58.2619 22.75 58.2046 22.75H54.8088Z" fill="white"/>
</svg>
