<svg width="200" height="43" viewBox="0 0 200 43" fill="none" xmlns="http://www.w3.org/2000/svg">
<g clip-path="url(#clip0)">
<path d="M74.1248 29.9409H70.8398V11.8837H77.5864C78.401 11.8713 79.2083 12.0391 79.9517 12.375C80.6351 12.686 81.2503 13.1296 81.762 13.6802C82.262 14.2165 82.6576 14.8418 82.9287 15.5243C83.4026 16.6938 83.475 17.9888 83.1351 19.2044C82.9961 19.7062 82.7874 20.1855 82.5142 20.6282C81.9315 21.5639 81.1018 22.3186 80.1177 22.8076C80.996 24.0106 81.8693 25.202 82.7381 26.3815C83.6062 27.561 84.4846 28.7476 85.3722 29.9409H82.7917C82.5801 29.9359 82.3707 29.8972 82.17 29.8265C81.9113 29.7408 81.6641 29.6203 81.4366 29.4684C81.1547 29.2851 80.8895 29.076 80.646 28.8439C80.3489 28.5519 80.0822 28.2303 79.8503 27.8844L76.5777 23.4488H74.1248V29.9409ZM77.688 20.1244C78.0017 20.1226 78.3111 20.0516 78.5953 19.9163C78.8793 19.7868 79.1359 19.6022 79.3489 19.373C79.5641 19.144 79.7366 18.8775 79.8568 18.5863C79.9808 18.294 80.0446 17.9797 80.0446 17.6619C80.0453 17.3389 79.9815 17.019 79.8568 16.7211C79.7351 16.4306 79.5634 16.1642 79.3489 15.9344C79.135 15.7064 78.8786 15.5225 78.5953 15.3932C78.3118 15.257 78.0017 15.1858 77.688 15.185H74.1248V20.112L77.688 20.1244Z" fill="white"/>
<path d="M94.1467 11.8831H97.125L104.991 29.9408H102.943C102.49 29.9448 102.045 29.8184 101.662 29.5766C101.279 29.3351 100.977 28.9833 100.795 28.5669L99.7258 26.1232H91.546L90.4922 28.5669C90.406 28.7704 90.2857 28.9581 90.1387 29.1227C89.9878 29.2901 89.8147 29.4358 89.6248 29.5556C89.4314 29.6793 89.2211 29.7746 89.0016 29.8388C88.7835 29.9065 88.5567 29.9408 88.3291 29.9408H86.2812L94.1467 11.8831ZM93.0031 22.8073H98.2692L95.92 17.3389C95.8192 17.1174 95.7452 16.8846 95.6989 16.6458C95.662 16.4375 95.6374 16.2752 95.6287 16.1671C95.6134 16.33 95.5881 16.4919 95.5547 16.652C95.5069 16.8872 95.4381 17.1174 95.3468 17.3389L93.0031 22.8073Z" fill="white"/>
<path d="M114.449 29.9408H111.145V22.2912C111.149 22.0408 111.089 21.7935 110.97 21.5733C110.828 21.3254 110.674 21.0857 110.505 20.8552L103.902 11.8838H106.425C106.931 11.8728 107.433 11.9851 107.887 12.2106C108.313 12.43 108.674 12.7554 108.936 13.1556L112.488 17.9826C112.592 18.1225 112.669 18.2806 112.716 18.4487C112.758 18.6071 112.78 18.7091 112.788 18.7507C112.804 18.6504 112.828 18.5516 112.859 18.4551C112.909 18.2831 112.992 18.1226 113.103 17.9826L116.643 13.1681C116.899 12.7584 117.262 12.4256 117.692 12.2043C118.146 11.9828 118.647 11.8731 119.152 11.8838H121.706L115.085 20.8676C114.986 21.003 114.896 21.1257 114.824 21.2403C114.749 21.3474 114.68 21.4586 114.616 21.5733C114.559 21.6812 114.516 21.7959 114.487 21.9146C114.456 22.0378 114.441 22.1643 114.442 22.2912L114.449 29.9408Z" fill="white"/>
<path d="M139.867 21.2729V28.2103C139.46 28.5865 139.001 28.9025 138.505 29.1489C137.997 29.4003 137.464 29.5987 136.914 29.7407C136.337 29.8881 135.75 29.9887 135.155 30.0418C134.552 30.0958 133.937 30.1229 133.314 30.1229C132.077 30.1316 130.85 29.8848 129.713 29.3982C128.615 28.9327 127.617 28.263 126.771 27.4255C125.928 26.5872 125.255 25.5954 124.79 24.504C124.31 23.3675 124.062 22.1474 124.062 20.9148C124.062 19.6822 124.31 18.4621 124.79 17.3256C125.257 16.2305 125.933 15.2358 126.779 14.3957C127.626 13.5587 128.624 12.8893 129.721 12.4231C132 11.4727 134.564 11.4592 136.852 12.3856C137.931 12.8338 138.913 13.4797 139.751 14.2898L139.626 14.4041C139.478 14.5529 139.305 14.674 139.115 14.7611C138.92 14.8425 138.711 14.8828 138.501 14.8795C138.211 14.8815 137.928 14.7936 137.691 14.6282C137.066 14.2005 136.383 13.8642 135.66 13.6296C134.905 13.3876 134.115 13.267 133.322 13.2724C132.633 13.2697 131.946 13.3603 131.283 13.5423C130.64 13.7164 130.024 13.9762 129.452 14.3148C128.886 14.6476 128.362 15.0485 127.897 15.5087C127.428 15.9698 127.026 16.49 126.697 17.0556C126.361 17.6305 126.1 18.2451 125.92 18.885C125.733 19.5451 125.64 20.228 125.641 20.9137C125.64 21.6007 125.735 22.2844 125.927 22.9444C126.299 24.2255 126.999 25.3883 127.959 26.3188C128.437 26.781 128.968 27.1828 129.544 27.5148C130.13 27.852 130.758 28.1116 131.41 28.2872C132.077 28.4687 132.767 28.5595 133.461 28.5571C134.318 28.56 135.174 28.4441 135.999 28.2124C136.82 27.9791 137.602 27.6294 138.322 27.1743V22.8427H136.719C136.512 22.8464 136.308 22.8074 136.118 22.7284C135.927 22.6495 135.755 22.5321 135.613 22.3838C135.483 22.2432 135.38 22.0789 135.311 21.9001C135.24 21.715 135.205 21.5187 135.205 21.3208V21.2709L139.867 21.2729Z" fill="white"/>
<path d="M146.727 29.941H145.137V11.8832H151.519C152.206 11.8778 152.885 12.0125 153.518 12.2787C154.121 12.5351 154.672 12.9031 155.137 13.3633C155.603 13.8243 155.974 14.3699 156.231 14.9703C156.5 15.591 156.636 16.2599 156.633 16.9352C156.633 17.5502 156.525 18.1603 156.313 18.7379C156.11 19.303 155.813 19.8312 155.437 20.3012C155.063 20.762 154.606 21.1489 154.088 21.4418C153.561 21.7405 152.977 21.927 152.372 21.9893L158.399 29.941H157.65C156.777 29.941 156.13 29.6205 155.717 28.9856L150.413 21.9893H146.727V29.941ZM146.727 13.457V20.4137H151.519C151.988 20.4165 152.456 20.3246 152.887 20.143C153.306 19.9682 153.685 19.7151 154.006 19.3978C154.327 19.0793 154.584 18.7034 154.763 18.2905C154.95 17.863 155.046 17.4013 155.041 16.9352C155.046 16.4719 154.95 16.013 154.763 15.5885C154.399 14.7556 153.728 14.0919 152.887 13.7338C152.456 13.5484 151.991 13.454 151.519 13.457H146.727Z" fill="white"/>
<path d="M164.031 29.9408H162.578V11.8831H164.031V29.9408Z" fill="white"/>
<path d="M170.207 29.9408V11.8831H176.823C178.419 11.8769 179.985 12.3034 181.358 13.1176C182.692 13.9077 183.805 15.0242 184.593 16.3627C185.402 17.7435 185.829 19.3162 185.829 20.9182C185.829 22.5202 185.402 24.0931 184.593 25.4738C184.2 26.1397 183.726 26.7538 183.18 27.3014C182.081 28.4061 180.713 29.2044 179.214 29.6182C178.436 29.8357 177.631 29.9442 176.823 29.9408H170.207ZM176.823 28.365C177.821 28.373 178.808 28.1739 179.727 27.7801C180.606 27.4027 181.406 26.8617 182.086 26.1857C182.765 25.507 183.306 24.7024 183.681 23.8168C184.066 22.8992 184.263 21.9137 184.263 20.9182C184.263 19.9227 184.066 18.9372 183.681 18.0197C183.306 17.1327 182.765 16.3262 182.086 15.6445C181.408 14.9659 180.606 14.4227 179.727 14.0437C178.808 13.6494 177.821 13.4495 176.823 13.4568H171.775V28.365H176.823Z" fill="white"/>
<path d="M197.218 14.2675C197.025 14.1344 196.853 14.0077 196.709 13.8913C196.404 13.6471 196.05 13.4751 195.669 13.3883C195.394 13.3325 195.114 13.3074 194.836 13.3136C194.364 13.3109 193.892 13.394 193.451 13.5588C193.031 13.7129 192.64 13.9363 192.296 14.2197C191.973 14.4871 191.705 14.8164 191.511 15.1882C191.32 15.5484 191.219 15.9504 191.22 16.3582C191.209 16.7522 191.27 17.145 191.404 17.5158C191.538 17.8322 191.753 18.1074 192.029 18.314C192.379 18.5801 192.765 18.7964 193.176 18.9562C193.649 19.1529 194.236 19.3731 194.933 19.617C195.304 19.7555 195.651 19.8816 195.973 19.9952C196.292 20.1116 196.599 20.2322 196.88 20.3525C197.154 20.468 197.422 20.5978 197.68 20.7412C197.929 20.8812 198.166 21.039 198.392 21.2131C198.959 21.6358 199.393 22.2131 199.64 22.8757C199.885 23.5669 200.006 24.2957 199.999 25.0288C200.01 25.7641 199.85 26.4918 199.532 27.1549C199.231 27.7727 198.803 28.3195 198.274 28.7594C197.724 29.2113 197.093 29.5547 196.414 29.7715C195.678 30.0114 194.907 30.13 194.132 30.1228C192.563 30.1228 191.239 29.6573 190.164 28.726C189.894 28.4803 189.643 28.2135 189.414 27.9281C189.232 27.698 189.065 27.4556 188.918 27.2028L189.105 27.0904C189.345 26.943 189.618 26.8605 189.899 26.8515C190.094 26.8505 190.29 26.878 190.479 26.9325C190.665 26.9885 190.834 27.0908 190.971 27.2297C191.259 27.5044 191.574 27.7508 191.91 27.9655C192.158 28.1211 192.425 28.2481 192.702 28.3437C192.936 28.4197 193.177 28.4677 193.42 28.4871C193.651 28.5037 193.887 28.5162 194.132 28.5245C194.644 28.5408 195.154 28.4834 195.65 28.3541C196.143 28.2337 196.607 28.0222 197.023 27.7307C197.432 27.4411 197.772 27.065 198.019 26.6291C198.287 26.1405 198.42 25.5897 198.405 25.033C198.429 24.4633 198.326 23.8955 198.103 23.3704C197.913 22.97 197.626 22.6224 197.27 22.3582C196.881 22.0816 196.454 21.8633 196.003 21.7098C195.516 21.5367 194.991 21.3412 194.429 21.1237C193.714 20.839 193.064 20.573 192.476 20.332C191.936 20.116 191.431 19.8256 190.971 19.4694C190.557 19.1413 190.224 18.7215 189.999 18.2432C189.747 17.647 189.63 17.0028 189.653 16.3562C189.646 15.6898 189.805 15.032 190.12 14.4442C190.423 13.8823 190.831 13.3842 191.324 12.9768C191.819 12.5687 192.383 12.2494 192.989 12.0334C193.583 11.8164 194.212 11.7039 194.845 11.7008C195.334 11.6946 195.823 11.7647 196.29 11.9087C196.704 12.038 197.1 12.2153 197.472 12.4364C197.82 12.6431 198.146 12.8855 198.444 13.1597C198.732 13.4287 198.999 13.6933 199.244 13.9536L198.852 14.2301C198.746 14.3073 198.631 14.3688 198.506 14.4129C198.353 14.4622 198.193 14.4854 198.032 14.4816C197.745 14.4916 197.463 14.4171 197.218 14.2675Z" fill="white"/>
<path d="M65.5036 20.2843V27.8535C65.0667 28.2935 64.5695 28.6706 64.0282 28.9737C63.4999 29.2687 62.9405 29.5041 62.3606 29.6755C61.7692 29.8489 61.1628 29.9667 60.5494 30.0275C59.9186 30.0917 59.2848 30.1237 58.6507 30.1232C57.4164 30.133 56.1933 29.8892 55.0573 29.4069C53.9614 28.9402 52.9631 28.2721 52.1143 27.437C51.2703 26.5982 50.5961 25.605 50.1279 24.5115C49.6406 23.3762 49.3935 22.1525 49.4026 20.9173C49.3933 19.2826 49.8253 17.6754 50.6531 16.2655C51.0586 15.582 51.5488 14.9522 52.1122 14.3914C53.2461 13.2634 54.6538 12.449 56.1974 12.028C56.9972 11.8077 57.8233 11.6979 58.6526 11.701C59.3194 11.7 59.9836 11.7761 60.6327 11.928C61.2799 12.0783 61.9089 12.2983 62.5087 12.5837C63.1122 12.8763 63.6862 13.2249 64.2239 13.625C64.7739 14.0316 65.2848 14.4875 65.7522 14.9869L64.9927 15.7553C64.7782 15.9905 64.5152 16.1765 64.2216 16.3006C63.9275 16.4246 63.6108 16.4835 63.292 16.4737C62.8318 16.4775 62.3809 16.3369 62.0043 16.0719C61.524 15.742 60.9991 15.4826 60.4452 15.3013C59.8691 15.1147 59.2667 15.0213 58.6611 15.0243C57.8729 15.0215 57.0926 15.1802 56.3683 15.4908C54.9427 16.0857 53.8014 17.2067 53.1815 18.6206C52.8654 19.3426 52.7042 20.1228 52.7083 20.911C52.7021 21.7128 52.8699 22.5063 53.2001 23.2369C53.6869 24.3069 54.4716 25.2143 55.4608 25.8505C56.4499 26.4867 57.6013 26.825 58.7776 26.8248C59.1789 26.8154 59.5793 26.7813 59.9762 26.7228C60.3509 26.6666 60.7221 26.5872 61.0872 26.4854C61.4688 26.3802 61.8341 26.2232 62.1731 26.019V23.4807L61.1309 23.462C60.818 23.4632 60.5086 23.3963 60.2242 23.2661C59.9466 23.1307 59.7222 22.9065 59.5865 22.629C59.4021 22.2115 59.3199 21.7561 59.3468 21.3005V20.2905L65.5036 20.2843Z" fill="white"/>
<path d="M42.0081 23.8633C43.4859 12.2636 35.3188 1.65737 23.7664 0.173468C12.2138 -1.31043 1.65056 6.89001 0.172763 18.4898C-1.30511 30.0893 6.86195 40.6956 18.4145 42.1795C29.9671 43.6633 40.5302 35.4629 42.0081 23.8633Z" fill="white"/>
<path d="M21.8708 20.8431V22.873H26.2975V26.268H21.9019V26.2558C21.7843 26.2558 21.6621 26.268 21.5446 26.268C20.8916 26.2698 20.2449 26.1395 19.6429 25.8851C18.7683 25.5136 18.0189 24.8967 17.4848 24.1082C16.8289 23.1322 16.5446 21.9518 16.6841 20.7827C16.8235 19.6138 17.3774 18.5341 18.2442 17.7413C19.1113 16.9485 20.2335 16.4956 21.4056 16.4651C22.578 16.4348 23.722 16.829 24.6286 17.5758H33.2613C33.1509 17.2291 33.0216 16.8871 32.8849 16.5549C32.0189 14.4953 30.6131 12.7101 28.817 11.389C27.021 10.068 24.9017 9.26055 22.685 9.05281C20.4681 8.84501 18.2367 9.24454 16.2282 10.209C14.2195 11.1734 12.5088 12.6665 11.2783 14.5297C10.0478 16.3927 9.34326 18.556 9.23985 20.7889C9.13645 23.0222 9.63798 25.2416 10.6911 27.2111C11.7441 29.1808 13.3091 30.8269 15.2201 31.9743C17.1309 33.1218 19.3157 33.7276 21.5422 33.7274H33.7721V20.8383L21.8708 20.8431ZM26.2975 31.6783H22.2208C22.0674 31.6783 21.909 31.6951 21.7413 31.6976H21.3864C19.6189 31.6727 17.8876 31.1911 16.3594 30.2991C14.8311 29.4072 13.5576 28.1351 12.6613 26.6054C11.765 25.0756 11.2764 23.3397 11.2425 21.5651C11.2085 19.7907 11.6304 18.0374 12.4674 16.4742C13.3044 14.9109 14.5284 13.5905 16.0215 12.6402C17.5143 11.6901 19.2259 11.1421 20.991 11.049C22.7563 10.9561 24.5156 11.3211 26.0995 12.1093C27.6833 12.8973 29.0381 14.0818 30.0335 15.5484H25.2903C24.3882 14.9641 23.3628 14.5988 22.2955 14.4818C21.2283 14.3648 20.1487 14.4993 19.1421 14.8744C18.1357 15.2497 17.2302 15.8554 16.4977 16.6433C15.7649 17.4313 15.2255 18.3798 14.9217 19.4137C14.6181 20.4477 14.5587 21.5385 14.7482 22.5996C14.9377 23.6605 15.371 24.6625 16.0137 25.5262C16.6564 26.3896 17.4906 27.0908 18.4503 27.5741C19.41 28.0572 20.4686 28.3093 21.5422 28.3098H26.2975V31.6783ZM31.7699 31.6976H28.3214L28.3406 31.6855H28.3214V28.3144H31.7699V31.6976ZM31.7699 26.2727H28.3214V22.8777H31.7699V26.2727Z" fill="white"/>
<path d="M21.273 20.2028V22.2326H25.702V25.6275H21.3018V25.6156C21.1843 25.6156 21.0619 25.6275 20.9469 25.6275C20.1463 25.629 19.3577 25.432 18.6512 25.054C17.9446 24.676 17.342 24.1286 16.8966 23.4606C16.4443 22.7836 16.1662 22.0044 16.0875 21.1929C16.0089 20.3814 16.1319 19.563 16.4458 18.8111C16.8152 17.9319 17.4308 17.179 18.218 16.6441C18.8911 16.1884 19.6669 15.9083 20.475 15.8293C21.283 15.7503 22.0979 15.8748 22.8462 16.1914C23.278 16.3737 23.6818 16.6169 24.0451 16.9139H32.678C32.5652 16.5669 32.4382 16.2251 32.3015 15.8929C31.4325 13.8369 30.0252 12.0556 28.2289 10.7384C26.4326 9.42104 24.3145 8.61703 22.0997 8.4114C19.8848 8.20577 17.6557 8.60648 15.6495 9.57078C13.6431 10.5352 11.9344 12.0271 10.7048 13.8883C9.47513 15.7495 8.77061 17.9103 8.66596 20.1413C8.5614 22.3722 9.06047 24.59 10.1104 26.5589C11.1603 28.5279 12.7218 30.1744 14.6289 31.3239C16.5362 32.4733 18.7177 33.0826 20.9422 33.0869H33.1719V20.1908L21.273 20.2028ZM25.702 31.0379H21.6255C21.4697 31.0379 21.3138 31.0547 21.146 31.0571H20.7982C19.0302 31.0348 17.2976 30.5554 15.7677 29.665C14.2379 28.7746 12.9623 27.5035 12.0642 25.9741C11.166 24.4447 10.6755 22.7088 10.64 20.9336C10.6045 19.1584 11.0252 17.4042 11.8613 15.8399C12.6976 14.2755 13.9212 12.954 15.4142 12.0027C16.9073 11.0513 18.6192 10.5023 20.3851 10.4086C22.1509 10.315 23.9109 10.6799 25.4953 11.468C27.0798 12.2561 28.4353 13.4409 29.4311 14.9081H24.6925C23.791 14.3191 22.7651 13.9497 21.6962 13.8293C20.6273 13.7089 19.5453 13.8408 18.5363 14.2144C17.5272 14.5882 16.6189 15.1934 15.8839 15.9819C15.1489 16.7702 14.6076 17.7201 14.3029 18.7559C13.9982 19.7915 13.9384 20.8844 14.1288 21.9473C14.319 23.0101 14.7539 24.0136 15.3988 24.878C16.0435 25.7423 16.8805 26.4434 17.8429 26.9256C18.8055 27.4077 19.8666 27.6574 20.9422 27.6549H25.6973L25.702 31.0379ZM31.1745 31.0571H27.7262L27.7428 31.0451H27.7262V27.6549H31.1745V31.0571ZM31.1745 25.6323H27.7262V22.2374H31.1745V25.6323Z" fill="#212B36"/>
<path d="M25.7031 27.6575H27.7271V28.6229H25.7031V27.6575Z" fill="white"/>
<path d="M24.0664 22.2326H25.7042V23.198H27.7258V22.2326H29.2101V22.23H24.0664V22.2326Z" fill="white"/>
</g>
<defs>
<clipPath id="clip0">
<rect width="200" height="42.3529" fill="white"/>
</clipPath>
</defs>
</svg>
