<svg width="173" height="40" viewBox="0 0 173 40" fill="none" xmlns="http://www.w3.org/2000/svg">
<path d="M36 20C36 10.0589 27.9411 2 18 2C8.05887 2 0 10.0589 0 20C0 29.9411 8.05887 38 18 38C27.9411 38 36 29.9411 36 20Z" fill="url(#paint0_linear_966_20546)"/>
<path d="M36 20C36 10.0589 27.9411 2 18 2C8.05887 2 0 10.0589 0 20C0 29.9411 8.05887 38 18 38C27.9411 38 36 29.9411 36 20Z" fill="url(#paint1_linear_966_20546)" fill-opacity="0.56"/>
<path d="M18.2865 8.75C21.1369 8.75 23.8277 9.80311 25.91 11.7231C26.0254 11.8295 26.0266 12.0103 25.9156 12.1213L21.5081 16.5288C21.4014 16.6356 21.2299 16.6382 21.1131 16.5425C20.3171 15.8908 19.3294 15.5369 18.2883 15.5369C15.8238 15.5352 13.8199 17.5391 13.8199 20H7.03125C7.03125 13.7967 12.0814 8.75 18.2865 8.75Z" fill="white"/>
<path d="M13.8199 20C13.8199 22.3097 15.5847 24.2161 17.8375 24.4424C17.9877 24.4575 18.1072 24.5806 18.1072 24.7316V30.9643C18.1072 31.1213 17.9778 31.2483 17.8208 31.2419C11.8294 30.9964 7.03125 26.0475 7.03125 20H13.8199Z" fill="white"/>
<path opacity="0.56" d="M24.9747 20.8931H22.3204C22.165 20.8931 22.0391 21.0191 22.0391 21.1744V23.8269C22.0391 23.9823 22.165 24.1082 22.3204 24.1082H24.9747C25.13 24.1082 25.2559 23.9823 25.2559 23.8269V21.1744C25.2559 21.0191 25.13 20.8931 24.9747 20.8931Z" fill="white"/>
<path opacity="0.4" d="M28.5468 20.8931H25.8925C25.7372 20.8931 25.6113 21.0191 25.6113 21.1744V23.8269C25.6113 23.9823 25.7372 24.1082 25.8925 24.1082H28.5468C28.7021 24.1082 28.8281 23.9823 28.8281 23.8269V21.1744C28.8281 21.0191 28.7021 20.8931 28.5468 20.8931Z" fill="white"/>
<path opacity="0.72" d="M24.9747 24.4648H22.3204C22.165 24.4648 22.0391 24.5907 22.0391 24.746V27.3986C22.0391 27.5539 22.165 27.6798 22.3204 27.6798H24.9747C25.13 27.6798 25.2559 27.5539 25.2559 27.3986V24.746C25.2559 24.5907 25.13 24.4648 24.9747 24.4648Z" fill="white"/>
<path opacity="0.88" d="M21.4013 24.4648H18.747C18.5917 24.4648 18.4658 24.5907 18.4658 24.746V27.3986C18.4658 27.5539 18.5917 27.6798 18.747 27.6798H21.4013C21.5567 27.6798 21.6826 27.5539 21.6826 27.3986V24.746C21.6826 24.5907 21.5567 24.4648 21.4013 24.4648Z" fill="white"/>
<path opacity="0.56" d="M28.5468 24.4648H25.8925C25.7372 24.4648 25.6113 24.5907 25.6113 24.746V27.3986C25.6113 27.5539 25.7372 27.6798 25.8925 27.6798H28.5468C28.7021 27.6798 28.8281 27.5539 28.8281 27.3986V24.746C28.8281 24.5907 28.7021 24.4648 28.5468 24.4648Z" fill="white"/>
<path opacity="0.88" d="M24.9747 28.0347H22.3204C22.165 28.0347 22.0391 28.1606 22.0391 28.3159V30.9685C22.0391 31.1238 22.165 31.2497 22.3204 31.2497H24.9747C25.13 31.2497 25.2559 31.1238 25.2559 30.9685V28.3159C25.2559 28.1606 25.13 28.0347 24.9747 28.0347Z" fill="white"/>
<path opacity="0.96" d="M21.4013 28.0347H18.747C18.5917 28.0347 18.4658 28.1606 18.4658 28.3159V30.9685C18.4658 31.1238 18.5917 31.2497 18.747 31.2497H21.4013C21.5567 31.2497 21.6826 31.1238 21.6826 30.9685V28.3159C21.6826 28.1606 21.5567 28.0347 21.4013 28.0347Z" fill="white"/>
<path opacity="0.72" d="M28.5468 28.0347H25.8925C25.7372 28.0347 25.6113 28.1606 25.6113 28.3159V30.9685C25.6113 31.1238 25.7372 31.2497 25.8925 31.2497H28.5468C28.7021 31.2497 28.8281 31.1238 28.8281 30.9685V28.3159C28.8281 28.1606 28.7021 28.0347 28.5468 28.0347Z" fill="white"/>
<path d="M56.9419 12.125H59.7769V28.379C59.7769 29.4185 59.535 30.3845 59.0512 31.277C58.5787 32.18 57.9375 32.9622 57.1275 33.6238C56.3175 34.2957 55.395 34.8155 54.36 35.183C53.325 35.561 52.245 35.75 51.12 35.75C49.95 35.75 48.8194 35.5033 47.7281 35.0098C46.6369 34.5268 45.6806 33.8757 44.8594 33.0567C44.0494 32.2482 43.4644 31.34 43.1044 30.332L45.7031 29.2295C45.9169 29.954 46.2994 30.605 46.8506 31.1825C47.4131 31.7705 48.0656 32.2325 48.8081 32.5685C49.5619 32.915 50.3325 33.0882 51.12 33.0882C51.8625 33.0882 52.5769 32.9675 53.2631 32.726C53.9606 32.4845 54.585 32.1485 55.1362 31.718C55.6987 31.298 56.1375 30.7993 56.4525 30.2218C56.7787 29.6548 56.9419 29.0405 56.9419 28.379V25.2447C56.3681 26.1477 55.6087 26.8827 54.6637 27.4497C53.73 28.0063 52.6387 28.2845 51.39 28.2845C50.1975 28.2845 49.0781 28.0693 48.0319 27.6388C46.9856 27.2083 46.0687 26.615 45.2812 25.859C44.4937 25.0925 43.875 24.2105 43.425 23.213C42.975 22.2155 42.75 21.1445 42.75 20C42.75 18.8555 42.975 17.7845 43.425 16.787C43.875 15.779 44.4937 14.897 45.2812 14.141C46.0687 13.3745 46.9856 12.776 48.0319 12.3455C49.0781 11.915 50.1975 11.6997 51.39 11.6997C52.6387 11.6997 53.73 11.978 54.6637 12.5345C55.6087 13.091 56.3681 13.826 56.9419 14.7395V12.125ZM51.4069 25.7173C52.4981 25.7173 53.4431 25.4548 54.2419 24.9298C55.0519 24.4048 55.6762 23.7065 56.115 22.835C56.5537 21.9635 56.7731 21.0185 56.7731 20C56.7731 18.95 56.5481 17.9945 56.0981 17.1335C55.6594 16.262 55.035 15.569 54.225 15.0545C53.4262 14.5295 52.4869 14.267 51.4069 14.267C50.3494 14.267 49.3819 14.5243 48.5044 15.0388C47.6269 15.5533 46.9294 16.2463 46.4119 17.1178C45.9056 17.9788 45.6525 18.9395 45.6525 20C45.6525 21.0605 45.9112 22.0265 46.4288 22.898C46.9575 23.759 47.655 24.4468 48.5212 24.9613C49.3987 25.4653 50.3606 25.7173 51.4069 25.7173Z" fill="#1E1983"/>
<path d="M62.4844 27.8751V12.1251H65.3194V14.0939C65.9157 13.3589 66.6694 12.7761 67.5807 12.3456C68.4919 11.9046 69.4819 11.6841 70.5507 11.6841C71.2032 11.6841 71.8332 11.7628 72.4407 11.9203L71.2932 14.5664C70.8319 14.4299 70.3819 14.3616 69.9432 14.3616C69.0994 14.3616 68.3232 14.5559 67.6144 14.9444C66.9169 15.3224 66.36 15.8369 65.9438 16.4879C65.5275 17.1389 65.3194 17.8634 65.3194 18.6614V27.8751H62.4844Z" fill="#1E1983"/>
<path d="M85.8749 12.1251H88.7099V27.8751H85.8749L85.7568 25.2134C85.228 26.1269 84.4968 26.8671 83.563 27.4341C82.6405 28.0011 81.538 28.2846 80.2555 28.2846C79.018 28.2846 77.8593 28.0694 76.7793 27.6389C75.6993 27.1979 74.743 26.5941 73.9105 25.8276C73.0893 25.0506 72.448 24.1581 71.9868 23.1501C71.5255 22.1421 71.2949 21.0554 71.2949 19.8899C71.2949 18.7664 71.5199 17.7059 71.9699 16.7084C72.4199 15.7109 73.0443 14.8394 73.843 14.0939C74.653 13.3379 75.5868 12.7499 76.6443 12.3299C77.7018 11.8993 78.838 11.6841 80.053 11.6841C81.3805 11.6841 82.5449 11.9781 83.5462 12.5661C84.5474 13.1436 85.3574 13.8944 85.9762 14.8184L85.8749 12.1251ZM80.2049 25.7174C81.3187 25.7174 82.2805 25.4654 83.0905 24.9614C83.9118 24.4469 84.5418 23.7539 84.9805 22.8824C85.4305 22.0109 85.6555 21.0501 85.6555 20.0001C85.6555 18.9291 85.4305 17.9631 84.9805 17.1021C84.5305 16.2306 83.8949 15.5429 83.0737 15.0389C82.2637 14.5244 81.3074 14.2671 80.2049 14.2671C79.0912 14.2671 78.0787 14.5244 77.1674 15.0389C76.2562 15.5534 75.5305 16.2464 74.9905 17.1179C74.4618 17.9789 74.1974 18.9396 74.1974 20.0001C74.1974 21.0606 74.473 22.0266 75.0243 22.8981C75.5755 23.7591 76.3068 24.4469 77.218 24.9614C78.1293 25.4654 79.1249 25.7174 80.2049 25.7174Z" fill="#1E1983"/>
<path d="M101.765 12.125H104.769L95.5378 35.75H92.534L95.5884 27.875L89.5303 12.125H92.6353L97.0059 24.2367L101.765 12.125Z" fill="#1E1983"/>
<path d="M119.108 12.125H121.943V28.379C121.943 29.4185 121.701 30.3845 121.217 31.277C120.745 32.18 120.103 32.9622 119.293 33.6238C118.483 34.2957 117.561 34.8155 116.526 35.183C115.491 35.561 114.411 35.75 113.286 35.75C112.116 35.75 110.985 35.5033 109.894 35.0098C108.803 34.5268 107.847 33.8757 107.025 33.0567C106.215 32.2482 105.63 31.34 105.27 30.332L107.869 29.2295C108.083 29.954 108.465 30.605 109.017 31.1825C109.579 31.7705 110.232 32.2325 110.974 32.5685C111.728 32.915 112.498 33.0882 113.286 33.0882C114.028 33.0882 114.743 32.9675 115.429 32.726C116.127 32.4845 116.751 32.1485 117.302 31.718C117.865 31.298 118.303 30.7993 118.618 30.2218C118.945 29.6548 119.108 29.0405 119.108 28.379V25.2447C118.534 26.1477 117.775 26.8827 116.83 27.4497C115.896 28.0063 114.805 28.2845 113.556 28.2845C112.363 28.2845 111.244 28.0693 110.198 27.6388C109.152 27.2083 108.235 26.615 107.447 25.859C106.66 25.0925 106.041 24.2105 105.591 23.213C105.141 22.2155 104.916 21.1445 104.916 20C104.916 18.8555 105.141 17.7845 105.591 16.787C106.041 15.779 106.66 14.897 107.447 14.141C108.235 13.3745 109.152 12.776 110.198 12.3455C111.244 11.915 112.363 11.6997 113.556 11.6997C114.805 11.6997 115.896 11.978 116.83 12.5345C117.775 13.091 118.534 13.826 119.108 14.7395V12.125ZM113.573 25.7173C114.664 25.7173 115.609 25.4548 116.408 24.9298C117.218 24.4048 117.842 23.7065 118.281 22.835C118.72 21.9635 118.939 21.0185 118.939 20C118.939 18.95 118.714 17.9945 118.264 17.1335C117.825 16.262 117.201 15.569 116.391 15.0545C115.592 14.5295 114.653 14.267 113.573 14.267C112.515 14.267 111.548 14.5243 110.67 15.0388C109.793 15.5533 109.095 16.2463 108.578 17.1178C108.072 17.9788 107.818 18.9395 107.818 20C107.818 21.0605 108.077 22.0265 108.595 22.898C109.123 23.759 109.821 24.4468 110.687 24.9613C111.565 25.4653 112.527 25.7173 113.573 25.7173Z" fill="#1E1983"/>
<path d="M124.65 27.8751V12.1251H127.485V14.0939C128.082 13.3589 128.835 12.7761 129.747 12.3456C130.658 11.9046 131.648 11.6841 132.717 11.6841C133.369 11.6841 133.999 11.7628 134.607 11.9203L133.459 14.5664C132.998 14.4299 132.548 14.3616 132.109 14.3616C131.265 14.3616 130.489 14.5559 129.78 14.9444C129.083 15.3224 128.526 15.8369 128.11 16.4879C127.694 17.1389 127.485 17.8634 127.485 18.6614V27.8751H124.65Z" fill="#1E1983"/>
<path d="M135.33 12.1252H138.165V27.8752H135.33V12.1252ZM136.782 9.55791C136.332 9.55791 135.955 9.42141 135.651 9.14841C135.347 8.87541 135.195 8.53416 135.195 8.12466C135.195 7.71516 135.347 7.37391 135.651 7.10091C135.955 6.82791 136.326 6.69141 136.765 6.69141C137.204 6.69141 137.575 6.82791 137.879 7.10091C138.182 7.37391 138.334 7.71516 138.334 8.12466C138.334 8.53416 138.182 8.87541 137.879 9.14841C137.586 9.42141 137.22 9.55791 136.782 9.55791Z" fill="#1E1983"/>
<path d="M154.223 4.25H157.058V27.875H154.223V25.1975C153.649 26.1215 152.878 26.867 151.911 27.434C150.943 28.001 149.807 28.2845 148.502 28.2845C147.276 28.2845 146.128 28.0693 145.059 27.6388C143.991 27.2083 143.046 26.615 142.224 25.859C141.414 25.0925 140.779 24.2105 140.318 23.213C139.856 22.2155 139.626 21.1445 139.626 20C139.626 18.8555 139.856 17.7845 140.318 16.787C140.779 15.779 141.414 14.897 142.224 14.141C143.046 13.3745 143.991 12.776 145.059 12.3455C146.128 11.915 147.276 11.6997 148.502 11.6997C149.807 11.6997 150.943 11.9832 151.911 12.5503C152.878 13.1173 153.649 13.8628 154.223 14.7868V4.25ZM148.536 25.7173C149.649 25.7173 150.611 25.4653 151.421 24.9613C152.243 24.4468 152.873 23.7538 153.311 22.8823C153.761 22.0108 153.986 21.05 153.986 20C153.986 18.929 153.761 17.963 153.311 17.102C152.861 16.2305 152.226 15.5428 151.404 15.0388C150.594 14.5243 149.638 14.267 148.536 14.267C147.422 14.267 146.409 14.5243 145.498 15.0388C144.598 15.5533 143.878 16.2463 143.338 17.1178C142.798 17.9788 142.528 18.9395 142.528 20C142.528 21.0605 142.804 22.0265 143.355 22.898C143.906 23.759 144.638 24.4468 145.549 24.9613C146.46 25.4653 147.456 25.7173 148.536 25.7173Z" fill="#1E1983"/>
<path d="M164.903 28.1741C163.991 28.1426 163.103 27.9852 162.236 27.7016C161.381 27.4077 160.628 27.0139 159.975 26.5204C159.334 26.0164 158.867 25.4389 158.574 24.7879L161.004 23.8114C161.173 24.1684 161.477 24.5044 161.916 24.8194C162.354 25.1344 162.861 25.3864 163.434 25.5754C164.008 25.7644 164.588 25.8589 165.173 25.8589C165.791 25.8589 166.371 25.7697 166.911 25.5912C167.451 25.4127 167.889 25.1502 168.227 24.8037C168.576 24.4467 168.75 24.0214 168.75 23.5279C168.75 23.0029 168.559 22.5934 168.176 22.2994C167.805 21.9949 167.333 21.7586 166.759 21.5906C166.196 21.4122 165.623 21.2441 165.038 21.0867C163.879 20.8136 162.844 20.4882 161.933 20.1102C161.021 19.7217 160.301 19.2334 159.773 18.6454C159.255 18.0469 158.996 17.2857 158.996 16.3617C158.996 15.3852 159.283 14.5399 159.857 13.8259C160.442 13.1119 161.207 12.5607 162.152 12.1722C163.097 11.7836 164.109 11.5894 165.189 11.5894C166.551 11.5894 167.794 11.8624 168.919 12.4084C170.044 12.9544 170.882 13.6947 171.433 14.6292L169.155 15.8734C168.964 15.4954 168.671 15.1647 168.278 14.8812C167.884 14.5872 167.434 14.3562 166.928 14.1882C166.421 14.0202 165.904 13.9309 165.375 13.9204C164.723 13.8994 164.109 13.9782 163.536 14.1567C162.973 14.3352 162.518 14.6082 162.169 14.9756C161.831 15.3327 161.663 15.7789 161.663 16.3144C161.663 16.8394 161.843 17.2384 162.203 17.5114C162.574 17.7844 163.052 18.0049 163.637 18.1729C164.233 18.3304 164.88 18.5142 165.578 18.7242C166.601 19.0287 167.558 19.3804 168.446 19.7794C169.335 20.1784 170.049 20.6772 170.589 21.2757C171.141 21.8742 171.411 22.6144 171.399 23.4964C171.399 24.4624 171.09 25.3077 170.471 26.0322C169.853 26.7462 169.048 27.2921 168.058 27.6701C167.079 28.0482 166.028 28.2161 164.903 28.1741Z" fill="#1E1983"/>
<defs>
<linearGradient id="paint0_linear_966_20546" x1="18" y1="2" x2="18" y2="38" gradientUnits="userSpaceOnUse">
<stop stop-color="#3558EA"/>
<stop offset="1" stop-color="#0000FF"/>
</linearGradient>
<linearGradient id="paint1_linear_966_20546" x1="22.7893" y1="7.22943" x2="6.93291" y2="54.4749" gradientUnits="userSpaceOnUse">
<stop offset="0.215628" stop-color="#1E1983" stop-opacity="0"/>
<stop offset="0.447191" stop-color="#1E1983" stop-opacity="0.19"/>
<stop offset="0.619792" stop-color="#1E1983"/>
</linearGradient>
</defs>
</svg>
