<svg width="65" height="27" viewBox="0 0 65 27" fill="none" xmlns="http://www.w3.org/2000/svg">
<path d="M4.58824 8.28124V25.7527H0.134083V8.28124H4.58824Z" fill="#8C8C8C"/>
<path d="M34.1911 21.6438V25.9253H33.605C32.2492 25.9253 31.1104 25.8045 30.2065 25.5455C29.319 25.2865 28.5818 24.8722 28.0298 24.2852C27.4771 23.6982 27.0749 22.9213 26.8407 21.9718C26.6066 21.005 26.4888 19.7965 26.4888 18.3636V1.46185H30.96V8.28124H34.1911V12.2175H30.96V18.3291C30.96 19.0196 30.9934 19.5893 31.0601 20.021C31.1438 20.4698 31.2949 20.8151 31.529 21.0568C31.7632 21.2985 32.1151 21.4711 32.584 21.5402C32.9856 21.6093 33.5383 21.6438 34.1911 21.6438Z" fill="#8C8C8C"/>
<path d="M59.776 0.115234V25.7527H55.3055V0.115234H59.776Z" fill="#8C8C8C"/>
<path d="M16.9951 7.91869C19.2052 7.91869 20.947 8.60926 22.1858 9.9904C23.4252 11.3715 24.061 13.3397 24.0446 15.8257V25.7354H19.5401V16.4645C19.5401 15.0316 19.2052 13.9094 18.5695 13.1152C17.9161 12.3211 16.9284 11.9067 15.6393 11.9067C14.5509 11.9067 13.596 12.3211 12.8091 13.1498C12.0727 13.9267 11.6874 15.1352 11.6371 16.7753V25.7527H7.19991V8.28124H11.6037V10.7846L11.8549 10.4565C12.4409 9.66238 13.1944 9.04087 14.0649 8.59199C14.9525 8.14312 15.9238 7.91869 16.9951 7.91869Z" fill="#8C8C8C"/>
<path fill-rule="evenodd" clip-rule="evenodd" d="M52.3583 13.4432C52.7769 14.5482 52.9947 15.7221 52.9947 16.9824V18.6225H39.6832L39.7336 18.7779C40.0181 19.7965 40.5538 20.6252 41.3413 21.2122C42.1281 21.8164 43.1661 22.1099 44.4219 22.1099C46.4312 22.1099 48.0389 20.9878 48.7086 20.1591L51.9233 22.6796C50.5165 24.337 48.1723 26.1152 44.3886 26.1152C43.0824 26.1152 41.86 25.8735 40.7552 25.3901C39.6499 24.924 38.6956 24.268 37.9251 23.4565C37.1553 22.6451 36.5352 21.6783 36.1003 20.5734C35.6647 19.4685 35.4469 18.2772 35.4469 17.017C35.4469 15.7567 35.6647 14.5654 36.1336 13.4605C36.5856 12.3556 37.222 11.3888 38.0088 10.5774C38.7957 9.76597 39.7336 9.12719 40.805 8.64379C41.877 8.17766 43.032 7.93595 44.2545 7.93595C45.5436 7.93595 46.7327 8.16038 47.8041 8.62652C48.8761 9.09266 49.797 9.73144 50.5668 10.5601C51.3203 11.3888 51.9233 12.3556 52.3583 13.4432ZM44.2041 11.8549C41.1398 11.8722 39.7166 14.0993 39.7166 15.3769L48.7086 15.3596C48.7086 14.082 47.2684 11.8549 44.2041 11.8549Z" fill="#8C8C8C"/>
<path fill-rule="evenodd" clip-rule="evenodd" d="M63.979 24.1126C63.8953 24.1989 63.7946 24.2507 63.6605 24.268L64.1465 25.0966H63.7782L63.3092 24.3025H63.0581V25.0966H62.7062V23.1458H63.4433C63.6605 23.1458 63.8449 23.1976 63.9457 23.3011C64.0627 23.4048 64.1131 23.5429 64.1131 23.7328C64.1131 23.9054 64.0627 24.0263 63.979 24.1126ZM63.4767 23.9917C63.5271 23.9917 63.5768 23.9745 63.6271 23.9572C63.6605 23.9399 63.6945 23.9054 63.7279 23.8709C63.7377 23.8505 63.7475 23.8241 63.7534 23.7917C63.7579 23.7692 63.7612 23.7438 63.7612 23.7155C63.7612 23.6827 63.7573 23.6537 63.7514 23.6287C63.7455 23.6011 63.7364 23.5782 63.7279 23.5601C63.7108 23.5256 63.6775 23.4911 63.6271 23.4738C63.5768 23.4565 63.5271 23.4393 63.4767 23.4393H63.0581V23.9917H63.4767Z" fill="#8C8C8C"/>
<path fill-rule="evenodd" clip-rule="evenodd" d="M64.5147 22.9386C64.6651 23.094 64.7829 23.2666 64.8666 23.4738C64.9503 23.681 65 23.9054 65 24.1298C65 24.3543 64.9503 24.5787 64.8666 24.7859C64.7829 24.9931 64.6651 25.1657 64.5147 25.3211C64.3643 25.4765 64.1968 25.5973 63.9954 25.6836C63.8541 25.7444 63.7128 25.7881 63.5598 25.8086C63.495 25.8172 63.4289 25.8218 63.3596 25.8218C63.1418 25.8218 62.924 25.7699 62.7232 25.6836C62.5224 25.5973 62.355 25.4765 62.2039 25.3211C62.0535 25.1657 61.9364 24.9931 61.8527 24.7859C61.7689 24.5787 61.7186 24.3715 61.7186 24.1298C61.7186 23.9054 61.7689 23.681 61.8527 23.4738C61.9364 23.2666 62.0535 23.094 62.2039 22.9386C62.355 22.7832 62.5224 22.6624 62.7232 22.5761C62.8423 22.5249 62.9613 22.4859 63.0875 22.4626C63.1739 22.4465 63.2641 22.4379 63.3596 22.4379C63.5768 22.4379 63.7946 22.4897 63.9954 22.5761C64.117 22.6283 64.2262 22.6931 64.327 22.7705C64.393 22.8212 64.4552 22.8772 64.5147 22.9386ZM64.3139 25.1312C64.431 25.0103 64.5317 24.8549 64.5984 24.6823C64.6651 24.5096 64.7155 24.337 64.6991 24.1298C64.6991 23.9227 64.6651 23.75 64.5984 23.5774C64.5317 23.4048 64.431 23.2494 64.3139 23.1285C64.1968 23.0077 64.0457 22.9041 63.8783 22.835C63.7108 22.766 63.5271 22.7314 63.3426 22.7314C63.2458 22.7314 63.1569 22.7394 63.0725 22.7554C62.9809 22.7727 62.8939 22.7992 62.8069 22.835C62.6395 22.9041 62.4884 23.0077 62.3713 23.1285C62.2542 23.2494 62.1535 23.4048 62.0868 23.5774C62.0201 23.75 61.9861 23.9399 61.9861 24.1298C61.9861 24.337 62.0201 24.5096 62.0868 24.6823C62.1535 24.8549 62.2542 25.0103 62.3713 25.1312C62.4884 25.252 62.6395 25.3556 62.8069 25.4247C62.9744 25.4937 63.1582 25.5282 63.3426 25.5282C63.4342 25.5282 63.5192 25.521 63.6003 25.5066C63.6965 25.4895 63.7874 25.4622 63.8783 25.4247C64.0457 25.3556 64.1968 25.252 64.3139 25.1312Z" fill="#8C8C8C"/>
<path d="M0 0.477791H4.70532V5.32905H0V0.477791Z" fill="#8C8C8C"/>
</svg>
