<svg width="200" height="48" viewBox="0 0 200 48" fill="none" xmlns="http://www.w3.org/2000/svg">
<path d="M51.7638 24.1177C51.7638 28.9707 47.7917 32.9412 42.8946 32.9412C36.474 32.9412 33.2093 28.5294 29.9991 24.1177C26.7888 19.7059 23.524 15.2942 17.1034 15.2942C12.2064 15.2942 8.23438 19.2648 8.23438 24.1177" stroke="white" stroke-width="4" stroke-miterlimit="10"/>
<path d="M51.7638 24.1177C51.7638 19.2648 47.7917 15.2942 42.8946 15.2942C36.4741 15.2942 33.2094 19.7059 29.999 24.1177C26.7888 28.5295 23.5241 32.9412 17.1034 32.9412C12.2064 32.9412 8.23438 28.9707 8.23438 24.1177" stroke="white" stroke-width="4" stroke-miterlimit="10"/>
<path d="M68.8633 35.2446V12.467H71.8487V32.2736H81.1777V35.2446H68.8633ZM84.1745 17.2206V14.0516H87.16V17.2206H84.1745ZM84.1745 35.2446V18.8051H87.16V35.2446H84.1745ZM124.51 17.2206V14.0516H127.495V17.2206H124.51ZM124.51 35.2446V18.8051H127.495V35.2446H124.51ZM103.917 24.7966C103.824 24.1529 103.684 23.4597 103.45 22.7664C103.217 22.0732 102.844 21.4295 102.424 20.8353C101.958 20.2411 101.398 19.7459 100.652 19.3994C99.9048 19.0527 99.0186 18.8546 97.9458 18.8546C96.5468 18.8546 95.3802 19.1518 94.401 19.7955C93.9347 20.0926 93.5613 20.4391 93.1879 20.8353V18.8546H90.2025V35.2941H93.1879V27.1239H93.2344C93.2344 26.1336 93.3282 25.3413 93.5613 24.648C93.748 23.9548 94.0277 23.4102 94.401 23.014C94.7744 22.6179 95.1935 22.3208 95.6606 22.1227C96.1269 21.9247 96.6397 21.8256 97.1998 21.8256C98.0395 21.8256 98.6925 22.0237 99.2053 22.3703C99.7189 22.717 100.091 23.2121 100.418 23.7568C100.698 24.351 100.885 24.9452 100.978 25.6384C101.071 26.3316 101.118 26.9753 101.118 27.6191V35.2941H104.15V26.5297C104.057 26.0345 104.01 25.4403 103.917 24.7966ZM179.305 24.7966C179.213 24.1529 179.072 23.4597 178.839 22.7664C178.606 22.0732 178.233 21.4295 177.813 20.8353C177.346 20.2411 176.787 19.7459 176.04 19.3994C175.294 19.0527 174.408 18.8546 173.335 18.8546C171.936 18.8546 170.77 19.1518 169.79 19.7955C169.324 20.0926 168.95 20.4391 168.577 20.8353V18.8546H165.591V35.2941H168.577V27.1239H168.624C168.624 26.1336 168.717 25.3413 168.95 24.648C169.137 23.9548 169.416 23.4102 169.79 23.014C170.163 22.6179 170.583 22.3208 171.049 22.1227C171.516 21.9247 172.029 21.8256 172.589 21.8256C173.428 21.8256 174.081 22.0237 174.594 22.3703C175.108 22.717 175.481 23.2121 175.761 23.7568C176.04 24.351 176.227 24.9452 176.32 25.6384C176.414 26.3316 176.46 26.9753 176.46 27.6191V35.2941H179.492V26.5297C179.446 26.0345 179.399 25.4403 179.305 24.7966ZM120.301 27.8667H121.794C121.886 25.985 121.7 24.4005 121.14 23.014C120.58 21.6771 119.741 20.5878 118.668 19.8945C117.548 19.1518 116.196 18.8051 114.657 18.8051C113.164 18.8051 111.811 19.1518 110.691 19.845C109.572 20.5382 108.686 21.479 108.033 22.7664C107.38 24.0043 107.099 25.4899 107.099 27.1734C107.099 28.7579 107.426 30.1939 108.079 31.4318C108.732 32.6697 109.619 33.6105 110.785 34.2542C111.951 34.9474 113.303 35.2941 114.843 35.2941C116.335 35.2941 117.689 34.898 118.948 34.1552C120.161 33.4125 121.094 32.3232 121.7 30.9367L118.762 29.9958C118.388 30.7881 117.828 31.4318 117.175 31.828C116.476 32.2736 115.682 32.4717 114.75 32.4717C113.303 32.4717 112.231 32.026 111.485 31.0852C110.878 30.2929 110.505 29.2531 110.412 27.9656H118.948H120.301V27.8667ZM111.344 22.915C112.091 21.9742 113.211 21.479 114.703 21.479C116.056 21.479 117.082 21.9247 117.735 22.7664C118.202 23.3607 118.528 24.2519 118.668 25.3413H110.318C110.505 24.351 110.878 23.5587 111.344 22.915ZM137.675 35.2446C136.089 35.2446 134.736 34.898 133.617 34.1552C132.497 33.462 131.657 32.4717 131.052 31.2337C130.445 29.9959 130.165 28.5599 130.165 27.0248C130.165 25.4403 130.491 24.0043 131.098 22.7664C131.705 21.5286 132.544 20.5382 133.664 19.845C134.783 19.1518 136.135 18.8051 137.675 18.8051C139.354 18.8051 140.8 19.2508 142.013 20.0926C143.226 20.9343 144.019 22.1227 144.392 23.5587L141.407 24.4005C141.127 23.5092 140.614 22.8655 139.961 22.3703C139.308 21.8751 138.515 21.6275 137.628 21.6275C136.649 21.6275 135.856 21.8751 135.203 22.3208C134.55 22.7664 134.083 23.4102 133.804 24.2519C133.477 25.0442 133.337 25.985 133.337 27.0248C133.337 28.6094 133.71 29.9463 134.457 30.9367C135.156 31.927 136.229 32.4221 137.675 32.4221C138.655 32.4221 139.401 32.1745 140.007 31.7289C140.614 31.2833 141.08 30.6396 141.36 29.7977L144.392 30.5405C143.879 32.0756 143.04 33.2144 141.873 34.0562C140.754 34.8485 139.308 35.2446 137.675 35.2446ZM154.992 35.2446C153.452 35.2446 152.1 34.898 150.98 34.2048C149.861 33.5115 148.975 32.5212 148.368 31.2833C147.762 30.0453 147.435 28.6094 147.435 27.0248C147.435 25.3908 147.762 23.9548 148.368 22.717C149.021 21.479 149.861 20.5382 151.027 19.845C152.146 19.1518 153.499 18.8051 154.992 18.8051C156.531 18.8051 157.884 19.1518 159.003 19.845C160.123 20.5382 161.01 21.5286 161.663 22.7664C162.269 24.0043 162.595 25.4403 162.595 27.0248C162.595 28.6589 162.269 30.0949 161.663 31.3328C161.056 32.5707 160.17 33.5115 159.003 34.2542C157.837 34.898 156.531 35.2446 154.992 35.2446ZM154.992 32.4221C156.485 32.4221 157.558 31.927 158.304 30.9367C159.051 29.9463 159.423 28.6589 159.423 27.0248C159.423 25.3908 159.051 24.1034 158.304 23.1131C157.558 22.1227 156.485 21.6275 154.992 21.6275C153.966 21.6275 153.173 21.8751 152.52 22.3208C151.867 22.7664 151.4 23.4102 151.073 24.2024C150.747 24.9947 150.607 25.9355 150.607 26.9753C150.607 28.6094 150.98 29.8968 151.726 30.8872C152.427 31.927 153.546 32.4221 154.992 32.4221ZM189.159 35.2446C187.293 35.2446 185.754 34.8485 184.541 34.0066C183.375 33.1649 182.628 31.9765 182.349 30.491L185.427 29.9958C185.614 30.7881 186.08 31.4318 186.733 31.927C187.434 32.3726 188.273 32.6202 189.299 32.6202C190.232 32.6202 190.978 32.4221 191.492 32.026C192.005 31.6299 192.284 31.1348 192.284 30.4415C192.284 30.0453 192.191 29.7483 192.005 29.5007C191.818 29.2531 191.445 29.0055 190.839 28.8075C190.232 28.6094 189.346 28.3123 188.133 27.9656C186.827 27.6191 185.754 27.2229 184.961 26.8268C184.168 26.4307 183.608 25.9355 183.281 25.4403C182.955 24.8956 182.769 24.2519 182.769 23.5092C182.769 22.5684 183.002 21.7266 183.515 21.0334C184.028 20.3402 184.728 19.7955 185.614 19.3994C186.5 19.0032 187.573 18.8051 188.786 18.8051C189.952 18.8051 191.025 19.0032 191.958 19.3498C192.891 19.7459 193.638 20.2411 194.197 20.9343C194.757 21.6275 195.13 22.4198 195.223 23.3607L192.145 23.9053C192.051 23.1626 191.678 22.5684 191.118 22.1227C190.512 21.6771 189.766 21.4295 188.832 21.4295C187.946 21.38 187.2 21.5286 186.64 21.8751C186.08 22.2218 185.801 22.6674 185.801 23.2616C185.801 23.6082 185.893 23.9053 186.127 24.1529C186.361 24.4005 186.78 24.648 187.386 24.8461C187.993 25.0442 188.926 25.3413 190.139 25.6384C191.445 25.985 192.471 26.3316 193.218 26.7772C193.964 27.1734 194.524 27.6686 194.85 28.2132C195.177 28.7579 195.363 29.4512 195.363 30.2434C195.363 31.7784 194.803 33.0164 193.684 33.8581C192.658 34.7989 191.118 35.2446 189.159 35.2446Z" fill="white"/>
</svg>
