<svg width="187" height="40" viewBox="0 0 187 40" fill="none" xmlns="http://www.w3.org/2000/svg">
<g clip-path="url(#clip0_966_21340)">
<mask id="mask0_966_21340" style="mask-type:luminance" maskUnits="userSpaceOnUse" x="1" y="5" width="185" height="30">
<path d="M185.45 5H1V35H185.45V5Z" fill="white"/>
</mask>
<g mask="url(#mask0_966_21340)">
<path d="M45.0152 7.30542H40.6641V32.1451H55.4198V28.1375H45.0152V7.30542Z" fill="white"/>
<path d="M60.4122 11.9924C61.7709 11.9924 62.8931 10.8702 62.8931 9.47328C62.8931 8.07634 61.7709 7 60.4122 7C58.9847 7 57.8625 8.0916 57.8625 9.48092C57.8625 10.8702 58.9923 11.9924 60.4122 11.9924ZM58.3511 32.145H62.4961V15.3511H58.3511V32.145Z" fill="white"/>
<path d="M70.9236 32.1451V23.107C70.9236 20.3894 72.4809 18.6184 75.0381 18.6184C77.1831 18.6184 78.5725 19.9772 78.5725 22.8016V32.1528H82.7175V21.8092C82.7175 17.4581 80.5419 14.8474 76.3282 14.8474C74.0534 14.8474 72.0152 15.8321 70.9618 17.5344L70.6183 15.3589H66.7786V32.1528H70.9236V32.1451Z" fill="white"/>
<path d="M94.3053 32.5877C98.687 32.5877 101.748 30.3816 102.458 26.7022H98.6183C98.1374 28.2976 96.6488 29.1831 94.3664 29.1831C91.6107 29.1831 90.0534 27.6869 89.7481 24.7327L102.389 24.6946V23.4427C102.389 18.206 99.1908 14.8396 94.1603 14.8396C89.2366 14.8396 85.8015 18.4732 85.8015 23.748C85.8015 28.9465 89.3053 32.5877 94.3053 32.5877ZM94.1985 18.2442C96.6794 18.2442 98.2748 19.7709 98.2748 22.0839H89.8473C90.2519 19.5724 91.7481 18.2442 94.1985 18.2442Z" fill="white"/>
<path d="M107.779 11.9924C109.137 11.9924 110.259 10.8702 110.259 9.47328C110.259 8.07634 109.137 7 107.779 7C106.351 7 105.237 8.0916 105.237 9.48092C105.237 10.8702 106.343 11.9924 107.779 11.9924ZM105.702 32.145H109.847V15.3511H105.702V32.145Z" fill="white"/>
<path d="M113.153 23.7176C113.153 29.0535 116.481 32.5879 121.58 32.5879C125.962 32.5879 129.229 29.9008 129.733 25.9925H125.55C125.107 27.8321 123.649 28.8474 121.572 28.8474C118.924 28.8474 117.29 26.8779 117.29 23.7176C117.29 20.5573 119.061 18.5497 121.71 18.5497C123.679 18.5497 125.076 19.5344 125.55 21.4428H129.695C129.252 17.397 126.122 14.8474 121.542 14.8474C116.588 14.8474 113.153 18.5192 113.153 23.7176Z" fill="white"/>
<path d="M131.832 23.7176C131.832 28.9543 135.603 32.5573 140.809 32.5573C146.008 32.5573 149.786 28.9619 149.786 23.7176C149.786 18.481 146.015 14.8779 140.809 14.8779C135.611 14.8856 131.832 18.481 131.832 23.7176ZM135.985 23.7176C135.985 20.6566 137.954 18.5879 140.809 18.5879C143.664 18.5879 145.634 20.6642 145.634 23.7176C145.634 26.7711 143.664 28.8474 140.809 28.8474C137.954 28.855 135.985 26.7787 135.985 23.7176Z" fill="white"/>
<path d="M157.206 32.1451V23.107C157.206 20.3894 158.763 18.6184 161.321 18.6184C163.466 18.6184 164.855 19.9772 164.855 22.8016V32.1528H169V21.8092C169 17.4581 166.824 14.8474 162.611 14.8474C160.336 14.8474 158.298 15.8321 157.244 17.5344L156.901 15.3589H153.061V32.1528H157.206V32.1451Z" fill="white"/>
<path d="M185.45 27.0841C185.45 30.481 182.565 32.5955 178.42 32.5955C174.237 32.5955 171.595 30.3436 171.588 27.0612H175.519C175.55 28.5192 176.641 29.4428 178.542 29.4428C180.473 29.4428 181.534 28.6566 181.534 27.4352C181.534 26.5802 181.099 25.9772 179.603 25.6337L176.572 24.9161C173.55 24.2367 172.092 22.8092 172.092 20.1222C172.092 16.8245 174.87 14.8474 178.748 14.8474C182.519 14.8474 185.061 17.0306 185.099 20.2902H181.16C181.137 18.8627 180.176 17.9466 178.58 17.9466C176.954 17.9466 176 18.6947 176 19.9466C176 20.9008 176.756 21.5039 178.176 21.8474L181.206 22.565C183.809 23.1528 185.237 24.3131 185.427 26.5192L185.45 27.0841Z" fill="white"/>
<path d="M24.7173 31.4524C25.8089 30.3608 25.8089 28.5974 24.7173 27.5058L5.7631 8.55161C4.67149 7.46001 2.90813 7.46001 1.81654 8.55161C0.724932 9.64322 0.724932 11.4066 1.81654 12.4982L20.7707 31.4524C21.8623 32.544 23.6257 32.544 24.7173 31.4524Z" fill="white"/>
<path d="M24.2135 17.4599C25.3051 16.3683 25.3051 14.605 24.2135 13.5134L16.5189 5.8187C15.4273 4.7271 13.6639 4.7271 12.5723 5.8187C11.4807 6.91031 11.4807 8.67366 12.5723 9.76527L20.267 17.4599C21.3586 18.5439 23.1219 18.5439 24.2135 17.4599Z" fill="white"/>
<path d="M13.9616 34.1853C15.0532 33.0937 15.0532 31.3303 13.9616 30.2387L6.26691 22.544C5.17531 21.4524 3.41195 21.4524 2.32035 22.544C1.22875 23.6356 1.22875 25.399 2.32035 26.4906L10.015 34.1853C11.1066 35.2769 12.87 35.2769 13.9616 34.1853Z" fill="white"/>
</g>
</g>
<defs>
<clipPath id="clip0_966_21340">
<rect width="185" height="30" fill="white" transform="translate(1 5)"/>
</clipPath>
</defs>
</svg>
