<svg width="99" height="32" viewBox="0 0 99 32" fill="none" xmlns="http://www.w3.org/2000/svg">
<path d="M29.5844 27.9307C27.287 27.9307 25.4547 26.0367 25.4547 23.5952H21.8042C21.8042 28.1379 25.2292 31.6152 29.5844 31.6152C33.9396 31.6152 37.3646 28.1379 37.3646 23.5952H33.7141C33.7282 26.0515 31.8959 27.9307 29.5844 27.9307ZM37.2378 10.4405V7.43671H32.1778C31.3603 7.14077 30.4865 6.96321 29.5985 6.96321C25.2433 6.96321 21.8183 10.4405 21.8183 14.9833C21.8183 19.526 25.2433 23.0033 29.5985 23.0033C33.9537 23.0033 37.3787 19.526 37.3787 14.9833C37.3787 13.4444 36.9841 11.9498 36.1948 10.8253L37.2378 10.4405ZM29.5844 19.3484C27.287 19.3484 25.4547 17.4248 25.4547 14.9537C25.4547 12.4973 27.287 10.6181 29.5844 10.6181C31.91 10.6181 33.7423 12.5121 33.7423 14.9833C33.7564 17.4544 31.9241 19.3484 29.5844 19.3484ZM0 22.5594H3.59411V1.02955H0V22.5594ZM12.7837 6.96321C8.42853 6.96321 5.00356 10.4405 5.00356 14.9833C5.00356 19.526 8.42853 23.0033 12.7837 23.0033C17.139 23.0033 20.5639 19.526 20.5639 14.9833C20.5639 10.4405 17.139 6.96321 12.7837 6.96321ZM12.7837 19.3484C10.4722 19.3484 8.65404 17.4248 8.65404 14.9537C8.65404 12.4973 10.4863 10.6181 12.7837 10.6181C15.1093 10.6181 16.9416 12.5121 16.9416 14.9833C16.9416 17.4544 15.1234 19.3484 12.7837 19.3484ZM38.8022 22.5594H42.3964V7.43671H38.8022V22.5594ZM75.8709 10.6181C77.3931 10.6181 78.6193 11.4467 79.5777 12.6009L82.0725 10.0114C80.663 8.14698 78.4502 6.978 75.9132 6.978C71.5579 6.978 68.133 10.4553 68.133 14.9981C68.133 19.5408 71.5579 23.0181 75.9132 23.0181C78.4361 23.0181 80.663 21.8343 82.0725 19.9847L79.5777 17.3952C78.6475 18.5198 77.379 19.378 75.8427 19.378C73.5312 19.378 71.7694 17.484 71.7694 15.0128C71.7694 12.4973 73.5453 10.6181 75.8709 10.6181ZM98.2389 5.66106C98.2389 5.36511 98.0416 5.24674 97.7597 5.24674H97.3087V6.60807H97.4778V6.07538H97.7597L98.0698 6.60807H98.2671L97.9288 6.04578C98.1261 6.01619 98.2389 5.89781 98.2389 5.66106ZM97.4778 5.89781V5.4243H97.7597C97.9852 5.4243 98.0698 5.51309 98.0698 5.66106C98.0698 5.80903 97.9852 5.89781 97.7597 5.89781H97.4778ZM91.389 6.96321C89.613 6.96321 88.1049 7.67347 87.0337 8.88683V1.04435H83.4396V22.5742H87.0337V14.3322C87.0337 12.1422 88.3586 10.6477 90.5433 10.6477C92.6011 10.6477 93.7146 11.9794 93.7146 14.3322V22.5594H97.3087V13.6515C97.3228 9.46392 94.8139 6.96321 91.389 6.96321ZM59.5494 6.96321C55.2224 6.96321 51.9384 10.4405 51.9384 15.072C51.9384 19.6444 54.9405 23.0033 59.6058 23.0033C62.1851 23.0033 64.4966 21.9971 66.1879 20.1179L63.7778 17.6171C62.5938 18.8009 61.3394 19.6591 59.7044 19.6591C57.7312 19.6591 56.2513 18.4754 55.7439 16.5074H66.949V15.5899C66.9349 10.4109 63.9046 6.96321 59.5494 6.96321ZM55.6452 13.4148C56.1244 11.4023 57.5903 10.2926 59.4648 10.2926C61.3535 10.2926 62.7489 11.3875 63.1999 13.4148H55.6452ZM97.7597 4.62526C97.055 4.62526 96.4912 5.21714 96.4912 5.92741C96.4912 6.66726 97.055 7.25915 97.7597 7.25915C98.4362 7.25915 99 6.66726 99 5.92741C99 5.21714 98.4362 4.62526 97.7597 4.62526ZM97.7597 7.08158C97.1395 7.08158 96.6603 6.57848 96.6603 5.92741C96.6603 5.30593 97.1395 4.80282 97.7597 4.80282C98.3516 4.80282 98.8309 5.30593 98.8309 5.92741C98.8309 6.57848 98.3516 7.08158 97.7597 7.08158ZM40.5782 0.615234C39.2533 0.615234 38.2103 1.71022 38.2103 3.11595C38.2103 4.50688 39.2533 5.58707 40.5782 5.58707C41.9594 5.58707 42.9883 4.49208 42.9883 3.11595C43.0024 1.71022 41.9594 0.615234 40.5782 0.615234ZM49.4859 2.77562H45.8918V7.43671H43.9468V10.7957H45.8918V22.5742H49.4859V10.7957H51.4591V7.43671H49.4859V2.77562Z" fill="#8C8C8C"/>
</svg>
