<svg width="159" height="21" viewBox="0 0 159 21" fill="none" xmlns="http://www.w3.org/2000/svg">
<path fill-rule="evenodd" clip-rule="evenodd" d="M157.981 1.37046C157.981 1.78887 157.811 1.9562 157.471 1.9562L158.066 2.79302H157.726L157.216 1.9562H156.876V2.79302H156.536V0.78468H157.216C157.726 0.78468 157.981 0.952054 157.981 1.37046ZM156.876 1.20309V1.87253H157.216C157.471 1.87253 157.726 1.87253 157.726 1.53779C157.726 1.28675 157.556 1.20309 157.301 1.20309H156.876Z" fill="#8C8C8C"/>
<path fill-rule="evenodd" clip-rule="evenodd" d="M157.215 0.115234C156.196 0.115234 155.431 0.868392 155.431 1.87253C155.431 2.87673 156.281 3.62989 157.215 3.62989C158.15 3.62989 159 2.87673 159 1.87253C159 0.868392 158.15 0.115234 157.215 0.115234ZM157.215 3.29514C156.366 3.29514 155.771 2.70935 155.771 1.87253C155.771 1.03572 156.366 0.449982 157.215 0.449982C157.98 0.449982 158.66 1.03572 158.66 1.87253C158.66 2.70935 158.065 3.29514 157.215 3.29514Z" fill="#8C8C8C"/>
<path d="M56.8516 6.14034C56.8516 9.40396 54.1322 11.9981 50.9029 11.9981H48.6084L56.9366 19.8642H52.2626L40.5351 8.73451H50.9029C52.3476 8.73451 53.5373 7.56295 53.5373 6.14034C53.5373 4.71774 52.3476 3.54622 50.9029 3.54622H37.9856V19.8642H34.3314V0.282608H50.9029C54.2172 0.282608 56.8516 2.96044 56.8516 6.14034Z" fill="#8C8C8C"/>
<path d="M58.0434 20.0316L69.9408 1.37051C70.7907 0.0315728 72.8303 0.0315728 73.5101 1.2868L85.4925 20.1152H81.5834L71.7254 4.80145L67.5614 11.245H75.2947L73.2552 14.4249H65.5218L61.9525 20.0316H58.0434Z" fill="#8C8C8C"/>
<path d="M111.326 0.36627H114.641V16.7679H128.748L126.623 19.9478H111.326V0.36627Z" fill="#8C8C8C"/>
<path d="M93.1409 3.54617H106.823L108.863 0.36627H93.056C87.5321 0.36627 83.9629 4.71774 83.9629 10.1571C83.9629 15.5964 87.6171 19.9478 93.056 19.9478H106.398L108.523 16.7679H93.1409C89.4017 16.7679 87.2772 13.839 87.2772 10.1571C87.1922 6.55875 89.4017 3.54617 93.1409 3.54617Z" fill="#8C8C8C"/>
<path fill-rule="evenodd" clip-rule="evenodd" d="M9.17805 0.36627H23.2851C28.7239 0.36627 32.3781 4.71774 32.2932 10.1571C32.2932 15.5964 28.7239 19.9478 23.2001 19.9478H9.09308C3.65422 19.9478 0 15.5964 0 10.1571C0 4.71774 3.65422 0.36627 9.17805 0.36627ZM9.17805 16.7679H23.2851C26.9393 16.7679 29.1488 13.839 29.1488 10.1571C29.1488 6.47504 27.0243 3.54617 23.2851 3.54617H9.17805C5.52383 3.54617 3.31429 6.47504 3.31429 10.1571C3.31429 13.839 5.43887 16.7679 9.17805 16.7679Z" fill="#8C8C8C"/>
<path d="M138.009 3.54617H151.691L153.73 0.36627H137.924C132.4 0.36627 128.831 4.71774 128.831 10.1571C128.831 15.5964 132.485 19.9478 137.924 19.9478H151.266L153.391 16.7679H138.009C134.864 16.7679 132.825 14.5922 132.315 11.747H149.566L151.606 8.56709H132.315C132.825 5.72193 134.864 3.54617 138.009 3.54617Z" fill="#8C8C8C"/>
</svg>
