<svg width="139" height="26" viewBox="0 0 139 26" fill="none" xmlns="http://www.w3.org/2000/svg">
<g clip-path="url(#clip0_966_21263)">
<path d="M37.3029 20.9919V5.81592H42.9659C43.998 5.81592 44.9079 6.00604 45.6956 6.38629C46.4969 6.75296 47.1215 7.29617 47.5697 8.01595C48.0179 8.72208 48.2419 9.58444 48.2419 10.603C48.2419 11.6079 48.011 12.4703 47.5493 13.19C47.1011 13.8962 46.4832 14.4394 45.6956 14.8197C44.9079 15.1999 43.998 15.3901 42.9659 15.3901H40.0733V20.9919H37.3029ZM40.0733 12.9456H43.0067C43.5091 12.9456 43.9437 12.8506 44.3104 12.6604C44.6771 12.4567 44.9622 12.1783 45.166 11.8253C45.3697 11.4721 45.4715 11.0648 45.4715 10.603C45.4715 10.1277 45.3697 9.72025 45.166 9.38073C44.9622 9.02766 44.6771 8.75604 44.3104 8.56593C43.9437 8.36221 43.5091 8.26035 43.0067 8.26035H40.0733V12.9456Z" fill="#1A2142"/>
<path d="M49.8805 20.9919V5.57147H52.549V20.9919H49.8805Z" fill="#1A2142"/>
<path d="M57.9666 21.2364C57.1925 21.2364 56.5203 21.1074 55.9499 20.8494C55.3795 20.5913 54.9381 20.2246 54.6258 19.7494C54.3134 19.2605 54.1573 18.6969 54.1573 18.0586C54.1573 17.4474 54.2931 16.9043 54.5647 16.4289C54.8363 15.9401 55.2573 15.5326 55.8277 15.2067C56.398 14.8808 57.1178 14.6499 57.9869 14.5141L61.6129 13.9234V15.9604L58.4962 16.49C57.9666 16.5852 57.5728 16.7549 57.3148 16.9993C57.0567 17.2438 56.9277 17.5629 56.9277 17.9567C56.9277 18.337 57.0703 18.6425 57.3554 18.8734C57.6542 19.0907 58.0209 19.1993 58.4555 19.1993C59.0123 19.1993 59.5011 19.0839 59.9222 18.8531C60.3568 18.6086 60.6895 18.2759 60.9203 17.8549C61.1647 17.4339 61.2869 16.9722 61.2869 16.4697V13.6178C61.2869 13.1425 61.0968 12.7487 60.7166 12.4363C60.35 12.1104 59.8611 11.9475 59.2499 11.9475C58.6795 11.9475 58.1703 12.1036 57.7221 12.416C57.2875 12.7148 56.9684 13.1153 56.7647 13.6178L54.5851 12.5585C54.8024 11.9746 55.1418 11.4721 55.6036 11.0511C56.0789 10.6166 56.6357 10.277 57.274 10.0326C57.9123 9.78816 58.6049 9.66595 59.3518 9.66595C60.2616 9.66595 61.0629 9.83572 61.7555 10.1752C62.4481 10.5012 62.9845 10.9629 63.3648 11.5604C63.7586 12.1444 63.9555 12.8302 63.9555 13.6178V20.9919H61.4296V19.0975L62 19.0568C61.7148 19.532 61.3753 19.9327 60.9815 20.2586C60.5876 20.571 60.1394 20.8154 59.6369 20.9919C59.1345 21.1549 58.5777 21.2364 57.9666 21.2364Z" fill="#1A2142"/>
<path d="M66.0145 20.9919V9.91035H68.6831V20.9919H66.0145ZM67.3488 8.66778C66.6119 8.66778 66.0145 8.07039 66.0145 7.33352C66.0145 6.59662 66.6119 5.95703 67.3488 5.95703C68.0857 5.95703 68.6831 6.59662 68.6831 7.33351C68.6831 8.0704 68.0857 8.66778 67.3488 8.66778Z" fill="#1A2142"/>
<path d="M70.7396 20.9919V9.91035H73.2451V12.0901L73.0414 11.703C73.2994 11.0375 73.7205 10.5351 74.3044 10.1956C74.9019 9.84245 75.5945 9.66595 76.3822 9.66595C77.197 9.66595 77.9166 9.84245 78.5414 10.1956C79.1799 10.5487 79.6755 11.0443 80.0288 11.6826C80.3813 12.3073 80.5579 13.0339 80.5579 13.8623V20.9919H77.8899V14.4938C77.8899 14.0049 77.7943 13.5838 77.6046 13.2308C77.4142 12.8777 77.1496 12.6061 76.8101 12.416C76.4843 12.2123 76.097 12.1104 75.6488 12.1104C75.2143 12.1104 74.8272 12.2123 74.4878 12.416C74.1482 12.6061 73.8834 12.8777 73.6933 13.2308C73.5031 13.5838 73.4081 14.0049 73.4081 14.4938V20.9919H70.7396Z" fill="#1A2142"/>
<path d="M81.3884 20.9919L86.8277 5.81592H89.1907L94.6293 20.9919H92.4904L91.2477 17.4271H84.7699L83.5273 20.9919H81.3884ZM85.4016 15.5938H90.6169L87.724 7.26222H88.2945L85.4016 15.5938Z" fill="#1A2142"/>
<path d="M99.892 21.2364C98.8604 21.2364 97.9297 20.9851 97.1015 20.4827C96.2864 19.9802 95.6417 19.2945 95.1661 18.4253C94.6912 17.5561 94.4534 16.5852 94.4534 15.5123C94.4534 14.4123 94.6912 13.4345 95.1661 12.579C95.6417 11.7098 96.2864 11.024 97.1015 10.5215C97.9297 10.019 98.8604 9.76782 99.892 9.76782C100.802 9.76782 101.61 9.96473 102.316 10.3586C103.023 10.7388 103.579 11.2549 103.987 11.9067L103.681 12.3752V5.57147H105.596V20.9919H103.742V18.6493L103.987 18.9753C103.606 19.695 103.049 20.2519 102.316 20.6457C101.596 21.0395 100.788 21.2364 99.892 21.2364ZM100.055 19.403C100.748 19.403 101.366 19.2333 101.908 18.8938C102.452 18.5543 102.88 18.0926 103.192 17.5086C103.518 16.9111 103.681 16.2456 103.681 15.5123C103.681 14.7654 103.518 14.1 103.192 13.5159C102.88 12.9184 102.452 12.4499 101.908 12.1104C101.366 11.7709 100.748 11.6011 100.055 11.6011C99.3758 11.6011 98.7579 11.7777 98.2012 12.1308C97.6583 12.4703 97.23 12.932 96.918 13.5159C96.606 14.0863 96.4493 14.7518 96.4493 15.5123C96.4493 16.2456 96.606 16.9111 96.918 17.5086C97.23 18.0926 97.6583 18.5543 98.2012 18.8938C98.7449 19.2333 99.3628 19.403 100.055 19.403Z" fill="#1A2142"/>
<path d="M107.51 20.9919V10.0122H109.364V12.253L109.098 11.9067C109.371 11.2141 109.805 10.6845 110.402 10.3178C111 9.95112 111.672 9.76782 112.419 9.76782C113.274 9.76782 114.042 10.0055 114.721 10.4808C115.413 10.9561 115.889 11.5808 116.147 12.3548L115.617 12.3752C115.903 11.5197 116.384 10.8746 117.063 10.44C117.743 9.99188 118.497 9.76782 119.325 9.76782C120.085 9.76782 120.771 9.94432 121.382 10.2975C122.007 10.6505 122.502 11.1394 122.869 11.7641C123.235 12.3888 123.419 13.095 123.419 13.8826V20.9919H121.504V14.4938C121.504 13.8826 121.396 13.3666 121.178 12.9456C120.961 12.5246 120.662 12.1987 120.282 11.9678C119.915 11.7234 119.481 11.6011 118.978 11.6011C118.49 11.6011 118.048 11.7234 117.654 11.9678C117.274 12.1987 116.969 12.5314 116.738 12.966C116.521 13.3869 116.412 13.8962 116.412 14.4938V20.9919H114.497V14.4938C114.497 13.8826 114.388 13.3666 114.171 12.9456C113.953 12.5246 113.654 12.1987 113.274 11.9678C112.908 11.7234 112.473 11.6011 111.971 11.6011C111.482 11.6011 111.041 11.7234 110.647 11.9678C110.267 12.1987 109.961 12.5314 109.73 12.966C109.513 13.3869 109.404 13.8962 109.404 14.4938V20.9919H107.51Z" fill="#1A2142"/>
<path d="M125.091 21.1468V10.1671H126.985V21.1468H125.091Z" fill="#1A2142"/>
<path d="M128.906 20.9919V10.0122H130.76V12.1512L130.455 11.9678C130.726 11.2752 131.161 10.7388 131.759 10.3586C132.37 9.96473 133.082 9.76782 133.898 9.76782C134.685 9.76782 135.384 9.94432 135.995 10.2975C136.62 10.6505 137.109 11.1394 137.462 11.7641C137.829 12.3888 138.013 13.095 138.013 13.8826V20.9919H136.098V14.4938C136.098 13.8826 135.989 13.3666 135.771 12.9456C135.554 12.5246 135.242 12.1987 134.834 11.9678C134.441 11.7234 133.986 11.6011 133.469 11.6011C132.953 11.6011 132.492 11.7234 132.085 11.9678C131.691 12.1987 131.378 12.5314 131.147 12.966C130.917 13.3869 130.801 13.8962 130.801 14.4938V20.9919H128.906Z" fill="#1A2142"/>
<path d="M125.981 8.82148C126.648 8.82148 127.189 8.28098 127.189 7.61431C127.189 6.94762 126.648 6.40717 125.981 6.40717C125.315 6.40717 124.775 6.94762 124.775 7.61431C124.775 8.28098 125.315 8.82148 125.981 8.82148Z" fill="#1A2142"/>
<path d="M0 11.3043C0 5.97543 0 3.31097 1.65548 1.65548C3.31097 0 5.97543 0 11.3043 0H14.6957C20.0246 0 22.6891 0 24.3445 1.65548C26 3.31097 26 5.97543 26 11.3043V14.6957C26 20.0246 26 22.6891 24.3445 24.3445C22.6891 26 20.0246 26 14.6957 26H11.3043C5.97543 26 3.31097 26 1.65548 24.3445C0 22.6891 0 20.0246 0 14.6957L0 11.3043Z" fill="url(#paint0_linear_966_21263)"/>
<path d="M20.9098 10.7391C20.9098 13.8607 18.3792 16.3913 15.2576 16.3913C12.136 16.3913 9.60547 13.8607 9.60547 10.7391C9.60547 7.61754 12.136 5.08698 15.2576 5.08698C18.3792 5.08698 20.9098 7.61754 20.9098 10.7391Z" fill="url(#paint1_linear_966_21263)"/>
<path d="M11.3008 18.087C11.3008 19.6478 10.0355 20.913 8.47478 20.913C6.91395 20.913 5.64867 19.6478 5.64867 18.087C5.64867 16.5261 6.91395 15.2609 8.47478 15.2609C10.0355 15.2609 11.3008 16.5261 11.3008 18.087Z" fill="url(#paint2_linear_966_21263)"/>
</g>
<defs>
<linearGradient id="paint0_linear_966_21263" x1="20.4028" y1="22.75" x2="1.39331" y2="0.127294" gradientUnits="userSpaceOnUse">
<stop stop-color="#365CF5"/>
<stop offset="1" stop-color="#946FFF"/>
</linearGradient>
<linearGradient id="paint1_linear_966_21263" x1="15.2576" y1="5.08698" x2="15.2576" y2="24.8696" gradientUnits="userSpaceOnUse">
<stop stop-color="white"/>
<stop offset="1" stop-color="white" stop-opacity="0"/>
</linearGradient>
<linearGradient id="paint2_linear_966_21263" x1="8.47477" y1="6.21741" x2="8.47477" y2="20.913" gradientUnits="userSpaceOnUse">
<stop stop-color="white" stop-opacity="0"/>
<stop offset="1" stop-color="white"/>
</linearGradient>
<clipPath id="clip0_966_21263">
<rect width="138.412" height="26" fill="white"/>
</clipPath>
</defs>
</svg>
