<svg width="201" height="34" viewBox="0 0 201 34" fill="none" xmlns="http://www.w3.org/2000/svg">
<g clip-path="url(#clip0)">
<path d="M42.803 27.8702H46.848V20.4751H51.1293C56.3003 20.4751 59.0109 17.4309 59.0109 13.1635C59.0109 8.89602 56.2308 5.90742 51.1293 5.90742H42.7891L42.803 27.8702ZM46.848 17.2085V9.28523H50.5594C53.5897 9.28523 54.9381 10.8838 54.9381 13.2191C54.9381 15.5543 53.548 17.2085 50.5872 17.2085H46.848ZM66.3087 5.96302H62.4165V27.8702H66.3782L66.3087 5.96302ZM75.205 28.2038C76.1914 28.3017 77.1853 28.1156 78.0694 27.6674C78.9536 27.2191 79.6912 26.5275 80.1952 25.6739H80.3203V27.9258H84.1152V16.8749C84.1152 12.5379 80.501 11.2313 77.3039 11.2313C73.7732 11.2313 71.0626 12.7743 70.2008 15.7629L73.8983 16.2772C74.1684 15.6052 74.6489 15.0388 75.2679 14.6629C75.8868 14.287 76.611 14.1218 77.3317 14.1921C79.1666 14.1921 80.1118 15.1095 80.1118 16.722C80.1118 17.834 78.9164 17.8896 75.9417 18.1954C72.689 18.5429 69.5753 19.4882 69.5753 23.1857C69.6587 26.494 72.0635 28.2038 75.2606 28.2038H75.205ZM76.2336 25.4237C74.5794 25.4237 73.4535 24.687 73.4535 23.2691C73.4535 21.8513 74.8436 21.1562 76.5394 20.9199C77.7874 20.8387 79.0157 20.5668 80.1813 20.1137V22.0459C80.1537 22.5231 80.0299 22.9898 79.8172 23.418C79.6045 23.8461 79.3075 24.2268 78.9439 24.5372C78.5803 24.8475 78.1577 25.0811 77.7015 25.2239C77.2452 25.3667 76.7649 25.4157 76.2892 25.3681L76.2336 25.4237ZM88.0351 27.9397H91.9828V11.4537H88.0907L88.0351 27.9397ZM90.0229 9.17403C90.3204 9.19484 90.6191 9.15482 90.9006 9.05642C91.1822 8.95802 91.4408 8.8033 91.6606 8.6017C91.8804 8.4001 92.0568 8.15583 92.1792 7.8838C92.3015 7.61177 92.3671 7.31768 92.372 7.01946C92.3271 6.4438 92.0667 5.90626 91.6429 5.51417C91.219 5.12208 90.6628 4.9043 90.0854 4.9043C89.508 4.9043 88.9518 5.12208 88.528 5.51417C88.1041 5.90626 87.8437 6.4438 87.7988 7.01946C87.8241 7.59963 88.0781 8.14618 88.5053 8.53953C88.9326 8.93289 89.4982 9.14103 90.0785 9.11843L90.0229 9.17403ZM100.003 18.3066C99.9517 17.813 100.008 17.314 100.17 16.8446C100.331 16.3752 100.593 15.9468 100.937 15.5893C101.282 15.2317 101.7 14.9538 102.163 14.7749C102.626 14.596 103.122 14.5204 103.618 14.5535C104.074 14.5274 104.531 14.6021 104.955 14.7723C105.379 14.9426 105.761 15.2042 106.073 15.5386C106.385 15.8729 106.619 16.2719 106.759 16.707C106.899 17.1422 106.942 17.6029 106.884 18.0564V27.9119H110.832V17.417C110.832 13.4832 108.552 11.2313 105.091 11.2313C104.049 11.1517 103.007 11.3979 102.111 11.9357C101.214 12.4736 100.507 13.2766 100.087 14.2338H99.8922V11.4537H96.1113V27.8702H100.059L100.003 18.3066ZM115.767 27.9258L118.157 21.323H127.554L129.945 27.9258H132.086L124.01 5.97692H121.813L113.681 27.8702L115.767 27.9258ZM118.811 19.5855L122.842 8.57631H122.953L126.915 19.4882L118.811 19.5855ZM141.552 28.3289C142.656 28.3612 143.743 28.053 144.665 27.4463C145.588 26.8395 146.301 25.9635 146.709 24.9372H146.945V27.9814H148.85V5.97692H146.89V14.5535H146.709C146.31 13.5322 145.603 12.6601 144.687 12.0575C143.77 11.4549 142.69 11.1517 141.594 11.1896C137.423 11.1896 134.643 14.6091 134.643 19.6689C134.643 24.7287 137.493 28.2177 141.608 28.2177L141.552 28.3289ZM141.788 26.5913C138.452 26.5913 136.617 23.6166 136.617 19.794C136.617 15.9714 138.424 13.0801 141.788 13.0801C145.152 13.0801 146.918 15.8602 146.918 19.794C146.918 23.7278 145.097 26.4801 141.83 26.4801L141.788 26.5913ZM154.382 27.9814H156.314V17.3336C156.277 16.768 156.359 16.201 156.553 15.6685C156.747 15.1361 157.05 14.6498 157.442 14.2406C157.834 13.8315 158.307 13.5083 158.831 13.2918C159.355 13.0752 159.918 12.97 160.484 12.9828C160.978 12.9505 161.472 13.0256 161.933 13.2028C162.395 13.38 162.812 13.6552 163.157 14.0092C163.502 14.3633 163.766 14.7879 163.931 15.2539C164.096 15.7198 164.158 16.2159 164.112 16.7081V27.8285H166.045V17.0556C166 16.5147 166.072 15.9705 166.256 15.4599C166.44 14.9493 166.732 14.4844 167.112 14.0966C167.491 13.7089 167.95 13.4075 168.457 13.2129C168.964 13.0183 169.506 12.9351 170.048 12.9689C170.559 12.9317 171.073 13.0088 171.551 13.1943C172.029 13.3799 172.46 13.6693 172.812 14.0418C173.165 14.4143 173.43 14.8604 173.589 15.348C173.748 15.8355 173.797 16.3523 173.732 16.861V27.8702H175.678V16.8749C175.678 13.1913 173.745 11.2452 170.632 11.2452C169.598 11.1734 168.567 11.4217 167.679 11.9564C166.791 12.4911 166.089 13.2863 165.669 14.2338H165.53C165.152 13.3639 164.534 12.6199 163.747 12.0889C162.961 11.5579 162.04 11.2619 161.092 11.2356C160.144 11.2094 159.208 11.4539 158.394 11.9406C157.579 12.4273 156.921 13.136 156.495 13.9836H156.314V11.4537H154.424L154.382 27.9814ZM180.793 27.9814H182.753V11.4537H180.793V27.9814ZM181.78 8.72921C181.968 8.73864 182.156 8.70966 182.333 8.64404C182.51 8.57842 182.672 8.47752 182.808 8.34749C182.945 8.21746 183.053 8.06102 183.127 7.88767C183.202 7.71433 183.24 7.52771 183.239 7.33917C183.239 6.95207 183.086 6.58083 182.812 6.30711C182.538 6.03339 182.167 5.87962 181.78 5.87962C181.393 5.87962 181.022 6.03339 180.748 6.30711C180.474 6.58083 180.32 6.95207 180.32 7.33917C180.334 7.5232 180.385 7.70261 180.469 7.86692C180.553 8.03124 180.669 8.17718 180.81 8.29622C180.951 8.41526 181.114 8.50503 181.29 8.56027C181.466 8.61552 181.652 8.63515 181.835 8.61801L181.78 8.72921ZM189.828 17.7089C189.788 17.0966 189.878 16.4828 190.092 15.9078C190.306 15.3327 190.64 14.8094 191.07 14.3723C191.501 13.9352 192.019 13.594 192.591 13.3713C193.162 13.1486 193.775 13.0494 194.388 13.0801C194.96 13.0559 195.53 13.1543 196.061 13.3687C196.592 13.5831 197.071 13.9086 197.466 14.3232C197.861 14.7379 198.163 15.2321 198.351 15.7729C198.539 16.3137 198.61 16.8885 198.558 17.4587V27.9814H200.504V17.2363C200.504 13.3442 198.196 11.2313 194.819 11.2313C193.813 11.1534 192.807 11.3762 191.929 11.8712C191.05 12.3661 190.338 13.1111 189.884 14.0114H189.703V11.4537H187.813V27.8702H189.759L189.828 17.7089Z" fill="#262D3F"/>
<path d="M36.9946 14.915L29.8219 2.86329C29.4574 2.22637 28.9314 1.6969 28.2968 1.32836C27.6622 0.959817 26.9416 0.765254 26.2078 0.764318H11.9459C11.205 0.757869 10.4758 0.94893 9.83324 1.31784C9.1907 1.68676 8.65804 2.2202 8.29008 2.86329L1.15914 14.915C0.811188 15.5549 0.628906 16.2717 0.628906 17.0001C0.628906 17.7284 0.811188 18.4452 1.15914 19.0851L8.29008 31.1369C8.65804 31.7799 9.1907 32.3134 9.83324 32.6823C10.4758 33.0512 11.205 33.2423 11.9459 33.2358H26.2078C26.9403 33.2363 27.6599 33.0438 28.2944 32.6778C28.9288 32.3118 29.4557 31.7851 29.8219 31.1508L36.9529 19.099C37.3084 18.4605 37.4985 17.7431 37.5058 17.0123C37.5131 16.2815 37.3373 15.5605 36.9946 14.915V14.915ZM34.2145 17.5283L27.0418 29.58C26.9459 29.7539 26.8016 29.8964 26.6265 29.9901C26.4514 30.0838 26.2528 30.1249 26.0549 30.1082H11.9459C11.7496 30.1139 11.5553 30.0681 11.3821 29.9754C11.209 29.8828 11.0631 29.7465 10.959 29.58L3.84193 17.5283C3.75273 17.3515 3.70627 17.1563 3.70627 16.9584C3.70627 16.7604 3.75273 16.5652 3.84193 16.3884L10.9729 4.35064C11.0688 4.1767 11.2131 4.03426 11.3882 3.94053C11.5633 3.84679 11.7619 3.80577 11.9598 3.82242H26.2078C26.4041 3.81676 26.5984 3.86253 26.7715 3.95519C26.9447 4.04785 27.0906 4.18418 27.1947 4.35064L34.3257 16.4024C34.4194 16.5795 34.4601 16.78 34.4428 16.9796C34.4256 17.1793 34.3511 17.3698 34.2284 17.5283H34.2145Z" fill="#2F80ED"/>
<path d="M25.5655 9.42429H22.702C21.5821 9.41671 20.504 9.84969 19.7005 10.6298C18.8969 11.41 18.4323 12.4748 18.4068 13.5944V16.6386H15.307C14.187 16.6311 13.109 17.064 12.3054 17.8442C11.5019 18.6243 11.0372 19.6891 11.0117 20.8088V23.5889C11.0191 24.18 11.26 24.7442 11.6819 25.1583C12.1038 25.5724 12.6724 25.8028 13.2636 25.7991H16.0437C17.1636 25.8066 18.2417 25.3736 19.0452 24.5935C19.8488 23.8134 20.3134 22.7486 20.3389 21.6289V18.6403H23.4526C24.5726 18.6479 25.6506 18.2149 26.4542 17.4348C27.2577 16.6546 27.7224 15.5898 27.7479 14.4702V11.6901C27.7534 11.398 27.7013 11.1077 27.5947 10.8357C27.488 10.5638 27.3287 10.3155 27.1261 10.1051C26.9234 9.89468 26.6813 9.72626 26.4135 9.60944C26.1458 9.49263 25.8576 9.42972 25.5655 9.42429V9.42429ZM18.4068 21.6567C18.4031 21.9543 18.3409 22.2482 18.2237 22.5217C18.1065 22.7952 17.9365 23.0429 17.7235 23.2508C17.5105 23.4586 17.2587 23.6224 16.9824 23.7329C16.7061 23.8434 16.4107 23.8984 16.1132 23.8947H13.3331C13.2691 23.8948 13.2075 23.8703 13.1609 23.8264C13.1144 23.7824 13.0864 23.7223 13.0829 23.6584V20.8783C13.0865 20.5807 13.1487 20.2868 13.266 20.0133C13.3832 19.7398 13.5531 19.492 13.7661 19.2842C13.9791 19.0764 14.2309 18.9126 14.5072 18.8021C14.7836 18.6916 15.0789 18.6366 15.3765 18.6403H18.4763L18.4068 21.6567ZM25.8157 14.4007C25.8084 15.0029 25.5631 15.5777 25.1333 15.9996C24.7036 16.4215 24.1244 16.6563 23.5221 16.6525H20.4084V13.6083C20.4102 13.3096 20.4711 13.0142 20.5875 12.7391C20.704 12.464 20.8736 12.2146 21.0868 12.0053C21.3 11.796 21.5524 11.6309 21.8296 11.5196C22.1068 11.4082 22.4033 11.3528 22.702 11.3565H25.5655C25.6319 11.3565 25.6955 11.3828 25.7424 11.4297C25.7894 11.4767 25.8157 11.5403 25.8157 11.6067V14.4007Z" fill="#2F80ED" stroke="#2F80ED" stroke-width="0.5"/>
</g>
<defs>
<clipPath id="clip0">
<rect width="200" height="32.4715" fill="white" transform="translate(0.628906 0.764282)"/>
</clipPath>
</defs>
</svg>
