<svg width="139" height="26" viewBox="0 0 139 26" fill="none" xmlns="http://www.w3.org/2000/svg">
<g clip-path="url(#clip0_3031_41)">
<path d="M37.7617 20.9919V5.81592H43.4247C44.4568 5.81592 45.3667 6.00604 46.1544 6.38629C46.9556 6.75296 47.5803 7.29617 48.0284 8.01595C48.4766 8.72208 48.7007 9.58444 48.7007 10.603C48.7007 11.6079 48.4698 12.4703 48.0081 13.19C47.5599 13.8962 46.942 14.4394 46.1544 14.8197C45.3667 15.1999 44.4568 15.3901 43.4247 15.3901H40.5321V20.9919H37.7617ZM40.5321 12.9456H43.4654C43.9679 12.9456 44.4025 12.8506 44.7692 12.6604C45.1359 12.4567 45.421 12.1783 45.6247 11.8253C45.8284 11.4721 45.9303 11.0648 45.9303 10.603C45.9303 10.1277 45.8284 9.72025 45.6247 9.38073C45.421 9.02766 45.1359 8.75604 44.7692 8.56593C44.4025 8.36221 43.9679 8.26035 43.4654 8.26035H40.5321V12.9456Z" fill="white"/>
<path d="M50.3391 20.9919V5.57147H53.0076V20.9919H50.3391Z" fill="white"/>
<path d="M58.4253 21.2364C57.6512 21.2364 56.979 21.1074 56.4086 20.8494C55.8382 20.5913 55.3968 20.2246 55.0845 19.7494C54.7721 19.2605 54.616 18.6969 54.616 18.0586C54.616 17.4474 54.7518 16.9043 55.0234 16.4289C55.295 15.9401 55.716 15.5326 56.2864 15.2067C56.8567 14.8808 57.5765 14.6499 58.4456 14.5141L62.0716 13.9234V15.9604L58.9549 16.49C58.4253 16.5852 58.0315 16.7549 57.7734 16.9993C57.5154 17.2438 57.3863 17.5629 57.3863 17.9567C57.3863 18.337 57.529 18.6425 57.8141 18.8734C58.1129 19.0907 58.4796 19.1993 58.9142 19.1993C59.4709 19.1993 59.9598 19.0839 60.3809 18.8531C60.8154 18.6086 61.1482 18.2759 61.379 17.8549C61.6234 17.4339 61.7456 16.9722 61.7456 16.4697V13.6178C61.7456 13.1425 61.5555 12.7487 61.1753 12.4363C60.8086 12.1104 60.3198 11.9475 59.7086 11.9475C59.1382 11.9475 58.629 12.1036 58.1808 12.416C57.7462 12.7148 57.4271 13.1153 57.2234 13.6178L55.0437 12.5585C55.2611 11.9746 55.6005 11.4721 56.0623 11.0511C56.5376 10.6166 57.0944 10.277 57.7327 10.0326C58.371 9.78816 59.0636 9.66595 59.8105 9.66595C60.7203 9.66595 61.5216 9.83572 62.2142 10.1752C62.9068 10.5012 63.4432 10.9629 63.8235 11.5604C64.2173 12.1444 64.4142 12.8302 64.4142 13.6178V20.9919H61.8882V19.0975L62.4586 19.0568C62.1735 19.532 61.834 19.9327 61.4401 20.2586C61.0463 20.571 60.5981 20.8154 60.0956 20.9919C59.5932 21.1549 59.0363 21.2364 58.4253 21.2364Z" fill="white"/>
<path d="M66.4734 20.9919V9.91035H69.142V20.9919H66.4734ZM67.8077 8.66778C67.0708 8.66778 66.4734 8.07039 66.4734 7.33352C66.4734 6.59662 67.0708 5.95703 67.8077 5.95703C68.5446 5.95703 69.142 6.59662 69.142 7.33351C69.142 8.0704 68.5446 8.66778 67.8077 8.66778Z" fill="white"/>
<path d="M71.1982 20.9919V9.91035H73.7038V12.0901L73.5001 11.703C73.7581 11.0375 74.1791 10.5351 74.7631 10.1956C75.3606 9.84245 76.0532 9.66595 76.8409 9.66595C77.6557 9.66595 78.3753 9.84245 79.0001 10.1956C79.6386 10.5487 80.1341 11.0443 80.4874 11.6826C80.84 12.3073 81.0166 13.0339 81.0166 13.8623V20.9919H78.3486V14.4938C78.3486 14.0049 78.253 13.5838 78.0633 13.2308C77.8729 12.8777 77.6083 12.6061 77.2688 12.416C76.943 12.2123 76.5557 12.1104 76.1075 12.1104C75.673 12.1104 75.2859 12.2123 74.9464 12.416C74.6069 12.6061 74.3421 12.8777 74.152 13.2308C73.9618 13.5838 73.8668 14.0049 73.8668 14.4938V20.9919H71.1982Z" fill="white"/>
<path d="M81.8472 20.9919L87.2865 5.81592H89.6495L95.0881 20.9919H92.9492L91.7065 17.4271H85.2287L83.986 20.9919H81.8472ZM85.8603 15.5938H91.0756L88.1828 7.26222H88.7532L85.8603 15.5938Z" fill="white"/>
<path d="M100.351 21.2364C99.3191 21.2364 98.3885 20.9851 97.5603 20.4827C96.7451 19.9802 96.1005 19.2944 95.6248 18.4253C95.1499 17.5561 94.9121 16.5852 94.9121 15.5123C94.9121 14.4123 95.1499 13.4345 95.6248 12.579C96.1005 11.7098 96.7451 11.024 97.5603 10.5215C98.3885 10.019 99.3191 9.76782 100.351 9.76782C101.261 9.76782 102.069 9.96473 102.775 10.3586C103.481 10.7388 104.038 11.2549 104.446 11.9067L104.14 12.3752V5.57147H106.055V20.9919H104.201V18.6493L104.446 18.9753C104.065 19.695 103.508 20.2519 102.775 20.6457C102.055 21.0395 101.247 21.2364 100.351 21.2364ZM100.514 19.403C101.206 19.403 101.824 19.2333 102.367 18.8938C102.911 18.5543 103.338 18.0926 103.651 17.5086C103.977 16.9111 104.14 16.2456 104.14 15.5123C104.14 14.7654 103.977 14.1 103.651 13.5159C103.338 12.9184 102.911 12.4499 102.367 12.1104C101.824 11.7709 101.206 11.6011 100.514 11.6011C99.8345 11.6011 99.2166 11.7777 98.6599 12.1308C98.117 12.4703 97.6888 12.932 97.3768 13.5159C97.0648 14.0863 96.908 14.7518 96.908 15.5123C96.908 16.2456 97.0648 16.9111 97.3768 17.5086C97.6888 18.0926 98.117 18.5543 98.6599 18.8938C99.2036 19.2333 99.8215 19.403 100.514 19.403Z" fill="white"/>
<path d="M107.969 20.9919V10.0122H109.822V12.253L109.557 11.9067C109.829 11.2141 110.264 10.6845 110.861 10.3178C111.459 9.95112 112.131 9.76782 112.877 9.76782C113.733 9.76782 114.501 10.0055 115.18 10.4808C115.872 10.9561 116.348 11.5808 116.605 12.3548L116.076 12.3752C116.361 11.5197 116.843 10.8746 117.522 10.44C118.201 9.99188 118.955 9.76782 119.783 9.76782C120.544 9.76782 121.23 9.94432 121.841 10.2975C122.465 10.6505 122.961 11.1394 123.328 11.7641C123.694 12.3888 123.878 13.095 123.878 13.8826V20.9919H121.963V14.4938C121.963 13.8826 121.854 13.3666 121.637 12.9456C121.42 12.5246 121.121 12.1987 120.741 11.9678C120.374 11.7234 119.939 11.6011 119.437 11.6011C118.948 11.6011 118.506 11.7234 118.113 11.9678C117.733 12.1987 117.427 12.5314 117.196 12.966C116.979 13.3869 116.871 13.8962 116.871 14.4938V20.9919H114.956V14.4938C114.956 13.8826 114.847 13.3666 114.629 12.9456C114.412 12.5246 114.113 12.1987 113.733 11.9678C113.367 11.7234 112.932 11.6011 112.429 11.6011C111.941 11.6011 111.499 11.7234 111.106 11.9678C110.726 12.1987 110.42 12.5314 110.189 12.966C109.972 13.3869 109.863 13.8962 109.863 14.4938V20.9919H107.969Z" fill="white"/>
<path d="M125.55 21.1468V10.1671H127.444V21.1468H125.55Z" fill="white"/>
<path d="M129.365 20.9919V10.0122H131.219V12.1512L130.914 11.9678C131.185 11.2752 131.62 10.7388 132.218 10.3586C132.829 9.96473 133.541 9.76782 134.356 9.76782C135.144 9.76782 135.843 9.94432 136.454 10.2975C137.079 10.6505 137.568 11.1394 137.921 11.7641C138.288 12.3888 138.471 13.095 138.471 13.8826V20.9919H136.557V14.4938C136.557 13.8826 136.448 13.3666 136.23 12.9456C136.013 12.5246 135.701 12.1987 135.293 11.9678C134.899 11.7234 134.444 11.6011 133.928 11.6011C133.412 11.6011 132.951 11.7234 132.543 11.9678C132.15 12.1987 131.837 12.5314 131.606 12.966C131.376 13.3869 131.26 13.8962 131.26 14.4938V20.9919H129.365Z" fill="white"/>
<path d="M126.44 8.82148C127.107 8.82148 127.648 8.28099 127.648 7.61431C127.648 6.94762 127.107 6.40717 126.44 6.40717C125.773 6.40717 125.233 6.94762 125.233 7.61431C125.233 8.28098 125.773 8.82148 126.44 8.82148Z" fill="white"/>
<path d="M0.45874 11.3043C0.45874 5.97543 0.45874 3.31097 2.11422 1.65548C3.76971 0 6.43417 0 11.7631 0H15.1544C20.4833 0 23.1478 0 24.8032 1.65548C26.4587 3.31097 26.4587 5.97543 26.4587 11.3043V14.6957C26.4587 20.0246 26.4587 22.6891 24.8032 24.3445C23.1478 26 20.4833 26 15.1544 26H11.7631C6.43417 26 3.76971 26 2.11422 24.3445C0.45874 22.6891 0.45874 20.0246 0.45874 14.6957L0.45874 11.3043Z" fill="white" fill-opacity="0.21"/>
<path d="M21.3686 10.7391C21.3686 13.8607 18.838 16.3913 15.7164 16.3913C12.5948 16.3913 10.0642 13.8607 10.0642 10.7391C10.0642 7.61754 12.5948 5.08698 15.7164 5.08698C18.838 5.08698 21.3686 7.61754 21.3686 10.7391Z" fill="url(#paint0_linear_3031_41)"/>
<path d="M11.7596 18.087C11.7596 19.6478 10.4943 20.913 8.93353 20.913C7.3727 20.913 6.10742 19.6478 6.10742 18.087C6.10742 16.5261 7.3727 15.2609 8.93353 15.2609C10.4943 15.2609 11.7596 16.5261 11.7596 18.087Z" fill="url(#paint1_linear_3031_41)"/>
</g>
<defs>
<linearGradient id="paint0_linear_3031_41" x1="15.7164" y1="5.08698" x2="15.7164" y2="24.8696" gradientUnits="userSpaceOnUse">
<stop stop-color="white"/>
<stop offset="1" stop-color="white" stop-opacity="0"/>
</linearGradient>
<linearGradient id="paint1_linear_3031_41" x1="8.93353" y1="6.21741" x2="8.93353" y2="20.913" gradientUnits="userSpaceOnUse">
<stop stop-color="white" stop-opacity="0"/>
<stop offset="1" stop-color="white"/>
</linearGradient>
<clipPath id="clip0_3031_41">
<rect width="138.412" height="26" fill="white" transform="translate(0.45874)"/>
</clipPath>
</defs>
</svg>
