<svg width="162" height="40" viewBox="0 0 162 40" fill="none" xmlns="http://www.w3.org/2000/svg">
<path d="M32.4574 14.9978V26.9412C32.4574 29.368 31.2102 31.6227 29.1582 32.9129L19.5555 38.9522C19.3528 39.0812 19.0824 38.9337 19.0824 38.6941V34.4673C19.0824 33.773 19.4265 33.1279 20.004 32.7409L26.1293 28.6553C26.9833 28.0839 27.4994 27.1255 27.4994 26.0995V17.8669C27.4994 17.2095 27.8496 16.6013 28.4209 16.2695L31.5358 14.4755C31.9474 14.2421 32.4574 14.537 32.4574 15.01V14.9978Z" fill="#625DF5"/>
<path d="M31.714 11.4228L18.1486 19.2561C17.1963 19.8029 16.6127 20.8166 16.6127 21.9164V38.4184C16.6127 38.658 16.3546 38.8055 16.1519 38.6826L3.5818 31.3716C1.36391 30.0814 0 27.716 0 25.148V15.1582C0 12.1478 1.60352 9.3647 4.2146 7.85948L15.6542 1.24882C16.2256 0.91706 16.926 0.91706 17.4974 1.24882L20.3603 2.90149C20.9747 3.25782 20.9747 4.14252 20.3603 4.49886L6.70282 12.3813C5.75054 12.9281 5.16688 13.9418 5.16688 15.0415V24.5397C5.16688 25.6395 5.75054 26.6532 6.70282 27.2L11.2308 29.8111C11.3291 29.8663 11.4458 29.7988 11.4458 29.6882V20.2514C11.4458 18.3346 12.4656 16.5713 14.1245 15.6129L27.2475 8.03765C27.8618 7.68131 28.6237 7.71203 29.2073 8.11138L31.7693 9.86234C32.3283 10.2433 32.2976 11.0788 31.7078 11.4228H31.714Z" fill="#625DF5"/>
<path d="M47.2321 9.71675H51.6131V21.6159C51.6131 22.5925 51.7467 23.4632 52.0139 24.2279C52.2811 24.9834 52.6772 25.6237 53.2024 26.1489C53.7368 26.6741 54.3955 27.0749 55.1787 27.3513C55.9618 27.6185 56.874 27.752 57.9151 27.752C58.947 27.752 59.8545 27.6185 60.6376 27.3513C61.43 27.0749 62.0888 26.6741 62.6139 26.1489C63.1483 25.6237 63.5491 24.9834 63.8163 24.2279C64.0835 23.4632 64.2171 22.5925 64.2171 21.6159V9.71675H68.5981V22.1411C68.5981 23.5599 68.3585 24.8498 67.8794 26.0107C67.4003 27.1716 66.7047 28.1667 65.7926 28.9959C64.8804 29.8251 63.761 30.4654 62.4343 30.9169C61.1167 31.3683 59.6103 31.594 57.9151 31.594C56.2198 31.594 54.7088 31.3683 53.3821 30.9169C52.0645 30.4654 50.9497 29.8251 50.0376 28.9959C49.1255 28.1667 48.4298 27.1716 47.9507 26.0107C47.4716 24.8498 47.2321 23.5599 47.2321 22.1411V9.71675Z" fill="#101828"/>
<path d="M71.6247 9.71675H76.0333V31.3176H71.6247V9.71675Z" fill="#101828"/>
<path d="M78.0925 23.2329C78.0925 21.9338 78.3367 20.7637 78.825 19.7225C79.3133 18.6722 79.9859 17.7785 80.8427 17.0414C81.7088 16.2951 82.7315 15.7239 83.9108 15.3277C85.0993 14.9223 86.3846 14.7196 87.7666 14.7196C88.3563 14.7196 88.9367 14.7565 89.5079 14.8302C90.0884 14.9039 90.6412 15.0053 91.1664 15.1342C91.7007 15.2632 92.1983 15.4199 92.6589 15.6041C93.1288 15.7792 93.5434 15.9727 93.9028 16.1846V8.39001H97.9935V31.3176H93.9028V29.7836C93.5434 30.0324 93.1196 30.2673 92.6313 30.4884C92.143 30.7096 91.6178 30.903 91.0558 31.0689C90.4938 31.2347 89.9087 31.3637 89.3006 31.4558C88.7018 31.5572 88.1075 31.6079 87.5178 31.6079C86.1358 31.6079 84.8644 31.4052 83.7035 30.9998C82.5518 30.5944 81.5614 30.0232 80.7321 29.2861C79.9029 28.549 79.2534 27.6691 78.7835 26.6464C78.3228 25.6145 78.0925 24.4767 78.0925 23.2329ZM82.3906 23.2329C82.3906 23.887 82.5196 24.5043 82.7775 25.0848C83.0447 25.6652 83.4225 26.1765 83.9108 26.6188C84.4083 27.0518 85.0026 27.3973 85.6936 27.6553C86.3938 27.9041 87.1769 28.0285 88.043 28.0285C88.5958 28.0285 89.1486 27.9778 89.7014 27.8764C90.2542 27.7659 90.784 27.6138 91.2907 27.4204C91.8067 27.2269 92.2858 26.9919 92.728 26.7155C93.1795 26.4391 93.5711 26.1305 93.9028 25.7896V20.1371C93.4881 19.8055 93.0505 19.5245 92.5898 19.2941C92.1292 19.0638 91.6593 18.8749 91.1802 18.7275C90.7011 18.5801 90.2174 18.4741 89.7291 18.4096C89.2408 18.3359 88.7663 18.2991 88.3056 18.2991C87.3658 18.2991 86.5274 18.4281 85.7903 18.686C85.0625 18.9348 84.4452 19.2803 83.9384 19.7225C83.4409 20.1648 83.0585 20.6853 82.7913 21.2842C82.5242 21.8831 82.3906 22.5326 82.3906 23.2329Z" fill="#101828"/>
<path d="M100.467 23.1085C100.467 22.0029 100.693 20.9479 101.145 19.9437C101.596 18.9302 102.246 18.0365 103.093 17.2626C103.941 16.4886 104.977 15.8713 106.203 15.4107C107.437 14.95 108.838 14.7196 110.404 14.7196C111.961 14.7196 113.362 14.9546 114.605 15.4245C115.858 15.8851 116.918 16.5209 117.784 17.3317C118.659 18.1424 119.327 19.096 119.788 20.1924C120.258 21.2888 120.493 22.4635 120.493 23.7166C120.493 23.8732 120.488 24.0436 120.479 24.2279C120.479 24.403 120.47 24.5642 120.451 24.7116H105.028C105.203 25.1999 105.484 25.6468 105.871 26.0522C106.267 26.4576 106.76 26.8077 107.35 27.1025C107.939 27.3973 108.621 27.6277 109.395 27.7935C110.169 27.9501 111.026 28.0285 111.966 28.0285C112.905 28.0285 113.841 27.9317 114.771 27.7382C115.702 27.5355 116.591 27.2822 117.438 26.9781L118.82 30.1015C118.286 30.3502 117.743 30.5714 117.19 30.7648C116.646 30.9491 116.075 31.1057 115.476 31.2347C114.886 31.3545 114.264 31.4466 113.61 31.5111C112.965 31.5756 112.284 31.6079 111.565 31.6079C109.731 31.6079 108.124 31.3867 106.742 30.9445C105.36 30.5023 104.203 29.8988 103.273 29.1341C102.342 28.3693 101.642 27.471 101.172 26.4391C100.702 25.4072 100.467 24.297 100.467 23.1085ZM116.153 21.5192C116.006 21.0677 115.775 20.6485 115.462 20.2615C115.158 19.8653 114.776 19.5245 114.315 19.2388C113.854 18.944 113.32 18.7137 112.712 18.5478C112.104 18.382 111.436 18.2991 110.708 18.2991C109.934 18.2991 109.229 18.3866 108.594 18.5616C107.958 18.7367 107.4 18.9716 106.921 19.2665C106.442 19.5613 106.041 19.9022 105.719 20.2892C105.406 20.6761 105.175 21.0861 105.028 21.5192H116.153Z" fill="#101828"/>
<path d="M122.151 23.2052C122.151 22.0075 122.368 20.8926 122.801 19.8607C123.243 18.8196 123.883 17.9213 124.722 17.1658C125.569 16.4011 126.601 15.8022 127.817 15.3692C129.043 14.9362 130.439 14.7196 132.005 14.7196C132.687 14.7196 133.373 14.7611 134.064 14.844C134.755 14.9269 135.418 15.0467 136.054 15.2033C136.699 15.3508 137.303 15.5304 137.865 15.7423C138.427 15.945 138.915 16.1708 139.33 16.4195L137.436 19.5014C136.543 19.0868 135.695 18.7828 134.893 18.5893C134.101 18.3958 133.295 18.2991 132.475 18.2991C131.535 18.2991 130.692 18.4234 129.946 18.6722C129.199 18.9118 128.564 19.2527 128.039 19.6949C127.523 20.1279 127.126 20.6439 126.85 21.2428C126.583 21.8324 126.449 22.4774 126.449 23.1776C126.449 23.8778 126.592 24.5273 126.878 25.1262C127.172 25.7159 127.582 26.2272 128.108 26.6603C128.642 27.0841 129.282 27.4204 130.029 27.6691C130.784 27.9087 131.623 28.0285 132.544 28.0285C133.557 28.0285 134.511 27.8856 135.405 27.6C136.308 27.3144 137.146 26.9321 137.92 26.453L139.813 29.5348C139.325 29.8297 138.795 30.1061 138.224 30.3641C137.653 30.6128 137.04 30.8293 136.386 31.0136C135.741 31.1979 135.059 31.3407 134.341 31.442C133.631 31.5526 132.894 31.6079 132.129 31.6079C130.572 31.6079 129.176 31.396 127.942 30.9721C126.707 30.5483 125.661 29.9633 124.805 29.217C123.948 28.4615 123.289 27.5724 122.828 26.5497C122.377 25.527 122.151 24.4122 122.151 23.2052Z" fill="#101828"/>
<path d="M142.467 8.39001H146.558V21.9338L154.186 15.0099H160.447L151.92 22.6386L160.986 31.3176H154.85L148.783 25.4441L146.558 27.4342V31.3176H142.467V8.39001Z" fill="#101828"/>
</svg>
