<svg width="195" height="25" viewBox="0 0 195 25" fill="none" xmlns="http://www.w3.org/2000/svg">
<path d="M25.1895 12.5938C28.4623 17.0104 31.7907 21.4271 38.3365 21.4271C43.329 21.4271 47.3785 17.4521 47.3785 12.5938" stroke="url(#paint0_linear_1728_3055)" stroke-width="6" stroke-miterlimit="10"/>
<path d="M3 12.5938C3 7.7355 7.04945 3.7605 12.042 3.7605C18.5878 3.7605 21.9161 8.17714 25.189 12.5938" stroke="url(#paint1_linear_1728_3055)" stroke-width="6" stroke-miterlimit="10"/>
<path d="M47.3781 12.5938C47.3781 7.7355 43.3285 3.7605 38.336 3.7605C31.7903 3.7605 28.4619 8.17714 25.189 12.5938C21.9161 17.0105 18.5878 21.4271 12.042 21.4271C7.04945 21.4271 3 17.4521 3 12.5938" stroke="url(#paint2_linear_1728_3055)" stroke-width="6" stroke-miterlimit="10"/>
<path d="M65.1294 24.1372V1H68.1764V21.1193H77.6981V24.1372H65.1294ZM80.7569 5.82863V2.60954H83.804V5.82863H80.7569ZM80.7569 24.1372V7.43818H83.804V24.1372H80.7569ZM121.925 5.82863V2.60954H124.972V5.82863H121.925ZM121.925 24.1372V7.43818H124.972V24.1372H121.925ZM100.907 13.5242C100.812 12.8704 100.669 12.1662 100.431 11.462C100.193 10.7579 99.8117 10.104 99.3832 9.50037C98.9072 8.89684 98.3356 8.39383 97.5742 8.0418C96.812 7.68968 95.9076 7.48844 94.8125 7.48844C93.3847 7.48844 92.1939 7.79029 91.1946 8.44418C90.7186 8.74595 90.3375 9.09799 89.9565 9.50037V7.48844H86.9093V24.1875H89.9565V15.8883H90.0039C90.0039 14.8824 90.0996 14.0776 90.3375 13.3733C90.5281 12.6692 90.8135 12.1159 91.1946 11.7135C91.5757 11.3111 92.0034 11.0094 92.4802 10.8081C92.9561 10.607 93.4795 10.5064 94.0512 10.5064C94.9082 10.5064 95.5747 10.7075 96.0981 11.0596C96.6223 11.4118 97.0026 11.9147 97.3362 12.468C97.6217 13.0716 97.8122 13.6752 97.9071 14.3794C98.0028 15.0835 98.0502 15.7374 98.0502 16.3913V24.1875H101.145V15.2847C101.05 14.7817 101.002 14.1781 100.907 13.5242ZM177.853 13.5242C177.758 12.8704 177.615 12.1662 177.377 11.462C177.139 10.7579 176.758 10.104 176.329 9.50037C175.853 8.89684 175.282 8.39383 174.52 8.0418C173.759 7.68968 172.854 7.48844 171.759 7.48844C170.33 7.48844 169.141 7.79029 168.14 8.44418C167.664 8.74595 167.283 9.09799 166.902 9.50037V7.48844H163.855V24.1875H166.902V15.8883H166.951C166.951 14.8824 167.045 14.0776 167.283 13.3733C167.474 12.6692 167.759 12.1159 168.14 11.7135C168.522 11.3111 168.95 11.0094 169.426 10.8081C169.902 10.607 170.425 10.5064 170.997 10.5064C171.854 10.5064 172.521 10.7075 173.044 11.0596C173.568 11.4118 173.949 11.9147 174.235 12.468C174.52 13.0716 174.711 13.6752 174.805 14.3794C174.901 15.0835 174.949 15.7374 174.949 16.3913V24.1875H178.043V15.2847C177.996 14.7817 177.948 14.1781 177.853 13.5242ZM117.629 16.6428H119.153C119.248 14.7314 119.057 13.1218 118.486 11.7135C117.915 10.3555 117.058 9.24895 115.963 8.54472C114.82 7.79029 113.44 7.43818 111.869 7.43818C110.345 7.43818 108.964 7.79029 107.821 8.49445C106.679 9.1986 105.774 10.1543 105.108 11.462C104.441 12.7195 104.155 14.2285 104.155 15.9385C104.155 17.5481 104.489 19.0068 105.155 20.2643C105.822 21.5217 106.726 22.4773 107.917 23.1312C109.107 23.8354 110.487 24.1875 112.058 24.1875C113.582 24.1875 114.963 23.7851 116.249 23.0306C117.486 22.2762 118.439 21.1696 119.057 19.7613L116.058 18.8056C115.677 19.6104 115.106 20.2643 114.439 20.6666C113.725 21.1193 112.915 21.3205 111.964 21.3205C110.487 21.3205 109.392 20.8678 108.631 19.9121C108.012 19.1074 107.631 18.0511 107.536 16.7433H116.249H117.629V16.6428ZM108.488 11.6129C109.25 10.6573 110.393 10.1543 111.916 10.1543C113.297 10.1543 114.344 10.607 115.011 11.462C115.487 12.0657 115.82 12.971 115.963 14.0776H107.44C107.631 13.0716 108.012 12.2668 108.488 11.6129ZM135.363 24.1372C133.744 24.1372 132.363 23.7851 131.221 23.0306C130.077 22.3265 129.22 21.3205 128.602 20.063C127.983 18.8056 127.698 17.3469 127.698 15.7877C127.698 14.1781 128.03 12.7195 128.649 11.462C129.269 10.2046 130.126 9.1986 131.268 8.49445C132.41 7.79029 133.791 7.43818 135.363 7.43818C137.076 7.43818 138.552 7.89083 139.79 8.74595C141.028 9.60099 141.837 10.8081 142.218 12.2668L139.171 13.1218C138.886 12.2165 138.362 11.5627 137.695 11.0596C137.029 10.5566 136.22 10.3051 135.314 10.3051C134.315 10.3051 133.506 10.5566 132.839 11.0094C132.173 11.462 131.697 12.1159 131.411 12.971C131.077 13.7757 130.934 14.7314 130.934 15.7877C130.934 17.3972 131.315 18.7552 132.078 19.7613C132.792 20.7673 133.887 21.2702 135.363 21.2702C136.362 21.2702 137.124 21.0187 137.743 20.566C138.362 20.1134 138.838 19.4595 139.124 18.6044L142.218 19.3589C141.695 20.9181 140.838 22.075 139.647 22.9301C138.505 23.7348 137.029 24.1372 135.363 24.1372ZM153.037 24.1372C151.465 24.1372 150.085 23.7851 148.942 23.081C147.8 22.3767 146.896 21.3708 146.276 20.1134C145.657 18.8559 145.324 17.3972 145.324 15.7877C145.324 14.1279 145.657 12.6692 146.276 11.4118C146.943 10.1543 147.8 9.1986 148.99 8.49445C150.132 7.79029 151.514 7.43818 153.037 7.43818C154.608 7.43818 155.989 7.79029 157.131 8.49445C158.274 9.1986 159.179 10.2046 159.845 11.462C160.464 12.7195 160.797 14.1781 160.797 15.7877C160.797 17.4476 160.464 18.9062 159.845 20.1636C159.226 21.4211 158.322 22.3768 157.131 23.1312C155.941 23.7851 154.608 24.1372 153.037 24.1372ZM153.037 21.2702C154.561 21.2702 155.656 20.7673 156.417 19.7613C157.179 18.7552 157.56 17.4476 157.56 15.7877C157.56 14.1279 157.179 12.8201 156.417 11.8142C155.656 10.8081 154.561 10.3051 153.037 10.3051C151.99 10.3051 151.18 10.5566 150.513 11.0094C149.847 11.462 149.371 12.1159 149.037 12.9207C148.704 13.7255 148.561 14.6811 148.561 15.7374C148.561 17.3972 148.942 18.705 149.704 19.711C150.419 20.7673 151.561 21.2702 153.037 21.2702ZM187.91 24.1372C186.005 24.1372 184.434 23.7348 183.196 22.8797C182.006 22.0247 181.244 20.8175 180.959 19.3086L184.101 18.8056C184.291 19.6104 184.767 20.2643 185.434 20.7673C186.149 21.2199 187.006 21.4714 188.052 21.4714C189.005 21.4714 189.766 21.2702 190.291 20.8678C190.814 20.4654 191.099 19.9625 191.099 19.2583C191.099 18.8559 191.005 18.5541 190.814 18.3026C190.623 18.0511 190.242 17.7996 189.624 17.5984C189.005 17.3972 188.101 17.0954 186.862 16.7433C185.529 16.3913 184.434 15.9889 183.625 15.5865C182.815 15.1841 182.244 14.6811 181.911 14.1781C181.578 13.6248 181.387 12.971 181.387 12.2165C181.387 11.2609 181.625 10.4058 182.149 9.70161C182.673 8.99745 183.387 8.44418 184.291 8.0418C185.196 7.63941 186.291 7.43818 187.529 7.43818C188.719 7.43818 189.814 7.63941 190.767 7.99144C191.719 8.39383 192.481 8.89684 193.052 9.60099C193.623 10.3051 194.004 11.1099 194.099 12.0657L190.957 12.6189C190.861 11.8644 190.48 11.2609 189.91 10.8081C189.29 10.3555 188.529 10.104 187.576 10.104C186.672 10.0537 185.911 10.2046 185.339 10.5566C184.767 10.9088 184.482 11.3614 184.482 11.965C184.482 12.3171 184.577 12.6189 184.815 12.8704C185.053 13.1218 185.482 13.3733 186.1 13.5746C186.719 13.7757 187.672 14.0776 188.909 14.3794C190.242 14.7314 191.29 15.0835 192.052 15.5362C192.814 15.9385 193.385 16.4415 193.718 16.9948C194.052 17.5481 194.242 18.2523 194.242 19.0571C194.242 20.6163 193.671 21.8738 192.528 22.7288C191.481 23.6845 189.91 24.1372 187.91 24.1372Z" fill="white"/>
<defs>
<linearGradient id="paint0_linear_1728_3055" x1="25.1891" y1="17.0242" x2="47.3785" y2="17.0242" gradientUnits="userSpaceOnUse">
<stop stop-color="#003FFF"/>
<stop offset="0.6883" stop-color="#690AFF"/>
</linearGradient>
<linearGradient id="paint1_linear_1728_3055" x1="3" y1="8.17714" x2="25.2061" y2="8.17714" gradientUnits="userSpaceOnUse">
<stop offset="0.2862" stop-color="#E843A1"/>
<stop offset="1" stop-color="#003FFF"/>
</linearGradient>
<linearGradient id="paint2_linear_1728_3055" x1="3" y1="12.5938" x2="47.3954" y2="12.5938" gradientUnits="userSpaceOnUse">
<stop offset="0.16" stop-color="#E843A1"/>
<stop offset="0.84" stop-color="#690AFF"/>
</linearGradient>
</defs>
</svg>
